<svg width="1127" height="980" viewBox="0 0 1127 980" fill="none" xmlns="http://www.w3.org/2000/svg">
<g filter="url(#filter0_d)">
<rect x="9" y="8" width="1107" height="960" rx="10" fill="white"/>
</g>
<path fill-rule="evenodd" clip-rule="evenodd" d="M58.6797 455H82.0703V449.539H67.3984L75.1562 441.359C77.2812 439.031 78.7812 436.992 79.6562 435.242C80.5312 433.492 80.9688 431.773 80.9688 430.086C80.9688 427.008 79.9922 424.625 78.0391 422.938C76.1016 421.25 73.375 420.406 69.8594 420.406C67.5625 420.406 65.5078 420.898 63.6953 421.883C61.8828 422.852 60.4766 424.195 59.4766 425.914C58.4922 427.633 58 429.531 58 431.609H64.7969C64.7969 429.891 65.2344 428.508 66.1094 427.461C67 426.398 68.2109 425.867 69.7422 425.867C71.1641 425.867 72.2578 426.305 73.0234 427.18C73.7891 428.039 74.1719 429.227 74.1719 430.742C74.1719 431.852 73.8047 433.023 73.0703 434.258C72.3516 435.492 71.2344 436.938 69.7188 438.594L58.6797 450.359V455ZM83.6172 457.93H88.6562L101.219 420.875H96.1797L83.6172 457.93ZM113.875 455H120.648V420.828H119.922L105.789 425.891V431.398L113.875 428.891V455ZM151.797 451.719C153.75 449.219 154.727 445.609 154.727 440.891V434.609C154.68 430.031 153.672 426.523 151.703 424.086C149.734 421.633 146.891 420.406 143.172 420.406C139.453 420.406 136.602 421.641 134.617 424.109C132.648 426.578 131.664 430.195 131.664 434.961V441.242C131.711 445.82 132.719 449.336 134.688 451.789C136.656 454.242 139.5 455.469 143.219 455.469C146.984 455.469 149.844 454.219 151.797 451.719ZM146.781 427.836C147.562 429.117 147.953 431.172 147.953 434V442.109C147.922 444.781 147.539 446.766 146.805 448.062C146.07 449.359 144.875 450.008 143.219 450.008C141.547 450.008 140.328 449.336 139.562 447.992C138.812 446.633 138.438 444.562 138.438 441.781V433.484C138.484 430.875 138.883 428.961 139.633 427.742C140.398 426.508 141.578 425.891 143.172 425.891C144.812 425.891 146.016 426.539 146.781 427.836ZM156.695 457.93H161.734L174.297 420.875H169.258L156.695 457.93ZM186.953 455H193.727V420.828H193L178.867 425.891V431.398L186.953 428.891V455ZM214.492 443.961C216.852 443.961 218.914 443.094 220.68 441.359C220.195 446.625 217.008 449.391 211.117 449.656L209.617 449.68V455.328L211.281 455.305C216.469 455.086 220.477 453.352 223.305 450.102C226.133 446.852 227.547 442.383 227.547 436.695V434.188C227.531 431.469 227.039 429.055 226.07 426.945C225.102 424.836 223.742 423.219 221.992 422.094C220.242 420.969 218.242 420.406 215.992 420.406C213.805 420.406 211.836 420.93 210.086 421.977C208.336 423.008 206.969 424.461 205.984 426.336C205.016 428.195 204.531 430.242 204.531 432.477C204.531 435.992 205.438 438.789 207.25 440.867C209.062 442.93 211.477 443.961 214.492 443.961ZM218.969 437.938C218.188 438.5 217.25 438.781 216.156 438.781C214.609 438.781 213.406 438.188 212.547 437C211.703 435.797 211.281 434.266 211.281 432.406C211.281 430.531 211.719 428.977 212.594 427.742C213.469 426.492 214.586 425.867 215.945 425.867C217.414 425.867 218.586 426.5 219.461 427.766C220.336 429.031 220.773 430.812 220.773 433.109V435.898C220.367 436.695 219.766 437.375 218.969 437.938ZM233.266 452.938C233.016 453.188 232.891 453.492 232.891 453.852C232.891 454.211 233.016 454.516 233.266 454.766C233.516 455.016 233.82 455.141 234.18 455.141C234.539 455.141 234.844 455.016 235.094 454.766C235.359 454.516 235.492 454.211 235.492 453.852C235.492 453.492 235.359 453.188 235.094 452.938C234.844 452.672 234.539 452.539 234.18 452.539C233.82 452.539 233.516 452.672 233.266 452.938ZM233.383 430.391C233.133 430.641 233.008 430.945 233.008 431.305C233.008 431.664 233.133 431.969 233.383 432.219C233.633 432.469 233.938 432.594 234.297 432.594C234.656 432.594 234.961 432.469 235.211 432.219C235.477 431.969 235.609 431.664 235.609 431.305C235.609 430.945 235.477 430.641 235.211 430.391C234.961 430.125 234.656 429.992 234.297 429.992C233.938 429.992 233.633 430.125 233.383 430.391ZM274.703 452.609C276.891 450.703 278.18 447.953 278.57 444.359H275.664C275.305 447.25 274.359 449.422 272.828 450.875C271.297 452.312 269.023 453.031 266.008 453.031C262.961 453.031 260.539 451.859 258.742 449.516C256.961 447.172 256.07 444.031 256.07 440.094V435.922C256.07 431.844 256.984 428.648 258.812 426.336C260.656 424.023 263.125 422.867 266.219 422.867C271.797 422.867 274.945 425.766 275.664 431.562H278.57C278.227 428.078 276.992 425.352 274.867 423.383C272.758 421.398 269.875 420.406 266.219 420.406C263.625 420.406 261.328 421.047 259.328 422.328C257.344 423.594 255.82 425.398 254.758 427.742C253.695 430.086 253.164 432.773 253.164 435.805V440.234C253.18 443.219 253.719 445.875 254.781 448.203C255.844 450.516 257.344 452.305 259.281 453.57C261.234 454.836 263.477 455.469 266.008 455.469C269.633 455.469 272.531 454.516 274.703 452.609ZM300.391 451.461C300.469 453.023 300.648 454.203 300.93 455H303.93V454.719C303.414 453.5 303.156 451.664 303.156 449.211V437.211C303.109 434.68 302.266 432.711 300.625 431.305C299 429.883 296.773 429.172 293.945 429.172C291.211 429.172 288.906 429.914 287.031 431.398C285.156 432.867 284.219 434.609 284.219 436.625L287.031 436.648C287.031 435.242 287.672 434.039 288.953 433.039C290.234 432.039 291.852 431.539 293.805 431.539C295.945 431.539 297.57 432.062 298.68 433.109C299.805 434.141 300.367 435.562 300.367 437.375V440.258H295.281C291.609 440.258 288.742 440.977 286.68 442.414C284.633 443.852 283.609 445.805 283.609 448.273C283.609 450.352 284.359 452.07 285.859 453.43C287.375 454.789 289.352 455.469 291.789 455.469C293.492 455.469 295.102 455.125 296.617 454.438C298.148 453.734 299.406 452.742 300.391 451.461ZM297.133 451.625C295.664 452.531 293.992 452.984 292.117 452.984C290.43 452.984 289.055 452.516 287.992 451.578C286.945 450.641 286.422 449.461 286.422 448.039C286.422 446.305 287.211 444.945 288.789 443.961C290.367 442.961 292.555 442.445 295.352 442.414H300.367V447.992C299.695 449.508 298.617 450.719 297.133 451.625ZM310.984 455H313.797V419H310.984V455ZM325.398 453.875C327.148 454.938 329.102 455.469 331.258 455.469C335.18 455.469 338.172 453.977 340.234 450.992L338.477 449.656C337.539 450.859 336.492 451.734 335.336 452.281C334.195 452.828 332.875 453.102 331.375 453.102C328.875 453.102 326.797 452.148 325.141 450.242C323.5 448.32 322.68 445.922 322.68 443.047V442.508H340.773V440.938C340.773 437.297 339.867 434.43 338.055 432.336C336.258 430.227 333.82 429.172 330.742 429.172C328.773 429.172 326.945 429.734 325.258 430.859C323.57 431.969 322.25 433.5 321.297 435.453C320.359 437.406 319.891 439.602 319.891 442.039V443.047C319.891 445.406 320.375 447.539 321.344 449.445C322.312 451.336 323.664 452.812 325.398 453.875ZM325.398 433.883C326.852 432.336 328.633 431.562 330.742 431.562C332.867 431.562 334.586 432.328 335.898 433.859C337.211 435.391 337.906 437.375 337.984 439.812V440.117H322.773C323.086 437.508 323.961 435.43 325.398 433.883ZM349 433.977L348.906 429.641H346.234V455H349.023V437.633C349.664 435.789 350.648 434.328 351.977 433.25C353.32 432.156 354.859 431.609 356.594 431.609C358.672 431.609 360.18 432.164 361.117 433.273C362.07 434.383 362.555 436.07 362.57 438.336V455H365.359V438.359C365.344 435.297 364.672 433 363.344 431.469C362.016 429.938 359.992 429.172 357.273 429.172C355.555 429.172 353.984 429.586 352.562 430.414C351.141 431.227 349.953 432.414 349 433.977ZM374.125 432.688C372.375 435.016 371.5 438.148 371.5 442.086V442.414C371.5 446.414 372.391 449.594 374.172 451.953C375.969 454.297 378.328 455.469 381.25 455.469C384.734 455.469 387.375 454.188 389.172 451.625L389.289 455H391.914V419H389.125V433.227C387.328 430.523 384.719 429.172 381.297 429.172C378.281 429.172 375.891 430.344 374.125 432.688ZM376.281 450.242C374.984 448.367 374.336 445.812 374.336 442.578C374.336 438.969 374.992 436.242 376.305 434.398C377.617 432.539 379.453 431.609 381.812 431.609C385.234 431.609 387.672 433.258 389.125 436.555V448.461C387.672 451.508 385.219 453.031 381.766 453.031C379.406 453.031 377.578 452.102 376.281 450.242ZM414.766 451.461C414.844 453.023 415.023 454.203 415.305 455H418.305V454.719C417.789 453.5 417.531 451.664 417.531 449.211V437.211C417.484 434.68 416.641 432.711 415 431.305C413.375 429.883 411.148 429.172 408.32 429.172C405.586 429.172 403.281 429.914 401.406 431.398C399.531 432.867 398.594 434.609 398.594 436.625L401.406 436.648C401.406 435.242 402.047 434.039 403.328 433.039C404.609 432.039 406.227 431.539 408.18 431.539C410.32 431.539 411.945 432.062 413.055 433.109C414.18 434.141 414.742 435.562 414.742 437.375V440.258H409.656C405.984 440.258 403.117 440.977 401.055 442.414C399.008 443.852 397.984 445.805 397.984 448.273C397.984 450.352 398.734 452.07 400.234 453.43C401.75 454.789 403.727 455.469 406.164 455.469C407.867 455.469 409.477 455.125 410.992 454.438C412.523 453.734 413.781 452.742 414.766 451.461ZM411.508 451.625C410.039 452.531 408.367 452.984 406.492 452.984C404.805 452.984 403.43 452.516 402.367 451.578C401.32 450.641 400.797 449.461 400.797 448.039C400.797 446.305 401.586 444.945 403.164 443.961C404.742 442.961 406.93 442.445 409.727 442.414H414.742V447.992C414.07 449.508 412.992 450.719 411.508 451.625ZM434.852 431.867C435.523 431.867 436.156 431.922 436.75 432.031L436.82 429.477C436.367 429.273 435.75 429.172 434.969 429.172C431.688 429.172 429.305 430.672 427.82 433.672L427.773 429.641H425.031V455H427.82V437.586C428.336 435.727 429.195 434.312 430.398 433.344C431.617 432.359 433.102 431.867 434.852 431.867ZM470.055 450.898V455H471.344V429.641H470.055V447.477C469.648 449.68 468.688 451.352 467.172 452.492C465.656 453.633 463.688 454.203 461.266 454.203C458.984 454.203 457.25 453.516 456.062 452.141C454.875 450.75 454.266 448.711 454.234 446.023V429.641H452.969V445.977C453 449.07 453.703 451.43 455.078 453.055C456.469 454.664 458.547 455.469 461.312 455.469C463.516 455.469 465.336 455.062 466.773 454.25C468.211 453.422 469.305 452.305 470.055 450.898ZM487.117 442.508C492.367 443.617 494.992 445.711 494.992 448.789C494.992 450.289 494.281 451.57 492.859 452.633C491.453 453.68 489.617 454.203 487.352 454.203C484.883 454.203 482.922 453.711 481.469 452.727C480.031 451.727 479.25 450.336 479.125 448.555H477.859C477.859 450.586 478.727 452.25 480.461 453.547C482.211 454.828 484.508 455.469 487.352 455.469C490.008 455.469 492.156 454.859 493.797 453.641C495.438 452.422 496.258 450.812 496.258 448.812C496.258 447.516 495.984 446.422 495.438 445.531C494.891 444.625 494.008 443.844 492.789 443.188C491.57 442.531 489.914 441.961 487.82 441.477C485.727 440.992 484.133 440.492 483.039 439.977C481.945 439.445 481.156 438.859 480.672 438.219C480.188 437.562 479.945 436.664 479.945 435.523C479.945 434.07 480.594 432.859 481.891 431.891C483.188 430.922 484.945 430.438 487.164 430.438C489.477 430.438 491.352 431.008 492.789 432.148C494.227 433.289 494.945 434.711 494.945 436.414H496.234C496.234 434.195 495.406 432.438 493.75 431.141C492.094 429.828 489.898 429.172 487.164 429.172C484.648 429.172 482.602 429.773 481.023 430.977C479.461 432.18 478.68 433.711 478.68 435.57C478.68 437.414 479.297 438.867 480.531 439.93C481.766 440.977 483.961 441.836 487.117 442.508ZM506.734 453.828C508.453 454.922 510.336 455.469 512.383 455.469C516.102 455.469 518.906 454.102 520.797 451.367L519.906 450.734C518.984 451.922 517.922 452.805 516.719 453.383C515.531 453.945 514.086 454.227 512.383 454.227C510.602 454.227 508.945 453.727 507.414 452.727C505.898 451.727 504.703 450.352 503.828 448.602C502.969 446.836 502.539 444.922 502.539 442.859V441.477H521.547V440.141C521.547 436.859 520.648 434.211 518.852 432.195C517.055 430.18 514.742 429.172 511.914 429.172C509.977 429.172 508.188 429.719 506.547 430.812C504.906 431.906 503.617 433.43 502.68 435.383C501.742 437.336 501.273 439.484 501.273 441.828V442.883C501.273 445.227 501.758 447.359 502.727 449.281C503.695 451.203 505.031 452.719 506.734 453.828ZM505.633 433.203C507.352 431.359 509.445 430.438 511.914 430.438C513.492 430.438 514.914 430.852 516.18 431.68C517.461 432.492 518.461 433.641 519.18 435.125C519.914 436.594 520.281 438.188 520.281 439.906V440.211H502.609C502.906 437.367 503.914 435.031 505.633 433.203ZM528.836 432.594C527.133 434.859 526.281 438.016 526.281 442.062V442.391C526.281 446.453 527.133 449.648 528.836 451.977C530.539 454.305 532.859 455.469 535.797 455.469C537.703 455.469 539.406 455.078 540.906 454.297C542.406 453.5 543.586 452.383 544.445 450.945V455H545.711V419H544.445V434.305C543.539 432.602 542.352 431.32 540.883 430.461C539.43 429.602 537.75 429.172 535.844 429.172C532.875 429.172 530.539 430.312 528.836 432.594ZM529.727 451.086C528.305 448.992 527.594 446.148 527.594 442.555C527.594 438.57 528.312 435.555 529.75 433.508C531.203 431.461 533.227 430.438 535.82 430.438C540.117 430.438 542.992 432.57 544.445 436.836V448.719C543.727 450.516 542.625 451.883 541.141 452.82C539.656 453.742 537.867 454.203 535.773 454.203C533.164 454.203 531.148 453.164 529.727 451.086ZM582.062 451.977C583.766 449.648 584.617 446.508 584.617 442.555V442.156C584.617 438.047 583.766 434.859 582.062 432.594C580.359 430.312 578.023 429.172 575.055 429.172C573.133 429.172 571.438 429.602 569.969 430.461C568.516 431.32 567.344 432.586 566.453 434.258V419H565.188V455H566.453V450.992C567.312 452.398 568.492 453.5 569.992 454.297C571.492 455.078 573.195 455.469 575.102 455.469C578.039 455.469 580.359 454.305 582.062 451.977ZM581.125 433.531C582.578 435.578 583.305 438.422 583.305 442.062C583.305 446 582.594 449.008 581.172 451.086C579.75 453.164 577.734 454.203 575.125 454.203C572.969 454.203 571.148 453.719 569.664 452.75C568.195 451.766 567.125 450.375 566.453 448.578V436.953C567.125 434.797 568.195 433.172 569.664 432.078C571.148 430.984 572.953 430.438 575.078 430.438C577.672 430.438 579.688 431.469 581.125 433.531ZM599.172 452.562L599.008 453.031L589.609 429.641H588.227L598.328 454.859L596.781 459.055C596.141 460.805 595.383 462.062 594.508 462.828C593.633 463.609 592.531 464 591.203 464C590.562 464 589.992 463.93 589.492 463.789L589.516 464.984C589.859 465.156 590.484 465.242 591.391 465.242C594.203 465.242 596.219 463.766 597.438 460.812L598 459.406L609.344 429.641H607.938L599.172 452.562ZM642.344 450.992L629.758 420.875H625.938V455H628.82V440.047L628.586 425.023L641.242 455H643.469L656.172 424.906L655.938 440.141V455H658.82V420.875H654.977L642.344 450.992ZM667.141 455H669.953V429.641H667.141V455ZM667.164 420.969C666.82 421.328 666.648 421.773 666.648 422.305C666.648 422.836 666.82 423.281 667.164 423.641C667.508 424 667.977 424.18 668.57 424.18C669.164 424.18 669.633 424 669.977 423.641C670.336 423.281 670.516 422.836 670.516 422.305C670.516 421.773 670.336 421.328 669.977 420.969C669.633 420.594 669.164 420.406 668.57 420.406C667.977 420.406 667.508 420.594 667.164 420.969ZM691.867 451.461C690.555 452.555 688.922 453.102 686.969 453.102C684.422 453.102 682.445 452.195 681.039 450.383C679.648 448.57 678.953 446.047 678.953 442.812V441.992C678.953 438.695 679.648 436.133 681.039 434.305C682.445 432.477 684.414 431.562 686.945 431.562C688.93 431.562 690.57 432.172 691.867 433.391C693.18 434.609 693.898 436.211 694.023 438.195H696.719C696.594 435.492 695.625 433.312 693.812 431.656C692.016 430 689.727 429.172 686.945 429.172C684.758 429.172 682.844 429.695 681.203 430.742C679.578 431.789 678.328 433.273 677.453 435.195C676.578 437.117 676.141 439.328 676.141 441.828V442.672C676.141 446.578 677.109 449.688 679.047 452C681 454.312 683.641 455.469 686.969 455.469C688.656 455.469 690.234 455.109 691.703 454.391C693.188 453.672 694.375 452.68 695.266 451.414C696.156 450.133 696.641 448.719 696.719 447.172H694.023C693.914 448.922 693.195 450.352 691.867 451.461ZM712.164 431.867C712.836 431.867 713.469 431.922 714.062 432.031L714.133 429.477C713.68 429.273 713.062 429.172 712.281 429.172C709 429.172 706.617 430.672 705.133 433.672L705.086 429.641H702.344V455H705.133V437.586C705.648 435.727 706.508 434.312 707.711 433.344C708.93 432.359 710.414 431.867 712.164 431.867ZM717.906 435.359C716.969 437.312 716.5 439.508 716.5 441.945V442.508C716.5 446.414 717.547 449.555 719.641 451.93C721.75 454.289 724.484 455.469 727.844 455.469C730.047 455.469 732.008 454.938 733.727 453.875C735.445 452.812 736.773 451.305 737.711 449.352C738.664 447.383 739.141 445.172 739.141 442.719V442.133C739.141 438.227 738.094 435.094 736 432.734C733.906 430.359 731.172 429.172 727.797 429.172C725.609 429.172 723.648 429.719 721.914 430.812C720.195 431.891 718.859 433.406 717.906 435.359ZM721.656 450.195C720.094 448.242 719.312 445.75 719.312 442.719V442.203C719.312 439.031 720.102 436.469 721.68 434.516C723.258 432.547 725.297 431.562 727.797 431.562C729.469 431.562 730.953 432.008 732.25 432.898C733.547 433.773 734.555 435.016 735.273 436.625C735.992 438.234 736.352 440.008 736.352 441.945V442.484C736.352 445.672 735.562 448.242 733.984 450.195C732.422 452.133 730.375 453.102 727.844 453.102C725.297 453.102 723.234 452.133 721.656 450.195ZM758.453 445.203C759.578 446.047 760.141 447.164 760.141 448.555C760.141 449.867 759.539 450.953 758.336 451.812C757.133 452.672 755.555 453.102 753.602 453.102C751.508 453.102 749.82 452.648 748.539 451.742C747.273 450.82 746.586 449.539 746.477 447.898H743.664C743.664 450.086 744.578 451.898 746.406 453.336C748.25 454.758 750.648 455.469 753.602 455.469C756.383 455.469 758.633 454.828 760.352 453.547C762.086 452.266 762.953 450.555 762.953 448.414C762.953 447.102 762.656 445.984 762.062 445.062C761.469 444.141 760.555 443.352 759.32 442.695C758.102 442.039 756.258 441.422 753.789 440.844C751.336 440.266 749.641 439.633 748.703 438.945C747.781 438.242 747.32 437.258 747.32 435.992C747.32 434.68 747.875 433.617 748.984 432.805C750.109 431.977 751.594 431.562 753.438 431.562C755.328 431.562 756.891 432.055 758.125 433.039C759.375 434.023 760 435.258 760 436.742H762.812C762.812 434.492 761.953 432.672 760.234 431.281C758.531 429.875 756.266 429.172 753.438 429.172C750.828 429.172 748.688 429.828 747.016 431.141C745.344 432.438 744.508 434.086 744.508 436.086C744.508 437.352 744.805 438.43 745.398 439.32C746.008 440.211 746.93 440.969 748.164 441.594C749.414 442.203 751.164 442.75 753.414 443.234C755.664 443.703 757.344 444.359 758.453 445.203ZM769.141 435.359C768.203 437.312 767.734 439.508 767.734 441.945V442.508C767.734 446.414 768.781 449.555 770.875 451.93C772.984 454.289 775.719 455.469 779.078 455.469C781.281 455.469 783.242 454.938 784.961 453.875C786.68 452.812 788.008 451.305 788.945 449.352C789.898 447.383 790.375 445.172 790.375 442.719V442.133C790.375 438.227 789.328 435.094 787.234 432.734C785.141 430.359 782.406 429.172 779.031 429.172C776.844 429.172 774.883 429.719 773.148 430.812C771.43 431.891 770.094 433.406 769.141 435.359ZM772.891 450.195C771.328 448.242 770.547 445.75 770.547 442.719V442.203C770.547 439.031 771.336 436.469 772.914 434.516C774.492 432.547 776.531 431.562 779.031 431.562C780.703 431.562 782.188 432.008 783.484 432.898C784.781 433.773 785.789 435.016 786.508 436.625C787.227 438.234 787.586 440.008 787.586 441.945V442.484C787.586 445.672 786.797 448.242 785.219 450.195C783.656 452.133 781.609 453.102 779.078 453.102C776.531 453.102 774.469 452.133 772.891 450.195ZM798.203 431.938V455H801.016V431.938H807.062V429.641H801.016V426.5C801.016 424.734 801.445 423.375 802.305 422.422C803.164 421.453 804.367 420.969 805.914 420.969C806.836 420.969 807.688 421.062 808.469 421.25L808.68 418.906C807.758 418.641 806.766 418.508 805.703 418.508C803.344 418.508 801.5 419.203 800.172 420.594C798.859 421.984 798.203 423.977 798.203 426.57V429.641H794.008V431.938H798.203ZM816.438 429.641V423.148H813.625V429.641H808.961V431.938H813.625V448.859C813.625 451.031 814.062 452.68 814.938 453.805C815.812 454.914 817.211 455.469 819.133 455.469C820.398 455.469 821.398 455.336 822.133 455.07L822.016 452.773C820.969 452.93 820.211 453.008 819.742 453.008C818.555 453.008 817.703 452.664 817.188 451.977C816.688 451.289 816.438 450.242 816.438 448.836V431.938H821.688V429.641H816.438ZM1040.56 436.2C1044.26 432.98 1049.06 431 1054.36 431C1063.66 431 1071.52 437.06 1074.3 445.44L1069.56 447C1067.46 440.62 1061.44 436 1054.36 436C1050.44 436 1046.9 437.44 1044.12 439.76L1051.36 447H1033.36V429L1040.56 436.2Z" fill="black"/>
<path fill-rule="evenodd" clip-rule="evenodd" d="M58.6797 380H82.0703V374.539H67.3984L75.1562 366.359C77.2812 364.031 78.7812 361.992 79.6562 360.242C80.5312 358.492 80.9688 356.773 80.9688 355.086C80.9688 352.008 79.9922 349.625 78.0391 347.938C76.1016 346.25 73.375 345.406 69.8594 345.406C67.5625 345.406 65.5078 345.898 63.6953 346.883C61.8828 347.852 60.4766 349.195 59.4766 350.914C58.4922 352.633 58 354.531 58 356.609H64.7969C64.7969 354.891 65.2344 353.508 66.1094 352.461C67 351.398 68.2109 350.867 69.7422 350.867C71.1641 350.867 72.2578 351.305 73.0234 352.18C73.7891 353.039 74.1719 354.227 74.1719 355.742C74.1719 356.852 73.8047 358.023 73.0703 359.258C72.3516 360.492 71.2344 361.938 69.7188 363.594L58.6797 375.359V380ZM83.6172 382.93H88.6562L101.219 345.875H96.1797L83.6172 382.93ZM113.875 380H120.648V345.828H119.922L105.789 350.891V356.398L113.875 353.891V380ZM151.797 376.719C153.75 374.219 154.727 370.609 154.727 365.891V359.609C154.68 355.031 153.672 351.523 151.703 349.086C149.734 346.633 146.891 345.406 143.172 345.406C139.453 345.406 136.602 346.641 134.617 349.109C132.648 351.578 131.664 355.195 131.664 359.961V366.242C131.711 370.82 132.719 374.336 134.688 376.789C136.656 379.242 139.5 380.469 143.219 380.469C146.984 380.469 149.844 379.219 151.797 376.719ZM146.781 352.836C147.562 354.117 147.953 356.172 147.953 359V367.109C147.922 369.781 147.539 371.766 146.805 373.062C146.07 374.359 144.875 375.008 143.219 375.008C141.547 375.008 140.328 374.336 139.562 372.992C138.812 371.633 138.438 369.562 138.438 366.781V358.484C138.484 355.875 138.883 353.961 139.633 352.742C140.398 351.508 141.578 350.891 143.172 350.891C144.812 350.891 146.016 351.539 146.781 352.836ZM156.695 382.93H161.734L174.297 345.875H169.258L156.695 382.93ZM186.953 380H193.727V345.828H193L178.867 350.891V356.398L186.953 353.891V380ZM214.492 368.961C216.852 368.961 218.914 368.094 220.68 366.359C220.195 371.625 217.008 374.391 211.117 374.656L209.617 374.68V380.328L211.281 380.305C216.469 380.086 220.477 378.352 223.305 375.102C226.133 371.852 227.547 367.383 227.547 361.695V359.188C227.531 356.469 227.039 354.055 226.07 351.945C225.102 349.836 223.742 348.219 221.992 347.094C220.242 345.969 218.242 345.406 215.992 345.406C213.805 345.406 211.836 345.93 210.086 346.977C208.336 348.008 206.969 349.461 205.984 351.336C205.016 353.195 204.531 355.242 204.531 357.477C204.531 360.992 205.438 363.789 207.25 365.867C209.062 367.93 211.477 368.961 214.492 368.961ZM218.969 362.938C218.188 363.5 217.25 363.781 216.156 363.781C214.609 363.781 213.406 363.188 212.547 362C211.703 360.797 211.281 359.266 211.281 357.406C211.281 355.531 211.719 353.977 212.594 352.742C213.469 351.492 214.586 350.867 215.945 350.867C217.414 350.867 218.586 351.5 219.461 352.766C220.336 354.031 220.773 355.812 220.773 358.109V360.898C220.367 361.695 219.766 362.375 218.969 362.938ZM233.266 377.938C233.016 378.188 232.891 378.492 232.891 378.852C232.891 379.211 233.016 379.516 233.266 379.766C233.516 380.016 233.82 380.141 234.18 380.141C234.539 380.141 234.844 380.016 235.094 379.766C235.359 379.516 235.492 379.211 235.492 378.852C235.492 378.492 235.359 378.188 235.094 377.938C234.844 377.672 234.539 377.539 234.18 377.539C233.82 377.539 233.516 377.672 233.266 377.938ZM233.383 355.391C233.133 355.641 233.008 355.945 233.008 356.305C233.008 356.664 233.133 356.969 233.383 357.219C233.633 357.469 233.938 357.594 234.297 357.594C234.656 357.594 234.961 357.469 235.211 357.219C235.477 356.969 235.609 356.664 235.609 356.305C235.609 355.945 235.477 355.641 235.211 355.391C234.961 355.125 234.656 354.992 234.297 354.992C233.938 354.992 233.633 355.125 233.383 355.391ZM274.164 377.562H257.312V345.875H254.406V380H274.164V377.562ZM278.922 360.359C277.984 362.312 277.516 364.508 277.516 366.945V367.508C277.516 371.414 278.562 374.555 280.656 376.93C282.766 379.289 285.5 380.469 288.859 380.469C291.062 380.469 293.023 379.938 294.742 378.875C296.461 377.812 297.789 376.305 298.727 374.352C299.68 372.383 300.156 370.172 300.156 367.719V367.133C300.156 363.227 299.109 360.094 297.016 357.734C294.922 355.359 292.188 354.172 288.812 354.172C286.625 354.172 284.664 354.719 282.93 355.812C281.211 356.891 279.875 358.406 278.922 360.359ZM282.672 375.195C281.109 373.242 280.328 370.75 280.328 367.719V367.203C280.328 364.031 281.117 361.469 282.695 359.516C284.273 357.547 286.312 356.562 288.812 356.562C290.484 356.562 291.969 357.008 293.266 357.898C294.562 358.773 295.57 360.016 296.289 361.625C297.008 363.234 297.367 365.008 297.367 366.945V367.484C297.367 370.672 296.578 373.242 295 375.195C293.438 377.133 291.391 378.102 288.859 378.102C286.312 378.102 284.25 377.133 282.672 375.195ZM320.242 376.461C318.93 377.555 317.297 378.102 315.344 378.102C312.797 378.102 310.82 377.195 309.414 375.383C308.023 373.57 307.328 371.047 307.328 367.812V366.992C307.328 363.695 308.023 361.133 309.414 359.305C310.82 357.477 312.789 356.562 315.32 356.562C317.305 356.562 318.945 357.172 320.242 358.391C321.555 359.609 322.273 361.211 322.398 363.195H325.094C324.969 360.492 324 358.312 322.188 356.656C320.391 355 318.102 354.172 315.32 354.172C313.133 354.172 311.219 354.695 309.578 355.742C307.953 356.789 306.703 358.273 305.828 360.195C304.953 362.117 304.516 364.328 304.516 366.828V367.672C304.516 371.578 305.484 374.688 307.422 377C309.375 379.312 312.016 380.469 315.344 380.469C317.031 380.469 318.609 380.109 320.078 379.391C321.562 378.672 322.75 377.68 323.641 376.414C324.531 375.133 325.016 373.719 325.094 372.172H322.398C322.289 373.922 321.57 375.352 320.242 376.461ZM346.188 376.461C346.266 378.023 346.445 379.203 346.727 380H349.727V379.719C349.211 378.5 348.953 376.664 348.953 374.211V362.211C348.906 359.68 348.062 357.711 346.422 356.305C344.797 354.883 342.57 354.172 339.742 354.172C337.008 354.172 334.703 354.914 332.828 356.398C330.953 357.867 330.016 359.609 330.016 361.625L332.828 361.648C332.828 360.242 333.469 359.039 334.75 358.039C336.031 357.039 337.648 356.539 339.602 356.539C341.742 356.539 343.367 357.062 344.477 358.109C345.602 359.141 346.164 360.562 346.164 362.375V365.258H341.078C337.406 365.258 334.539 365.977 332.477 367.414C330.43 368.852 329.406 370.805 329.406 373.273C329.406 375.352 330.156 377.07 331.656 378.43C333.172 379.789 335.148 380.469 337.586 380.469C339.289 380.469 340.898 380.125 342.414 379.438C343.945 378.734 345.203 377.742 346.188 376.461ZM342.93 376.625C341.461 377.531 339.789 377.984 337.914 377.984C336.227 377.984 334.852 377.516 333.789 376.578C332.742 375.641 332.219 374.461 332.219 373.039C332.219 371.305 333.008 369.945 334.586 368.961C336.164 367.961 338.352 367.445 341.148 367.414H346.164V372.992C345.492 374.508 344.414 375.719 342.93 376.625ZM360.812 354.641V348.148H358V354.641H353.336V356.938H358V373.859C358 376.031 358.438 377.68 359.312 378.805C360.188 379.914 361.586 380.469 363.508 380.469C364.773 380.469 365.773 380.336 366.508 380.07L366.391 377.773C365.344 377.93 364.586 378.008 364.117 378.008C362.93 378.008 362.078 377.664 361.562 376.977C361.062 376.289 360.812 375.242 360.812 373.836V356.938H366.062V354.641H360.812ZM372.203 380H375.016V354.641H372.203V380ZM372.227 345.969C371.883 346.328 371.711 346.773 371.711 347.305C371.711 347.836 371.883 348.281 372.227 348.641C372.57 349 373.039 349.18 373.633 349.18C374.227 349.18 374.695 349 375.039 348.641C375.398 348.281 375.578 347.836 375.578 347.305C375.578 346.773 375.398 346.328 375.039 345.969C374.695 345.594 374.227 345.406 373.633 345.406C373.039 345.406 372.57 345.594 372.227 345.969ZM382.516 360.359C381.578 362.312 381.109 364.508 381.109 366.945V367.508C381.109 371.414 382.156 374.555 384.25 376.93C386.359 379.289 389.094 380.469 392.453 380.469C394.656 380.469 396.617 379.938 398.336 378.875C400.055 377.812 401.383 376.305 402.32 374.352C403.273 372.383 403.75 370.172 403.75 367.719V367.133C403.75 363.227 402.703 360.094 400.609 357.734C398.516 355.359 395.781 354.172 392.406 354.172C390.219 354.172 388.258 354.719 386.523 355.812C384.805 356.891 383.469 358.406 382.516 360.359ZM386.266 375.195C384.703 373.242 383.922 370.75 383.922 367.719V367.203C383.922 364.031 384.711 361.469 386.289 359.516C387.867 357.547 389.906 356.562 392.406 356.562C394.078 356.562 395.562 357.008 396.859 357.898C398.156 358.773 399.164 360.016 399.883 361.625C400.602 363.234 400.961 365.008 400.961 366.945V367.484C400.961 370.672 400.172 373.242 398.594 375.195C397.031 377.133 394.984 378.102 392.453 378.102C389.906 378.102 387.844 377.133 386.266 375.195ZM412.328 358.977L412.234 354.641H409.562V380H412.352V362.633C412.992 360.789 413.977 359.328 415.305 358.25C416.648 357.156 418.188 356.609 419.922 356.609C422 356.609 423.508 357.164 424.445 358.273C425.398 359.383 425.883 361.07 425.898 363.336V380H428.688V363.359C428.672 360.297 428 358 426.672 356.469C425.344 354.938 423.32 354.172 420.602 354.172C418.883 354.172 417.312 354.586 415.891 355.414C414.469 356.227 413.281 357.414 412.328 358.977ZM464.805 375.898V380H466.094V354.641H464.805V372.477C464.398 374.68 463.438 376.352 461.922 377.492C460.406 378.633 458.438 379.203 456.016 379.203C453.734 379.203 452 378.516 450.812 377.141C449.625 375.75 449.016 373.711 448.984 371.023V354.641H447.719V370.977C447.75 374.07 448.453 376.43 449.828 378.055C451.219 379.664 453.297 380.469 456.062 380.469C458.266 380.469 460.086 380.062 461.523 379.25C462.961 378.422 464.055 377.305 464.805 375.898ZM481.867 367.508C487.117 368.617 489.742 370.711 489.742 373.789C489.742 375.289 489.031 376.57 487.609 377.633C486.203 378.68 484.367 379.203 482.102 379.203C479.633 379.203 477.672 378.711 476.219 377.727C474.781 376.727 474 375.336 473.875 373.555H472.609C472.609 375.586 473.477 377.25 475.211 378.547C476.961 379.828 479.258 380.469 482.102 380.469C484.758 380.469 486.906 379.859 488.547 378.641C490.188 377.422 491.008 375.812 491.008 373.812C491.008 372.516 490.734 371.422 490.188 370.531C489.641 369.625 488.758 368.844 487.539 368.188C486.32 367.531 484.664 366.961 482.57 366.477C480.477 365.992 478.883 365.492 477.789 364.977C476.695 364.445 475.906 363.859 475.422 363.219C474.938 362.562 474.695 361.664 474.695 360.523C474.695 359.07 475.344 357.859 476.641 356.891C477.938 355.922 479.695 355.438 481.914 355.438C484.227 355.438 486.102 356.008 487.539 357.148C488.977 358.289 489.695 359.711 489.695 361.414H490.984C490.984 359.195 490.156 357.438 488.5 356.141C486.844 354.828 484.648 354.172 481.914 354.172C479.398 354.172 477.352 354.773 475.773 355.977C474.211 357.18 473.43 358.711 473.43 360.57C473.43 362.414 474.047 363.867 475.281 364.93C476.516 365.977 478.711 366.836 481.867 367.508ZM501.484 378.828C503.203 379.922 505.086 380.469 507.133 380.469C510.852 380.469 513.656 379.102 515.547 376.367L514.656 375.734C513.734 376.922 512.672 377.805 511.469 378.383C510.281 378.945 508.836 379.227 507.133 379.227C505.352 379.227 503.695 378.727 502.164 377.727C500.648 376.727 499.453 375.352 498.578 373.602C497.719 371.836 497.289 369.922 497.289 367.859V366.477H516.297V365.141C516.297 361.859 515.398 359.211 513.602 357.195C511.805 355.18 509.492 354.172 506.664 354.172C504.727 354.172 502.938 354.719 501.297 355.812C499.656 356.906 498.367 358.43 497.43 360.383C496.492 362.336 496.023 364.484 496.023 366.828V367.883C496.023 370.227 496.508 372.359 497.477 374.281C498.445 376.203 499.781 377.719 501.484 378.828ZM500.383 358.203C502.102 356.359 504.195 355.438 506.664 355.438C508.242 355.438 509.664 355.852 510.93 356.68C512.211 357.492 513.211 358.641 513.93 360.125C514.664 361.594 515.031 363.188 515.031 364.906V365.211H497.359C497.656 362.367 498.664 360.031 500.383 358.203ZM523.586 357.594C521.883 359.859 521.031 363.016 521.031 367.062V367.391C521.031 371.453 521.883 374.648 523.586 376.977C525.289 379.305 527.609 380.469 530.547 380.469C532.453 380.469 534.156 380.078 535.656 379.297C537.156 378.5 538.336 377.383 539.195 375.945V380H540.461V344H539.195V359.305C538.289 357.602 537.102 356.32 535.633 355.461C534.18 354.602 532.5 354.172 530.594 354.172C527.625 354.172 525.289 355.312 523.586 357.594ZM524.477 376.086C523.055 373.992 522.344 371.148 522.344 367.555C522.344 363.57 523.062 360.555 524.5 358.508C525.953 356.461 527.977 355.438 530.57 355.438C534.867 355.438 537.742 357.57 539.195 361.836V373.719C538.477 375.516 537.375 376.883 535.891 377.82C534.406 378.742 532.617 379.203 530.523 379.203C527.914 379.203 525.898 378.164 524.477 376.086ZM576.812 376.977C578.516 374.648 579.367 371.508 579.367 367.555V367.156C579.367 363.047 578.516 359.859 576.812 357.594C575.109 355.312 572.773 354.172 569.805 354.172C567.883 354.172 566.188 354.602 564.719 355.461C563.266 356.32 562.094 357.586 561.203 359.258V344H559.938V380H561.203V375.992C562.062 377.398 563.242 378.5 564.742 379.297C566.242 380.078 567.945 380.469 569.852 380.469C572.789 380.469 575.109 379.305 576.812 376.977ZM575.875 358.531C577.328 360.578 578.055 363.422 578.055 367.062C578.055 371 577.344 374.008 575.922 376.086C574.5 378.164 572.484 379.203 569.875 379.203C567.719 379.203 565.898 378.719 564.414 377.75C562.945 376.766 561.875 375.375 561.203 373.578V361.953C561.875 359.797 562.945 358.172 564.414 357.078C565.898 355.984 567.703 355.438 569.828 355.438C572.422 355.438 574.438 356.469 575.875 358.531ZM593.922 377.562L593.758 378.031L584.359 354.641H582.977L593.078 379.859L591.531 384.055C590.891 385.805 590.133 387.062 589.258 387.828C588.383 388.609 587.281 389 585.953 389C585.312 389 584.742 388.93 584.242 388.789L584.266 389.984C584.609 390.156 585.234 390.242 586.141 390.242C588.953 390.242 590.969 388.766 592.188 385.812L592.75 384.406L604.094 354.641H602.688L593.922 377.562ZM623.57 364.062H639.484V361.602H623.57V348.336H641.828V345.875H620.688V380H623.57V364.062ZM661.703 376.461C661.781 378.023 661.961 379.203 662.242 380H665.242V379.719C664.727 378.5 664.469 376.664 664.469 374.211V362.211C664.422 359.68 663.578 357.711 661.938 356.305C660.312 354.883 658.086 354.172 655.258 354.172C652.523 354.172 650.219 354.914 648.344 356.398C646.469 357.867 645.531 359.609 645.531 361.625L648.344 361.648C648.344 360.242 648.984 359.039 650.266 358.039C651.547 357.039 653.164 356.539 655.117 356.539C657.258 356.539 658.883 357.062 659.992 358.109C661.117 359.141 661.68 360.562 661.68 362.375V365.258H656.594C652.922 365.258 650.055 365.977 647.992 367.414C645.945 368.852 644.922 370.805 644.922 373.273C644.922 375.352 645.672 377.07 647.172 378.43C648.688 379.789 650.664 380.469 653.102 380.469C654.805 380.469 656.414 380.125 657.93 379.438C659.461 378.734 660.719 377.742 661.703 376.461ZM658.445 376.625C656.977 377.531 655.305 377.984 653.43 377.984C651.742 377.984 650.367 377.516 649.305 376.578C648.258 375.641 647.734 374.461 647.734 373.039C647.734 371.305 648.523 369.945 650.102 368.961C651.68 367.961 653.867 367.445 656.664 367.414H661.68V372.992C661.008 374.508 659.93 375.719 658.445 376.625ZM686.242 376.461C684.93 377.555 683.297 378.102 681.344 378.102C678.797 378.102 676.82 377.195 675.414 375.383C674.023 373.57 673.328 371.047 673.328 367.812V366.992C673.328 363.695 674.023 361.133 675.414 359.305C676.82 357.477 678.789 356.562 681.32 356.562C683.305 356.562 684.945 357.172 686.242 358.391C687.555 359.609 688.273 361.211 688.398 363.195H691.094C690.969 360.492 690 358.312 688.188 356.656C686.391 355 684.102 354.172 681.32 354.172C679.133 354.172 677.219 354.695 675.578 355.742C673.953 356.789 672.703 358.273 671.828 360.195C670.953 362.117 670.516 364.328 670.516 366.828V367.672C670.516 371.578 671.484 374.688 673.422 377C675.375 379.312 678.016 380.469 681.344 380.469C683.031 380.469 684.609 380.109 686.078 379.391C687.562 378.672 688.75 377.68 689.641 376.414C690.531 375.133 691.016 373.719 691.094 372.172H688.398C688.289 373.922 687.57 375.352 686.242 376.461ZM700.68 378.875C702.43 379.938 704.383 380.469 706.539 380.469C710.461 380.469 713.453 378.977 715.516 375.992L713.758 374.656C712.82 375.859 711.773 376.734 710.617 377.281C709.477 377.828 708.156 378.102 706.656 378.102C704.156 378.102 702.078 377.148 700.422 375.242C698.781 373.32 697.961 370.922 697.961 368.047V367.508H716.055V365.938C716.055 362.297 715.148 359.43 713.336 357.336C711.539 355.227 709.102 354.172 706.023 354.172C704.055 354.172 702.227 354.734 700.539 355.859C698.852 356.969 697.531 358.5 696.578 360.453C695.641 362.406 695.172 364.602 695.172 367.039V368.047C695.172 370.406 695.656 372.539 696.625 374.445C697.594 376.336 698.945 377.812 700.68 378.875ZM700.68 358.883C702.133 357.336 703.914 356.562 706.023 356.562C708.148 356.562 709.867 357.328 711.18 358.859C712.492 360.391 713.188 362.375 713.266 364.812V365.117H698.055C698.367 362.508 699.242 360.43 700.68 358.883ZM739.305 377C741.055 374.672 741.93 371.531 741.93 367.578V367.156C741.93 363.078 741.055 359.898 739.305 357.617C737.57 355.32 735.203 354.172 732.203 354.172C728.703 354.172 726.062 355.555 724.281 358.32V344H721.492V380H724.117L724.234 376.531C726.047 379.156 728.719 380.469 732.25 380.469C735.203 380.469 737.555 379.312 739.305 377ZM737.172 359.352C738.469 361.164 739.117 363.742 739.117 367.086C739.117 370.727 738.461 373.461 737.148 375.289C735.852 377.117 734.047 378.031 731.734 378.031C728.172 378.031 725.688 376.438 724.281 373.25V361.812C724.922 360.109 725.867 358.82 727.117 357.945C728.367 357.055 729.891 356.609 731.688 356.609C734.047 356.609 735.875 357.523 737.172 359.352ZM748 360.359C747.062 362.312 746.594 364.508 746.594 366.945V367.508C746.594 371.414 747.641 374.555 749.734 376.93C751.844 379.289 754.578 380.469 757.938 380.469C760.141 380.469 762.102 379.938 763.82 378.875C765.539 377.812 766.867 376.305 767.805 374.352C768.758 372.383 769.234 370.172 769.234 367.719V367.133C769.234 363.227 768.188 360.094 766.094 357.734C764 355.359 761.266 354.172 757.891 354.172C755.703 354.172 753.742 354.719 752.008 355.812C750.289 356.891 748.953 358.406 748 360.359ZM751.75 375.195C750.188 373.242 749.406 370.75 749.406 367.719V367.203C749.406 364.031 750.195 361.469 751.773 359.516C753.352 357.547 755.391 356.562 757.891 356.562C759.562 356.562 761.047 357.008 762.344 357.898C763.641 358.773 764.648 360.016 765.367 361.625C766.086 363.234 766.445 365.008 766.445 366.945V367.484C766.445 370.672 765.656 373.242 764.078 375.195C762.516 377.133 760.469 378.102 757.938 378.102C755.391 378.102 753.328 377.133 751.75 375.195ZM774.906 360.359C773.969 362.312 773.5 364.508 773.5 366.945V367.508C773.5 371.414 774.547 374.555 776.641 376.93C778.75 379.289 781.484 380.469 784.844 380.469C787.047 380.469 789.008 379.938 790.727 378.875C792.445 377.812 793.773 376.305 794.711 374.352C795.664 372.383 796.141 370.172 796.141 367.719V367.133C796.141 363.227 795.094 360.094 793 357.734C790.906 355.359 788.172 354.172 784.797 354.172C782.609 354.172 780.648 354.719 778.914 355.812C777.195 356.891 775.859 358.406 774.906 360.359ZM778.656 375.195C777.094 373.242 776.312 370.75 776.312 367.719V367.203C776.312 364.031 777.102 361.469 778.68 359.516C780.258 357.547 782.297 356.562 784.797 356.562C786.469 356.562 787.953 357.008 789.25 357.898C790.547 358.773 791.555 360.016 792.273 361.625C792.992 363.234 793.352 365.008 793.352 366.945V367.484C793.352 370.672 792.562 373.242 790.984 375.195C789.422 377.133 787.375 378.102 784.844 378.102C782.297 378.102 780.234 377.133 778.656 375.195ZM804.766 370.32L807.977 367.227L818.242 380H821.594L809.898 365.328L820.656 354.641H817.117L807.414 364.18L804.766 367.039V344H801.953V380H804.766V370.32ZM1040.56 361.2C1044.26 357.98 1049.06 356 1054.36 356C1063.66 356 1071.52 362.06 1074.3 370.44L1069.56 372C1067.46 365.62 1061.44 361 1054.36 361C1050.44 361 1046.9 362.44 1044.12 364.76L1051.36 372H1033.36V354L1040.56 361.2Z" fill="black"/>
<path fill-rule="evenodd" clip-rule="evenodd" d="M58.6797 312H82.0703V306.539H67.3984L75.1562 298.359C77.2812 296.031 78.7812 293.992 79.6562 292.242C80.5312 290.492 80.9688 288.773 80.9688 287.086C80.9688 284.008 79.9922 281.625 78.0391 279.938C76.1016 278.25 73.375 277.406 69.8594 277.406C67.5625 277.406 65.5078 277.898 63.6953 278.883C61.8828 279.852 60.4766 281.195 59.4766 282.914C58.4922 284.633 58 286.531 58 288.609H64.7969C64.7969 286.891 65.2344 285.508 66.1094 284.461C67 283.398 68.2109 282.867 69.7422 282.867C71.1641 282.867 72.2578 283.305 73.0234 284.18C73.7891 285.039 74.1719 286.227 74.1719 287.742C74.1719 288.852 73.8047 290.023 73.0703 291.258C72.3516 292.492 71.2344 293.938 69.7188 295.594L58.6797 307.359V312ZM83.6172 314.93H88.6562L101.219 277.875H96.1797L83.6172 314.93ZM113.875 312H120.648V277.828H119.922L105.789 282.891V288.398L113.875 285.891V312ZM151.797 308.719C153.75 306.219 154.727 302.609 154.727 297.891V291.609C154.68 287.031 153.672 283.523 151.703 281.086C149.734 278.633 146.891 277.406 143.172 277.406C139.453 277.406 136.602 278.641 134.617 281.109C132.648 283.578 131.664 287.195 131.664 291.961V298.242C131.711 302.82 132.719 306.336 134.688 308.789C136.656 311.242 139.5 312.469 143.219 312.469C146.984 312.469 149.844 311.219 151.797 308.719ZM146.781 284.836C147.562 286.117 147.953 288.172 147.953 291V299.109C147.922 301.781 147.539 303.766 146.805 305.062C146.07 306.359 144.875 307.008 143.219 307.008C141.547 307.008 140.328 306.336 139.562 304.992C138.812 303.633 138.438 301.562 138.438 298.781V290.484C138.484 287.875 138.883 285.961 139.633 284.742C140.398 283.508 141.578 282.891 143.172 282.891C144.812 282.891 146.016 283.539 146.781 284.836ZM156.695 314.93H161.734L174.297 277.875H169.258L156.695 314.93ZM186.953 312H193.727V277.828H193L178.867 282.891V288.398L186.953 285.891V312ZM214.492 300.961C216.852 300.961 218.914 300.094 220.68 298.359C220.195 303.625 217.008 306.391 211.117 306.656L209.617 306.68V312.328L211.281 312.305C216.469 312.086 220.477 310.352 223.305 307.102C226.133 303.852 227.547 299.383 227.547 293.695V291.188C227.531 288.469 227.039 286.055 226.07 283.945C225.102 281.836 223.742 280.219 221.992 279.094C220.242 277.969 218.242 277.406 215.992 277.406C213.805 277.406 211.836 277.93 210.086 278.977C208.336 280.008 206.969 281.461 205.984 283.336C205.016 285.195 204.531 287.242 204.531 289.477C204.531 292.992 205.438 295.789 207.25 297.867C209.062 299.93 211.477 300.961 214.492 300.961ZM218.969 294.938C218.188 295.5 217.25 295.781 216.156 295.781C214.609 295.781 213.406 295.188 212.547 294C211.703 292.797 211.281 291.266 211.281 289.406C211.281 287.531 211.719 285.977 212.594 284.742C213.469 283.492 214.586 282.867 215.945 282.867C217.414 282.867 218.586 283.5 219.461 284.766C220.336 286.031 220.773 287.812 220.773 290.109V292.898C220.367 293.695 219.766 294.375 218.969 294.938ZM233.266 309.938C233.016 310.188 232.891 310.492 232.891 310.852C232.891 311.211 233.016 311.516 233.266 311.766C233.516 312.016 233.82 312.141 234.18 312.141C234.539 312.141 234.844 312.016 235.094 311.766C235.359 311.516 235.492 311.211 235.492 310.852C235.492 310.492 235.359 310.188 235.094 309.938C234.844 309.672 234.539 309.539 234.18 309.539C233.82 309.539 233.516 309.672 233.266 309.938ZM233.383 287.391C233.133 287.641 233.008 287.945 233.008 288.305C233.008 288.664 233.133 288.969 233.383 289.219C233.633 289.469 233.938 289.594 234.297 289.594C234.656 289.594 234.961 289.469 235.211 289.219C235.477 288.969 235.609 288.664 235.609 288.305C235.609 287.945 235.477 287.641 235.211 287.391C234.961 287.125 234.656 286.992 234.297 286.992C233.938 286.992 233.633 287.125 233.383 287.391ZM271.727 299.133C273.055 300.227 273.719 301.719 273.719 303.609C273.719 305.547 272.914 307.102 271.305 308.273C269.695 309.445 267.562 310.031 264.906 310.031C261.922 310.031 259.531 309.336 257.734 307.945C255.938 306.555 255.039 304.656 255.039 302.25H252.156C252.156 304.25 252.672 306.023 253.703 307.57C254.75 309.117 256.273 310.32 258.273 311.18C260.289 312.039 262.5 312.469 264.906 312.469C268.422 312.469 271.25 311.656 273.391 310.031C275.547 308.406 276.625 306.25 276.625 303.562C276.625 301.859 276.227 300.383 275.43 299.133C274.633 297.883 273.445 296.812 271.867 295.922C270.289 295.016 267.969 294.148 264.906 293.32C261.844 292.477 259.617 291.508 258.227 290.414C256.836 289.32 256.141 287.906 256.141 286.172C256.141 284.297 256.914 282.781 258.461 281.625C260.008 280.453 262.086 279.867 264.695 279.867C267.383 279.867 269.523 280.578 271.117 282C272.711 283.406 273.508 285.273 273.508 287.602H276.414C276.414 285.68 275.922 283.938 274.938 282.375C273.953 280.812 272.562 279.594 270.766 278.719C268.984 277.844 266.961 277.406 264.695 277.406C261.352 277.406 258.602 278.227 256.445 279.867C254.305 281.492 253.234 283.609 253.234 286.219C253.234 288.906 254.391 291.078 256.703 292.734C258.328 293.906 260.906 294.992 264.438 295.992C267.969 296.977 270.398 298.023 271.727 299.133ZM286.164 310.875C287.914 311.938 289.867 312.469 292.023 312.469C295.945 312.469 298.938 310.977 301 307.992L299.242 306.656C298.305 307.859 297.258 308.734 296.102 309.281C294.961 309.828 293.641 310.102 292.141 310.102C289.641 310.102 287.562 309.148 285.906 307.242C284.266 305.32 283.445 302.922 283.445 300.047V299.508H301.539V297.938C301.539 294.297 300.633 291.43 298.82 289.336C297.023 287.227 294.586 286.172 291.508 286.172C289.539 286.172 287.711 286.734 286.023 287.859C284.336 288.969 283.016 290.5 282.062 292.453C281.125 294.406 280.656 296.602 280.656 299.039V300.047C280.656 302.406 281.141 304.539 282.109 306.445C283.078 308.336 284.43 309.812 286.164 310.875ZM286.164 290.883C287.617 289.336 289.398 288.562 291.508 288.562C293.633 288.562 295.352 289.328 296.664 290.859C297.977 292.391 298.672 294.375 298.75 296.812V297.117H283.539C283.852 294.508 284.727 292.43 286.164 290.883ZM322.469 308.461C322.547 310.023 322.727 311.203 323.008 312H326.008V311.719C325.492 310.5 325.234 308.664 325.234 306.211V294.211C325.188 291.68 324.344 289.711 322.703 288.305C321.078 286.883 318.852 286.172 316.023 286.172C313.289 286.172 310.984 286.914 309.109 288.398C307.234 289.867 306.297 291.609 306.297 293.625L309.109 293.648C309.109 292.242 309.75 291.039 311.031 290.039C312.312 289.039 313.93 288.539 315.883 288.539C318.023 288.539 319.648 289.062 320.758 290.109C321.883 291.141 322.445 292.562 322.445 294.375V297.258H317.359C313.688 297.258 310.82 297.977 308.758 299.414C306.711 300.852 305.688 302.805 305.688 305.273C305.688 307.352 306.438 309.07 307.938 310.43C309.453 311.789 311.43 312.469 313.867 312.469C315.57 312.469 317.18 312.125 318.695 311.438C320.227 310.734 321.484 309.742 322.469 308.461ZM319.211 308.625C317.742 309.531 316.07 309.984 314.195 309.984C312.508 309.984 311.133 309.516 310.07 308.578C309.023 307.641 308.5 306.461 308.5 305.039C308.5 303.305 309.289 301.945 310.867 300.961C312.445 299.961 314.633 299.445 317.43 299.414H322.445V304.992C321.773 306.508 320.695 307.719 319.211 308.625ZM342.555 288.867C343.227 288.867 343.859 288.922 344.453 289.031L344.523 286.477C344.07 286.273 343.453 286.172 342.672 286.172C339.391 286.172 337.008 287.672 335.523 290.672L335.477 286.641H332.734V312H335.523V294.586C336.039 292.727 336.898 291.312 338.102 290.344C339.32 289.359 340.805 288.867 342.555 288.867ZM362.711 308.461C361.398 309.555 359.766 310.102 357.812 310.102C355.266 310.102 353.289 309.195 351.883 307.383C350.492 305.57 349.797 303.047 349.797 299.812V298.992C349.797 295.695 350.492 293.133 351.883 291.305C353.289 289.477 355.258 288.562 357.789 288.562C359.773 288.562 361.414 289.172 362.711 290.391C364.023 291.609 364.742 293.211 364.867 295.195H367.562C367.438 292.492 366.469 290.312 364.656 288.656C362.859 287 360.57 286.172 357.789 286.172C355.602 286.172 353.688 286.695 352.047 287.742C350.422 288.789 349.172 290.273 348.297 292.195C347.422 294.117 346.984 296.328 346.984 298.828V299.672C346.984 303.578 347.953 306.688 349.891 309C351.844 311.312 354.484 312.469 357.812 312.469C359.5 312.469 361.078 312.109 362.547 311.391C364.031 310.672 365.219 309.68 366.109 308.414C367 307.133 367.484 305.719 367.562 304.172H364.867C364.758 305.922 364.039 307.352 362.711 308.461ZM379.516 287.414C378.078 288.242 376.898 289.414 375.977 290.93V276H373.188V312H375.977V294.633C376.617 292.789 377.602 291.328 378.93 290.25C380.273 289.156 381.812 288.609 383.547 288.609C385.625 288.609 387.133 289.164 388.07 290.273C389.023 291.383 389.508 293.07 389.523 295.336V312H392.312V295.359C392.297 292.297 391.625 290 390.297 288.469C388.969 286.938 386.945 286.172 384.227 286.172C382.523 286.172 380.953 286.586 379.516 287.414ZM434.242 312H437.148V277.875H434.242V293.203H414.742V277.875H411.859V312H414.742V295.641H434.242V312ZM445.516 312H448.328V286.641H445.516V312ZM445.539 277.969C445.195 278.328 445.023 278.773 445.023 279.305C445.023 279.836 445.195 280.281 445.539 280.641C445.883 281 446.352 281.18 446.945 281.18C447.539 281.18 448.008 281 448.352 280.641C448.711 280.281 448.891 279.836 448.891 279.305C448.891 278.773 448.711 278.328 448.352 277.969C448.008 277.594 447.539 277.406 446.945 277.406C446.352 277.406 445.883 277.594 445.539 277.969ZM469.469 302.203C470.594 303.047 471.156 304.164 471.156 305.555C471.156 306.867 470.555 307.953 469.352 308.812C468.148 309.672 466.57 310.102 464.617 310.102C462.523 310.102 460.836 309.648 459.555 308.742C458.289 307.82 457.602 306.539 457.492 304.898H454.68C454.68 307.086 455.594 308.898 457.422 310.336C459.266 311.758 461.664 312.469 464.617 312.469C467.398 312.469 469.648 311.828 471.367 310.547C473.102 309.266 473.969 307.555 473.969 305.414C473.969 304.102 473.672 302.984 473.078 302.062C472.484 301.141 471.57 300.352 470.336 299.695C469.117 299.039 467.273 298.422 464.805 297.844C462.352 297.266 460.656 296.633 459.719 295.945C458.797 295.242 458.336 294.258 458.336 292.992C458.336 291.68 458.891 290.617 460 289.805C461.125 288.977 462.609 288.562 464.453 288.562C466.344 288.562 467.906 289.055 469.141 290.039C470.391 291.023 471.016 292.258 471.016 293.742H473.828C473.828 291.492 472.969 289.672 471.25 288.281C469.547 286.875 467.281 286.172 464.453 286.172C461.844 286.172 459.703 286.828 458.031 288.141C456.359 289.438 455.523 291.086 455.523 293.086C455.523 294.352 455.82 295.43 456.414 296.32C457.023 297.211 457.945 297.969 459.18 298.594C460.43 299.203 462.18 299.75 464.43 300.234C466.68 300.703 468.359 301.359 469.469 302.203ZM484.656 286.641V280.148H481.844V286.641H477.18V288.938H481.844V305.859C481.844 308.031 482.281 309.68 483.156 310.805C484.031 311.914 485.43 312.469 487.352 312.469C488.617 312.469 489.617 312.336 490.352 312.07L490.234 309.773C489.188 309.93 488.43 310.008 487.961 310.008C486.773 310.008 485.922 309.664 485.406 308.977C484.906 308.289 484.656 307.242 484.656 305.836V288.938H489.906V286.641H484.656ZM495.109 292.359C494.172 294.312 493.703 296.508 493.703 298.945V299.508C493.703 303.414 494.75 306.555 496.844 308.93C498.953 311.289 501.688 312.469 505.047 312.469C507.25 312.469 509.211 311.938 510.93 310.875C512.648 309.812 513.977 308.305 514.914 306.352C515.867 304.383 516.344 302.172 516.344 299.719V299.133C516.344 295.227 515.297 292.094 513.203 289.734C511.109 287.359 508.375 286.172 505 286.172C502.812 286.172 500.852 286.719 499.117 287.812C497.398 288.891 496.062 290.406 495.109 292.359ZM498.859 307.195C497.297 305.242 496.516 302.75 496.516 299.719V299.203C496.516 296.031 497.305 293.469 498.883 291.516C500.461 289.547 502.5 288.562 505 288.562C506.672 288.562 508.156 289.008 509.453 289.898C510.75 290.773 511.758 292.016 512.477 293.625C513.195 295.234 513.555 297.008 513.555 298.945V299.484C513.555 302.672 512.766 305.242 511.188 307.195C509.625 309.133 507.578 310.102 505.047 310.102C502.5 310.102 500.438 309.133 498.859 307.195ZM531.977 288.867C532.648 288.867 533.281 288.922 533.875 289.031L533.945 286.477C533.492 286.273 532.875 286.172 532.094 286.172C528.812 286.172 526.43 287.672 524.945 290.672L524.898 286.641H522.156V312H524.945V294.586C525.461 292.727 526.32 291.312 527.523 290.344C528.742 289.359 530.227 288.867 531.977 288.867ZM554.195 286.641L546.789 307.969L538.914 286.641H535.844L545.406 311.789L544.164 315.211C543.57 316.867 542.844 318.031 541.984 318.703C541.141 319.391 540.031 319.734 538.656 319.734L537.203 319.594L537.227 321.914C537.992 322.133 538.711 322.242 539.383 322.242C542.289 322.242 544.438 320.703 545.828 317.625L546.391 316.312L557.219 286.641H554.195ZM590.43 307.898V312H591.719V286.641H590.43V304.477C590.023 306.68 589.062 308.352 587.547 309.492C586.031 310.633 584.062 311.203 581.641 311.203C579.359 311.203 577.625 310.516 576.438 309.141C575.25 307.75 574.641 305.711 574.609 303.023V286.641H573.344V302.977C573.375 306.07 574.078 308.43 575.453 310.055C576.844 311.664 578.922 312.469 581.688 312.469C583.891 312.469 585.711 312.062 587.148 311.25C588.586 310.422 589.68 309.305 590.43 307.898ZM607.492 299.508C612.742 300.617 615.367 302.711 615.367 305.789C615.367 307.289 614.656 308.57 613.234 309.633C611.828 310.68 609.992 311.203 607.727 311.203C605.258 311.203 603.297 310.711 601.844 309.727C600.406 308.727 599.625 307.336 599.5 305.555H598.234C598.234 307.586 599.102 309.25 600.836 310.547C602.586 311.828 604.883 312.469 607.727 312.469C610.383 312.469 612.531 311.859 614.172 310.641C615.812 309.422 616.633 307.812 616.633 305.812C616.633 304.516 616.359 303.422 615.812 302.531C615.266 301.625 614.383 300.844 613.164 300.188C611.945 299.531 610.289 298.961 608.195 298.477C606.102 297.992 604.508 297.492 603.414 296.977C602.32 296.445 601.531 295.859 601.047 295.219C600.562 294.562 600.32 293.664 600.32 292.523C600.32 291.07 600.969 289.859 602.266 288.891C603.562 287.922 605.32 287.438 607.539 287.438C609.852 287.438 611.727 288.008 613.164 289.148C614.602 290.289 615.32 291.711 615.32 293.414H616.609C616.609 291.195 615.781 289.438 614.125 288.141C612.469 286.828 610.273 286.172 607.539 286.172C605.023 286.172 602.977 286.773 601.398 287.977C599.836 289.18 599.055 290.711 599.055 292.57C599.055 294.414 599.672 295.867 600.906 296.93C602.141 297.977 604.336 298.836 607.492 299.508ZM627.109 310.828C628.828 311.922 630.711 312.469 632.758 312.469C636.477 312.469 639.281 311.102 641.172 308.367L640.281 307.734C639.359 308.922 638.297 309.805 637.094 310.383C635.906 310.945 634.461 311.227 632.758 311.227C630.977 311.227 629.32 310.727 627.789 309.727C626.273 308.727 625.078 307.352 624.203 305.602C623.344 303.836 622.914 301.922 622.914 299.859V298.477H641.922V297.141C641.922 293.859 641.023 291.211 639.227 289.195C637.43 287.18 635.117 286.172 632.289 286.172C630.352 286.172 628.562 286.719 626.922 287.812C625.281 288.906 623.992 290.43 623.055 292.383C622.117 294.336 621.648 296.484 621.648 298.828V299.883C621.648 302.227 622.133 304.359 623.102 306.281C624.07 308.203 625.406 309.719 627.109 310.828ZM626.008 290.203C627.727 288.359 629.82 287.438 632.289 287.438C633.867 287.438 635.289 287.852 636.555 288.68C637.836 289.492 638.836 290.641 639.555 292.125C640.289 293.594 640.656 295.188 640.656 296.906V297.211H622.984C623.281 294.367 624.289 292.031 626.008 290.203ZM649.211 289.594C647.508 291.859 646.656 295.016 646.656 299.062V299.391C646.656 303.453 647.508 306.648 649.211 308.977C650.914 311.305 653.234 312.469 656.172 312.469C658.078 312.469 659.781 312.078 661.281 311.297C662.781 310.5 663.961 309.383 664.82 307.945V312H666.086V276H664.82V291.305C663.914 289.602 662.727 288.32 661.258 287.461C659.805 286.602 658.125 286.172 656.219 286.172C653.25 286.172 650.914 287.312 649.211 289.594ZM650.102 308.086C648.68 305.992 647.969 303.148 647.969 299.555C647.969 295.57 648.688 292.555 650.125 290.508C651.578 288.461 653.602 287.438 656.195 287.438C660.492 287.438 663.367 289.57 664.82 293.836V305.719C664.102 307.516 663 308.883 661.516 309.82C660.031 310.742 658.242 311.203 656.148 311.203C653.539 311.203 651.523 310.164 650.102 308.086ZM702.438 308.977C704.141 306.648 704.992 303.508 704.992 299.555V299.156C704.992 295.047 704.141 291.859 702.438 289.594C700.734 287.312 698.398 286.172 695.43 286.172C693.508 286.172 691.812 286.602 690.344 287.461C688.891 288.32 687.719 289.586 686.828 291.258V276H685.562V312H686.828V307.992C687.688 309.398 688.867 310.5 690.367 311.297C691.867 312.078 693.57 312.469 695.477 312.469C698.414 312.469 700.734 311.305 702.438 308.977ZM701.5 290.531C702.953 292.578 703.68 295.422 703.68 299.062C703.68 303 702.969 306.008 701.547 308.086C700.125 310.164 698.109 311.203 695.5 311.203C693.344 311.203 691.523 310.719 690.039 309.75C688.57 308.766 687.5 307.375 686.828 305.578V293.953C687.5 291.797 688.57 290.172 690.039 289.078C691.523 287.984 693.328 287.438 695.453 287.438C698.047 287.438 700.062 288.469 701.5 290.531ZM719.547 309.562L719.383 310.031L709.984 286.641H708.602L718.703 311.859L717.156 316.055C716.516 317.805 715.758 319.062 714.883 319.828C714.008 320.609 712.906 321 711.578 321C710.938 321 710.367 320.93 709.867 320.789L709.891 321.984C710.234 322.156 710.859 322.242 711.766 322.242C714.578 322.242 716.594 320.766 717.812 317.812L718.375 316.406L729.719 286.641H728.312L719.547 309.562ZM766.234 311.273C768.375 310.477 769.945 309.367 770.945 307.945V295.805H758.898V298.242H768.062V307.055C767.5 307.742 766.641 308.344 765.484 308.859C763.703 309.641 761.57 310.031 759.086 310.031C756.945 310.031 755.047 309.484 753.391 308.391C751.75 307.297 750.484 305.758 749.594 303.773C748.719 301.773 748.281 299.477 748.281 296.883V292.852C748.281 288.727 749.211 285.531 751.07 283.266C752.93 281 755.453 279.867 758.641 279.867C761.25 279.867 763.359 280.516 764.969 281.812C766.594 283.094 767.617 284.984 768.039 287.484H770.922C770.516 284.344 769.242 281.883 767.102 280.102C764.961 278.305 762.133 277.406 758.617 277.406C754.586 277.406 751.375 278.781 748.984 281.531C746.594 284.266 745.398 288 745.398 292.734V297.047C745.414 300.078 745.992 302.766 747.133 305.109C748.273 307.453 749.883 309.266 751.961 310.547C754.039 311.828 756.414 312.469 759.086 312.469C761.727 312.469 764.109 312.07 766.234 311.273ZM778.328 292.359C777.391 294.312 776.922 296.508 776.922 298.945V299.508C776.922 303.414 777.969 306.555 780.062 308.93C782.172 311.289 784.906 312.469 788.266 312.469C790.469 312.469 792.43 311.938 794.148 310.875C795.867 309.812 797.195 308.305 798.133 306.352C799.086 304.383 799.562 302.172 799.562 299.719V299.133C799.562 295.227 798.516 292.094 796.422 289.734C794.328 287.359 791.594 286.172 788.219 286.172C786.031 286.172 784.07 286.719 782.336 287.812C780.617 288.891 779.281 290.406 778.328 292.359ZM782.078 307.195C780.516 305.242 779.734 302.75 779.734 299.719V299.203C779.734 296.031 780.523 293.469 782.102 291.516C783.68 289.547 785.719 288.562 788.219 288.562C789.891 288.562 791.375 289.008 792.672 289.898C793.969 290.773 794.977 292.016 795.695 293.625C796.414 295.234 796.773 297.008 796.773 298.945V299.484C796.773 302.672 795.984 305.242 794.406 307.195C792.844 309.133 790.797 310.102 788.266 310.102C785.719 310.102 783.656 309.133 782.078 307.195ZM805.234 292.359C804.297 294.312 803.828 296.508 803.828 298.945V299.508C803.828 303.414 804.875 306.555 806.969 308.93C809.078 311.289 811.812 312.469 815.172 312.469C817.375 312.469 819.336 311.938 821.055 310.875C822.773 309.812 824.102 308.305 825.039 306.352C825.992 304.383 826.469 302.172 826.469 299.719V299.133C826.469 295.227 825.422 292.094 823.328 289.734C821.234 287.359 818.5 286.172 815.125 286.172C812.938 286.172 810.977 286.719 809.242 287.812C807.523 288.891 806.188 290.406 805.234 292.359ZM808.984 307.195C807.422 305.242 806.641 302.75 806.641 299.719V299.203C806.641 296.031 807.43 293.469 809.008 291.516C810.586 289.547 812.625 288.562 815.125 288.562C816.797 288.562 818.281 289.008 819.578 289.898C820.875 290.773 821.883 292.016 822.602 293.625C823.32 295.234 823.68 297.008 823.68 298.945V299.484C823.68 302.672 822.891 305.242 821.312 307.195C819.75 309.133 817.703 310.102 815.172 310.102C812.625 310.102 810.562 309.133 808.984 307.195ZM833.781 289.664C832.031 291.977 831.156 295.117 831.156 299.086V299.461C831.156 303.445 832.047 306.609 833.828 308.953C835.609 311.297 837.969 312.469 840.906 312.469C844.344 312.469 846.961 311.219 848.758 308.719V311.906C848.711 314.359 848.031 316.273 846.719 317.648C845.406 319.039 843.578 319.734 841.234 319.734C838.5 319.734 836.141 318.516 834.156 316.078L832.586 317.766C833.508 319.078 834.766 320.125 836.359 320.906C837.969 321.703 839.656 322.102 841.422 322.102C844.547 322.102 847.023 321.148 848.852 319.242C850.68 317.336 851.594 314.75 851.594 311.484V286.641H848.969L848.828 290.297C847.031 287.547 844.406 286.172 840.953 286.172C837.938 286.172 835.547 287.336 833.781 289.664ZM835.938 307.242C834.641 305.367 833.992 302.812 833.992 299.578C833.992 295.969 834.648 293.242 835.961 291.398C837.273 289.539 839.109 288.609 841.469 288.609C843.203 288.609 844.688 289.039 845.922 289.898C847.156 290.742 848.102 291.977 848.758 293.602V305.391C847.32 308.484 844.875 310.031 841.422 310.031C839.062 310.031 837.234 309.102 835.938 307.242ZM859.234 312H862.047V276H859.234V312ZM873.648 310.875C875.398 311.938 877.352 312.469 879.508 312.469C883.43 312.469 886.422 310.977 888.484 307.992L886.727 306.656C885.789 307.859 884.742 308.734 883.586 309.281C882.445 309.828 881.125 310.102 879.625 310.102C877.125 310.102 875.047 309.148 873.391 307.242C871.75 305.32 870.93 302.922 870.93 300.047V299.508H889.023V297.938C889.023 294.297 888.117 291.43 886.305 289.336C884.508 287.227 882.07 286.172 878.992 286.172C877.023 286.172 875.195 286.734 873.508 287.859C871.82 288.969 870.5 290.5 869.547 292.453C868.609 294.406 868.141 296.602 868.141 299.039V300.047C868.141 302.406 868.625 304.539 869.594 306.445C870.562 308.336 871.914 309.812 873.648 310.875ZM873.648 290.883C875.102 289.336 876.883 288.562 878.992 288.562C881.117 288.562 882.836 289.328 884.148 290.859C885.461 292.391 886.156 294.375 886.234 296.812V297.117H871.023C871.336 294.508 872.211 292.43 873.648 290.883ZM1040.56 293.2C1044.26 289.98 1049.06 288 1054.36 288C1063.66 288 1071.52 294.06 1074.3 302.44L1069.56 304C1067.46 297.62 1061.44 293 1054.36 293C1050.44 293 1046.9 294.44 1044.12 296.76L1051.36 304H1033.36V286L1040.56 293.2Z" fill="black"/>
<path fill-rule="evenodd" clip-rule="evenodd" d="M58.3203 237H81.7109V231.539H67.0391L74.7969 223.359C76.9219 221.031 78.4219 218.992 79.2969 217.242C80.1719 215.492 80.6094 213.773 80.6094 212.086C80.6094 209.008 79.6328 206.625 77.6797 204.938C75.7422 203.25 73.0156 202.406 69.5 202.406C67.2031 202.406 65.1484 202.898 63.3359 203.883C61.5234 204.852 60.1172 206.195 59.1172 207.914C58.1328 209.633 57.6406 211.531 57.6406 213.609H64.4375C64.4375 211.891 64.875 210.508 65.75 209.461C66.6406 208.398 67.8516 207.867 69.3828 207.867C70.8047 207.867 71.8984 208.305 72.6641 209.18C73.4297 210.039 73.8125 211.227 73.8125 212.742C73.8125 213.852 73.4453 215.023 72.7109 216.258C71.9922 217.492 70.875 218.938 69.3594 220.594L58.3203 232.359V237ZM83.2578 239.93H88.2969L100.859 202.875H95.8203L83.2578 239.93ZM113.516 237H120.289V202.828H119.562L105.43 207.891V213.398L113.516 210.891V237ZM151.438 233.719C153.391 231.219 154.367 227.609 154.367 222.891V216.609C154.32 212.031 153.312 208.523 151.344 206.086C149.375 203.633 146.531 202.406 142.812 202.406C139.094 202.406 136.242 203.641 134.258 206.109C132.289 208.578 131.305 212.195 131.305 216.961V223.242C131.352 227.82 132.359 231.336 134.328 233.789C136.297 236.242 139.141 237.469 142.859 237.469C146.625 237.469 149.484 236.219 151.438 233.719ZM146.422 209.836C147.203 211.117 147.594 213.172 147.594 216V224.109C147.562 226.781 147.18 228.766 146.445 230.062C145.711 231.359 144.516 232.008 142.859 232.008C141.188 232.008 139.969 231.336 139.203 229.992C138.453 228.633 138.078 226.562 138.078 223.781V215.484C138.125 212.875 138.523 210.961 139.273 209.742C140.039 208.508 141.219 207.891 142.812 207.891C144.453 207.891 145.656 208.539 146.422 209.836ZM156.336 239.93H161.375L173.938 202.875H168.898L156.336 239.93ZM186.594 237H193.367V202.828H192.641L178.508 207.891V213.398L186.594 210.891V237ZM214.133 225.961C216.492 225.961 218.555 225.094 220.32 223.359C219.836 228.625 216.648 231.391 210.758 231.656L209.258 231.68V237.328L210.922 237.305C216.109 237.086 220.117 235.352 222.945 232.102C225.773 228.852 227.188 224.383 227.188 218.695V216.188C227.172 213.469 226.68 211.055 225.711 208.945C224.742 206.836 223.383 205.219 221.633 204.094C219.883 202.969 217.883 202.406 215.633 202.406C213.445 202.406 211.477 202.93 209.727 203.977C207.977 205.008 206.609 206.461 205.625 208.336C204.656 210.195 204.172 212.242 204.172 214.477C204.172 217.992 205.078 220.789 206.891 222.867C208.703 224.93 211.117 225.961 214.133 225.961ZM218.609 219.938C217.828 220.5 216.891 220.781 215.797 220.781C214.25 220.781 213.047 220.188 212.188 219C211.344 217.797 210.922 216.266 210.922 214.406C210.922 212.531 211.359 210.977 212.234 209.742C213.109 208.492 214.227 207.867 215.586 207.867C217.055 207.867 218.227 208.5 219.102 209.766C219.977 211.031 220.414 212.812 220.414 215.109V217.898C220.008 218.695 219.406 219.375 218.609 219.938ZM232.906 234.938C232.656 235.188 232.531 235.492 232.531 235.852C232.531 236.211 232.656 236.516 232.906 236.766C233.156 237.016 233.461 237.141 233.82 237.141C234.18 237.141 234.484 237.016 234.734 236.766C235 236.516 235.133 236.211 235.133 235.852C235.133 235.492 235 235.188 234.734 234.938C234.484 234.672 234.18 234.539 233.82 234.539C233.461 234.539 233.156 234.672 232.906 234.938ZM233.023 212.391C232.773 212.641 232.648 212.945 232.648 213.305C232.648 213.664 232.773 213.969 233.023 214.219C233.273 214.469 233.578 214.594 233.938 214.594C234.297 214.594 234.602 214.469 234.852 214.219C235.117 213.969 235.25 213.664 235.25 213.305C235.25 212.945 235.117 212.641 234.852 212.391C234.602 212.125 234.297 211.992 233.938 211.992C233.578 211.992 233.273 212.125 233.023 212.391ZM271.367 224.133C272.695 225.227 273.359 226.719 273.359 228.609C273.359 230.547 272.555 232.102 270.945 233.273C269.336 234.445 267.203 235.031 264.547 235.031C261.562 235.031 259.172 234.336 257.375 232.945C255.578 231.555 254.68 229.656 254.68 227.25H251.797C251.797 229.25 252.312 231.023 253.344 232.57C254.391 234.117 255.914 235.32 257.914 236.18C259.93 237.039 262.141 237.469 264.547 237.469C268.062 237.469 270.891 236.656 273.031 235.031C275.188 233.406 276.266 231.25 276.266 228.562C276.266 226.859 275.867 225.383 275.07 224.133C274.273 222.883 273.086 221.812 271.508 220.922C269.93 220.016 267.609 219.148 264.547 218.32C261.484 217.477 259.258 216.508 257.867 215.414C256.477 214.32 255.781 212.906 255.781 211.172C255.781 209.297 256.555 207.781 258.102 206.625C259.648 205.453 261.727 204.867 264.336 204.867C267.023 204.867 269.164 205.578 270.758 207C272.352 208.406 273.148 210.273 273.148 212.602H276.055C276.055 210.68 275.562 208.938 274.578 207.375C273.594 205.812 272.203 204.594 270.406 203.719C268.625 202.844 266.602 202.406 264.336 202.406C260.992 202.406 258.242 203.227 256.086 204.867C253.945 206.492 252.875 208.609 252.875 211.219C252.875 213.906 254.031 216.078 256.344 217.734C257.969 218.906 260.547 219.992 264.078 220.992C267.609 221.977 270.039 223.023 271.367 224.133ZM288.172 212.414C286.734 213.242 285.555 214.414 284.633 215.93V201H281.844V237H284.633V219.633C285.273 217.789 286.258 216.328 287.586 215.25C288.93 214.156 290.469 213.609 292.203 213.609C294.281 213.609 295.789 214.164 296.727 215.273C297.68 216.383 298.164 218.07 298.18 220.336V237H300.969V220.359C300.953 217.297 300.281 215 298.953 213.469C297.625 211.938 295.602 211.172 292.883 211.172C291.18 211.172 289.609 211.586 288.172 212.414ZM308.047 217.359C307.109 219.312 306.641 221.508 306.641 223.945V224.508C306.641 228.414 307.688 231.555 309.781 233.93C311.891 236.289 314.625 237.469 317.984 237.469C320.188 237.469 322.148 236.938 323.867 235.875C325.586 234.812 326.914 233.305 327.852 231.352C328.805 229.383 329.281 227.172 329.281 224.719V224.133C329.281 220.227 328.234 217.094 326.141 214.734C324.047 212.359 321.312 211.172 317.938 211.172C315.75 211.172 313.789 211.719 312.055 212.812C310.336 213.891 309 215.406 308.047 217.359ZM311.797 232.195C310.234 230.242 309.453 227.75 309.453 224.719V224.203C309.453 221.031 310.242 218.469 311.82 216.516C313.398 214.547 315.438 213.562 317.938 213.562C319.609 213.562 321.094 214.008 322.391 214.898C323.688 215.773 324.695 217.016 325.414 218.625C326.133 220.234 326.492 222.008 326.492 223.945V224.484C326.492 227.672 325.703 230.242 324.125 232.195C322.562 234.133 320.516 235.102 317.984 235.102C315.438 235.102 313.375 234.133 311.797 232.195ZM339.055 235.875C340.805 236.938 342.758 237.469 344.914 237.469C348.836 237.469 351.828 235.977 353.891 232.992L352.133 231.656C351.195 232.859 350.148 233.734 348.992 234.281C347.852 234.828 346.531 235.102 345.031 235.102C342.531 235.102 340.453 234.148 338.797 232.242C337.156 230.32 336.336 227.922 336.336 225.047V224.508H354.43V222.938C354.43 219.297 353.523 216.43 351.711 214.336C349.914 212.227 347.477 211.172 344.398 211.172C342.43 211.172 340.602 211.734 338.914 212.859C337.227 213.969 335.906 215.5 334.953 217.453C334.016 219.406 333.547 221.602 333.547 224.039V225.047C333.547 227.406 334.031 229.539 335 231.445C335.969 233.336 337.32 234.812 339.055 235.875ZM339.055 215.883C340.508 214.336 342.289 213.562 344.398 213.562C346.523 213.562 348.242 214.328 349.555 215.859C350.867 217.391 351.562 219.375 351.641 221.812V222.117H336.43C336.742 219.508 337.617 217.43 339.055 215.883ZM389.328 234C391.078 231.672 391.953 228.531 391.953 224.578V224.18C391.953 220.102 391.086 216.914 389.352 214.617C387.633 212.32 385.258 211.172 382.227 211.172C378.758 211.172 376.109 212.523 374.281 215.227L374.141 211.641H371.539V246.75H374.328V233.812C376.172 236.25 378.828 237.469 382.297 237.469C385.234 237.469 387.578 236.312 389.328 234ZM387.148 216.422C388.477 218.297 389.141 220.852 389.141 224.086C389.141 227.664 388.477 230.398 387.148 232.289C385.836 234.164 384 235.102 381.641 235.102C379.938 235.102 378.461 234.719 377.211 233.953C375.961 233.188 375 232.078 374.328 230.625V218.461C374.984 216.883 375.93 215.68 377.164 214.852C378.398 214.023 379.875 213.609 381.594 213.609C383.969 213.609 385.82 214.547 387.148 216.422ZM406.414 237.469C410.117 237.469 412.812 236.242 414.5 233.789L414.547 237H417.266V211.641H414.453V229.992C413.375 233.352 410.805 235.031 406.742 235.031C402.836 235.031 400.883 232.617 400.883 227.789V211.641H398.094V228.141C398.125 231.219 398.844 233.547 400.25 235.125C401.656 236.688 403.711 237.469 406.414 237.469ZM434.398 213.867C435.07 213.867 435.703 213.922 436.297 214.031L436.367 211.477C435.914 211.273 435.297 211.172 434.516 211.172C431.234 211.172 428.852 212.672 427.367 215.672L427.32 211.641H424.578V237H427.367V219.586C427.883 217.727 428.742 216.312 429.945 215.344C431.164 214.359 432.648 213.867 434.398 213.867ZM454.555 233.461C453.242 234.555 451.609 235.102 449.656 235.102C447.109 235.102 445.133 234.195 443.727 232.383C442.336 230.57 441.641 228.047 441.641 224.812V223.992C441.641 220.695 442.336 218.133 443.727 216.305C445.133 214.477 447.102 213.562 449.633 213.562C451.617 213.562 453.258 214.172 454.555 215.391C455.867 216.609 456.586 218.211 456.711 220.195H459.406C459.281 217.492 458.312 215.312 456.5 213.656C454.703 212 452.414 211.172 449.633 211.172C447.445 211.172 445.531 211.695 443.891 212.742C442.266 213.789 441.016 215.273 440.141 217.195C439.266 219.117 438.828 221.328 438.828 223.828V224.672C438.828 228.578 439.797 231.688 441.734 234C443.688 236.312 446.328 237.469 449.656 237.469C451.344 237.469 452.922 237.109 454.391 236.391C455.875 235.672 457.062 234.68 457.953 233.414C458.844 232.133 459.328 230.719 459.406 229.172H456.711C456.602 230.922 455.883 232.352 454.555 233.461ZM471.359 212.414C469.922 213.242 468.742 214.414 467.82 215.93V201H465.031V237H467.82V219.633C468.461 217.789 469.445 216.328 470.773 215.25C472.117 214.156 473.656 213.609 475.391 213.609C477.469 213.609 478.977 214.164 479.914 215.273C480.867 216.383 481.352 218.07 481.367 220.336V237H484.156V220.359C484.141 217.297 483.469 215 482.141 213.469C480.812 211.938 478.789 211.172 476.07 211.172C474.367 211.172 472.797 211.586 471.359 212.414ZM506.844 233.461C506.922 235.023 507.102 236.203 507.383 237H510.383V236.719C509.867 235.5 509.609 233.664 509.609 231.211V219.211C509.562 216.68 508.719 214.711 507.078 213.305C505.453 211.883 503.227 211.172 500.398 211.172C497.664 211.172 495.359 211.914 493.484 213.398C491.609 214.867 490.672 216.609 490.672 218.625L493.484 218.648C493.484 217.242 494.125 216.039 495.406 215.039C496.688 214.039 498.305 213.539 500.258 213.539C502.398 213.539 504.023 214.062 505.133 215.109C506.258 216.141 506.82 217.562 506.82 219.375V222.258H501.734C498.062 222.258 495.195 222.977 493.133 224.414C491.086 225.852 490.062 227.805 490.062 230.273C490.062 232.352 490.812 234.07 492.312 235.43C493.828 236.789 495.805 237.469 498.242 237.469C499.945 237.469 501.555 237.125 503.07 236.438C504.602 235.734 505.859 234.742 506.844 233.461ZM503.586 233.625C502.117 234.531 500.445 234.984 498.57 234.984C496.883 234.984 495.508 234.516 494.445 233.578C493.398 232.641 492.875 231.461 492.875 230.039C492.875 228.305 493.664 226.945 495.242 225.961C496.82 224.961 499.008 224.445 501.805 224.414H506.82V229.992C506.148 231.508 505.07 232.719 503.586 233.625ZM530.609 227.203C531.734 228.047 532.297 229.164 532.297 230.555C532.297 231.867 531.695 232.953 530.492 233.812C529.289 234.672 527.711 235.102 525.758 235.102C523.664 235.102 521.977 234.648 520.695 233.742C519.43 232.82 518.742 231.539 518.633 229.898H515.82C515.82 232.086 516.734 233.898 518.562 235.336C520.406 236.758 522.805 237.469 525.758 237.469C528.539 237.469 530.789 236.828 532.508 235.547C534.242 234.266 535.109 232.555 535.109 230.414C535.109 229.102 534.812 227.984 534.219 227.062C533.625 226.141 532.711 225.352 531.477 224.695C530.258 224.039 528.414 223.422 525.945 222.844C523.492 222.266 521.797 221.633 520.859 220.945C519.938 220.242 519.477 219.258 519.477 217.992C519.477 216.68 520.031 215.617 521.141 214.805C522.266 213.977 523.75 213.562 525.594 213.562C527.484 213.562 529.047 214.055 530.281 215.039C531.531 216.023 532.156 217.258 532.156 218.742H534.969C534.969 216.492 534.109 214.672 532.391 213.281C530.688 211.875 528.422 211.172 525.594 211.172C522.984 211.172 520.844 211.828 519.172 213.141C517.5 214.438 516.664 216.086 516.664 218.086C516.664 219.352 516.961 220.43 517.555 221.32C518.164 222.211 519.086 222.969 520.32 223.594C521.57 224.203 523.32 224.75 525.57 225.234C527.82 225.703 529.5 226.359 530.609 227.203ZM545.398 235.875C547.148 236.938 549.102 237.469 551.258 237.469C555.18 237.469 558.172 235.977 560.234 232.992L558.477 231.656C557.539 232.859 556.492 233.734 555.336 234.281C554.195 234.828 552.875 235.102 551.375 235.102C548.875 235.102 546.797 234.148 545.141 232.242C543.5 230.32 542.68 227.922 542.68 225.047V224.508H560.773V222.938C560.773 219.297 559.867 216.43 558.055 214.336C556.258 212.227 553.82 211.172 550.742 211.172C548.773 211.172 546.945 211.734 545.258 212.859C543.57 213.969 542.25 215.5 541.297 217.453C540.359 219.406 539.891 221.602 539.891 224.039V225.047C539.891 227.406 540.375 229.539 541.344 231.445C542.312 233.336 543.664 234.812 545.398 235.875ZM545.398 215.883C546.852 214.336 548.633 213.562 550.742 213.562C552.867 213.562 554.586 214.328 555.898 215.859C557.211 217.391 557.906 219.375 557.984 221.812V222.117H542.773C543.086 219.508 543.961 217.43 545.398 215.883ZM595.086 232.898V237H596.375V211.641H595.086V229.477C594.68 231.68 593.719 233.352 592.203 234.492C590.688 235.633 588.719 236.203 586.297 236.203C584.016 236.203 582.281 235.516 581.094 234.141C579.906 232.75 579.297 230.711 579.266 228.023V211.641H578V227.977C578.031 231.07 578.734 233.43 580.109 235.055C581.5 236.664 583.578 237.469 586.344 237.469C588.547 237.469 590.367 237.062 591.805 236.25C593.242 235.422 594.336 234.305 595.086 232.898ZM612.148 224.508C617.398 225.617 620.023 227.711 620.023 230.789C620.023 232.289 619.312 233.57 617.891 234.633C616.484 235.68 614.648 236.203 612.383 236.203C609.914 236.203 607.953 235.711 606.5 234.727C605.062 233.727 604.281 232.336 604.156 230.555H602.891C602.891 232.586 603.758 234.25 605.492 235.547C607.242 236.828 609.539 237.469 612.383 237.469C615.039 237.469 617.188 236.859 618.828 235.641C620.469 234.422 621.289 232.812 621.289 230.812C621.289 229.516 621.016 228.422 620.469 227.531C619.922 226.625 619.039 225.844 617.82 225.188C616.602 224.531 614.945 223.961 612.852 223.477C610.758 222.992 609.164 222.492 608.07 221.977C606.977 221.445 606.188 220.859 605.703 220.219C605.219 219.562 604.977 218.664 604.977 217.523C604.977 216.07 605.625 214.859 606.922 213.891C608.219 212.922 609.977 212.438 612.195 212.438C614.508 212.438 616.383 213.008 617.82 214.148C619.258 215.289 619.977 216.711 619.977 218.414H621.266C621.266 216.195 620.438 214.438 618.781 213.141C617.125 211.828 614.93 211.172 612.195 211.172C609.68 211.172 607.633 211.773 606.055 212.977C604.492 214.18 603.711 215.711 603.711 217.57C603.711 219.414 604.328 220.867 605.562 221.93C606.797 222.977 608.992 223.836 612.148 224.508ZM631.766 235.828C633.484 236.922 635.367 237.469 637.414 237.469C641.133 237.469 643.938 236.102 645.828 233.367L644.938 232.734C644.016 233.922 642.953 234.805 641.75 235.383C640.562 235.945 639.117 236.227 637.414 236.227C635.633 236.227 633.977 235.727 632.445 234.727C630.93 233.727 629.734 232.352 628.859 230.602C628 228.836 627.57 226.922 627.57 224.859V223.477H646.578V222.141C646.578 218.859 645.68 216.211 643.883 214.195C642.086 212.18 639.773 211.172 636.945 211.172C635.008 211.172 633.219 211.719 631.578 212.812C629.938 213.906 628.648 215.43 627.711 217.383C626.773 219.336 626.305 221.484 626.305 223.828V224.883C626.305 227.227 626.789 229.359 627.758 231.281C628.727 233.203 630.062 234.719 631.766 235.828ZM630.664 215.203C632.383 213.359 634.477 212.438 636.945 212.438C638.523 212.438 639.945 212.852 641.211 213.68C642.492 214.492 643.492 215.641 644.211 217.125C644.945 218.594 645.312 220.188 645.312 221.906V222.211H627.641C627.938 219.367 628.945 217.031 630.664 215.203ZM653.867 214.594C652.164 216.859 651.312 220.016 651.312 224.062V224.391C651.312 228.453 652.164 231.648 653.867 233.977C655.57 236.305 657.891 237.469 660.828 237.469C662.734 237.469 664.438 237.078 665.938 236.297C667.438 235.5 668.617 234.383 669.477 232.945V237H670.742V201H669.477V216.305C668.57 214.602 667.383 213.32 665.914 212.461C664.461 211.602 662.781 211.172 660.875 211.172C657.906 211.172 655.57 212.312 653.867 214.594ZM654.758 233.086C653.336 230.992 652.625 228.148 652.625 224.555C652.625 220.57 653.344 217.555 654.781 215.508C656.234 213.461 658.258 212.438 660.852 212.438C665.148 212.438 668.023 214.57 669.477 218.836V230.719C668.758 232.516 667.656 233.883 666.172 234.82C664.688 235.742 662.898 236.203 660.805 236.203C658.195 236.203 656.18 235.164 654.758 233.086ZM707.094 233.977C708.797 231.648 709.648 228.508 709.648 224.555V224.156C709.648 220.047 708.797 216.859 707.094 214.594C705.391 212.312 703.055 211.172 700.086 211.172C698.164 211.172 696.469 211.602 695 212.461C693.547 213.32 692.375 214.586 691.484 216.258V201H690.219V237H691.484V232.992C692.344 234.398 693.523 235.5 695.023 236.297C696.523 237.078 698.227 237.469 700.133 237.469C703.07 237.469 705.391 236.305 707.094 233.977ZM706.156 215.531C707.609 217.578 708.336 220.422 708.336 224.062C708.336 228 707.625 231.008 706.203 233.086C704.781 235.164 702.766 236.203 700.156 236.203C698 236.203 696.18 235.719 694.695 234.75C693.227 233.766 692.156 232.375 691.484 230.578V218.953C692.156 216.797 693.227 215.172 694.695 214.078C696.18 212.984 697.984 212.438 700.109 212.438C702.703 212.438 704.719 213.469 706.156 215.531ZM724.203 234.562L724.039 235.031L714.641 211.641H713.258L723.359 236.859L721.812 241.055C721.172 242.805 720.414 244.062 719.539 244.828C718.664 245.609 717.562 246 716.234 246C715.594 246 715.023 245.93 714.523 245.789L714.547 246.984C714.891 247.156 715.516 247.242 716.422 247.242C719.234 247.242 721.25 245.766 722.469 242.812L723.031 241.406L734.375 211.641H732.969L724.203 234.562ZM773.492 237H776.375V202.875H773.516V232.102L753.875 202.875H750.969V237H753.875V207.797L773.492 237ZM784.719 237H787.531V211.641H784.719V237ZM784.742 202.969C784.398 203.328 784.227 203.773 784.227 204.305C784.227 204.836 784.398 205.281 784.742 205.641C785.086 206 785.555 206.18 786.148 206.18C786.742 206.18 787.211 206 787.555 205.641C787.914 205.281 788.094 204.836 788.094 204.305C788.094 203.773 787.914 203.328 787.555 202.969C787.211 202.594 786.742 202.406 786.148 202.406C785.555 202.406 785.086 202.594 784.742 202.969ZM797.984 227.32L801.195 224.227L811.461 237H814.812L803.117 222.328L813.875 211.641H810.336L800.633 221.18L797.984 224.039V201H795.172V237H797.984V227.32ZM822.195 235.875C823.945 236.938 825.898 237.469 828.055 237.469C831.977 237.469 834.969 235.977 837.031 232.992L835.273 231.656C834.336 232.859 833.289 233.734 832.133 234.281C830.992 234.828 829.672 235.102 828.172 235.102C825.672 235.102 823.594 234.148 821.938 232.242C820.297 230.32 819.477 227.922 819.477 225.047V224.508H837.57V222.938C837.57 219.297 836.664 216.43 834.852 214.336C833.055 212.227 830.617 211.172 827.539 211.172C825.57 211.172 823.742 211.734 822.055 212.859C820.367 213.969 819.047 215.5 818.094 217.453C817.156 219.406 816.688 221.602 816.688 224.039V225.047C816.688 227.406 817.172 229.539 818.141 231.445C819.109 233.336 820.461 234.812 822.195 235.875ZM822.195 215.883C823.648 214.336 825.43 213.562 827.539 213.562C829.664 213.562 831.383 214.328 832.695 215.859C834.008 217.391 834.703 219.375 834.781 221.812V222.117H819.57C819.883 219.508 820.758 217.43 822.195 215.883ZM1040.2 218.2C1043.9 214.98 1048.7 213 1054 213C1063.3 213 1071.16 219.06 1073.94 227.44L1069.2 229C1067.1 222.62 1061.08 218 1054 218C1050.08 218 1046.54 219.44 1043.76 221.76L1051 229H1033V211L1040.2 218.2Z" fill="black"/>
<path d="M57.375 129V60.75H76.2656C81.5469 60.75 86.3281 62 90.6094 64.5C94.8906 67 98.25 70.5156 100.688 75.0469C103.125 79.5469 104.375 84.5938 104.438 90.1875V99.0469C104.438 104.734 103.234 109.859 100.828 114.422C98.4531 118.984 95.125 122.547 90.8438 125.109C86.5625 127.672 81.7812 128.969 76.5 129H57.375ZM59.9062 63.2812V126.469H76.2656C81.0469 126.469 85.3906 125.312 89.2969 123C93.2344 120.656 96.3125 117.406 98.5312 113.25C100.75 109.062 101.875 104.422 101.906 99.3281V90.5625C101.906 85.4688 100.812 80.8438 98.625 76.6875C96.4688 72.5312 93.4375 69.2812 89.5312 66.9375C85.6562 64.5625 81.3594 63.3438 76.6406 63.2812H59.9062ZM155.109 108.609H121.688L114.094 129H111.328L136.875 60.75H139.969L165.516 129H162.75L155.109 108.609ZM122.625 106.078H154.172L138.422 63.7969L122.625 106.078ZM215.859 63.2812H191.016V129H188.484V63.2812H163.641V60.75H215.859V63.2812ZM260.016 108.609H226.594L219 129H216.234L241.781 60.75H244.875L270.422 129H267.656L260.016 108.609ZM227.531 106.078H259.078L243.328 63.7969L227.531 106.078ZM353.062 129H350.531V95.1562H306.938V129H304.406V60.75H306.938V92.625H350.531V60.75H353.062V129ZM376.219 129H373.688V60.75H376.219V129ZM437.719 112.641C437.719 109.734 437.031 107.281 435.656 105.281C434.312 103.25 432.172 101.469 429.234 99.9375C426.328 98.375 421.922 96.7812 416.016 95.1562C410.109 93.5312 405.672 91.8906 402.703 90.2344C399.766 88.5781 397.609 86.6562 396.234 84.4688C394.859 82.2812 394.172 79.625 394.172 76.5C394.172 71.5312 396.266 67.5156 400.453 64.4531C404.641 61.3594 410.094 59.8125 416.812 59.8125C421.188 59.8125 425.109 60.6719 428.578 62.3906C432.078 64.0781 434.781 66.4688 436.688 69.5625C438.594 72.625 439.547 76.0938 439.547 79.9688H437.016C437.016 74.875 435.141 70.6719 431.391 67.3594C427.641 64.0156 422.781 62.3438 416.812 62.3438C410.812 62.3438 405.953 63.6875 402.234 66.375C398.547 69.0312 396.703 72.375 396.703 76.4062C396.703 80.5 398.312 83.7969 401.531 86.2969C404.75 88.7969 410.062 91.0156 417.469 92.9531C424.875 94.8594 430.297 97.0781 433.734 99.6094C438.109 102.828 440.297 107.141 440.297 112.547C440.297 115.984 439.328 119.031 437.391 121.688C435.453 124.312 432.703 126.344 429.141 127.781C425.578 129.219 421.578 129.938 417.141 129.938C412.203 129.938 407.766 129.125 403.828 127.5C399.891 125.844 396.922 123.5 394.922 120.469C392.953 117.438 391.969 113.859 391.969 109.734H394.5C394.5 115.328 396.594 119.672 400.781 122.766C404.969 125.859 410.422 127.406 417.141 127.406C423.109 127.406 428.031 126.047 431.906 123.328C435.781 120.578 437.719 117.016 437.719 112.641ZM499.078 63.2812H474.234V129H471.703V63.2812H446.859V60.75H499.078V63.2812ZM558.047 99.9844C558.047 105.891 556.984 111.125 554.859 115.688C552.766 120.219 549.766 123.734 545.859 126.234C541.953 128.703 537.453 129.938 532.359 129.938C524.672 129.938 518.453 127.203 513.703 121.734C508.953 116.266 506.578 108.891 506.578 99.6094V89.7656C506.578 83.8906 507.625 78.6719 509.719 74.1094C511.844 69.5469 514.859 66.0312 518.766 63.5625C522.703 61.0625 527.203 59.8125 532.266 59.8125C537.359 59.8125 541.859 61.0625 545.766 63.5625C549.703 66.0312 552.734 69.5625 554.859 74.1562C556.984 78.7188 558.047 83.9219 558.047 89.7656V99.9844ZM555.516 89.6719C555.516 81.4219 553.422 74.8125 549.234 69.8438C545.047 64.8438 539.391 62.3438 532.266 62.3438C525.234 62.3438 519.625 64.8281 515.438 69.7969C511.25 74.7344 509.156 81.4688 509.156 90V99.9844C509.156 105.422 510.094 110.234 511.969 114.422C513.875 118.578 516.578 121.781 520.078 124.031C523.578 126.281 527.672 127.406 532.359 127.406C539.484 127.406 545.125 124.922 549.281 119.953C553.438 114.984 555.516 108.203 555.516 99.6094V89.6719ZM599.625 99.7969H575.953V129H573.422V60.75H595.172C602.016 60.75 607.453 62.5156 611.484 66.0469C615.547 69.5781 617.578 74.375 617.578 80.4375C617.578 85.0938 616.125 89.1719 613.219 92.6719C610.344 96.1406 606.672 98.2969 602.203 99.1406L620.438 128.344V129H617.766L599.625 99.7969ZM575.953 97.2656H597.469C602.719 97.2656 606.953 95.6719 610.172 92.4844C613.422 89.2969 615.047 85.2812 615.047 80.4375C615.047 75.125 613.25 70.9375 609.656 67.875C606.094 64.8125 601.203 63.2812 594.984 63.2812H575.953V97.2656ZM653.391 100.781L677.297 60.75H680.391L654.656 103.078V129H652.125V103.078L626.391 60.75H629.766L653.391 100.781Z" fill="black"/>
<path d="M56.9373 148H692.039" stroke="black"/>
<path opacity="0.54" fill-rule="evenodd" clip-rule="evenodd" d="M483.333 687C483.333 675.267 473.733 665.667 462 665.667C450.267 665.667 440.667 675.267 440.667 687C440.667 698.733 450.267 708.333 462 708.333C473.733 708.333 483.333 698.733 483.333 687ZM504.667 687C504.667 698.733 514.267 708.333 526 708.333C537.733 708.333 547.333 698.733 547.333 687C547.333 675.267 537.733 665.667 526 665.667C514.267 665.667 504.667 675.267 504.667 687ZM568.667 687C568.667 698.733 578.267 708.333 590 708.333C601.733 708.333 611.333 698.733 611.333 687C611.333 675.267 601.733 665.667 590 665.667C578.267 665.667 568.667 675.267 568.667 687Z" fill="black" fill-opacity="0.19"/>
<path opacity="0.54" fill-rule="evenodd" clip-rule="evenodd" d="M1071.67 57.0667L1067.93 53.3334L1053 68.2667L1038.07 53.3334L1034.33 57.0667L1049.27 72L1034.33 86.9334L1038.07 90.6667L1053 75.7334L1067.93 90.6667L1071.67 86.9334L1056.73 72L1071.67 57.0667Z" fill="black"/>
<path opacity="0.54" fill-rule="evenodd" clip-rule="evenodd" d="M981 61.3333C983.933 61.3333 986.333 58.9333 986.333 56C986.333 53.0666 983.933 50.6666 981 50.6666C978.067 50.6666 975.667 53.0666 975.667 56C975.667 58.9333 978.067 61.3333 981 61.3333V61.3333ZM981 66.6667C978.067 66.6667 975.667 69.0667 975.667 72C975.667 74.9333 978.067 77.3333 981 77.3333C983.933 77.3333 986.333 74.9333 986.333 72C986.333 69.0667 983.933 66.6667 981 66.6667V66.6667ZM981 82.6667C978.067 82.6667 975.667 85.0667 975.667 88C975.667 90.9333 978.067 93.3333 981 93.3333C983.933 93.3333 986.333 90.9333 986.333 88C986.333 85.0667 983.933 82.6667 981 82.6667V82.6667Z" fill="black"/>
<defs>
<filter id="filter0_d" x="0" y="0" width="1127" height="980" filterUnits="userSpaceOnUse" color-interpolation-filters="sRGB">
<feFlood flood-opacity="0" result="BackgroundImageFix"/>
<feColorMatrix in="SourceAlpha" type="matrix" values="0 0 0 0 0 0 0 0 0 0 0 0 0 0 0 0 0 0 127 0"/>
<feOffset dx="1" dy="2"/>
<feGaussianBlur stdDeviation="5"/>
<feColorMatrix type="matrix" values="0 0 0 0 0 0 0 0 0 0 0 0 0 0 0 0 0 0 0.35 0"/>
<feBlend mode="normal" in2="BackgroundImageFix" result="effect1_dropShadow"/>
<feBlend mode="normal" in="SourceGraphic" in2="effect1_dropShadow" result="shape"/>
</filter>
</defs>
</svg>
