<svg width="770" height="802" viewBox="0 0 770 802" fill="none" xmlns="http://www.w3.org/2000/svg">
<rect width="770" height="802" fill="#F4F4F4"/>
<path d="M263.841 516.213L246.63 533.424L246.63 517.613L242.627 517.627V540.255H265.255V536.267L249.458 536.253L266.669 519.042L263.841 516.213Z" fill="black" fill-opacity="0.54"/>
<path d="M252.669 278.841L235.458 261.63L251.269 261.63L251.255 257.627H228.627V280.255H232.616L232.63 264.458L249.841 281.669L252.669 278.841Z" fill="black" fill-opacity="0.54"/>
<path d="M494.042 281.669L511.253 264.458L511.253 280.269L515.255 280.255V257.627H492.627V261.616L508.424 261.63L491.213 278.841L494.042 281.669Z" fill="black" fill-opacity="0.54"/>
<path d="M491.213 519.042L508.424 536.253L492.613 536.253L492.627 540.255H515.255V517.627H511.267L511.253 533.424L494.042 516.213L491.213 519.042Z" fill="black" fill-opacity="0.54"/>
<path fill-rule="evenodd" clip-rule="evenodd" d="M396 379C396 401.08 378.08 419 356 419C333.92 419 316 401.08 316 379C316 356.92 333.92 339 356 339C378.08 339 396 356.92 396 379ZM344 388C346.76 388 349 385.76 349 383C349 380.24 346.76 378 344 378C341.24 378 339 380.24 339 383C339 385.76 341.24 388 344 388ZM363 383C363 380.24 365.24 378 368 378C370.76 378 373 380.24 373 383C373 385.76 370.76 388 368 388C365.24 388 363 385.76 363 383ZM378 363C366.4 363 356.24 356.76 350.64 347.48C352.36 347.2 354.16 347 356 347C367.6 347 377.76 353.24 383.36 362.52C381.64 362.8 379.84 363 378 363ZM325.68 368.88C332.52 365 337.8 358.68 340.32 351.12C333.48 355 328.2 361.32 325.68 368.88ZM386.68 370.04C387.52 372.88 388 375.88 388 379C388 396.64 373.64 411 356 411C338.36 411 324 396.64 324 379C324 378.932 324.005 378.864 324.009 378.797C324.018 378.668 324.026 378.546 324 378.44C334.4 374.52 342.76 366.48 346.96 356.24C354.32 365.24 365.48 371 378 371C381 371 383.88 370.64 386.68 370.04Z" fill="black" fill-opacity="0.54"/>
<path fill-rule="evenodd" clip-rule="evenodd" d="M436.4 391H371.6C369.6 391 368 392.6 368 394.6V459.4C368 461 369.6 463 371.6 463H436.4C438 463 440 461 440 459.4V394.6C440 392.6 438 391 436.4 391ZM392 407H384V415H392V407ZM424 407H400V415H424V407ZM424 423H400V431H424V423ZM400 439H424V447H400V439ZM384 423H392V431H384V423ZM392 439H384V447H392V439ZM376 455H432V399H376V455Z" fill="black" fill-opacity="0.54"/>
<path fill-rule="evenodd" clip-rule="evenodd" d="M72 87L110 67L148 87V95H72V87ZM110 76.04L130.84 87H89.1601L110 76.04ZM82 103H90V131H82V103ZM106 131V103H114V131H106ZM148 147V139H72V147H148ZM130 103H138V131H130V103Z" fill="black" fill-opacity="0.54"/>
<path fill-rule="evenodd" clip-rule="evenodd" d="M190.4 119H125.6C123.6 119 122 120.6 122 122.6V187.4C122 189 123.6 191 125.6 191H190.4C192 191 194 189 194 187.4V122.6C194 120.6 192 119 190.4 119ZM146 135H138V143H146V135ZM178 135H154V143H178V135ZM178 151H154V159H178V151ZM154 167H178V175H154V167ZM138 151H146V159H138V151ZM146 167H138V175H146V167ZM130 183H186V127H130V183Z" fill="black" fill-opacity="0.54"/>
<path fill-rule="evenodd" clip-rule="evenodd" d="M323 87L361 67L399 87V95H323V87ZM361 76.04L381.84 87H340.16L361 76.04ZM333 103H341V131H333V103ZM357 131V103H365V131H357ZM399 147V139H323V147H399ZM381 103H389V131H381V103Z" fill="black" fill-opacity="0.54"/>
<path fill-rule="evenodd" clip-rule="evenodd" d="M441.4 119H376.6C374.6 119 373 120.6 373 122.6V187.4C373 189 374.6 191 376.6 191H441.4C443 191 445 189 445 187.4V122.6C445 120.6 443 119 441.4 119ZM397 135H389V143H397V135ZM429 135H405V143H429V135ZM429 151H405V159H429V151ZM405 167H429V175H405V167ZM389 151H397V159H389V151ZM397 167H389V175H397V167ZM381 183H437V127H381V183Z" fill="black" fill-opacity="0.54"/>
<path fill-rule="evenodd" clip-rule="evenodd" d="M574 87L612 67L650 87V95H574V87ZM612 76.04L632.84 87H591.16L612 76.04ZM584 103H592V131H584V103ZM608 131V103H616V131H608ZM650 147V139H574V147H650ZM632 103H640V131H632V103Z" fill="black" fill-opacity="0.54"/>
<path fill-rule="evenodd" clip-rule="evenodd" d="M692.4 119H627.6C625.6 119 624 120.6 624 122.6V187.4C624 189 625.6 191 627.6 191H692.4C694 191 696 189 696 187.4V122.6C696 120.6 694 119 692.4 119ZM648 135H640V143H648V135ZM680 135H656V143H680V135ZM680 151H656V159H680V151ZM656 167H680V175H656V167ZM640 151H648V159H640V151ZM648 167H640V175H648V167ZM632 183H688V127H632V183Z" fill="black" fill-opacity="0.54"/>
<path fill-rule="evenodd" clip-rule="evenodd" d="M72 631L110 611L148 631V639H72V631ZM110 620.04L130.84 631H89.1601L110 620.04ZM82 647H90V675H82V647ZM106 675V647H114V675H106ZM148 691V683H72V691H148ZM130 647H138V675H130V647Z" fill="black" fill-opacity="0.54"/>
<path fill-rule="evenodd" clip-rule="evenodd" d="M190.4 663H125.6C123.6 663 122 664.6 122 666.6V731.4C122 733 123.6 735 125.6 735H190.4C192 735 194 733 194 731.4V666.6C194 664.6 192 663 190.4 663ZM146 679H138V687H146V679ZM178 679H154V687H178V679ZM178 695H154V703H178V695ZM154 711H178V719H154V711ZM138 695H146V703H138V695ZM146 711H138V719H146V711ZM130 727H186V671H130V727Z" fill="black" fill-opacity="0.54"/>
<path fill-rule="evenodd" clip-rule="evenodd" d="M323 631L361 611L399 631V639H323V631ZM361 620.04L381.84 631H340.16L361 620.04ZM333 647H341V675H333V647ZM357 675V647H365V675H357ZM399 691V683H323V691H399ZM381 647H389V675H381V647Z" fill="black" fill-opacity="0.54"/>
<path fill-rule="evenodd" clip-rule="evenodd" d="M441.4 663H376.6C374.6 663 373 664.6 373 666.6V731.4C373 733 374.6 735 376.6 735H441.4C443 735 445 733 445 731.4V666.6C445 664.6 443 663 441.4 663ZM397 679H389V687H397V679ZM429 679H405V687H429V679ZM429 695H405V703H429V695ZM405 711H429V719H405V711ZM389 695H397V703H389V695ZM397 711H389V719H397V711ZM381 727H437V671H381V727Z" fill="black" fill-opacity="0.54"/>
<path fill-rule="evenodd" clip-rule="evenodd" d="M574 631L612 611L650 631V639H574V631ZM612 620.04L632.84 631H591.16L612 620.04ZM584 647H592V675H584V647ZM608 675V647H616V675H608ZM650 691V683H574V691H650ZM632 647H640V675H632V647Z" fill="black" fill-opacity="0.54"/>
<path fill-rule="evenodd" clip-rule="evenodd" d="M692.4 663H627.6C625.6 663 624 664.6 624 666.6V731.4C624 733 625.6 735 627.6 735H692.4C694 735 696 733 696 731.4V666.6C696 664.6 694 663 692.4 663ZM648 679H640V687H648V679ZM680 679H656V687H680V679ZM680 695H656V703H680V695ZM656 711H680V719H656V711ZM640 695H648V703H640V695ZM648 711H640V719H648V711ZM632 727H688V671H632V727Z" fill="black" fill-opacity="0.54"/>
</svg>
