<svg width="770" height="802" viewBox="0 0 770 802" fill="none" xmlns="http://www.w3.org/2000/svg">
<rect width="770" height="802" fill="#F4F4F4"/>
<path d="M197.213 227.042L214.424 244.253L198.613 244.253L198.627 248.255H221.255V225.627H217.267L217.253 241.424L200.042 224.213L197.213 227.042Z" fill="black" fill-opacity="0.54"/>
<path d="M200.042 571.669L217.253 554.458L217.253 570.269L221.255 570.255V547.627H198.627V551.616L214.424 551.63L197.213 568.841L200.042 571.669Z" fill="black" fill-opacity="0.54"/>
<path d="M570.669 568.841L553.458 551.63L569.269 551.63L569.255 547.627H546.627V570.255H550.616L550.63 554.458L567.841 571.669L570.669 568.841Z" fill="black" fill-opacity="0.54"/>
<path d="M567.841 224.213L550.63 241.424L550.63 225.613L546.627 225.627V248.255H569.255V244.267L553.458 244.253L570.669 227.042L567.841 224.213Z" fill="black" fill-opacity="0.54"/>
<path fill-rule="evenodd" clip-rule="evenodd" d="M420 377C420 399.08 402.08 417 380 417C357.92 417 340 399.08 340 377C340 354.92 357.92 337 380 337C402.08 337 420 354.92 420 377ZM368 386C370.76 386 373 383.76 373 381C373 378.24 370.76 376 368 376C365.24 376 363 378.24 363 381C363 383.76 365.24 386 368 386ZM387 381C387 378.24 389.24 376 392 376C394.76 376 397 378.24 397 381C397 383.76 394.76 386 392 386C389.24 386 387 383.76 387 381ZM402 361C390.4 361 380.24 354.76 374.64 345.48C376.36 345.2 378.16 345 380 345C391.6 345 401.76 351.24 407.36 360.52C405.64 360.8 403.84 361 402 361ZM349.68 366.88C356.52 363 361.8 356.68 364.32 349.12C357.48 353 352.2 359.32 349.68 366.88ZM410.68 368.04C411.52 370.88 412 373.88 412 377C412 394.64 397.64 409 380 409C362.36 409 348 394.64 348 377C348 376.932 348.005 376.864 348.009 376.797C348.018 376.668 348.026 376.546 348 376.44C358.4 372.52 366.76 364.48 370.96 354.24C378.32 363.24 389.48 369 402 369C405 369 407.88 368.64 410.68 368.04Z" fill="black" fill-opacity="0.54"/>
<path fill-rule="evenodd" clip-rule="evenodd" d="M460.4 389H395.6C393.6 389 392 390.6 392 392.6V457.4C392 459 393.6 461 395.6 461H460.4C462 461 464 459 464 457.4V392.6C464 390.6 462 389 460.4 389ZM416 405H408V413H416V405ZM448 405H424V413H448V405ZM448 421H424V429H448V421ZM424 437H448V445H424V437ZM408 421H416V429H408V421ZM416 437H408V445H416V437ZM400 453H456V397H400V453Z" fill="black" fill-opacity="0.54"/>
<path fill-rule="evenodd" clip-rule="evenodd" d="M622 85L660 65L698 85V93H622V85ZM660 74.04L680.84 85H639.16L660 74.04ZM632 101H640V129H632V101ZM656 129V101H664V129H656ZM698 145V137H622V145H698ZM680 101H688V129H680V101Z" fill="black" fill-opacity="0.54"/>
<path fill-rule="evenodd" clip-rule="evenodd" d="M342 85L380 65L418 85V93H342V85ZM380 74.04L400.84 85H359.16L380 74.04ZM352 101H360V129H352V101ZM376 129V101H384V129H376ZM418 145V137H342V145H418ZM400 101H408V129H400V101Z" fill="black" fill-opacity="0.54"/>
<path fill-rule="evenodd" clip-rule="evenodd" d="M77 85L115 65L153 85V93H77V85ZM115 74.04L135.84 85H94.1601L115 74.04ZM87 101H95V129H87V101ZM111 129V101H119V129H111ZM153 145V137H77V145H153ZM135 101H143V129H135V101Z" fill="black" fill-opacity="0.54"/>
<path fill-rule="evenodd" clip-rule="evenodd" d="M67 633L105 613L143 633V641H67V633ZM105 622.04L125.84 633H84.1601L105 622.04ZM77 649H85V677H77V649ZM101 677V649H109V677H101ZM143 693V685H67V693H143ZM125 649H133V677H125V649Z" fill="black" fill-opacity="0.54"/>
<path fill-rule="evenodd" clip-rule="evenodd" d="M627 633L665 613L703 633V641H627V633ZM665 622.04L685.84 633H644.16L665 622.04ZM637 649H645V677H637V649ZM661 677V649H669V677H661ZM703 693V685H627V693H703ZM685 649H693V677H685V649Z" fill="black" fill-opacity="0.54"/>
<path fill-rule="evenodd" clip-rule="evenodd" d="M347 633L385 613L423 633V641H347V633ZM385 622.04L405.84 633H364.16L385 622.04ZM357 649H365V677H357V649ZM381 677V649H389V677H381ZM423 693V685H347V693H423ZM405 649H413V677H405V649Z" fill="black" fill-opacity="0.54"/>
<rect x="296.5" y="304.5" width="205" height="191" stroke="black" stroke-width="3"/>
</svg>
