<svg width="890" height="311" viewBox="0 0 890 311" fill="none" xmlns="http://www.w3.org/2000/svg">
<rect width="890" height="311" fill="white"/>
<rect width="890" height="311" fill="#2E2D4D" fill-opacity="0.75"/>
<path d="M40.6016 56.5781L42.2891 57.7734C40.8828 59.6172 40.1562 61.6016 40.1094 63.7266V66.7266H37.3203V64.1016C37.3203 62.6641 37.6094 61.2812 38.1875 59.9531C38.7812 58.625 39.5859 57.5 40.6016 56.5781ZM46.4844 56.5781L48.1719 57.7734C46.7656 59.6172 46.0391 61.6016 45.9922 63.7266V66.7266H43.2031V64.1016C43.2031 62.6641 43.4922 61.2812 44.0703 59.9531C44.6641 58.625 45.4688 57.5 46.4844 56.5781ZM59.9609 83.7891L61.0156 89.0859L62.3047 84.0234L69.7109 58.875H72.3125L79.625 84.0234L80.8906 89.1328L82.0156 83.7891L88.1797 58.875H91.1328L82.3906 93H79.625L71.8906 66.3047L71.0234 62.9297L70.1797 66.3047L62.2578 93H59.4922L50.7734 58.875H53.7266L59.9609 83.7891ZM105.102 93.4688C102.945 93.4688 100.992 92.9375 99.2422 91.875C97.5078 90.8125 96.1562 89.3359 95.1875 87.4453C94.2188 85.5391 93.7344 83.4062 93.7344 81.0469V80.0391C93.7344 77.6016 94.2031 75.4062 95.1406 73.4531C96.0938 71.5 97.4141 69.9688 99.1016 68.8594C100.789 67.7344 102.617 67.1719 104.586 67.1719C107.664 67.1719 110.102 68.2266 111.898 70.3359C113.711 72.4297 114.617 75.2969 114.617 78.9375V80.5078H96.5234V81.0469C96.5234 83.9219 97.3438 86.3203 98.9844 88.2422C100.641 90.1484 102.719 91.1016 105.219 91.1016C106.719 91.1016 108.039 90.8281 109.18 90.2812C110.336 89.7344 111.383 88.8594 112.32 87.6562L114.078 88.9922C112.016 91.9766 109.023 93.4688 105.102 93.4688ZM104.586 69.5625C102.477 69.5625 100.695 70.3359 99.2422 71.8828C97.8047 73.4297 96.9297 75.5078 96.6172 78.1172H111.828V77.8125C111.75 75.375 111.055 73.3906 109.742 71.8594C108.43 70.3281 106.711 69.5625 104.586 69.5625ZM117.664 67.2422L116 66.0234C117.406 64.1328 118.133 62.1484 118.18 60.0703V57H120.945V59.3672C120.945 62.6328 119.852 65.2578 117.664 67.2422ZM138.453 70.0312C137.859 69.9219 137.227 69.8672 136.555 69.8672C134.805 69.8672 133.32 70.3594 132.102 71.3438C130.898 72.3125 130.039 73.7266 129.523 75.5859V93H126.734V67.6406H129.477L129.523 71.6719C131.008 68.6719 133.391 67.1719 136.672 67.1719C137.453 67.1719 138.07 67.2734 138.523 67.4766L138.453 70.0312ZM152.258 93.4688C150.102 93.4688 148.148 92.9375 146.398 91.875C144.664 90.8125 143.312 89.3359 142.344 87.4453C141.375 85.5391 140.891 83.4062 140.891 81.0469V80.0391C140.891 77.6016 141.359 75.4062 142.297 73.4531C143.25 71.5 144.57 69.9688 146.258 68.8594C147.945 67.7344 149.773 67.1719 151.742 67.1719C154.82 67.1719 157.258 68.2266 159.055 70.3359C160.867 72.4297 161.773 75.2969 161.773 78.9375V80.5078H143.68V81.0469C143.68 83.9219 144.5 86.3203 146.141 88.2422C147.797 90.1484 149.875 91.1016 152.375 91.1016C153.875 91.1016 155.195 90.8281 156.336 90.2812C157.492 89.7344 158.539 88.8594 159.477 87.6562L161.234 88.9922C159.172 91.9766 156.18 93.4688 152.258 93.4688ZM151.742 69.5625C149.633 69.5625 147.852 70.3359 146.398 71.8828C144.961 73.4297 144.086 75.5078 143.773 78.1172H158.984V77.8125C158.906 75.375 158.211 73.3906 156.898 71.8594C155.586 70.3281 153.867 69.5625 151.742 69.5625ZM177.781 80.0859C177.781 76.1172 178.656 72.9766 180.406 70.6641C182.172 68.3359 184.562 67.1719 187.578 67.1719C191.031 67.1719 193.656 68.5469 195.453 71.2969L195.594 67.6406H198.219V92.4844C198.219 95.75 197.305 98.3359 195.477 100.242C193.648 102.148 191.172 103.102 188.047 103.102C186.281 103.102 184.594 102.703 182.984 101.906C181.391 101.125 180.133 100.078 179.211 98.7656L180.781 97.0781C182.766 99.5156 185.125 100.734 187.859 100.734C190.203 100.734 192.031 100.039 193.344 98.6484C194.656 97.2734 195.336 95.3594 195.383 92.9062V89.7188C193.586 92.2188 190.969 93.4688 187.531 93.4688C184.594 93.4688 182.234 92.2969 180.453 89.9531C178.672 87.6094 177.781 84.4453 177.781 80.4609V80.0859ZM180.617 80.5781C180.617 83.8125 181.266 86.3672 182.562 88.2422C183.859 90.1016 185.688 91.0312 188.047 91.0312C191.5 91.0312 193.945 89.4844 195.383 86.3906V74.6016C194.727 72.9766 193.781 71.7422 192.547 70.8984C191.312 70.0391 189.828 69.6094 188.094 69.6094C185.734 69.6094 183.898 70.5391 182.586 72.3984C181.273 74.2422 180.617 76.9688 180.617 80.5781ZM208.672 93H205.859V67.6406H208.672V93ZM205.367 60.3047C205.367 59.7734 205.539 59.3281 205.883 58.9688C206.227 58.5938 206.695 58.4062 207.289 58.4062C207.883 58.4062 208.352 58.5938 208.695 58.9688C209.055 59.3281 209.234 59.7734 209.234 60.3047C209.234 60.8359 209.055 61.2812 208.695 61.6406C208.352 62 207.883 62.1797 207.289 62.1797C206.695 62.1797 206.227 62 205.883 61.6406C205.539 61.2812 205.367 60.8359 205.367 60.3047ZM224.211 89.1328L231.922 67.6406H234.805L225.336 93H223.062L213.547 67.6406H216.43L224.211 89.1328ZM242.562 93H239.75V67.6406H242.562V93ZM239.258 60.3047C239.258 59.7734 239.43 59.3281 239.773 58.9688C240.117 58.5938 240.586 58.4062 241.18 58.4062C241.773 58.4062 242.242 58.5938 242.586 58.9688C242.945 59.3281 243.125 59.7734 243.125 60.3047C243.125 60.8359 242.945 61.2812 242.586 61.6406C242.242 62 241.773 62.1797 241.18 62.1797C240.586 62.1797 240.117 62 239.773 61.6406C239.43 61.2812 239.258 60.8359 239.258 60.3047ZM252.875 67.6406L252.969 71.9766C253.922 70.4141 255.109 69.2266 256.531 68.4141C257.953 67.5859 259.523 67.1719 261.242 67.1719C263.961 67.1719 265.984 67.9375 267.312 69.4688C268.641 71 269.312 73.2969 269.328 76.3594V93H266.539V76.3359C266.523 74.0703 266.039 72.3828 265.086 71.2734C264.148 70.1641 262.641 69.6094 260.562 69.6094C258.828 69.6094 257.289 70.1562 255.945 71.25C254.617 72.3281 253.633 73.7891 252.992 75.6328V93H250.203V67.6406H252.875ZM275.469 80.0859C275.469 76.1172 276.344 72.9766 278.094 70.6641C279.859 68.3359 282.25 67.1719 285.266 67.1719C288.719 67.1719 291.344 68.5469 293.141 71.2969L293.281 67.6406H295.906V92.4844C295.906 95.75 294.992 98.3359 293.164 100.242C291.336 102.148 288.859 103.102 285.734 103.102C283.969 103.102 282.281 102.703 280.672 101.906C279.078 101.125 277.82 100.078 276.898 98.7656L278.469 97.0781C280.453 99.5156 282.812 100.734 285.547 100.734C287.891 100.734 289.719 100.039 291.031 98.6484C292.344 97.2734 293.023 95.3594 293.07 92.9062V89.7188C291.273 92.2188 288.656 93.4688 285.219 93.4688C282.281 93.4688 279.922 92.2969 278.141 89.9531C276.359 87.6094 275.469 84.4453 275.469 80.4609V80.0859ZM278.305 80.5781C278.305 83.8125 278.953 86.3672 280.25 88.2422C281.547 90.1016 283.375 91.0312 285.734 91.0312C289.188 91.0312 291.633 89.4844 293.07 86.3906V74.6016C292.414 72.9766 291.469 71.7422 290.234 70.8984C289 70.0391 287.516 69.6094 285.781 69.6094C283.422 69.6094 281.586 70.5391 280.273 72.3984C278.961 74.2422 278.305 76.9688 278.305 80.5781ZM330.898 93C330.617 92.2031 330.438 91.0234 330.359 89.4609C329.375 90.7422 328.117 91.7344 326.586 92.4375C325.07 93.125 323.461 93.4688 321.758 93.4688C319.32 93.4688 317.344 92.7891 315.828 91.4297C314.328 90.0703 313.578 88.3516 313.578 86.2734C313.578 83.8047 314.602 81.8516 316.648 80.4141C318.711 78.9766 321.578 78.2578 325.25 78.2578H330.336V75.375C330.336 73.5625 329.773 72.1406 328.648 71.1094C327.539 70.0625 325.914 69.5391 323.773 69.5391C321.82 69.5391 320.203 70.0391 318.922 71.0391C317.641 72.0391 317 73.2422 317 74.6484L314.188 74.625C314.188 72.6094 315.125 70.8672 317 69.3984C318.875 67.9141 321.18 67.1719 323.914 67.1719C326.742 67.1719 328.969 67.8828 330.594 69.3047C332.234 70.7109 333.078 72.6797 333.125 75.2109V87.2109C333.125 89.6641 333.383 91.5 333.898 92.7188V93H330.898ZM322.086 90.9844C323.961 90.9844 325.633 90.5312 327.102 89.625C328.586 88.7188 329.664 87.5078 330.336 85.9922V80.4141H325.32C322.523 80.4453 320.336 80.9609 318.758 81.9609C317.18 82.9453 316.391 84.3047 316.391 86.0391C316.391 87.4609 316.914 88.6406 317.961 89.5781C319.023 90.5156 320.398 90.9844 322.086 90.9844ZM346.695 87.1641L347.117 89.3438L347.68 87.0469L353.773 67.6406H356.164L362.188 86.8828L362.844 89.5547L363.383 87.0938L368.586 67.6406H371.492L364.109 93H361.719L355.203 72.8906L354.898 71.5078L354.594 72.9141L348.195 93H345.805L338.445 67.6406H341.328L346.695 87.1641ZM392.82 93C392.539 92.2031 392.359 91.0234 392.281 89.4609C391.297 90.7422 390.039 91.7344 388.508 92.4375C386.992 93.125 385.383 93.4688 383.68 93.4688C381.242 93.4688 379.266 92.7891 377.75 91.4297C376.25 90.0703 375.5 88.3516 375.5 86.2734C375.5 83.8047 376.523 81.8516 378.57 80.4141C380.633 78.9766 383.5 78.2578 387.172 78.2578H392.258V75.375C392.258 73.5625 391.695 72.1406 390.57 71.1094C389.461 70.0625 387.836 69.5391 385.695 69.5391C383.742 69.5391 382.125 70.0391 380.844 71.0391C379.562 72.0391 378.922 73.2422 378.922 74.6484L376.109 74.625C376.109 72.6094 377.047 70.8672 378.922 69.3984C380.797 67.9141 383.102 67.1719 385.836 67.1719C388.664 67.1719 390.891 67.8828 392.516 69.3047C394.156 70.7109 395 72.6797 395.047 75.2109V87.2109C395.047 89.6641 395.305 91.5 395.82 92.7188V93H392.82ZM384.008 90.9844C385.883 90.9844 387.555 90.5312 389.023 89.625C390.508 88.7188 391.586 87.5078 392.258 85.9922V80.4141H387.242C384.445 80.4453 382.258 80.9609 380.68 81.9609C379.102 82.9453 378.312 84.3047 378.312 86.0391C378.312 87.4609 378.836 88.6406 379.883 89.5781C380.945 90.5156 382.32 90.9844 384.008 90.9844ZM410.211 88.9688L417.617 67.6406H420.641L409.812 97.3125L409.25 98.625C407.859 101.703 405.711 103.242 402.805 103.242C402.133 103.242 401.414 103.133 400.648 102.914L400.625 100.594L402.078 100.734C403.453 100.734 404.562 100.391 405.406 99.7031C406.266 99.0312 406.992 97.8672 407.586 96.2109L408.828 92.7891L399.266 67.6406H402.336L410.211 88.9688ZM439.227 67.6406L439.32 71.7656C440.258 70.2344 441.43 69.0859 442.836 68.3203C444.242 67.5547 445.805 67.1719 447.523 67.1719C451.523 67.1719 454.062 68.8125 455.141 72.0938C456.047 70.5156 457.258 69.3047 458.773 68.4609C460.289 67.6016 461.961 67.1719 463.789 67.1719C469.227 67.1719 472 70.1406 472.109 76.0781V93H469.297V76.2891C469.281 74.0234 468.789 72.3438 467.82 71.25C466.867 70.1562 465.305 69.6094 463.133 69.6094C461.117 69.6406 459.414 70.2969 458.023 71.5781C456.633 72.8438 455.859 74.3906 455.703 76.2188V93H452.891V76.0781C452.875 73.9062 452.359 72.2891 451.344 71.2266C450.344 70.1484 448.797 69.6094 446.703 69.6094C444.938 69.6094 443.422 70.1172 442.156 71.1328C440.891 72.1328 439.953 73.625 439.344 75.6094V93H436.531V67.6406H439.227ZM477.688 79.9453C477.688 77.5078 478.156 75.3125 479.094 73.3594C480.047 71.4062 481.383 69.8906 483.102 68.8125C484.836 67.7188 486.797 67.1719 488.984 67.1719C492.359 67.1719 495.094 68.3594 497.188 70.7344C499.281 73.0938 500.328 76.2266 500.328 80.1328V80.7188C500.328 83.1719 499.852 85.3828 498.898 87.3516C497.961 89.3047 496.633 90.8125 494.914 91.875C493.195 92.9375 491.234 93.4688 489.031 93.4688C485.672 93.4688 482.938 92.2891 480.828 89.9297C478.734 87.5547 477.688 84.4141 477.688 80.5078V79.9453ZM480.5 80.7188C480.5 83.75 481.281 86.2422 482.844 88.1953C484.422 90.1328 486.484 91.1016 489.031 91.1016C491.562 91.1016 493.609 90.1328 495.172 88.1953C496.75 86.2422 497.539 83.6719 497.539 80.4844V79.9453C497.539 78.0078 497.18 76.2344 496.461 74.625C495.742 73.0156 494.734 71.7734 493.438 70.8984C492.141 70.0078 490.656 69.5625 488.984 69.5625C486.484 69.5625 484.445 70.5469 482.867 72.5156C481.289 74.4688 480.5 77.0312 480.5 80.2031V80.7188ZM517.859 70.0312C517.266 69.9219 516.633 69.8672 515.961 69.8672C514.211 69.8672 512.727 70.3594 511.508 71.3438C510.305 72.3125 509.445 73.7266 508.93 75.5859V93H506.141V67.6406H508.883L508.93 71.6719C510.414 68.6719 512.797 67.1719 516.078 67.1719C516.859 67.1719 517.477 67.2734 517.93 67.4766L517.859 70.0312ZM531.664 93.4688C529.508 93.4688 527.555 92.9375 525.805 91.875C524.07 90.8125 522.719 89.3359 521.75 87.4453C520.781 85.5391 520.297 83.4062 520.297 81.0469V80.0391C520.297 77.6016 520.766 75.4062 521.703 73.4531C522.656 71.5 523.977 69.9688 525.664 68.8594C527.352 67.7344 529.18 67.1719 531.148 67.1719C534.227 67.1719 536.664 68.2266 538.461 70.3359C540.273 72.4297 541.18 75.2969 541.18 78.9375V80.5078H523.086V81.0469C523.086 83.9219 523.906 86.3203 525.547 88.2422C527.203 90.1484 529.281 91.1016 531.781 91.1016C533.281 91.1016 534.602 90.8281 535.742 90.2812C536.898 89.7344 537.945 88.8594 538.883 87.6562L540.641 88.9922C538.578 91.9766 535.586 93.4688 531.664 93.4688ZM531.148 69.5625C529.039 69.5625 527.258 70.3359 525.805 71.8828C524.367 73.4297 523.492 75.5078 523.18 78.1172H538.391V77.8125C538.312 75.375 537.617 73.3906 536.305 71.8594C534.992 70.3281 533.273 69.5625 531.148 69.5625ZM578.703 80.5781C578.703 84.5312 577.828 87.6719 576.078 90C574.328 92.3125 571.984 93.4688 569.047 93.4688C565.578 93.4688 562.922 92.25 561.078 89.8125V102.75H558.289V67.6406H560.891L561.031 71.2266C562.859 68.5234 565.508 67.1719 568.977 67.1719C572.008 67.1719 574.383 68.3203 576.102 70.6172C577.836 72.9141 578.703 76.1016 578.703 80.1797V80.5781ZM575.891 80.0859C575.891 76.8516 575.227 74.2969 573.898 72.4219C572.57 70.5469 570.719 69.6094 568.344 69.6094C566.625 69.6094 565.148 70.0234 563.914 70.8516C562.68 71.6797 561.734 72.8828 561.078 74.4609V86.625C561.75 88.0781 562.711 89.1875 563.961 89.9531C565.211 90.7188 566.688 91.1016 568.391 91.1016C570.75 91.1016 572.586 90.1641 573.898 88.2891C575.227 86.3984 575.891 83.6641 575.891 80.0859ZM594.758 93.4688C592.602 93.4688 590.648 92.9375 588.898 91.875C587.164 90.8125 585.812 89.3359 584.844 87.4453C583.875 85.5391 583.391 83.4062 583.391 81.0469V80.0391C583.391 77.6016 583.859 75.4062 584.797 73.4531C585.75 71.5 587.07 69.9688 588.758 68.8594C590.445 67.7344 592.273 67.1719 594.242 67.1719C597.32 67.1719 599.758 68.2266 601.555 70.3359C603.367 72.4297 604.273 75.2969 604.273 78.9375V80.5078H586.18V81.0469C586.18 83.9219 587 86.3203 588.641 88.2422C590.297 90.1484 592.375 91.1016 594.875 91.1016C596.375 91.1016 597.695 90.8281 598.836 90.2812C599.992 89.7344 601.039 88.8594 601.977 87.6562L603.734 88.9922C601.672 91.9766 598.68 93.4688 594.758 93.4688ZM594.242 69.5625C592.133 69.5625 590.352 70.3359 588.898 71.8828C587.461 73.4297 586.586 75.5078 586.273 78.1172H601.484V77.8125C601.406 75.375 600.711 73.3906 599.398 71.8594C598.086 70.3281 596.367 69.5625 594.242 69.5625ZM621.453 70.0312C620.859 69.9219 620.227 69.8672 619.555 69.8672C617.805 69.8672 616.32 70.3594 615.102 71.3438C613.898 72.3125 613.039 73.7266 612.523 75.5859V93H609.734V67.6406H612.477L612.523 71.6719C614.008 68.6719 616.391 67.1719 619.672 67.1719C620.453 67.1719 621.07 67.2734 621.523 67.4766L621.453 70.0312ZM641.094 86.5547C641.094 85.1641 640.531 84.0469 639.406 83.2031C638.297 82.3594 636.617 81.7031 634.367 81.2344C632.117 80.75 630.367 80.2031 629.117 79.5938C627.883 78.9688 626.961 78.2109 626.352 77.3203C625.758 76.4297 625.461 75.3516 625.461 74.0859C625.461 72.0859 626.297 70.4375 627.969 69.1406C629.641 67.8281 631.781 67.1719 634.391 67.1719C637.219 67.1719 639.484 67.875 641.188 69.2812C642.906 70.6719 643.766 72.4922 643.766 74.7422H640.953C640.953 73.2578 640.328 72.0234 639.078 71.0391C637.844 70.0547 636.281 69.5625 634.391 69.5625C632.547 69.5625 631.062 69.9766 629.938 70.8047C628.828 71.6172 628.273 72.6797 628.273 73.9922C628.273 75.2578 628.734 76.2422 629.656 76.9453C630.594 77.6328 632.289 78.2656 634.742 78.8438C637.211 79.4219 639.055 80.0391 640.273 80.6953C641.508 81.3516 642.422 82.1406 643.016 83.0625C643.609 83.9844 643.906 85.1016 643.906 86.4141C643.906 88.5547 643.039 90.2656 641.305 91.5469C639.586 92.8281 637.336 93.4688 634.555 93.4688C631.602 93.4688 629.203 92.7578 627.359 91.3359C625.531 89.8984 624.617 88.0859 624.617 85.8984H627.43C627.539 87.5391 628.227 88.8203 629.492 89.7422C630.773 90.6484 632.461 91.1016 634.555 91.1016C636.508 91.1016 638.086 90.6719 639.289 89.8125C640.492 88.9531 641.094 87.8672 641.094 86.5547ZM648.688 79.9453C648.688 77.5078 649.156 75.3125 650.094 73.3594C651.047 71.4062 652.383 69.8906 654.102 68.8125C655.836 67.7188 657.797 67.1719 659.984 67.1719C663.359 67.1719 666.094 68.3594 668.188 70.7344C670.281 73.0938 671.328 76.2266 671.328 80.1328V80.7188C671.328 83.1719 670.852 85.3828 669.898 87.3516C668.961 89.3047 667.633 90.8125 665.914 91.875C664.195 92.9375 662.234 93.4688 660.031 93.4688C656.672 93.4688 653.938 92.2891 651.828 89.9297C649.734 87.5547 648.688 84.4141 648.688 80.5078V79.9453ZM651.5 80.7188C651.5 83.75 652.281 86.2422 653.844 88.1953C655.422 90.1328 657.484 91.1016 660.031 91.1016C662.562 91.1016 664.609 90.1328 666.172 88.1953C667.75 86.2422 668.539 83.6719 668.539 80.4844V79.9453C668.539 78.0078 668.18 76.2344 667.461 74.625C666.742 73.0156 665.734 71.7734 664.438 70.8984C663.141 70.0078 661.656 69.5625 659.984 69.5625C657.484 69.5625 655.445 70.5469 653.867 72.5156C652.289 74.4688 651.5 77.0312 651.5 80.2031V80.7188ZM679.812 67.6406L679.906 71.9766C680.859 70.4141 682.047 69.2266 683.469 68.4141C684.891 67.5859 686.461 67.1719 688.18 67.1719C690.898 67.1719 692.922 67.9375 694.25 69.4688C695.578 71 696.25 73.2969 696.266 76.3594V93H693.477V76.3359C693.461 74.0703 692.977 72.3828 692.023 71.2734C691.086 70.1641 689.578 69.6094 687.5 69.6094C685.766 69.6094 684.227 70.1562 682.883 71.25C681.555 72.3281 680.57 73.7891 679.93 75.6328V93H677.141V67.6406H679.812ZM719.539 93C719.258 92.2031 719.078 91.0234 719 89.4609C718.016 90.7422 716.758 91.7344 715.227 92.4375C713.711 93.125 712.102 93.4688 710.398 93.4688C707.961 93.4688 705.984 92.7891 704.469 91.4297C702.969 90.0703 702.219 88.3516 702.219 86.2734C702.219 83.8047 703.242 81.8516 705.289 80.4141C707.352 78.9766 710.219 78.2578 713.891 78.2578H718.977V75.375C718.977 73.5625 718.414 72.1406 717.289 71.1094C716.18 70.0625 714.555 69.5391 712.414 69.5391C710.461 69.5391 708.844 70.0391 707.562 71.0391C706.281 72.0391 705.641 73.2422 705.641 74.6484L702.828 74.625C702.828 72.6094 703.766 70.8672 705.641 69.3984C707.516 67.9141 709.82 67.1719 712.555 67.1719C715.383 67.1719 717.609 67.8828 719.234 69.3047C720.875 70.7109 721.719 72.6797 721.766 75.2109V87.2109C721.766 89.6641 722.023 91.5 722.539 92.7188V93H719.539ZM710.727 90.9844C712.602 90.9844 714.273 90.5312 715.742 89.625C717.227 88.7188 718.305 87.5078 718.977 85.9922V80.4141H713.961C711.164 80.4453 708.977 80.9609 707.398 81.9609C705.82 82.9453 705.031 84.3047 705.031 86.0391C705.031 87.4609 705.555 88.6406 706.602 89.5781C707.664 90.5156 709.039 90.9844 710.727 90.9844ZM732.406 93H729.594V57H732.406V93ZM750.594 80.0859C750.594 76.1484 751.469 73.0156 753.219 70.6875C754.984 68.3438 757.375 67.1719 760.391 67.1719C763.812 67.1719 766.422 68.5234 768.219 71.2266V57H771.008V93H768.383L768.266 89.625C766.469 92.1875 763.828 93.4688 760.344 93.4688C757.422 93.4688 755.062 92.2969 753.266 89.9531C751.484 87.5938 750.594 84.4141 750.594 80.4141V80.0859ZM753.43 80.5781C753.43 83.8125 754.078 86.3672 755.375 88.2422C756.672 90.1016 758.5 91.0312 760.859 91.0312C764.312 91.0312 766.766 89.5078 768.219 86.4609V74.5547C766.766 71.2578 764.328 69.6094 760.906 69.6094C758.547 69.6094 756.711 70.5391 755.398 72.3984C754.086 74.2422 753.43 76.9688 753.43 80.5781ZM794.398 93C794.117 92.2031 793.938 91.0234 793.859 89.4609C792.875 90.7422 791.617 91.7344 790.086 92.4375C788.57 93.125 786.961 93.4688 785.258 93.4688C782.82 93.4688 780.844 92.7891 779.328 91.4297C777.828 90.0703 777.078 88.3516 777.078 86.2734C777.078 83.8047 778.102 81.8516 780.148 80.4141C782.211 78.9766 785.078 78.2578 788.75 78.2578H793.836V75.375C793.836 73.5625 793.273 72.1406 792.148 71.1094C791.039 70.0625 789.414 69.5391 787.273 69.5391C785.32 69.5391 783.703 70.0391 782.422 71.0391C781.141 72.0391 780.5 73.2422 780.5 74.6484L777.688 74.625C777.688 72.6094 778.625 70.8672 780.5 69.3984C782.375 67.9141 784.68 67.1719 787.414 67.1719C790.242 67.1719 792.469 67.8828 794.094 69.3047C795.734 70.7109 796.578 72.6797 796.625 75.2109V87.2109C796.625 89.6641 796.883 91.5 797.398 92.7188V93H794.398ZM785.586 90.9844C787.461 90.9844 789.133 90.5312 790.602 89.625C792.086 88.7188 793.164 87.5078 793.836 85.9922V80.4141H788.82C786.023 80.4453 783.836 80.9609 782.258 81.9609C780.68 82.9453 779.891 84.3047 779.891 86.0391C779.891 87.4609 780.414 88.6406 781.461 89.5781C782.523 90.5156 783.898 90.9844 785.586 90.9844ZM808.484 61.1484V67.6406H813.734V69.9375H808.484V86.8359C808.484 88.2422 808.734 89.2891 809.234 89.9766C809.75 90.6641 810.602 91.0078 811.789 91.0078C812.258 91.0078 813.016 90.9297 814.062 90.7734L814.18 93.0703C813.445 93.3359 812.445 93.4688 811.18 93.4688C809.258 93.4688 807.859 92.9141 806.984 91.8047C806.109 90.6797 805.672 89.0312 805.672 86.8594V69.9375H801.008V67.6406H805.672V61.1484H808.484ZM835.555 93C835.273 92.2031 835.094 91.0234 835.016 89.4609C834.031 90.7422 832.773 91.7344 831.242 92.4375C829.727 93.125 828.117 93.4688 826.414 93.4688C823.977 93.4688 822 92.7891 820.484 91.4297C818.984 90.0703 818.234 88.3516 818.234 86.2734C818.234 83.8047 819.258 81.8516 821.305 80.4141C823.367 78.9766 826.234 78.2578 829.906 78.2578H834.992V75.375C834.992 73.5625 834.43 72.1406 833.305 71.1094C832.195 70.0625 830.57 69.5391 828.43 69.5391C826.477 69.5391 824.859 70.0391 823.578 71.0391C822.297 72.0391 821.656 73.2422 821.656 74.6484L818.844 74.625C818.844 72.6094 819.781 70.8672 821.656 69.3984C823.531 67.9141 825.836 67.1719 828.57 67.1719C831.398 67.1719 833.625 67.8828 835.25 69.3047C836.891 70.7109 837.734 72.6797 837.781 75.2109V87.2109C837.781 89.6641 838.039 91.5 838.555 92.7188V93H835.555ZM826.742 90.9844C828.617 90.9844 830.289 90.5312 831.758 89.625C833.242 88.7188 834.32 87.5078 834.992 85.9922V80.4141H829.977C827.18 80.4453 824.992 80.9609 823.414 81.9609C821.836 82.9453 821.047 84.3047 821.047 86.0391C821.047 87.4609 821.57 88.6406 822.617 89.5781C823.68 90.5156 825.055 90.9844 826.742 90.9844ZM43.0156 117.148V123.641H48.2656V125.938H43.0156V142.836C43.0156 144.242 43.2656 145.289 43.7656 145.977C44.2812 146.664 45.1328 147.008 46.3203 147.008C46.7891 147.008 47.5469 146.93 48.5938 146.773L48.7109 149.07C47.9766 149.336 46.9766 149.469 45.7109 149.469C43.7891 149.469 42.3906 148.914 41.5156 147.805C40.6406 146.68 40.2031 145.031 40.2031 142.859V125.938H35.5391V123.641H40.2031V117.148H43.0156ZM56.8672 127.93C57.7891 126.414 58.9688 125.242 60.4062 124.414C61.8438 123.586 63.4141 123.172 65.1172 123.172C67.8359 123.172 69.8594 123.938 71.1875 125.469C72.5156 127 73.1875 129.297 73.2031 132.359V149H70.4141V132.336C70.3984 130.07 69.9141 128.383 68.9609 127.273C68.0234 126.164 66.5156 125.609 64.4375 125.609C62.7031 125.609 61.1641 126.156 59.8203 127.25C58.4922 128.328 57.5078 129.789 56.8672 131.633V149H54.0781V113H56.8672V127.93ZM96.4297 149C96.1484 148.203 95.9688 147.023 95.8906 145.461C94.9062 146.742 93.6484 147.734 92.1172 148.438C90.6016 149.125 88.9922 149.469 87.2891 149.469C84.8516 149.469 82.875 148.789 81.3594 147.43C79.8594 146.07 79.1094 144.352 79.1094 142.273C79.1094 139.805 80.1328 137.852 82.1797 136.414C84.2422 134.977 87.1094 134.258 90.7812 134.258H95.8672V131.375C95.8672 129.562 95.3047 128.141 94.1797 127.109C93.0703 126.062 91.4453 125.539 89.3047 125.539C87.3516 125.539 85.7344 126.039 84.4531 127.039C83.1719 128.039 82.5312 129.242 82.5312 130.648L79.7188 130.625C79.7188 128.609 80.6562 126.867 82.5312 125.398C84.4062 123.914 86.7109 123.172 89.4453 123.172C92.2734 123.172 94.5 123.883 96.125 125.305C97.7656 126.711 98.6094 128.68 98.6562 131.211V143.211C98.6562 145.664 98.9141 147.5 99.4297 148.719V149H96.4297ZM87.6172 146.984C89.4922 146.984 91.1641 146.531 92.6328 145.625C94.1172 144.719 95.1953 143.508 95.8672 141.992V136.414H90.8516C88.0547 136.445 85.8672 136.961 84.2891 137.961C82.7109 138.945 81.9219 140.305 81.9219 142.039C81.9219 143.461 82.4453 144.641 83.4922 145.578C84.5547 146.516 85.9297 146.984 87.6172 146.984ZM108.828 123.641L108.922 127.977C109.875 126.414 111.062 125.227 112.484 124.414C113.906 123.586 115.477 123.172 117.195 123.172C119.914 123.172 121.938 123.938 123.266 125.469C124.594 127 125.266 129.297 125.281 132.359V149H122.492V132.336C122.477 130.07 121.992 128.383 121.039 127.273C120.102 126.164 118.594 125.609 116.516 125.609C114.781 125.609 113.242 126.156 111.898 127.25C110.57 128.328 109.586 129.789 108.945 131.633V149H106.156V123.641H108.828ZM154.039 149.469C151.883 149.469 149.93 148.938 148.18 147.875C146.445 146.812 145.094 145.336 144.125 143.445C143.156 141.539 142.672 139.406 142.672 137.047V136.039C142.672 133.602 143.141 131.406 144.078 129.453C145.031 127.5 146.352 125.969 148.039 124.859C149.727 123.734 151.555 123.172 153.523 123.172C156.602 123.172 159.039 124.227 160.836 126.336C162.648 128.43 163.555 131.297 163.555 134.938V136.508H145.461V137.047C145.461 139.922 146.281 142.32 147.922 144.242C149.578 146.148 151.656 147.102 154.156 147.102C155.656 147.102 156.977 146.828 158.117 146.281C159.273 145.734 160.32 144.859 161.258 143.656L163.016 144.992C160.953 147.977 157.961 149.469 154.039 149.469ZM153.523 125.562C151.414 125.562 149.633 126.336 148.18 127.883C146.742 129.43 145.867 131.508 145.555 134.117H160.766V133.812C160.688 131.375 159.992 129.391 158.68 127.859C157.367 126.328 155.648 125.562 153.523 125.562ZM176.586 145.133L184.297 123.641H187.18L177.711 149H175.438L165.922 123.641H168.805L176.586 145.133ZM201.289 149.469C199.133 149.469 197.18 148.938 195.43 147.875C193.695 146.812 192.344 145.336 191.375 143.445C190.406 141.539 189.922 139.406 189.922 137.047V136.039C189.922 133.602 190.391 131.406 191.328 129.453C192.281 127.5 193.602 125.969 195.289 124.859C196.977 123.734 198.805 123.172 200.773 123.172C203.852 123.172 206.289 124.227 208.086 126.336C209.898 128.43 210.805 131.297 210.805 134.938V136.508H192.711V137.047C192.711 139.922 193.531 142.32 195.172 144.242C196.828 146.148 198.906 147.102 201.406 147.102C202.906 147.102 204.227 146.828 205.367 146.281C206.523 145.734 207.57 144.859 208.508 143.656L210.266 144.992C208.203 147.977 205.211 149.469 201.289 149.469ZM200.773 125.562C198.664 125.562 196.883 126.336 195.43 127.883C193.992 129.43 193.117 131.508 192.805 134.117H208.016V133.812C207.938 131.375 207.242 129.391 205.93 127.859C204.617 126.328 202.898 125.562 200.773 125.562ZM227.984 126.031C227.391 125.922 226.758 125.867 226.086 125.867C224.336 125.867 222.852 126.359 221.633 127.344C220.43 128.312 219.57 129.727 219.055 131.586V149H216.266V123.641H219.008L219.055 127.672C220.539 124.672 222.922 123.172 226.203 123.172C226.984 123.172 227.602 123.273 228.055 123.477L227.984 126.031ZM228.945 155.375L227.281 154.156C228.703 152.25 229.438 150.273 229.484 148.227V144.594H232.227V147.523C232.227 150.773 231.133 153.391 228.945 155.375ZM249.266 136.086C249.266 132.148 250.141 129.016 251.891 126.688C253.656 124.344 256.047 123.172 259.062 123.172C262.484 123.172 265.094 124.523 266.891 127.227V113H269.68V149H267.055L266.938 145.625C265.141 148.188 262.5 149.469 259.016 149.469C256.094 149.469 253.734 148.297 251.938 145.953C250.156 143.594 249.266 140.414 249.266 136.414V136.086ZM252.102 136.578C252.102 139.812 252.75 142.367 254.047 144.242C255.344 146.102 257.172 147.031 259.531 147.031C262.984 147.031 265.438 145.508 266.891 142.461V130.555C265.438 127.258 263 125.609 259.578 125.609C257.219 125.609 255.383 126.539 254.07 128.398C252.758 130.242 252.102 132.969 252.102 136.578ZM286.883 149.469C284.727 149.469 282.773 148.938 281.023 147.875C279.289 146.812 277.938 145.336 276.969 143.445C276 141.539 275.516 139.406 275.516 137.047V136.039C275.516 133.602 275.984 131.406 276.922 129.453C277.875 127.5 279.195 125.969 280.883 124.859C282.57 123.734 284.398 123.172 286.367 123.172C289.445 123.172 291.883 124.227 293.68 126.336C295.492 128.43 296.398 131.297 296.398 134.938V136.508H278.305V137.047C278.305 139.922 279.125 142.32 280.766 144.242C282.422 146.148 284.5 147.102 287 147.102C288.5 147.102 289.82 146.828 290.961 146.281C292.117 145.734 293.164 144.859 294.102 143.656L295.859 144.992C293.797 147.977 290.805 149.469 286.883 149.469ZM286.367 125.562C284.258 125.562 282.477 126.336 281.023 127.883C279.586 129.43 278.711 131.508 278.398 134.117H293.609V133.812C293.531 131.375 292.836 129.391 291.523 127.859C290.211 126.328 288.492 125.562 286.367 125.562ZM317.047 142.555C317.047 141.164 316.484 140.047 315.359 139.203C314.25 138.359 312.57 137.703 310.32 137.234C308.07 136.75 306.32 136.203 305.07 135.594C303.836 134.969 302.914 134.211 302.305 133.32C301.711 132.43 301.414 131.352 301.414 130.086C301.414 128.086 302.25 126.438 303.922 125.141C305.594 123.828 307.734 123.172 310.344 123.172C313.172 123.172 315.438 123.875 317.141 125.281C318.859 126.672 319.719 128.492 319.719 130.742H316.906C316.906 129.258 316.281 128.023 315.031 127.039C313.797 126.055 312.234 125.562 310.344 125.562C308.5 125.562 307.016 125.977 305.891 126.805C304.781 127.617 304.227 128.68 304.227 129.992C304.227 131.258 304.688 132.242 305.609 132.945C306.547 133.633 308.242 134.266 310.695 134.844C313.164 135.422 315.008 136.039 316.227 136.695C317.461 137.352 318.375 138.141 318.969 139.062C319.562 139.984 319.859 141.102 319.859 142.414C319.859 144.555 318.992 146.266 317.258 147.547C315.539 148.828 313.289 149.469 310.508 149.469C307.555 149.469 305.156 148.758 303.312 147.336C301.484 145.898 300.57 144.086 300.57 141.898H303.383C303.492 143.539 304.18 144.82 305.445 145.742C306.727 146.648 308.414 147.102 310.508 147.102C312.461 147.102 314.039 146.672 315.242 145.812C316.445 144.953 317.047 143.867 317.047 142.555ZM346.578 136.578C346.578 140.531 345.703 143.672 343.953 146C342.203 148.312 339.859 149.469 336.922 149.469C333.453 149.469 330.797 148.25 328.953 145.812V158.75H326.164V123.641H328.766L328.906 127.227C330.734 124.523 333.383 123.172 336.852 123.172C339.883 123.172 342.258 124.32 343.977 126.617C345.711 128.914 346.578 132.102 346.578 136.18V136.578ZM343.766 136.086C343.766 132.852 343.102 130.297 341.773 128.422C340.445 126.547 338.594 125.609 336.219 125.609C334.5 125.609 333.023 126.023 331.789 126.852C330.555 127.68 329.609 128.883 328.953 130.461V142.625C329.625 144.078 330.586 145.188 331.836 145.953C333.086 146.719 334.562 147.102 336.266 147.102C338.625 147.102 340.461 146.164 341.773 144.289C343.102 142.398 343.766 139.664 343.766 136.086ZM355.953 149H353.141V123.641H355.953V149ZM352.648 116.305C352.648 115.773 352.82 115.328 353.164 114.969C353.508 114.594 353.977 114.406 354.57 114.406C355.164 114.406 355.633 114.594 355.977 114.969C356.336 115.328 356.516 115.773 356.516 116.305C356.516 116.836 356.336 117.281 355.977 117.641C355.633 118 355.164 118.18 354.57 118.18C353.977 118.18 353.508 118 353.164 117.641C352.82 117.281 352.648 116.836 352.648 116.305ZM367.953 117.148V123.641H373.203V125.938H367.953V142.836C367.953 144.242 368.203 145.289 368.703 145.977C369.219 146.664 370.07 147.008 371.258 147.008C371.727 147.008 372.484 146.93 373.531 146.773L373.648 149.07C372.914 149.336 371.914 149.469 370.648 149.469C368.727 149.469 367.328 148.914 366.453 147.805C365.578 146.68 365.141 145.031 365.141 142.859V125.938H360.477V123.641H365.141V117.148H367.953ZM388.836 149.469C386.68 149.469 384.727 148.938 382.977 147.875C381.242 146.812 379.891 145.336 378.922 143.445C377.953 141.539 377.469 139.406 377.469 137.047V136.039C377.469 133.602 377.938 131.406 378.875 129.453C379.828 127.5 381.148 125.969 382.836 124.859C384.523 123.734 386.352 123.172 388.32 123.172C391.398 123.172 393.836 124.227 395.633 126.336C397.445 128.43 398.352 131.297 398.352 134.938V136.508H380.258V137.047C380.258 139.922 381.078 142.32 382.719 144.242C384.375 146.148 386.453 147.102 388.953 147.102C390.453 147.102 391.773 146.828 392.914 146.281C394.07 145.734 395.117 144.859 396.055 143.656L397.812 144.992C395.75 147.977 392.758 149.469 388.836 149.469ZM388.32 125.562C386.211 125.562 384.43 126.336 382.977 127.883C381.539 129.43 380.664 131.508 380.352 134.117H395.562V133.812C395.484 131.375 394.789 129.391 393.477 127.859C392.164 126.328 390.445 125.562 388.32 125.562ZM414.359 136.086C414.359 132.117 415.234 128.977 416.984 126.664C418.75 124.336 421.141 123.172 424.156 123.172C427.609 123.172 430.234 124.547 432.031 127.297L432.172 123.641H434.797V148.484C434.797 151.75 433.883 154.336 432.055 156.242C430.227 158.148 427.75 159.102 424.625 159.102C422.859 159.102 421.172 158.703 419.562 157.906C417.969 157.125 416.711 156.078 415.789 154.766L417.359 153.078C419.344 155.516 421.703 156.734 424.438 156.734C426.781 156.734 428.609 156.039 429.922 154.648C431.234 153.273 431.914 151.359 431.961 148.906V145.719C430.164 148.219 427.547 149.469 424.109 149.469C421.172 149.469 418.812 148.297 417.031 145.953C415.25 143.609 414.359 140.445 414.359 136.461V136.086ZM417.195 136.578C417.195 139.812 417.844 142.367 419.141 144.242C420.438 146.102 422.266 147.031 424.625 147.031C428.078 147.031 430.523 145.484 431.961 142.391V130.602C431.305 128.977 430.359 127.742 429.125 126.898C427.891 126.039 426.406 125.609 424.672 125.609C422.312 125.609 420.477 126.539 419.164 128.398C417.852 130.242 417.195 132.969 417.195 136.578ZM453.828 126.031C453.234 125.922 452.602 125.867 451.93 125.867C450.18 125.867 448.695 126.359 447.477 127.344C446.273 128.312 445.414 129.727 444.898 131.586V149H442.109V123.641H444.852L444.898 127.672C446.383 124.672 448.766 123.172 452.047 123.172C452.828 123.172 453.445 123.273 453.898 123.477L453.828 126.031ZM456.266 135.945C456.266 133.508 456.734 131.312 457.672 129.359C458.625 127.406 459.961 125.891 461.68 124.812C463.414 123.719 465.375 123.172 467.562 123.172C470.938 123.172 473.672 124.359 475.766 126.734C477.859 129.094 478.906 132.227 478.906 136.133V136.719C478.906 139.172 478.43 141.383 477.477 143.352C476.539 145.305 475.211 146.812 473.492 147.875C471.773 148.938 469.812 149.469 467.609 149.469C464.25 149.469 461.516 148.289 459.406 145.93C457.312 143.555 456.266 140.414 456.266 136.508V135.945ZM459.078 136.719C459.078 139.75 459.859 142.242 461.422 144.195C463 146.133 465.062 147.102 467.609 147.102C470.141 147.102 472.188 146.133 473.75 144.195C475.328 142.242 476.117 139.672 476.117 136.484V135.945C476.117 134.008 475.758 132.234 475.039 130.625C474.32 129.016 473.312 127.773 472.016 126.898C470.719 126.008 469.234 125.562 467.562 125.562C465.062 125.562 463.023 126.547 461.445 128.516C459.867 130.469 459.078 133.031 459.078 136.203V136.719ZM490.789 143.164L491.211 145.344L491.773 143.047L497.867 123.641H500.258L506.281 142.883L506.938 145.555L507.477 143.094L512.68 123.641H515.586L508.203 149H505.812L499.297 128.891L498.992 127.508L498.688 128.914L492.289 149H489.898L482.539 123.641H485.422L490.789 143.164ZM524.047 149H521.234V123.641H524.047V149ZM520.742 116.305C520.742 115.773 520.914 115.328 521.258 114.969C521.602 114.594 522.07 114.406 522.664 114.406C523.258 114.406 523.727 114.594 524.07 114.969C524.43 115.328 524.609 115.773 524.609 116.305C524.609 116.836 524.43 117.281 524.07 117.641C523.727 118 523.258 118.18 522.664 118.18C522.07 118.18 521.602 118 521.258 117.641C520.914 117.281 520.742 116.836 520.742 116.305ZM534.359 123.641L534.453 127.977C535.406 126.414 536.594 125.227 538.016 124.414C539.438 123.586 541.008 123.172 542.727 123.172C545.445 123.172 547.469 123.938 548.797 125.469C550.125 127 550.797 129.297 550.812 132.359V149H548.023V132.336C548.008 130.07 547.523 128.383 546.57 127.273C545.633 126.164 544.125 125.609 542.047 125.609C540.312 125.609 538.773 126.156 537.43 127.25C536.102 128.328 535.117 129.789 534.477 131.633V149H531.688V123.641H534.359ZM556.953 136.086C556.953 132.117 557.828 128.977 559.578 126.664C561.344 124.336 563.734 123.172 566.75 123.172C570.203 123.172 572.828 124.547 574.625 127.297L574.766 123.641H577.391V148.484C577.391 151.75 576.477 154.336 574.648 156.242C572.82 158.148 570.344 159.102 567.219 159.102C565.453 159.102 563.766 158.703 562.156 157.906C560.562 157.125 559.305 156.078 558.383 154.766L559.953 153.078C561.938 155.516 564.297 156.734 567.031 156.734C569.375 156.734 571.203 156.039 572.516 154.648C573.828 153.273 574.508 151.359 574.555 148.906V145.719C572.758 148.219 570.141 149.469 566.703 149.469C563.766 149.469 561.406 148.297 559.625 145.953C557.844 143.609 556.953 140.445 556.953 136.461V136.086ZM559.789 136.578C559.789 139.812 560.438 142.367 561.734 144.242C563.031 146.102 564.859 147.031 567.219 147.031C570.672 147.031 573.117 145.484 574.555 142.391V130.602C573.898 128.977 572.953 127.742 571.719 126.898C570.484 126.039 569 125.609 567.266 125.609C564.906 125.609 563.07 126.539 561.758 128.398C560.445 130.242 559.789 132.969 559.789 136.578ZM608.094 126.031C607.5 125.922 606.867 125.867 606.195 125.867C604.445 125.867 602.961 126.359 601.742 127.344C600.539 128.312 599.68 129.727 599.164 131.586V149H596.375V123.641H599.117L599.164 127.672C600.648 124.672 603.031 123.172 606.312 123.172C607.094 123.172 607.711 123.273 608.164 123.477L608.094 126.031ZM615.688 149H612.875V123.641H615.688V149ZM612.383 116.305C612.383 115.773 612.555 115.328 612.898 114.969C613.242 114.594 613.711 114.406 614.305 114.406C614.898 114.406 615.367 114.594 615.711 114.969C616.07 115.328 616.25 115.773 616.25 116.305C616.25 116.836 616.07 117.281 615.711 117.641C615.367 118 614.898 118.18 614.305 118.18C613.711 118.18 613.242 118 612.898 117.641C612.555 117.281 612.383 116.836 612.383 116.305ZM638.516 142.555C638.516 141.164 637.953 140.047 636.828 139.203C635.719 138.359 634.039 137.703 631.789 137.234C629.539 136.75 627.789 136.203 626.539 135.594C625.305 134.969 624.383 134.211 623.773 133.32C623.18 132.43 622.883 131.352 622.883 130.086C622.883 128.086 623.719 126.438 625.391 125.141C627.062 123.828 629.203 123.172 631.812 123.172C634.641 123.172 636.906 123.875 638.609 125.281C640.328 126.672 641.188 128.492 641.188 130.742H638.375C638.375 129.258 637.75 128.023 636.5 127.039C635.266 126.055 633.703 125.562 631.812 125.562C629.969 125.562 628.484 125.977 627.359 126.805C626.25 127.617 625.695 128.68 625.695 129.992C625.695 131.258 626.156 132.242 627.078 132.945C628.016 133.633 629.711 134.266 632.164 134.844C634.633 135.422 636.477 136.039 637.695 136.695C638.93 137.352 639.844 138.141 640.438 139.062C641.031 139.984 641.328 141.102 641.328 142.414C641.328 144.555 640.461 146.266 638.727 147.547C637.008 148.828 634.758 149.469 631.977 149.469C629.023 149.469 626.625 148.758 624.781 147.336C622.953 145.898 622.039 144.086 622.039 141.898H624.852C624.961 143.539 625.648 144.82 626.914 145.742C628.195 146.648 629.883 147.102 631.977 147.102C633.93 147.102 635.508 146.672 636.711 145.812C637.914 144.953 638.516 143.867 638.516 142.555ZM653.68 136.227L650.469 139.32V149H647.656V113H650.469V136.039L653.117 133.18L662.82 123.641H666.359L655.602 134.328L667.297 149H663.945L653.68 136.227ZM686.375 142.555C686.375 141.164 685.812 140.047 684.688 139.203C683.578 138.359 681.898 137.703 679.648 137.234C677.398 136.75 675.648 136.203 674.398 135.594C673.164 134.969 672.242 134.211 671.633 133.32C671.039 132.43 670.742 131.352 670.742 130.086C670.742 128.086 671.578 126.438 673.25 125.141C674.922 123.828 677.062 123.172 679.672 123.172C682.5 123.172 684.766 123.875 686.469 125.281C688.188 126.672 689.047 128.492 689.047 130.742H686.234C686.234 129.258 685.609 128.023 684.359 127.039C683.125 126.055 681.562 125.562 679.672 125.562C677.828 125.562 676.344 125.977 675.219 126.805C674.109 127.617 673.555 128.68 673.555 129.992C673.555 131.258 674.016 132.242 674.938 132.945C675.875 133.633 677.57 134.266 680.023 134.844C682.492 135.422 684.336 136.039 685.555 136.695C686.789 137.352 687.703 138.141 688.297 139.062C688.891 139.984 689.188 141.102 689.188 142.414C689.188 144.555 688.32 146.266 686.586 147.547C684.867 148.828 682.617 149.469 679.836 149.469C676.883 149.469 674.484 148.758 672.641 147.336C670.812 145.898 669.898 144.086 669.898 141.898H672.711C672.82 143.539 673.508 144.82 674.773 145.742C676.055 146.648 677.742 147.102 679.836 147.102C681.789 147.102 683.367 146.672 684.57 145.812C685.773 144.953 686.375 143.867 686.375 142.555ZM695.117 123.242L693.453 122.023C694.859 120.133 695.586 118.148 695.633 116.07V113H698.398V115.367C698.398 118.633 697.305 121.258 695.117 123.242ZM700.836 123.242L699.172 122.023C700.578 120.133 701.305 118.148 701.352 116.07V113H704.117V115.367C704.117 118.633 703.023 121.258 700.836 123.242Z" fill="white"/>
<path d="M44.4219 254.836L44.457 255.381L44.7031 254.836L56.0234 232.406H58.4492L45.1953 258H43.1387L37.918 232.406H40.0801L44.4219 254.836ZM64.3027 258.352C62.7793 258.328 61.4609 257.906 60.3477 257.086C59.2344 256.254 58.4141 255.129 57.8867 253.711C57.3711 252.281 57.1895 250.74 57.3418 249.088L57.3945 248.49C57.5586 246.732 58.0801 245.062 58.959 243.48C59.8379 241.887 60.9512 240.674 62.2988 239.842C63.6465 238.998 65.0879 238.594 66.623 238.629C68.041 238.652 69.2363 239.039 70.209 239.789C71.1934 240.539 71.9082 241.582 72.3535 242.918C72.7988 244.254 72.9395 245.73 72.7754 247.348L72.6348 248.631H59.4688L59.416 249.053C59.2402 250.33 59.334 251.555 59.6973 252.727C60.0605 253.887 60.6523 254.812 61.4727 255.504C62.3047 256.184 63.3008 256.535 64.4609 256.559C65.5859 256.594 66.5996 256.377 67.502 255.908C68.4043 255.439 69.2363 254.812 69.998 254.027L71.2285 255.029C70.373 256.131 69.3535 256.969 68.1699 257.543C66.998 258.105 65.709 258.375 64.3027 258.352ZM66.5176 240.422C64.9941 240.363 63.6289 240.902 62.4219 242.039C61.2148 243.176 60.3066 244.775 59.6973 246.838L70.7363 246.855L70.7891 246.592C71 244.928 70.707 243.498 69.9102 242.303C69.1133 241.096 67.9824 240.469 66.5176 240.422ZM80.2812 238.98L79.6484 242.232C80.4922 241.061 81.4648 240.164 82.5664 239.543C83.6797 238.91 84.8691 238.605 86.1348 238.629C87.9629 238.676 89.293 239.314 90.125 240.545C90.957 241.775 91.25 243.469 91.0039 245.625L88.9297 258H86.8555L88.9297 245.59C89 244.922 89.0117 244.277 88.9648 243.656C88.7656 241.57 87.6289 240.498 85.5547 240.439C84.3242 240.416 83.1758 240.785 82.1094 241.547C81.043 242.297 80.1055 243.434 79.2969 244.957L77.0469 258H74.9727L78.2773 238.98H80.2812ZM101.709 234.111L100.865 238.98H104.68L104.381 240.703H100.566L98.457 253.395L98.4219 254.484C98.4219 255.762 99.0078 256.418 100.18 256.453C100.543 256.465 101.111 256.424 101.885 256.33L101.797 258.053C101.105 258.252 100.402 258.34 99.6875 258.316C98.457 258.293 97.5605 257.865 96.998 257.033C96.4355 256.189 96.2305 254.971 96.3828 253.377L98.4746 240.703H95.0645L95.3809 238.98H98.7559L99.6172 234.111H101.709ZM118.355 255.609C116.844 257.508 114.758 258.422 112.098 258.352C110.305 258.316 108.969 257.672 108.09 256.418C107.211 255.152 106.895 253.4 107.141 251.162L109.18 238.98H111.254L109.232 251.215C109.162 251.848 109.156 252.475 109.215 253.096C109.297 254.174 109.619 255.006 110.182 255.592C110.744 256.178 111.518 256.488 112.502 256.523C113.908 256.582 115.209 256.26 116.404 255.557C117.6 254.842 118.373 253.91 118.725 252.762L121.08 238.98H123.189L119.885 258H117.846L118.355 255.609ZM136.725 240.756C136.268 240.662 135.805 240.609 135.336 240.598C134 240.598 132.775 241.008 131.662 241.828C130.549 242.637 129.805 243.668 129.43 244.922L127.18 258H125.105L128.41 238.98H130.467L129.834 242.004C130.525 240.879 131.357 240.023 132.33 239.438C133.314 238.852 134.393 238.57 135.564 238.594C135.975 238.594 136.455 238.676 137.006 238.84L136.725 240.756ZM144.213 258.352C142.689 258.328 141.371 257.906 140.258 257.086C139.145 256.254 138.324 255.129 137.797 253.711C137.281 252.281 137.1 250.74 137.252 249.088L137.305 248.49C137.469 246.732 137.99 245.062 138.869 243.48C139.748 241.887 140.861 240.674 142.209 239.842C143.557 238.998 144.998 238.594 146.533 238.629C147.951 238.652 149.146 239.039 150.119 239.789C151.104 240.539 151.818 241.582 152.264 242.918C152.709 244.254 152.85 245.73 152.686 247.348L152.545 248.631H139.379L139.326 249.053C139.15 250.33 139.244 251.555 139.607 252.727C139.971 253.887 140.562 254.812 141.383 255.504C142.215 256.184 143.211 256.535 144.371 256.559C145.496 256.594 146.51 256.377 147.412 255.908C148.314 255.439 149.146 254.812 149.908 254.027L151.139 255.029C150.283 256.131 149.264 256.969 148.08 257.543C146.908 258.105 145.619 258.375 144.213 258.352ZM146.428 240.422C144.904 240.363 143.539 240.902 142.332 242.039C141.125 243.176 140.217 244.775 139.607 246.838L150.646 246.855L150.699 246.592C150.91 244.928 150.617 243.498 149.82 242.303C149.023 241.096 147.893 240.469 146.428 240.422ZM155.357 258L159.805 232.406L167.012 232.424C169.461 232.482 171.307 233.086 172.549 234.234C173.791 235.383 174.318 236.965 174.131 238.98C174.002 240.316 173.516 241.482 172.672 242.479C171.828 243.463 170.686 244.213 169.244 244.729C170.463 245.104 171.412 245.836 172.092 246.926C172.771 248.004 173.059 249.246 172.953 250.652C172.777 252.879 171.875 254.66 170.246 255.996C168.629 257.332 166.514 258 163.9 258H155.357ZM159.646 245.695L157.818 256.172L163.971 256.189C165.822 256.189 167.375 255.703 168.629 254.73C169.895 253.758 170.627 252.41 170.826 250.688C170.979 249.199 170.639 248.01 169.807 247.119C168.986 246.229 167.785 245.76 166.203 245.713L159.646 245.695ZM159.945 243.885L165.553 243.902C167.381 243.879 168.863 243.416 170 242.514C171.148 241.611 171.805 240.404 171.969 238.893C172.262 235.928 170.592 234.387 166.959 234.27L161.633 234.252L159.945 243.885ZM184.01 258.352C182.486 258.328 181.168 257.906 180.055 257.086C178.941 256.254 178.121 255.129 177.594 253.711C177.078 252.281 176.896 250.74 177.049 249.088L177.102 248.49C177.266 246.732 177.787 245.062 178.666 243.48C179.545 241.887 180.658 240.674 182.006 239.842C183.354 238.998 184.795 238.594 186.33 238.629C187.748 238.652 188.943 239.039 189.916 239.789C190.9 240.539 191.615 241.582 192.061 242.918C192.506 244.254 192.646 245.73 192.482 247.348L192.342 248.631H179.176L179.123 249.053C178.947 250.33 179.041 251.555 179.404 252.727C179.768 253.887 180.359 254.812 181.18 255.504C182.012 256.184 183.008 256.535 184.168 256.559C185.293 256.594 186.307 256.377 187.209 255.908C188.111 255.439 188.943 254.812 189.705 254.027L190.936 255.029C190.08 256.131 189.061 256.969 187.877 257.543C186.705 258.105 185.416 258.375 184.01 258.352ZM186.225 240.422C184.701 240.363 183.336 240.902 182.129 242.039C180.922 243.176 180.014 244.775 179.404 246.838L190.443 246.855L190.496 246.592C190.707 244.928 190.414 243.498 189.617 242.303C188.82 241.096 187.689 240.469 186.225 240.422ZM206.51 258C206.451 257.555 206.434 257.109 206.457 256.664L206.615 255.346C205.736 256.295 204.729 257.039 203.592 257.578C202.467 258.117 201.248 258.375 199.936 258.352C198.33 258.328 197.023 257.824 196.016 256.84C195.02 255.844 194.574 254.596 194.68 253.096C194.773 251.842 195.201 250.758 195.963 249.844C196.736 248.918 197.832 248.203 199.25 247.699C200.668 247.184 202.256 246.926 204.014 246.926L207.898 246.943L208.215 244.764C208.355 243.463 208.074 242.42 207.371 241.635C206.668 240.85 205.631 240.434 204.26 240.387C202.877 240.363 201.67 240.709 200.639 241.424C199.619 242.127 198.98 243.059 198.723 244.219H196.666C196.9 242.555 197.756 241.201 199.232 240.158C200.709 239.104 202.455 238.588 204.471 238.611C206.428 238.658 207.934 239.25 208.988 240.387C210.055 241.523 210.488 243 210.289 244.816L208.707 254.379L208.566 255.908C208.531 256.541 208.578 257.168 208.707 257.789L208.672 258H206.51ZM200.287 256.506C201.576 256.553 202.807 256.248 203.979 255.592C205.162 254.924 206.141 253.98 206.914 252.762L207.635 248.561L204.277 248.543C202.145 248.543 200.404 248.924 199.057 249.686C197.709 250.436 196.965 251.514 196.824 252.92C196.719 253.951 196.988 254.801 197.633 255.469C198.289 256.137 199.174 256.482 200.287 256.506ZM220.924 234.111L220.08 238.98H223.895L223.596 240.703H219.781L217.672 253.395L217.637 254.484C217.637 255.762 218.223 256.418 219.395 256.453C219.758 256.465 220.326 256.424 221.1 256.33L221.012 258.053C220.32 258.252 219.617 258.34 218.902 258.316C217.672 258.293 216.775 257.865 216.213 257.033C215.65 256.189 215.445 254.971 215.598 253.377L217.689 240.703H214.279L214.596 238.98H217.971L218.832 234.111H220.924ZM242.105 247.594H233.686V245.818H242.105V247.594ZM269.598 251.707C269.598 250.289 269.1 249.17 268.104 248.35C267.107 247.518 265.285 246.732 262.637 245.994C259.988 245.244 258.055 244.43 256.836 243.551C255.102 242.309 254.234 240.68 254.234 238.664C254.234 236.707 255.037 235.119 256.643 233.9C258.26 232.67 260.322 232.055 262.83 232.055C264.529 232.055 266.047 232.383 267.383 233.039C268.73 233.695 269.773 234.609 270.512 235.781C271.25 236.953 271.619 238.26 271.619 239.701H269.439C269.439 237.955 268.842 236.555 267.646 235.5C266.451 234.434 264.846 233.9 262.83 233.9C260.873 233.9 259.314 234.34 258.154 235.219C256.994 236.086 256.414 237.223 256.414 238.629C256.414 239.93 256.936 240.99 257.979 241.811C259.021 242.631 260.691 243.357 262.988 243.99C265.285 244.611 267.025 245.262 268.209 245.941C269.393 246.609 270.283 247.412 270.881 248.35C271.479 249.287 271.777 250.395 271.777 251.672C271.777 253.688 270.969 255.305 269.352 256.523C267.746 257.742 265.625 258.352 262.988 258.352C261.184 258.352 259.525 258.029 258.014 257.385C256.514 256.74 255.371 255.838 254.586 254.678C253.812 253.518 253.426 252.188 253.426 250.688H255.588C255.588 252.492 256.262 253.916 257.609 254.959C258.957 256.002 260.75 256.523 262.988 256.523C264.98 256.523 266.58 256.084 267.787 255.205C268.994 254.326 269.598 253.16 269.598 251.707ZM278.316 258H276.207V238.98H278.316V258ZM275.838 233.479C275.838 233.08 275.967 232.746 276.225 232.477C276.482 232.195 276.834 232.055 277.279 232.055C277.725 232.055 278.076 232.195 278.334 232.477C278.604 232.746 278.738 233.08 278.738 233.479C278.738 233.877 278.604 234.211 278.334 234.48C278.076 234.75 277.725 234.885 277.279 234.885C276.834 234.885 276.482 234.75 276.225 234.48C275.967 234.211 275.838 233.877 275.838 233.479ZM285.963 238.98L286.033 242.074C286.736 240.926 287.615 240.064 288.67 239.49C289.725 238.916 290.896 238.629 292.186 238.629C295.186 238.629 297.09 239.859 297.898 242.32C298.578 241.137 299.486 240.229 300.623 239.596C301.76 238.951 303.014 238.629 304.385 238.629C308.463 238.629 310.543 240.855 310.625 245.309V258H308.516V245.467C308.504 243.768 308.135 242.508 307.408 241.688C306.693 240.867 305.521 240.457 303.893 240.457C302.381 240.48 301.104 240.973 300.061 241.934C299.018 242.883 298.438 244.043 298.32 245.414V258H296.211V245.309C296.199 243.68 295.812 242.467 295.051 241.67C294.301 240.861 293.141 240.457 291.57 240.457C290.246 240.457 289.109 240.838 288.16 241.6C287.211 242.35 286.508 243.469 286.051 244.957V258H283.941V238.98H285.963ZM314.809 248.209C314.809 246.381 315.16 244.734 315.863 243.27C316.578 241.805 317.58 240.668 318.869 239.859C320.17 239.039 321.641 238.629 323.281 238.629C325.812 238.629 327.863 239.52 329.434 241.301C331.004 243.07 331.789 245.42 331.789 248.35V248.789C331.789 250.629 331.432 252.287 330.717 253.764C330.014 255.229 329.018 256.359 327.729 257.156C326.439 257.953 324.969 258.352 323.316 258.352C320.797 258.352 318.746 257.467 317.164 255.697C315.594 253.916 314.809 251.561 314.809 248.631V248.209ZM316.918 248.789C316.918 251.062 317.504 252.932 318.676 254.396C319.859 255.85 321.406 256.576 323.316 256.576C325.215 256.576 326.75 255.85 327.922 254.396C329.105 252.932 329.697 251.004 329.697 248.613V248.209C329.697 246.756 329.428 245.426 328.889 244.219C328.35 243.012 327.594 242.08 326.621 241.424C325.648 240.756 324.535 240.422 323.281 240.422C321.406 240.422 319.877 241.16 318.693 242.637C317.51 244.102 316.918 246.023 316.918 248.402V248.789ZM338.152 238.98L338.223 242.232C338.938 241.061 339.828 240.17 340.895 239.561C341.961 238.939 343.139 238.629 344.428 238.629C346.467 238.629 347.984 239.203 348.98 240.352C349.977 241.5 350.48 243.223 350.492 245.52V258H348.4V245.502C348.389 243.803 348.025 242.537 347.311 241.705C346.607 240.873 345.477 240.457 343.918 240.457C342.617 240.457 341.463 240.867 340.455 241.688C339.459 242.496 338.721 243.592 338.24 244.975V258H336.148V238.98H338.152ZM383.311 250.02C383.018 252.715 382.051 254.777 380.41 256.207C378.781 257.637 376.607 258.352 373.889 258.352C371.99 258.352 370.309 257.877 368.844 256.928C367.391 255.979 366.266 254.637 365.469 252.902C364.672 251.156 364.268 249.164 364.256 246.926V243.604C364.256 241.33 364.654 239.314 365.451 237.557C366.248 235.799 367.391 234.445 368.879 233.496C370.379 232.535 372.102 232.055 374.047 232.055C376.789 232.055 378.951 232.799 380.533 234.287C382.127 235.764 383.053 237.809 383.311 240.422H381.131C380.592 236.074 378.23 233.9 374.047 233.9C371.727 233.9 369.875 234.768 368.492 236.502C367.121 238.236 366.436 240.633 366.436 243.691V246.82C366.436 249.773 367.104 252.129 368.439 253.887C369.787 255.645 371.604 256.523 373.889 256.523C376.15 256.523 377.855 255.984 379.004 254.906C380.152 253.816 380.861 252.188 381.131 250.02H383.311ZM390.166 242.197C390.857 241.061 391.742 240.182 392.82 239.561C393.898 238.939 395.076 238.629 396.354 238.629C398.393 238.629 399.91 239.203 400.906 240.352C401.902 241.5 402.406 243.223 402.418 245.52V258H400.326V245.502C400.314 243.803 399.951 242.537 399.236 241.705C398.533 240.873 397.402 240.457 395.844 240.457C394.543 240.457 393.389 240.867 392.381 241.688C391.385 242.496 390.646 243.592 390.166 244.975V258H388.074V231H390.166V242.197ZM419.838 258C419.627 257.402 419.492 256.518 419.434 255.346C418.695 256.307 417.752 257.051 416.604 257.578C415.467 258.094 414.26 258.352 412.982 258.352C411.154 258.352 409.672 257.842 408.535 256.822C407.41 255.803 406.848 254.514 406.848 252.955C406.848 251.104 407.615 249.639 409.15 248.561C410.697 247.482 412.848 246.943 415.602 246.943H419.416V244.781C419.416 243.422 418.994 242.355 418.15 241.582C417.318 240.797 416.1 240.404 414.494 240.404C413.029 240.404 411.816 240.779 410.855 241.529C409.895 242.279 409.414 243.182 409.414 244.236L407.305 244.219C407.305 242.707 408.008 241.4 409.414 240.299C410.82 239.186 412.549 238.629 414.6 238.629C416.721 238.629 418.391 239.162 419.609 240.229C420.84 241.283 421.473 242.76 421.508 244.658V253.658C421.508 255.498 421.701 256.875 422.088 257.789V258H419.838ZM413.229 256.488C414.635 256.488 415.889 256.148 416.99 255.469C418.104 254.789 418.912 253.881 419.416 252.744V248.561H415.654C413.557 248.584 411.916 248.971 410.732 249.721C409.549 250.459 408.957 251.479 408.957 252.779C408.957 253.846 409.35 254.73 410.135 255.434C410.932 256.137 411.963 256.488 413.229 256.488ZM429.137 238.98L429.207 242.232C429.922 241.061 430.812 240.17 431.879 239.561C432.945 238.939 434.123 238.629 435.412 238.629C437.451 238.629 438.969 239.203 439.965 240.352C440.961 241.5 441.465 243.223 441.477 245.52V258H439.385V245.502C439.373 243.803 439.01 242.537 438.295 241.705C437.592 240.873 436.461 240.457 434.902 240.457C433.602 240.457 432.447 240.867 431.439 241.688C430.443 242.496 429.705 243.592 429.225 244.975V258H427.133V238.98H429.137ZM446.082 248.314C446.082 245.361 446.738 243.012 448.051 241.266C449.375 239.508 451.168 238.629 453.43 238.629C455.996 238.629 457.953 239.643 459.301 241.67V231H461.393V258H459.424L459.336 255.469C457.988 257.391 456.008 258.352 453.395 258.352C451.203 258.352 449.434 257.473 448.086 255.715C446.75 253.945 446.082 251.561 446.082 248.561V248.314ZM448.209 248.684C448.209 251.109 448.695 253.025 449.668 254.432C450.641 255.826 452.012 256.523 453.781 256.523C456.371 256.523 458.211 255.381 459.301 253.096V244.166C458.211 241.693 456.383 240.457 453.816 240.457C452.047 240.457 450.67 241.154 449.686 242.549C448.701 243.932 448.209 245.977 448.209 248.684ZM469.285 258H467.176V231H469.285V258ZM482.381 258.352C480.764 258.352 479.299 257.953 477.986 257.156C476.686 256.359 475.672 255.252 474.945 253.834C474.219 252.404 473.855 250.805 473.855 249.035V248.279C473.855 246.451 474.207 244.805 474.91 243.34C475.625 241.875 476.615 240.727 477.881 239.895C479.146 239.051 480.518 238.629 481.994 238.629C484.303 238.629 486.131 239.42 487.479 241.002C488.838 242.572 489.518 244.723 489.518 247.453V248.631H475.947V249.035C475.947 251.191 476.562 252.99 477.793 254.432C479.035 255.861 480.594 256.576 482.469 256.576C483.594 256.576 484.584 256.371 485.439 255.961C486.307 255.551 487.092 254.895 487.795 253.992L489.113 254.994C487.566 257.232 485.322 258.352 482.381 258.352ZM481.994 240.422C480.412 240.422 479.076 241.002 477.986 242.162C476.908 243.322 476.252 244.881 476.018 246.838H487.426V246.609C487.367 244.781 486.846 243.293 485.861 242.145C484.877 240.996 483.588 240.422 481.994 240.422ZM502.402 240.773C501.957 240.691 501.482 240.65 500.979 240.65C499.666 240.65 498.553 241.02 497.639 241.758C496.736 242.484 496.092 243.545 495.705 244.939V258H493.613V238.98H495.67L495.705 242.004C496.818 239.754 498.605 238.629 501.066 238.629C501.652 238.629 502.115 238.705 502.455 238.857L502.402 240.773Z" fill="white"/>
</svg>
