<svg width="1307" height="1692" viewBox="0 0 1307 1692" fill="none" xmlns="http://www.w3.org/2000/svg">
<rect width="1307" height="1692" rx="15" fill="#337357" fill-opacity="0.5"/>
<path d="M335.141 1384V1281.62H371C383.422 1281.62 392.844 1284.02 399.266 1288.8C405.688 1293.53 408.898 1300.49 408.898 1309.68C408.898 1314.7 407.609 1319.12 405.031 1322.97C402.453 1326.77 398.867 1329.55 394.273 1331.34C399.523 1332.65 403.648 1335.3 406.648 1339.28C409.695 1343.27 411.219 1348.14 411.219 1353.91C411.219 1363.75 408.078 1371.2 401.797 1376.27C395.516 1381.33 386.562 1383.91 374.938 1384H335.141ZM356.234 1339.42V1367.05H374.305C379.273 1367.05 383.141 1365.88 385.906 1363.54C388.719 1361.15 390.125 1357.87 390.125 1353.7C390.125 1344.32 385.273 1339.56 375.57 1339.42H356.234ZM356.234 1324.52H371.844C382.484 1324.33 387.805 1320.09 387.805 1311.79C387.805 1307.15 386.445 1303.82 383.727 1301.8C381.055 1299.74 376.812 1298.71 371 1298.71H356.234V1324.52ZM478.339 1384H457.245V1281.62H478.339V1384ZM547.85 1367.05H592.639V1384H526.756V1281.62H547.85V1367.05ZM654.697 1367.05H699.486V1384H633.603V1281.62H654.697V1367.05ZM762.88 1384H741.786V1281.62H762.88V1384ZM895.391 1335.13C895.391 1345.21 893.609 1354.05 890.047 1361.64C886.484 1369.23 881.375 1375.09 874.719 1379.22C868.109 1383.34 860.516 1385.41 851.938 1385.41C843.453 1385.41 835.883 1383.37 829.227 1379.29C822.57 1375.21 817.414 1369.4 813.758 1361.85C810.102 1354.26 808.25 1345.54 808.203 1335.7V1330.63C808.203 1320.55 810.008 1311.7 813.617 1304.05C817.273 1296.37 822.406 1290.48 829.016 1286.41C835.672 1282.28 843.266 1280.22 851.797 1280.22C860.328 1280.22 867.898 1282.28 874.508 1286.41C881.164 1290.48 886.297 1296.37 889.906 1304.05C893.562 1311.7 895.391 1320.53 895.391 1330.56V1335.13ZM874.016 1330.49C874.016 1319.76 872.094 1311.6 868.25 1306.02C864.406 1300.45 858.922 1297.66 851.797 1297.66C844.719 1297.66 839.258 1300.42 835.414 1305.95C831.57 1311.44 829.625 1319.5 829.578 1330.14V1335.13C829.578 1345.59 831.5 1353.7 835.344 1359.46C839.188 1365.23 844.719 1368.11 851.938 1368.11C859.016 1368.11 864.453 1365.34 868.25 1359.81C872.047 1354.23 873.969 1346.12 874.016 1335.48V1330.49ZM1022.77 1384H1001.67L960.612 1316.64V1384H939.519V1281.62H960.612L1001.75 1349.12V1281.62H1022.77V1384Z" fill="white"/>
<path d="M183.641 1123H143V966.344L94.4844 981.391V948.344L179.281 917.969H183.641V1123ZM349.016 1123H308.375V966.344L259.859 981.391V948.344L344.656 917.969H349.016V1123ZM419.469 1103.03C419.469 1096.56 421.625 1091.31 425.938 1087.28C430.344 1083.25 435.828 1081.23 442.391 1081.23C449.047 1081.23 454.531 1083.25 458.844 1087.28C463.25 1091.31 465.453 1096.56 465.453 1103.03C465.453 1109.41 463.297 1114.61 458.984 1118.64C454.672 1122.58 449.141 1124.55 442.391 1124.55C435.734 1124.55 430.25 1122.58 425.938 1118.64C421.625 1114.61 419.469 1109.41 419.469 1103.03ZM505.531 1022.31L517.344 918.25H632.094V952.141H550.672L545.609 996.156C555.266 991 565.531 988.422 576.406 988.422C595.906 988.422 611.188 994.469 622.25 1006.56C633.312 1018.66 638.844 1035.58 638.844 1057.33C638.844 1070.55 636.031 1082.41 630.406 1092.91C624.875 1103.31 616.906 1111.42 606.5 1117.23C596.094 1122.95 583.812 1125.81 569.656 1125.81C557.281 1125.81 545.797 1123.33 535.203 1118.36C524.609 1113.3 516.219 1106.22 510.031 1097.12C503.938 1088.03 500.703 1077.67 500.328 1066.05H540.547C541.391 1074.58 544.344 1081.23 549.406 1086.02C554.562 1090.7 561.266 1093.05 569.516 1093.05C578.703 1093.05 585.781 1089.77 590.75 1083.2C595.719 1076.55 598.203 1067.17 598.203 1055.08C598.203 1043.45 595.344 1034.55 589.625 1028.36C583.906 1022.17 575.797 1019.08 565.297 1019.08C555.641 1019.08 547.812 1021.61 541.812 1026.67L537.875 1030.33L505.531 1022.31ZM817.297 1051.7H738.125V1018.94H817.297V1051.7ZM1060.3 1123H919.953V1095.16L986.188 1024.56C995.281 1014.62 1001.98 1005.95 1006.3 998.547C1010.7 991.141 1012.91 984.109 1012.91 977.453C1012.91 968.359 1010.61 961.234 1006.02 956.078C1001.42 950.828 994.859 948.203 986.328 948.203C977.141 948.203 969.875 951.391 964.531 957.766C959.281 964.047 956.656 972.344 956.656 982.656H915.875C915.875 970.188 918.828 958.797 924.734 948.484C930.734 938.172 939.172 930.109 950.047 924.297C960.922 918.391 973.25 915.438 987.031 915.438C1008.12 915.438 1024.48 920.5 1036.11 930.625C1047.83 940.75 1053.69 955.047 1053.69 973.516C1053.69 983.641 1051.06 993.953 1045.81 1004.45C1040.56 1014.95 1031.56 1027.19 1018.81 1041.16L972.266 1090.23H1060.3V1123ZM1126.67 1002.62H1148.33C1158.64 1002.62 1166.28 1000.05 1171.25 994.891C1176.22 989.734 1178.7 982.891 1178.7 974.359C1178.7 966.109 1176.22 959.688 1171.25 955.094C1166.38 950.5 1159.62 948.203 1151 948.203C1143.22 948.203 1136.7 950.359 1131.45 954.672C1126.2 958.891 1123.58 964.422 1123.58 971.266H1082.94C1082.94 960.578 1085.8 951.016 1091.52 942.578C1097.33 934.047 1105.39 927.391 1115.7 922.609C1126.11 917.828 1137.55 915.438 1150.02 915.438C1171.67 915.438 1188.64 920.641 1200.92 931.047C1213.2 941.359 1219.34 955.609 1219.34 973.797C1219.34 983.172 1216.48 991.797 1210.77 999.672C1205.05 1007.55 1197.55 1013.59 1188.27 1017.81C1199.8 1021.94 1208.38 1028.12 1214 1036.38C1219.72 1044.62 1222.58 1054.38 1222.58 1065.62C1222.58 1083.81 1215.92 1098.39 1202.61 1109.36C1189.39 1120.33 1171.86 1125.81 1150.02 1125.81C1129.58 1125.81 1112.84 1120.42 1099.81 1109.64C1086.88 1098.86 1080.41 1084.61 1080.41 1066.89H1121.05C1121.05 1074.58 1123.91 1080.86 1129.62 1085.73C1135.44 1090.61 1142.56 1093.05 1151 1093.05C1160.66 1093.05 1168.2 1090.52 1173.64 1085.45C1179.17 1080.3 1181.94 1073.5 1181.94 1065.06C1181.94 1044.62 1170.69 1034.41 1148.19 1034.41H1126.67V1002.62Z" fill="white"/>
<path d="M76.1914 721.836L78.5117 713.398L90.6055 673.812H92.7148L104.738 713.398L107.023 721.836L109.414 713.398L119.961 673.812H122.035L108.254 725H106.109L93.418 682.32L91.625 676.906L89.9023 682.32L77.1055 725H74.9609L61.1445 673.812H63.2539L73.8711 713.398L76.1914 721.836ZM134.586 725H132.688V673.812H134.586V725ZM183.066 675.711H164.434V725H162.535V675.711H143.902V673.812H183.066V675.711ZM228.523 725H226.625V699.617H193.93V725H192.031V673.812H193.93V697.719H226.625V673.812H228.523V725ZM286.777 709.707H261.711L256.016 725H253.941L273.102 673.812H275.422L294.582 725H292.508L286.777 709.707ZM262.414 707.809H286.074L274.262 676.098L262.414 707.809ZM352.73 675.711H334.098V725H332.199V675.711H313.566V673.812H352.73V675.711ZM398.188 725H396.289V699.617H363.594V725H361.695V673.812H363.594V697.719H396.289V673.812H398.188V725ZM448.496 703.238C448.496 707.668 447.699 711.594 446.105 715.016C444.535 718.414 442.285 721.051 439.355 722.926C436.426 724.777 433.051 725.703 429.23 725.703C423.465 725.703 418.801 723.652 415.238 719.551C411.676 715.449 409.895 709.918 409.895 702.957V695.574C409.895 691.168 410.68 687.254 412.25 683.832C413.844 680.41 416.105 677.773 419.035 675.922C421.988 674.047 425.363 673.109 429.16 673.109C432.98 673.109 436.355 674.047 439.285 675.922C442.238 677.773 444.512 680.422 446.105 683.867C447.699 687.289 448.496 691.191 448.496 695.574V703.238ZM446.598 695.504C446.598 689.316 445.027 684.359 441.887 680.633C438.746 676.883 434.504 675.008 429.16 675.008C423.887 675.008 419.68 676.871 416.539 680.598C413.398 684.301 411.828 689.352 411.828 695.75V703.238C411.828 707.316 412.531 710.926 413.938 714.066C415.367 717.184 417.395 719.586 420.02 721.273C422.645 722.961 425.715 723.805 429.23 723.805C434.574 723.805 438.805 721.941 441.922 718.215C445.039 714.488 446.598 709.402 446.598 702.957V695.504ZM494.656 673.812V708.477C494.656 713.891 493.086 718.121 489.945 721.168C486.805 724.191 482.551 725.703 477.184 725.703C471.816 725.703 467.562 724.191 464.422 721.168C461.281 718.121 459.699 713.938 459.676 708.617V673.812H461.574V708.406C461.574 713.141 462.992 716.891 465.828 719.656C468.688 722.422 472.473 723.805 477.184 723.805C481.895 723.805 485.668 722.422 488.504 719.656C491.34 716.891 492.758 713.129 492.758 708.371V673.812H494.656ZM538.883 712.73C538.883 710.551 538.367 708.711 537.336 707.211C536.328 705.688 534.723 704.352 532.52 703.203C530.34 702.031 527.035 700.836 522.605 699.617C518.176 698.398 514.848 697.168 512.621 695.926C510.418 694.684 508.801 693.242 507.77 691.602C506.738 689.961 506.223 687.969 506.223 685.625C506.223 681.898 507.793 678.887 510.934 676.59C514.074 674.27 518.164 673.109 523.203 673.109C526.484 673.109 529.426 673.754 532.027 675.043C534.652 676.309 536.68 678.102 538.109 680.422C539.539 682.719 540.254 685.32 540.254 688.227H538.355C538.355 684.406 536.949 681.254 534.137 678.77C531.324 676.262 527.68 675.008 523.203 675.008C518.703 675.008 515.059 676.016 512.27 678.031C509.504 680.023 508.121 682.531 508.121 685.555C508.121 688.625 509.328 691.098 511.742 692.973C514.156 694.848 518.141 696.512 523.695 697.965C529.25 699.395 533.316 701.059 535.895 702.957C539.176 705.371 540.816 708.605 540.816 712.66C540.816 715.238 540.09 717.523 538.637 719.516C537.184 721.484 535.121 723.008 532.449 724.086C529.777 725.164 526.777 725.703 523.449 725.703C519.746 725.703 516.418 725.094 513.465 723.875C510.512 722.633 508.285 720.875 506.785 718.602C505.309 716.328 504.57 713.645 504.57 710.551H506.469C506.469 714.746 508.039 718.004 511.18 720.324C514.32 722.645 518.41 723.805 523.449 723.805C527.926 723.805 531.617 722.785 534.523 720.746C537.43 718.684 538.883 716.012 538.883 712.73ZM577.801 709.707H552.734L547.039 725H544.965L564.125 673.812H566.445L585.605 725H583.531L577.801 709.707ZM553.438 707.809H577.098L565.285 676.098L553.438 707.809ZM630.746 725H628.848L595.801 677.047V725H593.867V673.812H595.801L628.848 721.66V673.812H630.746V725ZM644.844 725V673.812H659.012C662.973 673.812 666.559 674.75 669.77 676.625C672.98 678.5 675.5 681.137 677.328 684.535C679.156 687.91 680.094 691.695 680.141 695.891V702.535C680.141 706.801 679.238 710.645 677.434 714.066C675.652 717.488 673.156 720.16 669.945 722.082C666.734 724.004 663.148 724.977 659.188 725H644.844ZM646.742 675.711V723.102H659.012C662.598 723.102 665.855 722.234 668.785 720.5C671.738 718.742 674.047 716.305 675.711 713.188C677.375 710.047 678.219 706.566 678.242 702.746V696.172C678.242 692.352 677.422 688.883 675.781 685.766C674.164 682.648 671.891 680.211 668.961 678.453C666.055 676.672 662.832 675.758 659.293 675.711H646.742ZM736.145 709.707H711.078L705.383 725H703.309L722.469 673.812H724.789L743.949 725H741.875L736.145 709.707ZM711.781 707.809H735.441L723.629 676.098L711.781 707.809ZM752.211 725V673.812H766.379C770.34 673.812 773.926 674.75 777.137 676.625C780.348 678.5 782.867 681.137 784.695 684.535C786.523 687.91 787.461 691.695 787.508 695.891V702.535C787.508 706.801 786.605 710.645 784.801 714.066C783.02 717.488 780.523 720.16 777.312 722.082C774.102 724.004 770.516 724.977 766.555 725H752.211ZM754.109 675.711V723.102H766.379C769.965 723.102 773.223 722.234 776.152 720.5C779.105 718.742 781.414 716.305 783.078 713.188C784.742 710.047 785.586 706.566 785.609 702.746V696.172C785.609 692.352 784.789 688.883 783.148 685.766C781.531 682.648 779.258 680.211 776.328 678.453C773.422 676.672 770.199 675.758 766.66 675.711H754.109ZM829.977 712.73C829.977 710.551 829.461 708.711 828.43 707.211C827.422 705.688 825.816 704.352 823.613 703.203C821.434 702.031 818.129 700.836 813.699 699.617C809.27 698.398 805.941 697.168 803.715 695.926C801.512 694.684 799.895 693.242 798.863 691.602C797.832 689.961 797.316 687.969 797.316 685.625C797.316 681.898 798.887 678.887 802.027 676.59C805.168 674.27 809.258 673.109 814.297 673.109C817.578 673.109 820.52 673.754 823.121 675.043C825.746 676.309 827.773 678.102 829.203 680.422C830.633 682.719 831.348 685.32 831.348 688.227H829.449C829.449 684.406 828.043 681.254 825.23 678.77C822.418 676.262 818.773 675.008 814.297 675.008C809.797 675.008 806.152 676.016 803.363 678.031C800.598 680.023 799.215 682.531 799.215 685.555C799.215 688.625 800.422 691.098 802.836 692.973C805.25 694.848 809.234 696.512 814.789 697.965C820.344 699.395 824.41 701.059 826.988 702.957C830.27 705.371 831.91 708.605 831.91 712.66C831.91 715.238 831.184 717.523 829.73 719.516C828.277 721.484 826.215 723.008 823.543 724.086C820.871 725.164 817.871 725.703 814.543 725.703C810.84 725.703 807.512 725.094 804.559 723.875C801.605 722.633 799.379 720.875 797.879 718.602C796.402 716.328 795.664 713.645 795.664 710.551H797.562C797.562 714.746 799.133 718.004 802.273 720.324C805.414 722.645 809.504 723.805 814.543 723.805C819.02 723.805 822.711 722.785 825.617 720.746C828.523 718.684 829.977 716.012 829.977 712.73ZM839.434 733.965L838.133 732.84C840.031 730.402 841.062 727.883 841.227 725.281L841.262 719.41H843.16V724.543C843.066 728.27 841.824 731.41 839.434 733.965ZM905.316 675.711H886.684V725H884.785V675.711H866.152V673.812H905.316V675.711ZM950.773 725H948.875V699.617H916.18V725H914.281V673.812H916.18V697.719H948.875V673.812H950.773V725ZM992.434 709.707H967.367L961.672 725H959.598L978.758 673.812H981.078L1000.24 725H998.164L992.434 709.707ZM968.07 707.809H991.73L979.918 676.098L968.07 707.809ZM1038 675.711H1019.36V725H1017.46V675.711H998.832V673.812H1038V675.711ZM1066.09 725H1064.19V673.812H1066.09V725ZM1112.21 712.73C1112.21 710.551 1111.7 708.711 1110.66 707.211C1109.66 705.688 1108.05 704.352 1105.85 703.203C1103.67 702.031 1100.36 700.836 1095.93 699.617C1091.5 698.398 1088.18 697.168 1085.95 695.926C1083.75 694.684 1082.13 693.242 1081.1 691.602C1080.07 689.961 1079.55 687.969 1079.55 685.625C1079.55 681.898 1081.12 678.887 1084.26 676.59C1087.4 674.27 1091.49 673.109 1096.53 673.109C1099.81 673.109 1102.75 673.754 1105.36 675.043C1107.98 676.309 1110.01 678.102 1111.44 680.422C1112.87 682.719 1113.58 685.32 1113.58 688.227H1111.68C1111.68 684.406 1110.28 681.254 1107.46 678.77C1104.65 676.262 1101.01 675.008 1096.53 675.008C1092.03 675.008 1088.39 676.016 1085.6 678.031C1082.83 680.023 1081.45 682.531 1081.45 685.555C1081.45 688.625 1082.66 691.098 1085.07 692.973C1087.48 694.848 1091.47 696.512 1097.02 697.965C1102.58 699.395 1106.64 701.059 1109.22 702.957C1112.5 705.371 1114.14 708.605 1114.14 712.66C1114.14 715.238 1113.42 717.523 1111.96 719.516C1110.51 721.484 1108.45 723.008 1105.78 724.086C1103.11 725.164 1100.11 725.703 1096.78 725.703C1093.07 725.703 1089.75 725.094 1086.79 723.875C1083.84 722.633 1081.61 720.875 1080.11 718.602C1078.64 716.328 1077.9 713.645 1077.9 710.551H1079.8C1079.8 714.746 1081.37 718.004 1084.51 720.324C1087.65 722.645 1091.74 723.805 1096.78 723.805C1101.25 723.805 1104.95 722.785 1107.85 720.746C1110.76 718.684 1112.21 716.012 1112.21 712.73ZM1122.3 723.277C1122.3 722.738 1122.49 722.281 1122.86 721.906C1123.24 721.508 1123.7 721.309 1124.23 721.309C1124.77 721.309 1125.23 721.508 1125.61 721.906C1126 722.281 1126.2 722.738 1126.2 723.277C1126.2 723.816 1126 724.273 1125.61 724.648C1125.23 725.023 1124.77 725.211 1124.23 725.211C1123.7 725.211 1123.24 725.023 1122.86 724.648C1122.49 724.273 1122.3 723.816 1122.3 723.277ZM1137.77 723.277C1137.77 722.738 1137.96 722.281 1138.33 721.906C1138.71 721.508 1139.16 721.309 1139.7 721.309C1140.24 721.309 1140.7 721.508 1141.07 721.906C1141.47 722.281 1141.67 722.738 1141.67 723.277C1141.67 723.816 1141.47 724.273 1141.07 724.648C1140.7 725.023 1140.24 725.211 1139.7 725.211C1139.16 725.211 1138.71 725.023 1138.33 724.648C1137.96 724.273 1137.77 723.816 1137.77 723.277ZM1153.24 723.277C1153.24 722.738 1153.43 722.281 1153.8 721.906C1154.18 721.508 1154.63 721.309 1155.17 721.309C1155.71 721.309 1156.17 721.508 1156.54 721.906C1156.94 722.281 1157.14 722.738 1157.14 723.277C1157.14 723.816 1156.94 724.273 1156.54 724.648C1156.17 725.023 1155.71 725.211 1155.17 725.211C1154.63 725.211 1154.18 725.023 1153.8 724.648C1153.43 724.273 1153.24 723.816 1153.24 723.277Z" fill="black"/>
<path d="M202.57 134.348H158.131V177H154.914V90.2656H208.646V93.4824H158.131V131.012H202.57V134.348ZM260.294 151.087H217.82L208.17 177H204.655L237.121 90.2656H241.053L273.519 177H270.004L260.294 151.087ZM219.012 147.87H259.103L239.087 94.1377L219.012 147.87ZM345.777 150.432C344.943 159.367 341.866 166.238 336.544 171.043C331.222 175.809 323.994 178.191 314.86 178.191C308.705 178.191 303.244 176.643 298.479 173.545C293.753 170.408 290.079 165.979 287.458 160.261C284.837 154.502 283.507 147.93 283.467 140.543V127.14C283.467 119.753 284.757 113.16 287.339 107.362C289.92 101.524 293.594 97.0169 298.359 93.8398C303.165 90.6628 308.665 89.0742 314.86 89.0742C323.915 89.0742 331.123 91.457 336.484 96.2227C341.846 100.988 344.943 107.819 345.777 116.715H342.561C341.647 108.732 338.867 102.676 334.221 98.5459C329.574 94.376 323.121 92.291 314.86 92.291C306.441 92.291 299.63 95.4681 294.428 101.822C289.265 108.176 286.684 116.695 286.684 127.378V140.126C286.684 146.957 287.835 153.013 290.139 158.295C292.442 163.537 295.738 167.628 300.027 170.566C304.356 173.505 309.3 174.975 314.86 174.975C323.16 174.975 329.634 172.929 334.28 168.839C338.966 164.748 341.727 158.613 342.561 150.432H345.777ZM412.615 133.99H369.129V173.783H418.691V177H365.912V90.2656H418.691V93.4824H369.129V130.773H412.615V133.99ZM435.371 177V90.2656H458.187C467.519 90.2656 474.568 92.1719 479.334 95.9844C484.139 99.7572 486.542 105.257 486.542 112.485C486.542 117.728 485.212 122.076 482.551 125.531C479.89 128.986 476.137 131.19 471.292 132.144C476.772 132.858 481.34 135.241 484.993 139.292C488.647 143.303 490.474 147.91 490.474 153.112C490.474 160.499 488.071 166.337 483.266 170.626C478.5 174.875 471.848 177 463.31 177H435.371ZM438.588 134.169V173.783H463.667C471.014 173.783 476.772 171.976 480.942 168.362C485.152 164.709 487.257 159.665 487.257 153.231C487.257 147.751 485.231 143.243 481.181 139.709C477.13 136.135 471.709 134.288 464.918 134.169H438.588ZM438.588 130.952H459.378C467.281 130.952 473.238 129.443 477.249 126.425C481.26 123.367 483.266 118.641 483.266 112.247C483.266 99.9359 475.144 93.681 458.901 93.4824H438.588V130.952ZM570.417 140.126C570.417 147.632 569.067 154.284 566.366 160.082C563.705 165.84 559.893 170.308 554.929 173.485C549.965 176.623 544.246 178.191 537.772 178.191C528.003 178.191 520.1 174.716 514.063 167.767C508.027 160.817 505.009 151.444 505.009 139.649V127.14C505.009 119.674 506.339 113.041 509 107.243C511.701 101.445 515.533 96.9772 520.497 93.8398C525.501 90.6628 531.22 89.0742 537.653 89.0742C544.127 89.0742 549.845 90.6628 554.81 93.8398C559.813 96.9772 563.666 101.465 566.366 107.303C569.067 113.101 570.417 119.713 570.417 127.14V140.126ZM567.2 127.021C567.2 116.536 564.539 108.137 559.218 101.822C553.896 95.4681 546.708 92.291 537.653 92.291C528.718 92.291 521.589 95.4482 516.268 101.763C510.946 108.037 508.285 116.596 508.285 127.438V140.126C508.285 147.036 509.477 153.152 511.859 158.474C514.282 163.756 517.717 167.826 522.165 170.686C526.613 173.545 531.815 174.975 537.772 174.975C546.827 174.975 553.995 171.817 559.277 165.503C564.559 159.188 567.2 150.571 567.2 139.649V127.021ZM651.671 140.126C651.671 147.632 650.321 154.284 647.62 160.082C644.959 165.84 641.147 170.308 636.183 173.485C631.218 176.623 625.5 178.191 619.026 178.191C609.257 178.191 601.354 174.716 595.317 167.767C589.281 160.817 586.263 151.444 586.263 139.649V127.14C586.263 119.674 587.593 113.041 590.254 107.243C592.954 101.445 596.787 96.9772 601.751 93.8398C606.755 90.6628 612.474 89.0742 618.907 89.0742C625.381 89.0742 631.099 90.6628 636.063 93.8398C641.067 96.9772 644.92 101.465 647.62 107.303C650.321 113.101 651.671 119.713 651.671 127.14V140.126ZM648.454 127.021C648.454 116.536 645.793 108.137 640.472 101.822C635.15 95.4681 627.962 92.291 618.907 92.291C609.972 92.291 602.843 95.4482 597.521 101.763C592.2 108.037 589.539 116.596 589.539 127.438V140.126C589.539 147.036 590.73 153.152 593.113 158.474C595.536 163.756 598.971 167.826 603.419 170.686C607.867 173.545 613.069 174.975 619.026 174.975C628.081 174.975 635.249 171.817 640.531 165.503C645.813 159.188 648.454 150.571 648.454 139.649V127.021ZM688.604 131.369L674.725 144.177V177H671.508V90.2656H674.725V140.424L689.021 126.425L725.002 90.2656H729.648L690.987 129.165L732.627 177H728.457L688.604 131.369ZM782.726 90.2656L818.408 172.294L854.21 90.2656H858.916V177H855.699V95.0312L819.719 177H817.157L781.355 95.4482V177H778.139V90.2656H782.726ZM929.507 151.087H887.033L877.383 177H873.868L906.334 90.2656H910.266L942.731 177H939.217L929.507 151.087ZM888.225 147.87H928.315L908.3 94.1377L888.225 147.87ZM973.827 131.369L959.947 144.177V177H956.73V90.2656H959.947V140.424L974.244 126.425L1010.22 90.2656H1014.87L976.21 129.165L1017.85 177H1013.68L973.827 131.369ZM1080.88 133.99H1037.39V173.783H1086.95V177H1034.17V90.2656H1086.95V93.4824H1037.39V130.773H1080.88V133.99ZM1155.58 156.21C1155.58 152.517 1154.7 149.399 1152.96 146.857C1151.25 144.276 1148.53 142.012 1144.79 140.066C1141.1 138.081 1135.5 136.055 1128 133.99C1120.49 131.925 1114.85 129.84 1111.08 127.735C1107.34 125.631 1104.6 123.188 1102.86 120.408C1101.11 117.628 1100.24 114.253 1100.24 110.281C1100.24 103.967 1102.9 98.8636 1108.22 94.9717C1113.54 91.04 1120.47 89.0742 1129.01 89.0742C1134.57 89.0742 1139.55 90.1663 1143.96 92.3506C1148.41 94.4951 1151.84 97.5332 1154.27 101.465C1156.69 105.357 1157.9 109.765 1157.9 114.689H1154.68C1154.68 108.216 1152.3 102.875 1147.53 98.665C1142.77 94.4157 1136.59 92.291 1129.01 92.291C1121.38 92.291 1115.21 93.9987 1110.48 97.4141C1105.8 100.79 1103.45 105.039 1103.45 110.162C1103.45 115.365 1105.5 119.554 1109.59 122.731C1113.68 125.909 1120.43 128.728 1129.84 131.19C1139.25 133.613 1146.14 136.433 1150.51 139.649C1156.07 143.74 1158.85 149.22 1158.85 156.091C1158.85 160.459 1157.62 164.331 1155.16 167.707C1152.7 171.043 1149.2 173.624 1144.67 175.451C1140.15 177.278 1135.06 178.191 1129.42 178.191C1123.15 178.191 1117.51 177.159 1112.51 175.094C1107.5 172.989 1103.73 170.01 1101.19 166.158C1098.69 162.306 1097.44 157.759 1097.44 152.517H1100.65C1100.65 159.625 1103.31 165.146 1108.63 169.077C1113.96 173.009 1120.89 174.975 1129.42 174.975C1137.01 174.975 1143.26 173.247 1148.19 169.792C1153.11 166.297 1155.58 161.77 1155.58 156.21Z" fill="black"/>
<path d="M257.078 375.469H268.68V391.852H257.078V414H236.758V391.852H194.781L193.867 379.055L236.547 311.625H257.078V375.469ZM214.117 375.469H236.758V339.328L235.422 341.648L214.117 375.469ZM334.773 310.57V327.305H332.805C323.617 327.445 316.211 329.836 310.586 334.477C305.008 339.117 301.656 345.562 300.531 353.812C305.969 348.281 312.836 345.516 321.133 345.516C330.039 345.516 337.117 348.703 342.367 355.078C347.617 361.453 350.242 369.844 350.242 380.25C350.242 386.906 348.789 392.93 345.883 398.32C343.023 403.711 338.945 407.906 333.648 410.906C328.398 413.906 322.445 415.406 315.789 415.406C305.008 415.406 296.289 411.656 289.633 404.156C283.023 396.656 279.719 386.648 279.719 374.133V366.82C279.719 355.711 281.805 345.914 285.977 337.43C290.195 328.898 296.219 322.312 304.047 317.672C311.922 312.984 321.039 310.617 331.398 310.57H334.773ZM314.945 361.828C311.664 361.828 308.688 362.695 306.016 364.43C303.344 366.117 301.375 368.367 300.109 371.18V377.367C300.109 384.164 301.445 389.484 304.117 393.328C306.789 397.125 310.539 399.023 315.367 399.023C319.727 399.023 323.242 397.312 325.914 393.891C328.633 390.422 329.992 385.945 329.992 380.461C329.992 374.883 328.633 370.383 325.914 366.961C323.195 363.539 319.539 361.828 314.945 361.828ZM438.555 378.352H398.969V361.969H438.555V378.352ZM537.414 373.078C532.117 378.281 525.93 380.883 518.852 380.883C509.805 380.883 502.562 377.789 497.125 371.602C491.688 365.367 488.969 356.977 488.969 346.43C488.969 339.727 490.422 333.586 493.328 328.008C496.281 322.383 500.383 318.023 505.633 314.93C510.883 311.789 516.789 310.219 523.352 310.219C530.102 310.219 536.102 311.906 541.352 315.281C546.602 318.656 550.68 323.508 553.586 329.836C556.492 336.164 557.969 343.406 558.016 351.562V359.086C558.016 376.148 553.773 389.555 545.289 399.305C536.805 409.055 524.781 414.258 509.219 414.914L504.227 414.984V398.039L508.727 397.969C526.398 397.172 535.961 388.875 537.414 373.078ZM523.844 365.344C527.125 365.344 529.938 364.5 532.281 362.812C534.672 361.125 536.477 359.086 537.695 356.695V348.328C537.695 341.438 536.383 336.094 533.758 332.297C531.133 328.5 527.617 326.602 523.211 326.602C519.133 326.602 515.781 328.477 513.156 332.227C510.531 335.93 509.219 340.594 509.219 346.219C509.219 351.797 510.484 356.391 513.016 360C515.594 363.562 519.203 365.344 523.844 365.344ZM642.742 414H572.57V400.078L605.688 364.781C610.234 359.812 613.586 355.477 615.742 351.773C617.945 348.07 619.047 344.555 619.047 341.227C619.047 336.68 617.898 333.117 615.602 330.539C613.305 327.914 610.023 326.602 605.758 326.602C601.164 326.602 597.531 328.195 594.859 331.383C592.234 334.523 590.922 338.672 590.922 343.828H570.531C570.531 337.594 572.008 331.898 574.961 326.742C577.961 321.586 582.18 317.555 587.617 314.648C593.055 311.695 599.219 310.219 606.109 310.219C616.656 310.219 624.836 312.75 630.648 317.812C636.508 322.875 639.438 330.023 639.438 339.258C639.438 344.32 638.125 349.477 635.5 354.727C632.875 359.977 628.375 366.094 622 373.078L598.727 397.617H642.742V414ZM708.625 345.75L726.156 395.25L743.594 345.75H762.062V414H747.953V395.344L749.359 363.141L730.938 414H721.281L702.906 363.188L704.312 395.344V414H690.25V345.75H708.625ZM808.497 414H794.434V345.75H808.497V414ZM854.838 402.703H884.697V414H840.775V345.75H854.838V402.703ZM926.069 402.703H955.928V414H912.006V345.75H926.069V402.703ZM998.191 414H984.128V345.75H998.191V414ZM1086.53 381.422C1086.53 388.141 1085.34 394.031 1082.97 399.094C1080.59 404.156 1077.19 408.062 1072.75 410.812C1068.34 413.562 1063.28 414.938 1057.56 414.938C1051.91 414.938 1046.86 413.578 1042.42 410.859C1037.98 408.141 1034.55 404.266 1032.11 399.234C1029.67 394.172 1028.44 388.359 1028.41 381.797V378.422C1028.41 371.703 1029.61 365.797 1032.02 360.703C1034.45 355.578 1037.88 351.656 1042.28 348.938C1046.72 346.188 1051.78 344.812 1057.47 344.812C1063.16 344.812 1068.2 346.188 1072.61 348.938C1077.05 351.656 1080.47 355.578 1082.88 360.703C1085.31 365.797 1086.53 371.688 1086.53 378.375V381.422ZM1072.28 378.328C1072.28 371.172 1071 365.734 1068.44 362.016C1065.88 358.297 1062.22 356.438 1057.47 356.438C1052.75 356.438 1049.11 358.281 1046.55 361.969C1043.98 365.625 1042.69 371 1042.66 378.094V381.422C1042.66 388.391 1043.94 393.797 1046.5 397.641C1049.06 401.484 1052.75 403.406 1057.56 403.406C1062.28 403.406 1065.91 401.562 1068.44 397.875C1070.97 394.156 1072.25 388.75 1072.28 381.656V378.328ZM1171.45 414H1157.39L1130.01 369.094V414H1115.95V345.75H1130.01L1157.43 390.75V345.75H1171.45V414ZM225.121 497.332C225.121 503.262 223.844 507.973 221.289 511.465C218.734 514.957 215.254 516.703 210.848 516.703C207.965 516.703 205.398 516.117 203.148 514.945C200.898 513.773 199.141 512.156 197.875 510.094V530.625H195.977V477.961H197.875V484.746C199.188 482.332 200.957 480.48 203.184 479.191C205.41 477.902 207.941 477.258 210.777 477.258C215.23 477.258 218.734 478.969 221.289 482.391C223.844 485.789 225.121 490.57 225.121 496.734V497.332ZM223.188 496.594C223.188 491.133 222.098 486.867 219.918 483.797C217.762 480.703 214.727 479.156 210.812 479.156C207.625 479.156 204.918 479.988 202.691 481.652C200.465 483.293 198.859 485.66 197.875 488.754V506.543C198.859 509.168 200.465 511.207 202.691 512.66C204.941 514.09 207.672 514.805 210.883 514.805C214.773 514.805 217.797 513.258 219.953 510.164C222.109 507.07 223.188 502.547 223.188 496.594ZM249.168 516.703C246.098 516.703 243.273 515.883 240.695 514.242C238.141 512.578 236.137 510.305 234.684 507.422C233.23 504.539 232.504 501.34 232.504 497.824V496.242C232.504 492.727 233.207 489.504 234.613 486.574C236.02 483.645 237.953 481.359 240.414 479.719C242.875 478.078 245.559 477.258 248.465 477.258C252.707 477.258 256.176 478.77 258.871 481.793C261.566 484.816 262.914 488.789 262.914 493.711V495.715H234.402V497.789C234.402 500.883 235.047 503.754 236.336 506.402C237.648 509.027 239.441 511.09 241.715 512.59C244.012 514.09 246.496 514.84 249.168 514.84C251.723 514.84 253.891 514.418 255.672 513.574C257.477 512.707 259.07 511.383 260.453 509.602L261.789 510.551C258.953 514.652 254.746 516.703 249.168 516.703ZM248.465 479.156C244.762 479.156 241.621 480.539 239.043 483.305C236.465 486.047 234.953 489.551 234.508 493.816H261.016V493.359C261.016 490.781 260.465 488.391 259.363 486.188C258.285 483.961 256.785 482.238 254.863 481.02C252.965 479.777 250.832 479.156 248.465 479.156ZM288.543 479.332L286.082 479.121C282.848 479.121 280.141 480.176 277.961 482.285C275.781 484.371 274.352 487.301 273.672 491.074V516H271.773V477.961H273.672V485.871C274.703 483.223 276.25 481.125 278.312 479.578C280.375 478.031 282.965 477.258 286.082 477.258C287.184 477.258 288.074 477.387 288.754 477.645L288.543 479.332ZM337.691 516C337.223 514.383 336.988 512.062 336.988 509.039C335.488 511.477 333.438 513.363 330.836 514.699C328.234 516.035 325.293 516.703 322.012 516.703C318.496 516.703 315.66 515.754 313.504 513.855C311.371 511.934 310.305 509.438 310.305 506.367C310.305 502.875 311.875 500.086 315.016 498C318.18 495.891 322.375 494.812 327.602 494.766H336.988V489.211C336.988 486.023 335.98 483.551 333.965 481.793C331.973 480.035 329.113 479.156 325.387 479.156C321.918 479.156 319.023 480.047 316.703 481.828C314.383 483.609 313.223 485.812 313.223 488.438L311.324 488.367C311.324 485.273 312.684 482.648 315.402 480.492C318.121 478.336 321.449 477.258 325.387 477.258C329.488 477.258 332.746 478.289 335.16 480.352C337.574 482.391 338.816 485.273 338.887 489V507.176C338.887 511.348 339.215 514.184 339.871 515.684V516H337.691ZM322.012 514.84C325.574 514.84 328.633 514.043 331.188 512.449C333.766 510.855 335.699 508.617 336.988 505.734V496.699H328.199C322.762 496.699 318.602 497.777 315.719 499.934C313.375 501.691 312.203 503.883 312.203 506.508C312.203 508.828 313.129 510.797 314.98 512.414C316.832 514.031 319.176 514.84 322.012 514.84ZM349.398 496.594C349.398 490.523 350.676 485.789 353.23 482.391C355.785 478.969 359.289 477.258 363.742 477.258C366.602 477.258 369.121 477.902 371.301 479.191C373.504 480.48 375.285 482.402 376.645 484.957V462H378.543V516H376.645V509.918C375.355 512.074 373.586 513.75 371.336 514.945C369.086 516.117 366.531 516.703 363.672 516.703C359.266 516.703 355.785 514.957 353.23 511.465C350.676 507.973 349.398 503.18 349.398 497.086V496.594ZM351.367 497.332C351.367 502.723 352.434 506.988 354.566 510.129C356.699 513.246 359.723 514.805 363.637 514.805C366.777 514.805 369.461 514.113 371.688 512.73C373.914 511.324 375.566 509.273 376.645 506.578V488.754C374.465 482.355 370.152 479.156 363.707 479.156C359.816 479.156 356.781 480.691 354.602 483.762C352.445 486.832 351.367 491.355 351.367 497.332ZM401.781 512.977L415.457 477.961H417.496L402.695 516H400.832L386.066 477.961H388.105L401.781 512.977ZM438.168 516.703C435.098 516.703 432.273 515.883 429.695 514.242C427.141 512.578 425.137 510.305 423.684 507.422C422.23 504.539 421.504 501.34 421.504 497.824V496.242C421.504 492.727 422.207 489.504 423.613 486.574C425.02 483.645 426.953 481.359 429.414 479.719C431.875 478.078 434.559 477.258 437.465 477.258C441.707 477.258 445.176 478.77 447.871 481.793C450.566 484.816 451.914 488.789 451.914 493.711V495.715H423.402V497.789C423.402 500.883 424.047 503.754 425.336 506.402C426.648 509.027 428.441 511.09 430.715 512.59C433.012 514.09 435.496 514.84 438.168 514.84C440.723 514.84 442.891 514.418 444.672 513.574C446.477 512.707 448.07 511.383 449.453 509.602L450.789 510.551C447.953 514.652 443.746 516.703 438.168 516.703ZM437.465 479.156C433.762 479.156 430.621 480.539 428.043 483.305C425.465 486.047 423.953 489.551 423.508 493.816H450.016V493.359C450.016 490.781 449.465 488.391 448.363 486.188C447.285 483.961 445.785 482.238 443.863 481.02C441.965 479.777 439.832 479.156 437.465 479.156ZM477.543 479.332L475.082 479.121C471.848 479.121 469.141 480.176 466.961 482.285C464.781 484.371 463.352 487.301 462.672 491.074V516H460.773V477.961H462.672V485.871C463.703 483.223 465.25 481.125 467.312 479.578C469.375 478.031 471.965 477.258 475.082 477.258C476.184 477.258 477.074 477.387 477.754 477.645L477.543 479.332ZM490.902 467.695V477.961H499.551V479.895H490.902V506.895C490.902 509.59 491.336 511.582 492.203 512.871C493.094 514.16 494.57 514.805 496.633 514.805C497.664 514.805 498.918 514.699 500.395 514.488L500.711 516.281C499.938 516.562 498.613 516.703 496.738 516.703C493.973 516.703 491.992 515.941 490.797 514.418C489.602 512.871 488.992 510.445 488.969 507.141V479.895H481.938V477.961H488.969V467.695H490.902ZM511.785 516H509.887V477.961H511.785V516ZM508.902 466.078C508.902 465.539 509.09 465.082 509.465 464.707C509.84 464.309 510.297 464.109 510.836 464.109C511.375 464.109 511.832 464.309 512.207 464.707C512.605 465.082 512.805 465.539 512.805 466.078C512.805 466.617 512.605 467.074 512.207 467.449C511.832 467.824 511.375 468.012 510.836 468.012C510.297 468.012 509.84 467.824 509.465 467.449C509.09 467.074 508.902 466.617 508.902 466.078ZM547.715 506.684C547.715 502.066 543.777 498.926 535.902 497.262C531.168 496.254 527.875 494.965 526.023 493.395C524.172 491.801 523.246 489.621 523.246 486.855C523.246 484.066 524.418 481.77 526.762 479.965C529.129 478.16 532.199 477.258 535.973 477.258C540.074 477.258 543.367 478.242 545.852 480.211C548.336 482.156 549.578 484.793 549.578 488.121H547.645C547.645 485.566 546.566 483.434 544.41 481.723C542.254 480.012 539.441 479.156 535.973 479.156C532.645 479.156 530.008 479.883 528.062 481.336C526.117 482.789 525.145 484.605 525.145 486.785C525.145 488.496 525.508 489.844 526.234 490.828C526.961 491.789 528.145 492.668 529.785 493.465C531.426 494.238 533.816 494.988 536.957 495.715C540.098 496.441 542.582 497.297 544.41 498.281C546.238 499.266 547.562 500.438 548.383 501.797C549.203 503.133 549.613 504.773 549.613 506.719C549.613 509.719 548.383 512.133 545.922 513.961C543.461 515.789 540.238 516.703 536.254 516.703C531.988 516.703 528.543 515.742 525.918 513.82C523.316 511.875 522.016 509.379 522.016 506.332H523.914C524.102 509.004 525.273 511.09 527.43 512.59C529.609 514.066 532.551 514.805 536.254 514.805C539.652 514.805 542.406 514.02 544.516 512.449C546.648 510.855 547.715 508.934 547.715 506.684ZM573.801 516.703C570.73 516.703 567.906 515.883 565.328 514.242C562.773 512.578 560.77 510.305 559.316 507.422C557.863 504.539 557.137 501.34 557.137 497.824V496.242C557.137 492.727 557.84 489.504 559.246 486.574C560.652 483.645 562.586 481.359 565.047 479.719C567.508 478.078 570.191 477.258 573.098 477.258C577.34 477.258 580.809 478.77 583.504 481.793C586.199 484.816 587.547 488.789 587.547 493.711V495.715H559.035V497.789C559.035 500.883 559.68 503.754 560.969 506.402C562.281 509.027 564.074 511.09 566.348 512.59C568.645 514.09 571.129 514.84 573.801 514.84C576.355 514.84 578.523 514.418 580.305 513.574C582.109 512.707 583.703 511.383 585.086 509.602L586.422 510.551C583.586 514.652 579.379 516.703 573.801 516.703ZM573.098 479.156C569.395 479.156 566.254 480.539 563.676 483.305C561.098 486.047 559.586 489.551 559.141 493.816H585.648V493.359C585.648 490.781 585.098 488.391 583.996 486.188C582.918 483.961 581.418 482.238 579.496 481.02C577.598 479.777 575.465 479.156 573.098 479.156ZM623.617 516H621.719V490.441C621.695 486.621 620.852 483.785 619.188 481.934C617.547 480.059 614.922 479.121 611.312 479.121C607.141 479.121 603.73 480.961 601.082 484.641C599.512 486.844 598.469 489.281 597.953 491.953V516H596.02V477.961H597.953V486.961C599.242 483.867 601.082 481.477 603.473 479.789C605.863 478.102 608.512 477.258 611.418 477.258C614.605 477.258 617.207 477.961 619.223 479.367C621.262 480.773 622.598 483.07 623.23 486.258C624.355 483.516 626.184 481.336 628.715 479.719C631.246 478.078 634.082 477.258 637.223 477.258C641.324 477.258 644.371 478.418 646.363 480.738C648.379 483.059 649.398 486.539 649.422 491.18V516H647.523V491.32C647.523 487.148 646.68 484.066 644.992 482.074C643.328 480.059 640.703 479.074 637.117 479.121C632.5 479.191 628.844 481.031 626.148 484.641C624.602 486.727 623.758 488.742 623.617 490.688V516ZM674.629 516.703C671.559 516.703 668.734 515.883 666.156 514.242C663.602 512.578 661.598 510.305 660.145 507.422C658.691 504.539 657.965 501.34 657.965 497.824V496.242C657.965 492.727 658.668 489.504 660.074 486.574C661.48 483.645 663.414 481.359 665.875 479.719C668.336 478.078 671.02 477.258 673.926 477.258C678.168 477.258 681.637 478.77 684.332 481.793C687.027 484.816 688.375 488.789 688.375 493.711V495.715H659.863V497.789C659.863 500.883 660.508 503.754 661.797 506.402C663.109 509.027 664.902 511.09 667.176 512.59C669.473 514.09 671.957 514.84 674.629 514.84C677.184 514.84 679.352 514.418 681.133 513.574C682.938 512.707 684.531 511.383 685.914 509.602L687.25 510.551C684.414 514.652 680.207 516.703 674.629 516.703ZM673.926 479.156C670.223 479.156 667.082 480.539 664.504 483.305C661.926 486.047 660.414 489.551 659.969 493.816H686.477V493.359C686.477 490.781 685.926 488.391 684.824 486.188C683.746 483.961 682.246 482.238 680.324 481.02C678.426 479.777 676.293 479.156 673.926 479.156ZM699.133 486.82C700.375 483.867 702.203 481.535 704.617 479.824C707.031 478.113 709.703 477.258 712.633 477.258C716.711 477.258 719.734 478.418 721.703 480.738C723.695 483.035 724.703 486.516 724.727 491.18V516H722.828V491.109C722.805 487.031 721.973 484.02 720.332 482.074C718.691 480.105 716.09 479.121 712.527 479.121C709.246 479.121 706.398 480.293 703.984 482.637C701.594 484.957 699.977 487.957 699.133 491.637V516H697.234V477.961H699.133V486.82ZM740.934 467.695V477.961H749.582V479.895H740.934V506.895C740.934 509.59 741.367 511.582 742.234 512.871C743.125 514.16 744.602 514.805 746.664 514.805C747.695 514.805 748.949 514.699 750.426 514.488L750.742 516.281C749.969 516.562 748.645 516.703 746.77 516.703C744.004 516.703 742.023 515.941 740.828 514.418C739.633 512.871 739.023 510.445 739 507.141V479.895H731.969V477.961H739V467.695H740.934Z" fill="white"/>
<path d="M157.75 1536.75V1581.7C157.75 1589.17 155.406 1595.08 150.719 1599.42C146.062 1603.77 139.688 1605.94 131.594 1605.94C123.625 1605.94 117.297 1603.83 112.609 1599.61C107.922 1595.39 105.531 1589.59 105.438 1582.22V1536.75H119.5V1581.8C119.5 1586.27 120.562 1589.53 122.688 1591.59C124.844 1593.62 127.812 1594.64 131.594 1594.64C139.5 1594.64 143.516 1590.48 143.641 1582.17V1536.75H157.75ZM223.872 1587.09C223.872 1584.44 222.934 1582.41 221.059 1581C219.184 1579.56 215.809 1578.06 210.934 1576.5C206.059 1574.91 202.2 1573.34 199.356 1571.81C191.606 1567.62 187.731 1561.98 187.731 1554.89C187.731 1551.2 188.762 1547.92 190.825 1545.05C192.919 1542.14 195.903 1539.88 199.778 1538.25C203.684 1536.62 208.059 1535.81 212.903 1535.81C217.778 1535.81 222.122 1536.7 225.934 1538.48C229.747 1540.23 232.7 1542.72 234.794 1545.94C236.919 1549.16 237.981 1552.81 237.981 1556.91H223.919C223.919 1553.78 222.934 1551.36 220.966 1549.64C218.997 1547.89 216.231 1547.02 212.669 1547.02C209.231 1547.02 206.559 1547.75 204.653 1549.22C202.747 1550.66 201.794 1552.56 201.794 1554.94C201.794 1557.16 202.903 1559.02 205.122 1560.52C207.372 1562.02 210.669 1563.42 215.012 1564.73C223.012 1567.14 228.841 1570.12 232.497 1573.69C236.153 1577.25 237.981 1581.69 237.981 1587C237.981 1592.91 235.747 1597.55 231.278 1600.92C226.809 1604.27 220.794 1605.94 213.231 1605.94C207.981 1605.94 203.2 1604.98 198.887 1603.08C194.575 1601.14 191.278 1598.5 188.997 1595.16C186.747 1591.81 185.622 1587.94 185.622 1583.53H199.731C199.731 1591.06 204.231 1594.83 213.231 1594.83C216.575 1594.83 219.184 1594.16 221.059 1592.81C222.934 1591.44 223.872 1589.53 223.872 1587.09ZM281.697 1605H267.634V1536.75H281.697V1605ZM369.475 1605H355.413L328.038 1560.09V1605H313.975V1536.75H328.038L355.459 1581.75V1536.75H369.475V1605ZM454.956 1596.38C452.425 1599.41 448.847 1601.77 444.222 1603.45C439.597 1605.11 434.472 1605.94 428.847 1605.94C422.941 1605.94 417.753 1604.66 413.284 1602.09C408.847 1599.5 405.409 1595.75 402.972 1590.84C400.566 1585.94 399.331 1580.17 399.269 1573.55V1568.91C399.269 1562.09 400.409 1556.2 402.691 1551.23C405.003 1546.23 408.316 1542.42 412.628 1539.8C416.972 1537.14 422.05 1535.81 427.862 1535.81C435.956 1535.81 442.284 1537.75 446.847 1541.62C451.409 1545.47 454.112 1551.08 454.956 1558.45H441.269C440.644 1554.55 439.253 1551.69 437.097 1549.88C434.972 1548.06 432.034 1547.16 428.284 1547.16C423.503 1547.16 419.862 1548.95 417.362 1552.55C414.862 1556.14 413.597 1561.48 413.566 1568.58V1572.94C413.566 1580.09 414.925 1585.5 417.644 1589.16C420.362 1592.81 424.347 1594.64 429.597 1594.64C434.878 1594.64 438.644 1593.52 440.894 1591.27V1579.5H428.097V1569.14H454.956V1596.38ZM552.231 1567.5L566.434 1536.75H581.809L559.403 1580.25V1605H545.106V1580.25L522.7 1536.75H538.122L552.231 1567.5ZM661.9 1572.42C661.9 1579.14 660.712 1585.03 658.337 1590.09C655.962 1595.16 652.556 1599.06 648.119 1601.81C643.712 1604.56 638.65 1605.94 632.931 1605.94C627.275 1605.94 622.228 1604.58 617.791 1601.86C613.353 1599.14 609.916 1595.27 607.478 1590.23C605.041 1585.17 603.806 1579.36 603.775 1572.8V1569.42C603.775 1562.7 604.978 1556.8 607.384 1551.7C609.822 1546.58 613.244 1542.66 617.65 1539.94C622.087 1537.19 627.15 1535.81 632.837 1535.81C638.525 1535.81 643.572 1537.19 647.978 1539.94C652.416 1542.66 655.837 1546.58 658.244 1551.7C660.681 1556.8 661.9 1562.69 661.9 1569.38V1572.42ZM647.65 1569.33C647.65 1562.17 646.369 1556.73 643.806 1553.02C641.244 1549.3 637.587 1547.44 632.837 1547.44C628.119 1547.44 624.478 1549.28 621.916 1552.97C619.353 1556.62 618.056 1562 618.025 1569.09V1572.42C618.025 1579.39 619.306 1584.8 621.869 1588.64C624.431 1592.48 628.119 1594.41 632.931 1594.41C637.65 1594.41 641.275 1592.56 643.806 1588.88C646.337 1585.16 647.619 1579.75 647.65 1572.66V1569.33ZM742.975 1536.75V1581.7C742.975 1589.17 740.631 1595.08 735.944 1599.42C731.287 1603.77 724.912 1605.94 716.819 1605.94C708.85 1605.94 702.522 1603.83 697.834 1599.61C693.147 1595.39 690.756 1589.59 690.662 1582.22V1536.75H704.725V1581.8C704.725 1586.27 705.787 1589.53 707.912 1591.59C710.069 1593.62 713.037 1594.64 716.819 1594.64C724.725 1594.64 728.741 1590.48 728.866 1582.17V1536.75H742.975ZM798.972 1580.02H787.769V1605H773.706V1536.75H799.066C807.128 1536.75 813.347 1538.55 817.722 1542.14C822.097 1545.73 824.284 1550.81 824.284 1557.38C824.284 1562.03 823.269 1565.92 821.237 1569.05C819.237 1572.14 816.191 1574.61 812.097 1576.45L826.862 1604.34V1605H811.769L798.972 1580.02ZM787.769 1568.62H799.112C802.644 1568.62 805.378 1567.73 807.316 1565.95C809.253 1564.14 810.222 1561.66 810.222 1558.5C810.222 1555.28 809.3 1552.75 807.456 1550.91C805.644 1549.06 802.847 1548.14 799.066 1548.14H787.769V1568.62ZM897.325 1605V1536.75H918.325C924.325 1536.75 929.684 1538.11 934.403 1540.83C939.153 1543.52 942.856 1547.36 945.513 1552.36C948.169 1557.33 949.497 1562.98 949.497 1569.33V1572.47C949.497 1578.81 948.184 1584.45 945.559 1589.39C942.966 1594.33 939.294 1598.16 934.544 1600.88C929.794 1603.59 924.434 1604.97 918.466 1605H897.325ZM911.388 1548.14V1593.7H918.184C923.684 1593.7 927.888 1591.91 930.794 1588.31C933.7 1584.72 935.184 1579.58 935.247 1572.89V1569.28C935.247 1562.34 933.809 1557.09 930.934 1553.53C928.059 1549.94 923.856 1548.14 918.325 1548.14H911.388ZM1016.46 1590.94H991.806L987.119 1605H972.166L997.572 1536.75H1010.6L1036.15 1605H1021.2L1016.46 1590.94ZM995.603 1579.55H1012.67L1004.09 1554L995.603 1579.55ZM1107.48 1548.14H1086.57V1605H1072.51V1548.14H1051.88V1536.75H1107.48V1548.14ZM1167.64 1590.94H1142.99L1138.3 1605H1123.35L1148.75 1536.75H1161.78L1187.33 1605H1172.38L1167.64 1590.94ZM1146.78 1579.55H1163.85L1155.27 1554L1146.78 1579.55Z" fill="black"/>
</svg>
