<svg width="1307" height="1692" viewBox="0 0 1307 1692" fill="none" xmlns="http://www.w3.org/2000/svg">
<rect width="1307" height="1692" fill="#337357" fill-opacity="0.75"/>
<path d="M335.141 1611V1508.62H371C383.422 1508.62 392.844 1511.02 399.266 1515.8C405.688 1520.53 408.898 1527.49 408.898 1536.68C408.898 1541.7 407.609 1546.12 405.031 1549.97C402.453 1553.77 398.867 1556.55 394.273 1558.34C399.523 1559.65 403.648 1562.3 406.648 1566.28C409.695 1570.27 411.219 1575.14 411.219 1580.91C411.219 1590.75 408.078 1598.2 401.797 1603.27C395.516 1608.33 386.562 1610.91 374.938 1611H335.141ZM356.234 1566.42V1594.05H374.305C379.273 1594.05 383.141 1592.88 385.906 1590.54C388.719 1588.15 390.125 1584.87 390.125 1580.7C390.125 1571.32 385.273 1566.56 375.57 1566.42H356.234ZM356.234 1551.52H371.844C382.484 1551.33 387.805 1547.09 387.805 1538.79C387.805 1534.15 386.445 1530.82 383.727 1528.8C381.055 1526.74 376.812 1525.71 371 1525.71H356.234V1551.52ZM478.339 1611H457.245V1508.62H478.339V1611ZM547.85 1594.05H592.639V1611H526.756V1508.62H547.85V1594.05ZM654.697 1594.05H699.486V1611H633.603V1508.62H654.697V1594.05ZM762.88 1611H741.786V1508.62H762.88V1611ZM895.391 1562.13C895.391 1572.21 893.609 1581.05 890.047 1588.64C886.484 1596.23 881.375 1602.09 874.719 1606.22C868.109 1610.34 860.516 1612.41 851.938 1612.41C843.453 1612.41 835.883 1610.37 829.227 1606.29C822.57 1602.21 817.414 1596.4 813.758 1588.85C810.102 1581.26 808.25 1572.54 808.203 1562.7V1557.63C808.203 1547.55 810.008 1538.7 813.617 1531.05C817.273 1523.37 822.406 1517.48 829.016 1513.41C835.672 1509.28 843.266 1507.22 851.797 1507.22C860.328 1507.22 867.898 1509.28 874.508 1513.41C881.164 1517.48 886.297 1523.37 889.906 1531.05C893.562 1538.7 895.391 1547.53 895.391 1557.56V1562.13ZM874.016 1557.49C874.016 1546.76 872.094 1538.6 868.25 1533.02C864.406 1527.45 858.922 1524.66 851.797 1524.66C844.719 1524.66 839.258 1527.42 835.414 1532.95C831.57 1538.44 829.625 1546.5 829.578 1557.14V1562.13C829.578 1572.59 831.5 1580.7 835.344 1586.46C839.188 1592.23 844.719 1595.11 851.938 1595.11C859.016 1595.11 864.453 1592.34 868.25 1586.81C872.047 1581.23 873.969 1573.12 874.016 1562.48V1557.49ZM1022.77 1611H1001.68L960.613 1543.64V1611H939.519V1508.62H960.613L1001.75 1576.12V1508.62H1022.77V1611Z" fill="white"/>
<path d="M183.641 1390H143V1233.34L94.4844 1248.39V1215.34L179.281 1184.97H183.641V1390ZM349.016 1390H308.375V1233.34L259.859 1248.39V1215.34L344.656 1184.97H349.016V1390ZM419.469 1370.03C419.469 1363.56 421.625 1358.31 425.938 1354.28C430.344 1350.25 435.828 1348.23 442.391 1348.23C449.047 1348.23 454.531 1350.25 458.844 1354.28C463.25 1358.31 465.453 1363.56 465.453 1370.03C465.453 1376.41 463.297 1381.61 458.984 1385.64C454.672 1389.58 449.141 1391.55 442.391 1391.55C435.734 1391.55 430.25 1389.58 425.938 1385.64C421.625 1381.61 419.469 1376.41 419.469 1370.03ZM505.531 1289.31L517.344 1185.25H632.094V1219.14H550.672L545.609 1263.16C555.266 1258 565.531 1255.42 576.406 1255.42C595.906 1255.42 611.188 1261.47 622.25 1273.56C633.312 1285.66 638.844 1302.58 638.844 1324.33C638.844 1337.55 636.031 1349.41 630.406 1359.91C624.875 1370.31 616.906 1378.42 606.5 1384.23C596.094 1389.95 583.812 1392.81 569.656 1392.81C557.281 1392.81 545.797 1390.33 535.203 1385.36C524.609 1380.3 516.219 1373.22 510.031 1364.12C503.938 1355.03 500.703 1344.67 500.328 1333.05H540.547C541.391 1341.58 544.344 1348.23 549.406 1353.02C554.562 1357.7 561.266 1360.05 569.516 1360.05C578.703 1360.05 585.781 1356.77 590.75 1350.2C595.719 1343.55 598.203 1334.17 598.203 1322.08C598.203 1310.45 595.344 1301.55 589.625 1295.36C583.906 1289.17 575.797 1286.08 565.297 1286.08C555.641 1286.08 547.812 1288.61 541.812 1293.67L537.875 1297.33L505.531 1289.31ZM817.297 1318.7H738.125V1285.94H817.297V1318.7ZM1060.3 1390H919.953V1362.16L986.188 1291.56C995.281 1281.62 1001.98 1272.95 1006.3 1265.55C1010.7 1258.14 1012.91 1251.11 1012.91 1244.45C1012.91 1235.36 1010.61 1228.23 1006.02 1223.08C1001.42 1217.83 994.859 1215.2 986.328 1215.2C977.141 1215.2 969.875 1218.39 964.531 1224.77C959.281 1231.05 956.656 1239.34 956.656 1249.66H915.875C915.875 1237.19 918.828 1225.8 924.734 1215.48C930.734 1205.17 939.172 1197.11 950.047 1191.3C960.922 1185.39 973.25 1182.44 987.031 1182.44C1008.12 1182.44 1024.48 1187.5 1036.11 1197.62C1047.83 1207.75 1053.69 1222.05 1053.69 1240.52C1053.69 1250.64 1051.06 1260.95 1045.81 1271.45C1040.56 1281.95 1031.56 1294.19 1018.81 1308.16L972.266 1357.23H1060.3V1390ZM1126.67 1269.62H1148.33C1158.64 1269.62 1166.28 1267.05 1171.25 1261.89C1176.22 1256.73 1178.7 1249.89 1178.7 1241.36C1178.7 1233.11 1176.22 1226.69 1171.25 1222.09C1166.38 1217.5 1159.62 1215.2 1151 1215.2C1143.22 1215.2 1136.7 1217.36 1131.45 1221.67C1126.2 1225.89 1123.58 1231.42 1123.58 1238.27H1082.94C1082.94 1227.58 1085.8 1218.02 1091.52 1209.58C1097.33 1201.05 1105.39 1194.39 1115.7 1189.61C1126.11 1184.83 1137.55 1182.44 1150.02 1182.44C1171.67 1182.44 1188.64 1187.64 1200.92 1198.05C1213.2 1208.36 1219.34 1222.61 1219.34 1240.8C1219.34 1250.17 1216.48 1258.8 1210.77 1266.67C1205.05 1274.55 1197.55 1280.59 1188.27 1284.81C1199.8 1288.94 1208.38 1295.12 1214 1303.38C1219.72 1311.62 1222.58 1321.38 1222.58 1332.62C1222.58 1350.81 1215.92 1365.39 1202.61 1376.36C1189.39 1387.33 1171.86 1392.81 1150.02 1392.81C1129.58 1392.81 1112.84 1387.42 1099.81 1376.64C1086.88 1365.86 1080.41 1351.61 1080.41 1333.89H1121.05C1121.05 1341.58 1123.91 1347.86 1129.62 1352.73C1135.44 1357.61 1142.56 1360.05 1151 1360.05C1160.66 1360.05 1168.2 1357.52 1173.64 1352.45C1179.17 1347.3 1181.94 1340.5 1181.94 1332.06C1181.94 1311.62 1170.69 1301.41 1148.19 1301.41H1126.67V1269.62Z" fill="white"/>
<path d="M43.2812 1076.19L45.3438 1068.69L56.0938 1033.5H57.9688L68.6562 1068.69L70.6875 1076.19L72.8125 1068.69L82.1875 1033.5H84.0312L71.7812 1079H69.875L58.5938 1041.06L57 1036.25L55.4688 1041.06L44.0938 1079H42.1875L29.9062 1033.5H31.7812L41.2188 1068.69L43.2812 1076.19ZM95.1875 1079H93.5V1033.5H95.1875V1079ZM138.281 1035.19H121.719V1079H120.031V1035.19H103.469V1033.5H138.281V1035.19ZM178.688 1079H177V1056.44H147.938V1079H146.25V1033.5H147.938V1054.75H177V1033.5H178.688V1079ZM230.469 1065.41H208.188L203.125 1079H201.281L218.312 1033.5H220.375L237.406 1079H235.562L230.469 1065.41ZM208.812 1063.72H229.844L219.344 1035.53L208.812 1063.72ZM289.094 1035.19H272.531V1079H270.844V1035.19H254.281V1033.5H289.094V1035.19ZM329.5 1079H327.812V1056.44H298.75V1079H297.062V1033.5H298.75V1054.75H327.812V1033.5H329.5V1079ZM374.219 1059.66C374.219 1063.59 373.51 1067.08 372.094 1070.12C370.698 1073.15 368.698 1075.49 366.094 1077.16C363.49 1078.8 360.49 1079.62 357.094 1079.62C351.969 1079.62 347.823 1077.8 344.656 1074.16C341.49 1070.51 339.906 1065.59 339.906 1059.41V1052.84C339.906 1048.93 340.604 1045.45 342 1042.41C343.417 1039.36 345.427 1037.02 348.031 1035.38C350.656 1033.71 353.656 1032.88 357.031 1032.88C360.427 1032.88 363.427 1033.71 366.031 1035.38C368.656 1037.02 370.677 1039.38 372.094 1042.44C373.51 1045.48 374.219 1048.95 374.219 1052.84V1059.66ZM372.531 1052.78C372.531 1047.28 371.135 1042.88 368.344 1039.56C365.552 1036.23 361.781 1034.56 357.031 1034.56C352.344 1034.56 348.604 1036.22 345.812 1039.53C343.021 1042.82 341.625 1047.31 341.625 1053V1059.66C341.625 1063.28 342.25 1066.49 343.5 1069.28C344.771 1072.05 346.573 1074.19 348.906 1075.69C351.24 1077.19 353.969 1077.94 357.094 1077.94C361.844 1077.94 365.604 1076.28 368.375 1072.97C371.146 1069.66 372.531 1065.14 372.531 1059.41V1052.78ZM415.25 1033.5V1064.31C415.25 1069.12 413.854 1072.89 411.062 1075.59C408.271 1078.28 404.49 1079.62 399.719 1079.62C394.948 1079.62 391.167 1078.28 388.375 1075.59C385.583 1072.89 384.177 1069.17 384.156 1064.44V1033.5H385.844V1064.25C385.844 1068.46 387.104 1071.79 389.625 1074.25C392.167 1076.71 395.531 1077.94 399.719 1077.94C403.906 1077.94 407.26 1076.71 409.781 1074.25C412.302 1071.79 413.562 1068.45 413.562 1064.22V1033.5H415.25ZM454.562 1068.09C454.562 1066.16 454.104 1064.52 453.188 1063.19C452.292 1061.83 450.865 1060.65 448.906 1059.62C446.969 1058.58 444.031 1057.52 440.094 1056.44C436.156 1055.35 433.198 1054.26 431.219 1053.16C429.26 1052.05 427.823 1050.77 426.906 1049.31C425.99 1047.85 425.531 1046.08 425.531 1044C425.531 1040.69 426.927 1038.01 429.719 1035.97C432.51 1033.91 436.146 1032.88 440.625 1032.88C443.542 1032.88 446.156 1033.45 448.469 1034.59C450.802 1035.72 452.604 1037.31 453.875 1039.38C455.146 1041.42 455.781 1043.73 455.781 1046.31H454.094C454.094 1042.92 452.844 1040.11 450.344 1037.91C447.844 1035.68 444.604 1034.56 440.625 1034.56C436.625 1034.56 433.385 1035.46 430.906 1037.25C428.448 1039.02 427.219 1041.25 427.219 1043.94C427.219 1046.67 428.292 1048.86 430.438 1050.53C432.583 1052.2 436.125 1053.68 441.062 1054.97C446 1056.24 449.615 1057.72 451.906 1059.41C454.823 1061.55 456.281 1064.43 456.281 1068.03C456.281 1070.32 455.635 1072.35 454.344 1074.12C453.052 1075.88 451.219 1077.23 448.844 1078.19C446.469 1079.15 443.802 1079.62 440.844 1079.62C437.552 1079.62 434.594 1079.08 431.969 1078C429.344 1076.9 427.365 1075.33 426.031 1073.31C424.719 1071.29 424.062 1068.91 424.062 1066.16H425.75C425.75 1069.89 427.146 1072.78 429.938 1074.84C432.729 1076.91 436.365 1077.94 440.844 1077.94C444.823 1077.94 448.104 1077.03 450.688 1075.22C453.271 1073.39 454.562 1071.01 454.562 1068.09ZM489.156 1065.41H466.875L461.812 1079H459.969L477 1033.5H479.062L496.094 1079H494.25L489.156 1065.41ZM467.5 1063.72H488.531L478.031 1035.53L467.5 1063.72ZM536.219 1079H534.531L505.156 1036.38V1079H503.438V1033.5H505.156L534.531 1076.03V1033.5H536.219V1079ZM548.75 1079V1033.5H561.344C564.865 1033.5 568.052 1034.33 570.906 1036C573.76 1037.67 576 1040.01 577.625 1043.03C579.25 1046.03 580.083 1049.4 580.125 1053.12V1059.03C580.125 1062.82 579.323 1066.24 577.719 1069.28C576.135 1072.32 573.917 1074.7 571.062 1076.41C568.208 1078.11 565.021 1078.98 561.5 1079H548.75ZM550.438 1035.19V1077.31H561.344C564.531 1077.31 567.427 1076.54 570.031 1075C572.656 1073.44 574.708 1071.27 576.188 1068.5C577.667 1065.71 578.417 1062.61 578.438 1059.22V1053.38C578.438 1049.98 577.708 1046.9 576.25 1044.12C574.812 1041.35 572.792 1039.19 570.188 1037.62C567.604 1036.04 564.74 1035.23 561.594 1035.19H550.438ZM629.906 1065.41H607.625L602.562 1079H600.719L617.75 1033.5H619.812L636.844 1079H635L629.906 1065.41ZM608.25 1063.72H629.281L618.781 1035.53L608.25 1063.72ZM644.188 1079V1033.5H656.781C660.302 1033.5 663.49 1034.33 666.344 1036C669.198 1037.67 671.438 1040.01 673.062 1043.03C674.688 1046.03 675.521 1049.4 675.562 1053.12V1059.03C675.562 1062.82 674.76 1066.24 673.156 1069.28C671.573 1072.32 669.354 1074.7 666.5 1076.41C663.646 1078.11 660.458 1078.98 656.938 1079H644.188ZM645.875 1035.19V1077.31H656.781C659.969 1077.31 662.865 1076.54 665.469 1075C668.094 1073.44 670.146 1071.27 671.625 1068.5C673.104 1065.71 673.854 1062.61 673.875 1059.22V1053.38C673.875 1049.98 673.146 1046.9 671.688 1044.12C670.25 1041.35 668.229 1039.19 665.625 1037.62C663.042 1036.04 660.177 1035.23 657.031 1035.19H645.875ZM713.312 1068.09C713.312 1066.16 712.854 1064.52 711.938 1063.19C711.042 1061.83 709.615 1060.65 707.656 1059.62C705.719 1058.58 702.781 1057.52 698.844 1056.44C694.906 1055.35 691.948 1054.26 689.969 1053.16C688.01 1052.05 686.573 1050.77 685.656 1049.31C684.74 1047.85 684.281 1046.08 684.281 1044C684.281 1040.69 685.677 1038.01 688.469 1035.97C691.26 1033.91 694.896 1032.88 699.375 1032.88C702.292 1032.88 704.906 1033.45 707.219 1034.59C709.552 1035.72 711.354 1037.31 712.625 1039.38C713.896 1041.42 714.531 1043.73 714.531 1046.31H712.844C712.844 1042.92 711.594 1040.11 709.094 1037.91C706.594 1035.68 703.354 1034.56 699.375 1034.56C695.375 1034.56 692.135 1035.46 689.656 1037.25C687.198 1039.02 685.969 1041.25 685.969 1043.94C685.969 1046.67 687.042 1048.86 689.188 1050.53C691.333 1052.2 694.875 1053.68 699.812 1054.97C704.75 1056.24 708.365 1057.72 710.656 1059.41C713.573 1061.55 715.031 1064.43 715.031 1068.03C715.031 1070.32 714.385 1072.35 713.094 1074.12C711.802 1075.88 709.969 1077.23 707.594 1078.19C705.219 1079.15 702.552 1079.62 699.594 1079.62C696.302 1079.62 693.344 1079.08 690.719 1078C688.094 1076.9 686.115 1075.33 684.781 1073.31C683.469 1071.29 682.812 1068.91 682.812 1066.16H684.5C684.5 1069.89 685.896 1072.78 688.688 1074.84C691.479 1076.91 695.115 1077.94 699.594 1077.94C703.573 1077.94 706.854 1077.03 709.438 1075.22C712.021 1073.39 713.312 1071.01 713.312 1068.09ZM721.719 1086.97L720.562 1085.97C722.25 1083.8 723.167 1081.56 723.312 1079.25L723.344 1074.03H725.031V1078.59C724.948 1081.91 723.844 1084.7 721.719 1086.97ZM780.281 1035.19H763.719V1079H762.031V1035.19H745.469V1033.5H780.281V1035.19ZM820.688 1079H819V1056.44H789.938V1079H788.25V1033.5H789.938V1054.75H819V1033.5H820.688V1079ZM857.719 1065.41H835.438L830.375 1079H828.531L845.562 1033.5H847.625L864.656 1079H862.812L857.719 1065.41ZM836.062 1063.72H857.094L846.594 1035.53L836.062 1063.72ZM898.219 1035.19H881.656V1079H879.969V1035.19H863.406V1033.5H898.219V1035.19ZM923.188 1079H921.5V1033.5H923.188V1079ZM964.188 1068.09C964.188 1066.16 963.729 1064.52 962.812 1063.19C961.917 1061.83 960.49 1060.65 958.531 1059.62C956.594 1058.58 953.656 1057.52 949.719 1056.44C945.781 1055.35 942.823 1054.26 940.844 1053.16C938.885 1052.05 937.448 1050.77 936.531 1049.31C935.615 1047.85 935.156 1046.08 935.156 1044C935.156 1040.69 936.552 1038.01 939.344 1035.97C942.135 1033.91 945.771 1032.88 950.25 1032.88C953.167 1032.88 955.781 1033.45 958.094 1034.59C960.427 1035.72 962.229 1037.31 963.5 1039.38C964.771 1041.42 965.406 1043.73 965.406 1046.31H963.719C963.719 1042.92 962.469 1040.11 959.969 1037.91C957.469 1035.68 954.229 1034.56 950.25 1034.56C946.25 1034.56 943.01 1035.46 940.531 1037.25C938.073 1039.02 936.844 1041.25 936.844 1043.94C936.844 1046.67 937.917 1048.86 940.062 1050.53C942.208 1052.2 945.75 1053.68 950.688 1054.97C955.625 1056.24 959.24 1057.72 961.531 1059.41C964.448 1061.55 965.906 1064.43 965.906 1068.03C965.906 1070.32 965.26 1072.35 963.969 1074.12C962.677 1075.88 960.844 1077.23 958.469 1078.19C956.094 1079.15 953.427 1079.62 950.469 1079.62C947.177 1079.62 944.219 1079.08 941.594 1078C938.969 1076.9 936.99 1075.33 935.656 1073.31C934.344 1071.29 933.688 1068.91 933.688 1066.16H935.375C935.375 1069.89 936.771 1072.78 939.562 1074.84C942.354 1076.91 945.99 1077.94 950.469 1077.94C954.448 1077.94 957.729 1077.03 960.312 1075.22C962.896 1073.39 964.188 1071.01 964.188 1068.09ZM973.156 1077.47C973.156 1076.99 973.323 1076.58 973.656 1076.25C973.99 1075.9 974.396 1075.72 974.875 1075.72C975.354 1075.72 975.76 1075.9 976.094 1076.25C976.448 1076.58 976.625 1076.99 976.625 1077.47C976.625 1077.95 976.448 1078.35 976.094 1078.69C975.76 1079.02 975.354 1079.19 974.875 1079.19C974.396 1079.19 973.99 1079.02 973.656 1078.69C973.323 1078.35 973.156 1077.95 973.156 1077.47ZM986.906 1077.47C986.906 1076.99 987.073 1076.58 987.406 1076.25C987.74 1075.9 988.146 1075.72 988.625 1075.72C989.104 1075.72 989.51 1075.9 989.844 1076.25C990.198 1076.58 990.375 1076.99 990.375 1077.47C990.375 1077.95 990.198 1078.35 989.844 1078.69C989.51 1079.02 989.104 1079.19 988.625 1079.19C988.146 1079.19 987.74 1079.02 987.406 1078.69C987.073 1078.35 986.906 1077.95 986.906 1077.47ZM1000.66 1077.47C1000.66 1076.99 1000.82 1076.58 1001.16 1076.25C1001.49 1075.9 1001.9 1075.72 1002.38 1075.72C1002.85 1075.72 1003.26 1075.9 1003.59 1076.25C1003.95 1076.58 1004.12 1076.99 1004.12 1077.47C1004.12 1077.95 1003.95 1078.35 1003.59 1078.69C1003.26 1079.02 1002.85 1079.19 1002.38 1079.19C1001.9 1079.19 1001.49 1079.02 1001.16 1078.69C1000.82 1078.35 1000.66 1077.95 1000.66 1077.47Z" fill="black"/>
<path d="M53.0708 142.386L56.4546 130.081L74.0913 72.3516H77.1675L94.7017 130.081L98.0342 142.386L101.521 130.081L116.901 72.3516H119.926L99.8286 147H96.7012L78.1929 84.7588L75.5781 76.8633L73.0659 84.7588L54.4038 147H51.2764L31.1274 72.3516H34.2036L49.687 130.081L53.0708 142.386ZM186.628 147H183.859V109.983H136.179V147H133.41V72.3516H136.179V107.215H183.859V72.3516H186.628V147ZM247.382 124.698H210.827L202.521 147H199.497L227.438 72.3516H230.822L258.764 147H255.739L247.382 124.698ZM211.853 121.929H246.357L229.13 75.6841L211.853 121.929ZM313.828 75.1201H286.655V147H283.886V75.1201H256.713V72.3516H313.828V75.1201ZM389.296 124.698H352.741L344.436 147H341.411L369.353 72.3516H372.736L400.678 147H397.653L389.296 124.698ZM353.767 121.929H388.271L371.044 75.6841L353.767 121.929ZM412.727 147V72.3516H432.363C440.395 72.3516 446.462 73.9922 450.563 77.2734C454.699 80.5205 456.767 85.2544 456.767 91.4751C456.767 95.9868 455.622 99.7295 453.332 102.703C451.042 105.677 447.812 107.574 443.642 108.394C448.359 109.009 452.29 111.06 455.434 114.546C458.579 117.999 460.151 121.963 460.151 126.441C460.151 132.798 458.083 137.823 453.947 141.514C449.846 145.171 444.121 147 436.772 147H412.727ZM415.495 110.137V144.231H437.08C443.403 144.231 448.359 142.676 451.948 139.566C455.571 136.421 457.382 132.081 457.382 126.543C457.382 121.827 455.639 117.947 452.153 114.905C448.667 111.829 444.001 110.24 438.156 110.137H415.495ZM415.495 107.369H433.388C440.19 107.369 445.317 106.07 448.769 103.472C452.221 100.84 453.947 96.7729 453.947 91.27C453.947 80.6743 446.958 75.291 432.978 75.1201H415.495V107.369ZM528.955 115.264C528.955 121.724 527.792 127.449 525.468 132.439C523.178 137.396 519.897 141.241 515.625 143.975C511.352 146.675 506.43 148.025 500.859 148.025C492.451 148.025 485.649 145.035 480.454 139.053C475.258 133.072 472.661 125.005 472.661 114.854V104.087C472.661 97.6616 473.806 91.9536 476.096 86.9634C478.42 81.9731 481.718 78.1279 485.991 75.4277C490.297 72.6934 495.219 71.3262 500.756 71.3262C506.328 71.3262 511.25 72.6934 515.522 75.4277C519.829 78.1279 523.144 81.9902 525.468 87.0146C527.792 92.0049 528.955 97.6958 528.955 104.087V115.264ZM526.186 103.985C526.186 94.9614 523.896 87.7324 519.316 82.2979C514.736 76.8291 508.549 74.0947 500.756 74.0947C493.066 74.0947 486.931 76.812 482.351 82.2466C477.771 87.647 475.48 95.0127 475.48 104.344V115.264C475.48 121.211 476.506 126.475 478.557 131.055C480.642 135.601 483.598 139.104 487.426 141.565C491.254 144.026 495.732 145.257 500.859 145.257C508.652 145.257 514.821 142.54 519.367 137.105C523.913 131.67 526.186 124.253 526.186 114.854V103.985ZM596.271 72.3516V122.903C596.271 130.799 593.981 136.968 589.401 141.412C584.821 145.821 578.618 148.025 570.791 148.025C562.963 148.025 556.76 145.821 552.18 141.412C547.6 136.968 545.292 130.867 545.258 123.108V72.3516H548.027V122.801C548.027 129.705 550.095 135.174 554.23 139.207C558.4 143.24 563.92 145.257 570.791 145.257C577.661 145.257 583.164 143.24 587.299 139.207C591.435 135.174 593.503 129.688 593.503 122.75V72.3516H596.271ZM665.742 75.1201H638.569V147H635.8V75.1201H608.627V72.3516H665.742V75.1201ZM742.902 110.291H704.655V147H701.887V72.3516H748.132V75.1201H704.655V107.42H742.902V110.291ZM792.583 124.698H756.027L747.722 147H744.697L772.639 72.3516H776.022L803.964 147H800.939L792.583 124.698ZM757.053 121.929H791.557L774.331 75.6841L757.053 121.929ZM866.154 124.134C865.437 131.824 862.788 137.737 858.208 141.873C853.627 145.975 847.407 148.025 839.545 148.025C834.248 148.025 829.548 146.692 825.446 144.026C821.379 141.326 818.217 137.515 815.961 132.593C813.706 127.637 812.561 121.98 812.526 115.623V104.087C812.526 97.73 813.637 92.0562 815.859 87.0659C818.081 82.0415 821.242 78.1621 825.344 75.4277C829.479 72.6934 834.213 71.3262 839.545 71.3262C847.338 71.3262 853.542 73.377 858.156 77.4785C862.771 81.5801 865.437 87.459 866.154 95.1152H863.386C862.6 88.2451 860.207 83.0327 856.208 79.478C852.209 75.8892 846.655 74.0947 839.545 74.0947C832.299 74.0947 826.438 76.8291 821.96 82.2979C817.517 87.7666 815.295 95.0981 815.295 104.292V115.264C815.295 121.143 816.286 126.355 818.269 130.901C820.251 135.413 823.088 138.934 826.779 141.463C830.505 143.992 834.76 145.257 839.545 145.257C846.689 145.257 852.26 143.497 856.259 139.976C860.292 136.456 862.668 131.175 863.386 124.134H866.154ZM923.679 109.983H886.252V144.231H928.908V147H883.483V72.3516H928.908V75.1201H886.252V107.215H923.679V109.983ZM943.264 147V72.3516H962.9C970.932 72.3516 976.999 73.9922 981.101 77.2734C985.236 80.5205 987.304 85.2544 987.304 91.4751C987.304 95.9868 986.159 99.7295 983.869 102.703C981.579 105.677 978.349 107.574 974.179 108.394C978.896 109.009 982.827 111.06 985.971 114.546C989.116 117.999 990.688 121.963 990.688 126.441C990.688 132.798 988.62 137.823 984.484 141.514C980.383 145.171 974.658 147 967.309 147H943.264ZM946.032 110.137V144.231H967.617C973.94 144.231 978.896 142.676 982.485 139.566C986.108 136.421 987.919 132.081 987.919 126.543C987.919 121.827 986.176 117.947 982.69 114.905C979.204 111.829 974.538 110.24 968.693 110.137H946.032ZM946.032 107.369H963.925C970.727 107.369 975.854 106.07 979.306 103.472C982.758 100.84 984.484 96.7729 984.484 91.27C984.484 80.6743 977.495 75.291 963.515 75.1201H946.032V107.369ZM1059.49 115.264C1059.49 121.724 1058.33 127.449 1056.01 132.439C1053.72 137.396 1050.43 141.241 1046.16 143.975C1041.89 146.675 1036.97 148.025 1031.4 148.025C1022.99 148.025 1016.19 145.035 1010.99 139.053C1005.8 133.072 1003.2 125.005 1003.2 114.854V104.087C1003.2 97.6616 1004.34 91.9536 1006.63 86.9634C1008.96 81.9731 1012.26 78.1279 1016.53 75.4277C1020.83 72.6934 1025.76 71.3262 1031.29 71.3262C1036.86 71.3262 1041.79 72.6934 1046.06 75.4277C1050.37 78.1279 1053.68 81.9902 1056.01 87.0146C1058.33 92.0049 1059.49 97.6958 1059.49 104.087V115.264ZM1056.72 103.985C1056.72 94.9614 1054.43 87.7324 1049.85 82.2979C1045.27 76.8291 1039.09 74.0947 1031.29 74.0947C1023.6 74.0947 1017.47 76.812 1012.89 82.2466C1008.31 87.647 1006.02 95.0127 1006.02 104.344V115.264C1006.02 121.211 1007.04 126.475 1009.09 131.055C1011.18 135.601 1014.14 139.104 1017.96 141.565C1021.79 144.026 1026.27 145.257 1031.4 145.257C1039.19 145.257 1045.36 142.54 1049.9 137.105C1054.45 131.67 1056.72 124.253 1056.72 114.854V103.985ZM1129.42 115.264C1129.42 121.724 1128.26 127.449 1125.94 132.439C1123.65 137.396 1120.37 141.241 1116.09 143.975C1111.82 146.675 1106.9 148.025 1101.33 148.025C1092.92 148.025 1086.12 145.035 1080.92 139.053C1075.73 133.072 1073.13 125.005 1073.13 114.854V104.087C1073.13 97.6616 1074.27 91.9536 1076.56 86.9634C1078.89 81.9731 1082.19 78.1279 1086.46 75.4277C1090.77 72.6934 1095.69 71.3262 1101.23 71.3262C1106.8 71.3262 1111.72 72.6934 1115.99 75.4277C1120.3 78.1279 1123.61 81.9902 1125.94 87.0146C1128.26 92.0049 1129.42 97.6958 1129.42 104.087V115.264ZM1126.65 103.985C1126.65 94.9614 1124.36 87.7324 1119.78 82.2979C1115.2 76.8291 1109.02 74.0947 1101.23 74.0947C1093.53 74.0947 1087.4 76.812 1082.82 82.2466C1078.24 87.647 1075.95 95.0127 1075.95 104.344V115.264C1075.95 121.211 1076.97 126.475 1079.03 131.055C1081.11 135.601 1084.07 139.104 1087.9 141.565C1091.72 144.026 1096.2 145.257 1101.33 145.257C1109.12 145.257 1115.29 142.54 1119.84 137.105C1124.38 131.67 1126.65 124.253 1126.65 114.854V103.985ZM1161.21 107.728L1149.26 118.75V147H1146.5V72.3516H1149.26V115.521L1161.57 103.472L1192.54 72.3516H1196.54L1163.26 105.831L1199.1 147H1195.51L1161.21 107.728ZM1223.14 126.492C1223.21 122.664 1223.79 119.537 1224.89 117.11C1226.02 114.649 1228.12 111.983 1231.19 109.112C1234.27 106.241 1236.42 103.934 1237.65 102.19C1238.88 100.447 1239.77 98.6357 1240.32 96.7559C1240.9 94.876 1241.19 92.6201 1241.19 89.9883C1241.19 85.0322 1239.88 81.1357 1237.24 78.2988C1234.61 75.4619 1230.99 74.0435 1226.37 74.0435C1221.45 74.0435 1217.57 75.5132 1214.74 78.4526C1211.93 81.3921 1210.5 85.1689 1210.43 89.7832H1207.66C1207.73 84.2461 1209.52 79.7856 1213.04 76.4019C1216.56 73.0181 1221.01 71.3262 1226.37 71.3262C1231.74 71.3262 1236.01 73.0181 1239.19 76.4019C1242.37 79.7856 1243.96 84.3486 1243.96 90.0908C1243.96 94.0215 1243.19 97.5249 1241.65 100.601C1240.11 103.643 1237.12 107.181 1232.68 111.214C1228.17 114.734 1225.91 119.827 1225.91 126.492H1223.14ZM1221.91 144.488C1221.91 143.702 1222.19 143.035 1222.73 142.488C1223.28 141.907 1223.95 141.617 1224.73 141.617C1225.52 141.617 1226.19 141.907 1226.73 142.488C1227.31 143.035 1227.6 143.702 1227.6 144.488C1227.6 145.274 1227.31 145.94 1226.73 146.487C1226.19 147.034 1225.52 147.308 1224.73 147.308C1223.95 147.308 1223.28 147.034 1222.73 146.487C1222.19 145.94 1221.91 145.274 1221.91 144.488Z" fill="black"/>
<path d="M502 404H474.781V402.312L490.312 384.406C492.854 381.427 494.74 378.781 495.969 376.469C497.219 374.156 497.844 372.031 497.844 370.094C497.844 366.76 496.875 364.177 494.938 362.344C493 360.49 490.271 359.562 486.75 359.562C484.625 359.562 482.688 360.073 480.938 361.094C479.188 362.115 477.812 363.531 476.812 365.344C475.833 367.135 475.344 369.135 475.344 371.344H473.656C473.656 368.906 474.219 366.646 475.344 364.562C476.469 362.479 478.031 360.844 480.031 359.656C482.031 358.469 484.271 357.875 486.75 357.875C490.792 357.875 493.938 358.948 496.188 361.094C498.438 363.24 499.562 366.24 499.562 370.094C499.562 373.635 497.573 377.875 493.594 382.812L490.75 386.281L477 402.312H502V404ZM536.188 385.438C536.188 391.542 535 396.271 532.625 399.625C530.25 402.958 526.917 404.625 522.625 404.625C518.354 404.625 515.01 402.938 512.594 399.562C510.177 396.188 508.969 391.438 508.969 385.312V377.062C508.969 371.021 510.156 366.312 512.531 362.938C514.927 359.542 518.271 357.844 522.562 357.844C526.875 357.844 530.219 359.542 532.594 362.938C534.99 366.312 536.188 371.062 536.188 377.188V385.438ZM534.5 377.062C534.5 371.542 533.458 367.24 531.375 364.156C529.312 361.073 526.375 359.531 522.562 359.531C518.729 359.531 515.781 361.083 513.719 364.188C511.677 367.271 510.656 371.615 510.656 377.219V385.375C510.656 390.875 511.708 395.177 513.812 398.281C515.917 401.385 518.854 402.938 522.625 402.938C526.417 402.938 529.344 401.385 531.406 398.281C533.469 395.177 534.5 390.823 534.5 385.219V377.062ZM572.031 384.031H557.344V382.344H572.031V384.031ZM616.062 389.906H623.938V391.594H616.062V404H614.375V391.594H592.312V390.656L614.031 358.5H616.062V389.906ZM594.938 389.906H614.375V360.531L611.75 364.844L594.938 389.906ZM655.938 385.438C655.938 391.542 654.75 396.271 652.375 399.625C650 402.958 646.667 404.625 642.375 404.625C638.104 404.625 634.76 402.938 632.344 399.562C629.927 396.188 628.719 391.438 628.719 385.312V377.062C628.719 371.021 629.906 366.312 632.281 362.938C634.677 359.542 638.021 357.844 642.312 357.844C646.625 357.844 649.969 359.542 652.344 362.938C654.74 366.312 655.938 371.062 655.938 377.188V385.438ZM654.25 377.062C654.25 371.542 653.208 367.24 651.125 364.156C649.062 361.073 646.125 359.531 642.312 359.531C638.479 359.531 635.531 361.083 633.469 364.188C631.427 367.271 630.406 371.615 630.406 377.219V385.375C630.406 390.875 631.458 395.177 633.562 398.281C635.667 401.385 638.604 402.938 642.375 402.938C646.167 402.938 649.094 401.385 651.156 398.281C653.219 395.177 654.25 390.823 654.25 385.219V377.062ZM677.875 402.938C680.938 402.938 683.458 402.125 685.438 400.5C687.438 398.875 688.531 396.625 688.719 393.75H690.406C690.24 396.875 689.062 399.427 686.875 401.406C684.688 403.365 681.979 404.427 678.75 404.594V411.656H677.031V404.594C673.052 404.385 669.896 402.771 667.562 399.75C665.229 396.729 664.062 392.667 664.062 387.562V386.438C664.062 381.438 665.229 377.438 667.562 374.438C669.896 371.417 673.052 369.802 677.031 369.594V362.812H678.75V369.594C682.146 369.823 684.896 370.99 687 373.094C689.125 375.198 690.26 377.948 690.406 381.344H688.719C688.573 378.302 687.5 375.865 685.5 374.031C683.521 372.177 680.958 371.25 677.812 371.25C674.042 371.25 671.083 372.615 668.938 375.344C666.812 378.052 665.75 381.823 665.75 386.656V387.75C665.75 392.479 666.823 396.198 668.969 398.906C671.135 401.594 674.104 402.938 677.875 402.938ZM723.32 395.539H714.766V403.367H724.516V404H714.133V386.938H724.516V387.57H714.766V394.906H723.32V395.539ZM738.016 399.91C738.016 399.184 737.844 398.57 737.5 398.07C737.164 397.562 736.629 397.117 735.895 396.734C735.168 396.344 734.066 395.945 732.59 395.539C731.113 395.133 730.004 394.723 729.262 394.309C728.527 393.895 727.988 393.414 727.645 392.867C727.301 392.32 727.129 391.656 727.129 390.875C727.129 389.633 727.652 388.629 728.699 387.863C729.746 387.09 731.109 386.703 732.789 386.703C733.883 386.703 734.863 386.918 735.73 387.348C736.605 387.77 737.281 388.367 737.758 389.141C738.234 389.906 738.473 390.773 738.473 391.742H737.84C737.84 390.469 737.371 389.418 736.434 388.59C735.496 387.754 734.281 387.336 732.789 387.336C731.289 387.336 730.074 387.672 729.145 388.344C728.223 389.008 727.762 389.844 727.762 390.852C727.762 391.875 728.164 392.699 728.969 393.324C729.773 393.949 731.102 394.504 732.953 394.988C734.805 395.465 736.16 396.02 737.02 396.652C738.113 397.457 738.66 398.535 738.66 399.887C738.66 400.746 738.418 401.508 737.934 402.172C737.449 402.828 736.762 403.336 735.871 403.695C734.98 404.055 733.98 404.234 732.871 404.234C731.637 404.234 730.527 404.031 729.543 403.625C728.559 403.211 727.816 402.625 727.316 401.867C726.824 401.109 726.578 400.215 726.578 399.184H727.211C727.211 400.582 727.734 401.668 728.781 402.441C729.828 403.215 731.191 403.602 732.871 403.602C734.363 403.602 735.594 403.262 736.562 402.582C737.531 401.895 738.016 401.004 738.016 399.91ZM753.355 387.57H747.145V404H746.512V387.57H740.301V386.938H753.355V387.57ZM757.445 404H756.812V386.938H757.445V404ZM763.504 386.938L770.523 403.074L777.566 386.938H778.492V404H777.859V387.875L770.781 404H770.277L763.234 387.957V404H762.602V386.938H763.504ZM792.379 398.902H784.023L782.125 404H781.434L787.82 386.938H788.594L794.98 404H794.289L792.379 398.902ZM784.258 398.27H792.145L788.207 387.699L784.258 398.27ZM807.566 387.57H801.355V404H800.723V387.57H794.512V386.938H807.566V387.57ZM819.742 395.539H811.188V403.367H820.938V404H810.555V386.938H820.938V387.57H811.188V394.906H819.742V395.539ZM824.219 404V386.938H828.941C830.262 386.938 831.457 387.25 832.527 387.875C833.598 388.5 834.438 389.379 835.047 390.512C835.656 391.637 835.969 392.898 835.984 394.297V396.512C835.984 397.934 835.684 399.215 835.082 400.355C834.488 401.496 833.656 402.387 832.586 403.027C831.516 403.668 830.32 403.992 829 404H824.219ZM824.852 387.57V403.367H828.941C830.137 403.367 831.223 403.078 832.199 402.5C833.184 401.914 833.953 401.102 834.508 400.062C835.062 399.016 835.344 397.855 835.352 396.582V394.391C835.352 393.117 835.078 391.961 834.531 390.922C833.992 389.883 833.234 389.07 832.258 388.484C831.289 387.891 830.215 387.586 829.035 387.57H824.852Z" fill="white"/>
<path d="M59.25 529.625H35.9375V552H34.25V506.5H62.4375V508.188H35.9375V527.875H59.25V529.625ZM103.094 532.656C103.094 536.594 102.385 540.083 100.969 543.125C99.5729 546.146 97.5729 548.49 94.9688 550.156C92.3646 551.802 89.3646 552.625 85.9688 552.625C80.8438 552.625 76.6979 550.802 73.5312 547.156C70.3646 543.51 68.7812 538.594 68.7812 532.406V525.844C68.7812 521.927 69.4792 518.448 70.875 515.406C72.2917 512.365 74.3021 510.021 76.9062 508.375C79.5312 506.708 82.5312 505.875 85.9062 505.875C89.3021 505.875 92.3021 506.708 94.9062 508.375C97.5312 510.021 99.5521 512.375 100.969 515.438C102.385 518.479 103.094 521.948 103.094 525.844V532.656ZM101.406 525.781C101.406 520.281 100.01 515.875 97.2188 512.562C94.4271 509.229 90.6562 507.562 85.9062 507.562C81.2188 507.562 77.4792 509.219 74.6875 512.531C71.8958 515.823 70.5 520.312 70.5 526V532.656C70.5 536.281 71.125 539.49 72.375 542.281C73.6458 545.052 75.4479 547.188 77.7812 548.688C80.1146 550.188 82.8438 550.938 85.9688 550.938C90.7188 550.938 94.4792 549.281 97.25 545.969C100.021 542.656 101.406 538.135 101.406 532.406V525.781ZM130.812 532.531H115.031V552H113.344V506.5H127.844C132.406 506.5 136.031 507.677 138.719 510.031C141.427 512.385 142.781 515.583 142.781 519.625C142.781 522.729 141.812 525.448 139.875 527.781C137.958 530.094 135.51 531.531 132.531 532.094L144.688 551.562V552H142.906L130.812 532.531ZM115.031 530.844H129.375C132.875 530.844 135.698 529.781 137.844 527.656C140.01 525.531 141.094 522.854 141.094 519.625C141.094 516.083 139.896 513.292 137.5 511.25C135.125 509.208 131.865 508.188 127.719 508.188H115.031V530.844ZM196.438 552H169.219V550.312L184.75 532.406C187.292 529.427 189.177 526.781 190.406 524.469C191.656 522.156 192.281 520.031 192.281 518.094C192.281 514.76 191.312 512.177 189.375 510.344C187.438 508.49 184.708 507.562 181.188 507.562C179.062 507.562 177.125 508.073 175.375 509.094C173.625 510.115 172.25 511.531 171.25 513.344C170.271 515.135 169.781 517.135 169.781 519.344H168.094C168.094 516.906 168.656 514.646 169.781 512.562C170.906 510.479 172.469 508.844 174.469 507.656C176.469 506.469 178.708 505.875 181.188 505.875C185.229 505.875 188.375 506.948 190.625 509.094C192.875 511.24 194 514.24 194 518.094C194 521.635 192.01 525.875 188.031 530.812L185.188 534.281L171.438 550.312H196.438V552ZM212.531 527.938H216.344C219.906 527.875 222.781 526.927 224.969 525.094C227.177 523.26 228.281 520.927 228.281 518.094C228.281 514.865 227.292 512.302 225.312 510.406C223.354 508.51 220.625 507.562 217.125 507.562C213.708 507.562 210.896 508.562 208.688 510.562C206.479 512.562 205.375 515.188 205.375 518.438H203.688C203.688 516.021 204.271 513.854 205.438 511.938C206.604 510.021 208.219 508.531 210.281 507.469C212.344 506.406 214.625 505.875 217.125 505.875C221.062 505.875 224.188 506.99 226.5 509.219C228.812 511.427 229.969 514.427 229.969 518.219C229.969 520.635 229.198 522.792 227.656 524.688C226.135 526.583 224.073 527.927 221.469 528.719C224.448 529.406 226.771 530.698 228.438 532.594C230.125 534.49 230.969 536.938 230.969 539.938C230.969 543.812 229.729 546.896 227.25 549.188C224.771 551.479 221.49 552.625 217.406 552.625C214.656 552.625 212.115 552.031 209.781 550.844C207.448 549.656 205.688 548.083 204.5 546.125C203.312 544.167 202.719 541.906 202.719 539.344H204.406C204.406 542.677 205.635 545.448 208.094 547.656C210.552 549.844 213.656 550.938 217.406 550.938C221.135 550.938 224.042 549.979 226.125 548.062C228.229 546.125 229.281 543.458 229.281 540.062C229.281 536.708 228.156 534.146 225.906 532.375C223.677 530.604 220.406 529.708 216.094 529.688H212.531V527.938ZM265.688 533.438C265.688 539.542 264.5 544.271 262.125 547.625C259.75 550.958 256.417 552.625 252.125 552.625C247.854 552.625 244.51 550.938 242.094 547.562C239.677 544.188 238.469 539.438 238.469 533.312V525.062C238.469 519.021 239.656 514.312 242.031 510.938C244.427 507.542 247.771 505.844 252.062 505.844C256.375 505.844 259.719 507.542 262.094 510.938C264.49 514.312 265.688 519.062 265.688 525.188V533.438ZM264 525.062C264 519.542 262.958 515.24 260.875 512.156C258.812 509.073 255.875 507.531 252.062 507.531C248.229 507.531 245.281 509.083 243.219 512.188C241.177 515.271 240.156 519.615 240.156 525.219V533.375C240.156 538.875 241.208 543.177 243.312 546.281C245.417 549.385 248.354 550.938 252.125 550.938C255.917 550.938 258.844 549.385 260.906 546.281C262.969 543.177 264 538.823 264 533.219V525.062ZM293.594 506.5L312.312 549.531L331.094 506.5H333.562V552H331.875V509L313 552H311.656L292.875 509.219V552H291.188V506.5H293.594ZM349 552H347.312V506.5H349V552ZM364.469 550.312H387.812V552H362.75V506.5H364.469V550.312ZM397.531 550.312H420.875V552H395.812V506.5H397.531V550.312ZM431.812 552H430.125V506.5H431.812V552ZM477.781 532.656C477.781 536.594 477.073 540.083 475.656 543.125C474.26 546.146 472.26 548.49 469.656 550.156C467.052 551.802 464.052 552.625 460.656 552.625C455.531 552.625 451.385 550.802 448.219 547.156C445.052 543.51 443.469 538.594 443.469 532.406V525.844C443.469 521.927 444.167 518.448 445.562 515.406C446.979 512.365 448.99 510.021 451.594 508.375C454.219 506.708 457.219 505.875 460.594 505.875C463.99 505.875 466.99 506.708 469.594 508.375C472.219 510.021 474.24 512.375 475.656 515.438C477.073 518.479 477.781 521.948 477.781 525.844V532.656ZM476.094 525.781C476.094 520.281 474.698 515.875 471.906 512.562C469.115 509.229 465.344 507.562 460.594 507.562C455.906 507.562 452.167 509.219 449.375 512.531C446.583 515.823 445.188 520.312 445.188 526V532.656C445.188 536.281 445.812 539.49 447.062 542.281C448.333 545.052 450.135 547.188 452.469 548.688C454.802 550.188 457.531 550.938 460.656 550.938C465.406 550.938 469.167 549.281 471.938 545.969C474.708 542.656 476.094 538.135 476.094 532.406V525.781ZM520.969 552H519.281L489.906 509.375V552H488.188V506.5H489.906L519.281 549.031V506.5H520.969V552ZM572.781 538.406H550.5L545.438 552H543.594L560.625 506.5H562.688L579.719 552H577.875L572.781 538.406ZM551.125 536.719H572.156L561.656 508.531L551.125 536.719ZM589.469 506.5L608.188 549.531L626.969 506.5H629.438V552H627.75V509L608.875 552H607.531L588.75 509.219V552H587.062V506.5H589.469ZM666.438 529.438H643.625V550.312H669.625V552H641.938V506.5H669.625V508.188H643.625V527.75H666.438V529.438ZM695.688 532.531H679.906V552H678.219V506.5H692.719C697.281 506.5 700.906 507.677 703.594 510.031C706.302 512.385 707.656 515.583 707.656 519.625C707.656 522.729 706.688 525.448 704.75 527.781C702.833 530.094 700.385 531.531 697.406 532.094L709.562 551.562V552H707.781L695.688 532.531ZM679.906 530.844H694.25C697.75 530.844 700.573 529.781 702.719 527.656C704.885 525.531 705.969 522.854 705.969 519.625C705.969 516.083 704.771 513.292 702.375 511.25C700 509.208 696.74 508.188 692.594 508.188H679.906V530.844ZM723.188 552H721.5V506.5H723.188V552ZM767.875 538.062C767.438 542.75 765.823 546.354 763.031 548.875C760.24 551.375 756.448 552.625 751.656 552.625C748.427 552.625 745.562 551.812 743.062 550.188C740.583 548.542 738.656 546.219 737.281 543.219C735.906 540.198 735.208 536.75 735.188 532.875V525.844C735.188 521.969 735.865 518.51 737.219 515.469C738.573 512.406 740.5 510.042 743 508.375C745.521 506.708 748.406 505.875 751.656 505.875C756.406 505.875 760.188 507.125 763 509.625C765.812 512.125 767.438 515.708 767.875 520.375H766.188C765.708 516.188 764.25 513.01 761.812 510.844C759.375 508.656 755.99 507.562 751.656 507.562C747.24 507.562 743.667 509.229 740.938 512.562C738.229 515.896 736.875 520.365 736.875 525.969V532.656C736.875 536.24 737.479 539.417 738.688 542.188C739.896 544.938 741.625 547.083 743.875 548.625C746.146 550.167 748.74 550.938 751.656 550.938C756.01 550.938 759.406 549.865 761.844 547.719C764.302 545.573 765.75 542.354 766.188 538.062H767.875ZM802.406 538.406H780.125L775.062 552H773.219L790.25 506.5H792.312L809.344 552H807.5L802.406 538.406ZM780.75 536.719H801.781L791.281 508.531L780.75 536.719ZM849.469 552H847.781L818.406 509.375V552H816.688V506.5H818.406L847.781 549.031V506.5H849.469V552ZM907.938 506.5V537.312C907.938 542.125 906.542 545.885 903.75 548.594C900.958 551.281 897.177 552.625 892.406 552.625C887.635 552.625 883.854 551.281 881.062 548.594C878.271 545.885 876.865 542.167 876.844 537.438V506.5H878.531V537.25C878.531 541.458 879.792 544.792 882.312 547.25C884.854 549.708 888.219 550.938 892.406 550.938C896.594 550.938 899.948 549.708 902.469 547.25C904.99 544.792 906.25 541.448 906.25 537.219V506.5H907.938ZM947.25 541.094C947.25 539.156 946.792 537.521 945.875 536.188C944.979 534.833 943.552 533.646 941.594 532.625C939.656 531.583 936.719 530.521 932.781 529.438C928.844 528.354 925.885 527.26 923.906 526.156C921.948 525.052 920.51 523.771 919.594 522.312C918.677 520.854 918.219 519.083 918.219 517C918.219 513.688 919.615 511.01 922.406 508.969C925.198 506.906 928.833 505.875 933.312 505.875C936.229 505.875 938.844 506.448 941.156 507.594C943.49 508.719 945.292 510.312 946.562 512.375C947.833 514.417 948.469 516.729 948.469 519.312H946.781C946.781 515.917 945.531 513.115 943.031 510.906C940.531 508.677 937.292 507.562 933.312 507.562C929.312 507.562 926.073 508.458 923.594 510.25C921.135 512.021 919.906 514.25 919.906 516.938C919.906 519.667 920.979 521.865 923.125 523.531C925.271 525.198 928.812 526.677 933.75 527.969C938.688 529.24 942.302 530.719 944.594 532.406C947.51 534.552 948.969 537.427 948.969 541.031C948.969 543.323 948.323 545.354 947.031 547.125C945.74 548.875 943.906 550.229 941.531 551.188C939.156 552.146 936.49 552.625 933.531 552.625C930.24 552.625 927.281 552.083 924.656 551C922.031 549.896 920.052 548.333 918.719 546.312C917.406 544.292 916.75 541.906 916.75 539.156H918.438C918.438 542.885 919.833 545.781 922.625 547.844C925.417 549.906 929.052 550.938 933.531 550.938C937.51 550.938 940.792 550.031 943.375 548.219C945.958 546.385 947.25 544.01 947.25 541.094ZM982.375 529.438H959.562V550.312H985.562V552H957.875V506.5H985.562V508.188H959.562V527.75H982.375V529.438ZM1011.62 532.531H995.844V552H994.156V506.5H1008.66C1013.22 506.5 1016.84 507.677 1019.53 510.031C1022.24 512.385 1023.59 515.583 1023.59 519.625C1023.59 522.729 1022.62 525.448 1020.69 527.781C1018.77 530.094 1016.32 531.531 1013.34 532.094L1025.5 551.562V552H1023.72L1011.62 532.531ZM995.844 530.844H1010.19C1013.69 530.844 1016.51 529.781 1018.66 527.656C1020.82 525.531 1021.91 522.854 1021.91 519.625C1021.91 516.083 1020.71 513.292 1018.31 511.25C1015.94 509.208 1012.68 508.188 1008.53 508.188H995.844V530.844ZM1063.44 541.094C1063.44 539.156 1062.98 537.521 1062.06 536.188C1061.17 534.833 1059.74 533.646 1057.78 532.625C1055.84 531.583 1052.91 530.521 1048.97 529.438C1045.03 528.354 1042.07 527.26 1040.09 526.156C1038.14 525.052 1036.7 523.771 1035.78 522.312C1034.86 520.854 1034.41 519.083 1034.41 517C1034.41 513.688 1035.8 511.01 1038.59 508.969C1041.39 506.906 1045.02 505.875 1049.5 505.875C1052.42 505.875 1055.03 506.448 1057.34 507.594C1059.68 508.719 1061.48 510.312 1062.75 512.375C1064.02 514.417 1064.66 516.729 1064.66 519.312H1062.97C1062.97 515.917 1061.72 513.115 1059.22 510.906C1056.72 508.677 1053.48 507.562 1049.5 507.562C1045.5 507.562 1042.26 508.458 1039.78 510.25C1037.32 512.021 1036.09 514.25 1036.09 516.938C1036.09 519.667 1037.17 521.865 1039.31 523.531C1041.46 525.198 1045 526.677 1049.94 527.969C1054.88 529.24 1058.49 530.719 1060.78 532.406C1063.7 534.552 1065.16 537.427 1065.16 541.031C1065.16 543.323 1064.51 545.354 1063.22 547.125C1061.93 548.875 1060.09 550.229 1057.72 551.188C1055.34 552.146 1052.68 552.625 1049.72 552.625C1046.43 552.625 1043.47 552.083 1040.84 551C1038.22 549.896 1036.24 548.333 1034.91 546.312C1033.59 544.292 1032.94 541.906 1032.94 539.156H1034.62C1034.62 542.885 1036.02 545.781 1038.81 547.844C1041.6 549.906 1045.24 550.938 1049.72 550.938C1053.7 550.938 1056.98 550.031 1059.56 548.219C1062.15 546.385 1063.44 544.01 1063.44 541.094ZM1072.41 550.469C1072.41 549.99 1072.57 549.583 1072.91 549.25C1073.24 548.896 1073.65 548.719 1074.12 548.719C1074.6 548.719 1075.01 548.896 1075.34 549.25C1075.7 549.583 1075.88 549.99 1075.88 550.469C1075.88 550.948 1075.7 551.354 1075.34 551.688C1075.01 552.021 1074.6 552.188 1074.12 552.188C1073.65 552.188 1073.24 552.021 1072.91 551.688C1072.57 551.354 1072.41 550.948 1072.41 550.469ZM1086.16 550.469C1086.16 549.99 1086.32 549.583 1086.66 549.25C1086.99 548.896 1087.4 548.719 1087.88 548.719C1088.35 548.719 1088.76 548.896 1089.09 549.25C1089.45 549.583 1089.62 549.99 1089.62 550.469C1089.62 550.948 1089.45 551.354 1089.09 551.688C1088.76 552.021 1088.35 552.188 1087.88 552.188C1087.4 552.188 1086.99 552.021 1086.66 551.688C1086.32 551.354 1086.16 550.948 1086.16 550.469ZM1099.91 550.469C1099.91 549.99 1100.07 549.583 1100.41 549.25C1100.74 548.896 1101.15 548.719 1101.62 548.719C1102.1 548.719 1102.51 548.896 1102.84 549.25C1103.2 549.583 1103.38 549.99 1103.38 550.469C1103.38 550.948 1103.2 551.354 1102.84 551.688C1102.51 552.021 1102.1 552.188 1101.62 552.188C1101.15 552.188 1100.74 552.021 1100.41 551.688C1100.07 551.354 1099.91 550.948 1099.91 550.469Z" fill="black"/>
<path d="M257.078 856.469H268.68V872.852H257.078V895H236.758V872.852H194.781L193.867 860.055L236.547 792.625H257.078V856.469ZM214.117 856.469H236.758V820.328L235.422 822.648L214.117 856.469ZM334.773 791.57V808.305H332.805C323.617 808.445 316.211 810.836 310.586 815.477C305.008 820.117 301.656 826.562 300.531 834.812C305.969 829.281 312.836 826.516 321.133 826.516C330.039 826.516 337.117 829.703 342.367 836.078C347.617 842.453 350.242 850.844 350.242 861.25C350.242 867.906 348.789 873.93 345.883 879.32C343.023 884.711 338.945 888.906 333.648 891.906C328.398 894.906 322.445 896.406 315.789 896.406C305.008 896.406 296.289 892.656 289.633 885.156C283.023 877.656 279.719 867.648 279.719 855.133V847.82C279.719 836.711 281.805 826.914 285.977 818.43C290.195 809.898 296.219 803.312 304.047 798.672C311.922 793.984 321.039 791.617 331.398 791.57H334.773ZM314.945 842.828C311.664 842.828 308.688 843.695 306.016 845.43C303.344 847.117 301.375 849.367 300.109 852.18V858.367C300.109 865.164 301.445 870.484 304.117 874.328C306.789 878.125 310.539 880.023 315.367 880.023C319.727 880.023 323.242 878.312 325.914 874.891C328.633 871.422 329.992 866.945 329.992 861.461C329.992 855.883 328.633 851.383 325.914 847.961C323.195 844.539 319.539 842.828 314.945 842.828ZM438.555 859.352H398.969V842.969H438.555V859.352ZM537.414 854.078C532.117 859.281 525.93 861.883 518.852 861.883C509.805 861.883 502.562 858.789 497.125 852.602C491.688 846.367 488.969 837.977 488.969 827.43C488.969 820.727 490.422 814.586 493.328 809.008C496.281 803.383 500.383 799.023 505.633 795.93C510.883 792.789 516.789 791.219 523.352 791.219C530.102 791.219 536.102 792.906 541.352 796.281C546.602 799.656 550.68 804.508 553.586 810.836C556.492 817.164 557.969 824.406 558.016 832.562V840.086C558.016 857.148 553.773 870.555 545.289 880.305C536.805 890.055 524.781 895.258 509.219 895.914L504.227 895.984V879.039L508.727 878.969C526.398 878.172 535.961 869.875 537.414 854.078ZM523.844 846.344C527.125 846.344 529.938 845.5 532.281 843.812C534.672 842.125 536.477 840.086 537.695 837.695V829.328C537.695 822.438 536.383 817.094 533.758 813.297C531.133 809.5 527.617 807.602 523.211 807.602C519.133 807.602 515.781 809.477 513.156 813.227C510.531 816.93 509.219 821.594 509.219 827.219C509.219 832.797 510.484 837.391 513.016 841C515.594 844.562 519.203 846.344 523.844 846.344ZM642.742 895H572.57V881.078L605.688 845.781C610.234 840.812 613.586 836.477 615.742 832.773C617.945 829.07 619.047 825.555 619.047 822.227C619.047 817.68 617.898 814.117 615.602 811.539C613.305 808.914 610.023 807.602 605.758 807.602C601.164 807.602 597.531 809.195 594.859 812.383C592.234 815.523 590.922 819.672 590.922 824.828H570.531C570.531 818.594 572.008 812.898 574.961 807.742C577.961 802.586 582.18 798.555 587.617 795.648C593.055 792.695 599.219 791.219 606.109 791.219C616.656 791.219 624.836 793.75 630.648 798.812C636.508 803.875 639.438 811.023 639.438 820.258C639.438 825.32 638.125 830.477 635.5 835.727C632.875 840.977 628.375 847.094 622 854.078L598.727 878.617H642.742V895ZM708.625 826.75L726.156 876.25L743.594 826.75H762.062V895H747.953V876.344L749.359 844.141L730.938 895H721.281L702.906 844.188L704.312 876.344V895H690.25V826.75H708.625ZM808.497 895H794.434V826.75H808.497V895ZM854.838 883.703H884.697V895H840.775V826.75H854.838V883.703ZM926.069 883.703H955.928V895H912.006V826.75H926.069V883.703ZM998.191 895H984.128V826.75H998.191V895ZM1086.53 862.422C1086.53 869.141 1085.34 875.031 1082.97 880.094C1080.59 885.156 1077.19 889.062 1072.75 891.812C1068.34 894.562 1063.28 895.938 1057.56 895.938C1051.91 895.938 1046.86 894.578 1042.42 891.859C1037.98 889.141 1034.55 885.266 1032.11 880.234C1029.67 875.172 1028.44 869.359 1028.41 862.797V859.422C1028.41 852.703 1029.61 846.797 1032.02 841.703C1034.45 836.578 1037.88 832.656 1042.28 829.938C1046.72 827.188 1051.78 825.812 1057.47 825.812C1063.16 825.812 1068.2 827.188 1072.61 829.938C1077.05 832.656 1080.47 836.578 1082.88 841.703C1085.31 846.797 1086.53 852.688 1086.53 859.375V862.422ZM1072.28 859.328C1072.28 852.172 1071 846.734 1068.44 843.016C1065.88 839.297 1062.22 837.438 1057.47 837.438C1052.75 837.438 1049.11 839.281 1046.55 842.969C1043.98 846.625 1042.69 852 1042.66 859.094V862.422C1042.66 869.391 1043.94 874.797 1046.5 878.641C1049.06 882.484 1052.75 884.406 1057.56 884.406C1062.28 884.406 1065.91 882.562 1068.44 878.875C1070.97 875.156 1072.25 869.75 1072.28 862.656V859.328ZM1171.45 895H1157.39L1130.01 850.094V895H1115.95V826.75H1130.01L1157.43 871.75V826.75H1171.45V895Z" fill="white"/>
<path d="M380.797 644.281H355.953V710H353.422V644.281H328.578V641.75H380.797V644.281ZM439.766 680.984C439.766 686.891 438.703 692.125 436.578 696.688C434.484 701.219 431.484 704.734 427.578 707.234C423.672 709.703 419.172 710.938 414.078 710.938C406.391 710.938 400.172 708.203 395.422 702.734C390.672 697.266 388.297 689.891 388.297 680.609V670.766C388.297 664.891 389.344 659.672 391.438 655.109C393.562 650.547 396.578 647.031 400.484 644.562C404.422 642.062 408.922 640.812 413.984 640.812C419.078 640.812 423.578 642.062 427.484 644.562C431.422 647.031 434.453 650.562 436.578 655.156C438.703 659.719 439.766 664.922 439.766 670.766V680.984ZM437.234 670.672C437.234 662.422 435.141 655.812 430.953 650.844C426.766 645.844 421.109 643.344 413.984 643.344C406.953 643.344 401.344 645.828 397.156 650.797C392.969 655.734 390.875 662.469 390.875 671V680.984C390.875 686.422 391.812 691.234 393.688 695.422C395.594 699.578 398.297 702.781 401.797 705.031C405.297 707.281 409.391 708.406 414.078 708.406C421.203 708.406 426.844 705.922 431 700.953C435.156 695.984 437.234 689.203 437.234 680.609V670.672ZM499.484 644.281H474.641V710H472.109V644.281H447.266V641.75H499.484V644.281ZM543.641 689.609H510.219L502.625 710H499.859L525.406 641.75H528.5L554.047 710H551.281L543.641 689.609ZM511.156 687.078H542.703L526.953 644.797L511.156 687.078ZM567.641 707.469H602.656V710H565.062V641.75H567.641V707.469ZM651.172 705.781L654.266 694.531L670.391 641.75H673.203L689.234 694.531L692.281 705.781L695.469 694.531L709.531 641.75H712.297L693.922 710H691.062L674.141 653.094L671.75 645.875L669.453 653.094L652.391 710H649.531L631.109 641.75H633.922L648.078 694.531L651.172 705.781ZM772.953 680.984C772.953 686.891 771.891 692.125 769.766 696.688C767.672 701.219 764.672 704.734 760.766 707.234C756.859 709.703 752.359 710.938 747.266 710.938C739.578 710.938 733.359 708.203 728.609 702.734C723.859 697.266 721.484 689.891 721.484 680.609V670.766C721.484 664.891 722.531 659.672 724.625 655.109C726.75 650.547 729.766 647.031 733.672 644.562C737.609 642.062 742.109 640.812 747.172 640.812C752.266 640.812 756.766 642.062 760.672 644.562C764.609 647.031 767.641 650.562 769.766 655.156C771.891 659.719 772.953 664.922 772.953 670.766V680.984ZM770.422 670.672C770.422 662.422 768.328 655.812 764.141 650.844C759.953 645.844 754.297 643.344 747.172 643.344C740.141 643.344 734.531 645.828 730.344 650.797C726.156 655.734 724.062 662.469 724.062 671V680.984C724.062 686.422 725 691.234 726.875 695.422C728.781 699.578 731.484 702.781 734.984 705.031C738.484 707.281 742.578 708.406 747.266 708.406C754.391 708.406 760.031 705.922 764.188 700.953C768.344 695.984 770.422 689.203 770.422 680.609V670.672ZM814.531 680.797H790.859V710H788.328V641.75H810.078C816.922 641.75 822.359 643.516 826.391 647.047C830.453 650.578 832.484 655.375 832.484 661.438C832.484 666.094 831.031 670.172 828.125 673.672C825.25 677.141 821.578 679.297 817.109 680.141L835.344 709.344V710H832.672L814.531 680.797ZM790.859 678.266H812.375C817.625 678.266 821.859 676.672 825.078 673.484C828.328 670.297 829.953 666.281 829.953 661.438C829.953 656.125 828.156 651.938 824.562 648.875C821 645.812 816.109 644.281 809.891 644.281H790.859V678.266ZM893.047 644.281H868.203V710H865.672V644.281H840.828V641.75H893.047V644.281ZM953.656 710H951.125V676.156H907.531V710H905V641.75H907.531V673.625H951.125V641.75H953.656V710ZM968.656 707.703C968.656 706.984 968.906 706.375 969.406 705.875C969.906 705.344 970.516 705.078 971.234 705.078C971.953 705.078 972.562 705.344 973.062 705.875C973.594 706.375 973.859 706.984 973.859 707.703C973.859 708.422 973.594 709.031 973.062 709.531C972.562 710.031 971.953 710.281 971.234 710.281C970.516 710.281 969.906 710.031 969.406 709.531C968.906 709.031 968.656 708.422 968.656 707.703ZM968.891 662.609C968.891 661.891 969.141 661.281 969.641 660.781C970.141 660.25 970.75 659.984 971.469 659.984C972.188 659.984 972.797 660.25 973.297 660.781C973.828 661.281 974.094 661.891 974.094 662.609C974.094 663.328 973.828 663.938 973.297 664.438C972.797 664.938 972.188 665.188 971.469 665.188C970.75 665.188 970.141 664.938 969.641 664.438C969.141 663.938 968.891 663.328 968.891 662.609Z" fill="white"/>
<path d="M446.75 245.438H423.938V266.312H449.938V268H422.25V222.5H449.938V224.188H423.938V243.75H446.75V245.438ZM482.656 254.406H460.375L455.312 268H453.469L470.5 222.5H472.562L489.594 268H487.75L482.656 254.406ZM461 252.719H482.031L471.531 224.531L461 252.719ZM527.5 254.062C527.062 258.75 525.448 262.354 522.656 264.875C519.865 267.375 516.073 268.625 511.281 268.625C508.052 268.625 505.188 267.812 502.688 266.188C500.208 264.542 498.281 262.219 496.906 259.219C495.531 256.198 494.833 252.75 494.812 248.875V241.844C494.812 237.969 495.49 234.51 496.844 231.469C498.198 228.406 500.125 226.042 502.625 224.375C505.146 222.708 508.031 221.875 511.281 221.875C516.031 221.875 519.812 223.125 522.625 225.625C525.438 228.125 527.062 231.708 527.5 236.375H525.812C525.333 232.188 523.875 229.01 521.438 226.844C519 224.656 515.615 223.562 511.281 223.562C506.865 223.562 503.292 225.229 500.562 228.562C497.854 231.896 496.5 236.365 496.5 241.969V248.656C496.5 252.24 497.104 255.417 498.312 258.188C499.521 260.938 501.25 263.083 503.5 264.625C505.771 266.167 508.365 266.938 511.281 266.938C515.635 266.938 519.031 265.865 521.469 263.719C523.927 261.573 525.375 258.354 525.812 254.062H527.5ZM570.5 268H568.812V245.438H539.75V268H538.062V222.5H539.75V243.75H568.812V222.5H570.5V268ZM628.938 222.5V253.312C628.938 258.125 627.542 261.885 624.75 264.594C621.958 267.281 618.177 268.625 613.406 268.625C608.635 268.625 604.854 267.281 602.062 264.594C599.271 261.885 597.865 258.167 597.844 253.438V222.5H599.531V253.25C599.531 257.458 600.792 260.792 603.312 263.25C605.854 265.708 609.219 266.938 613.406 266.938C617.594 266.938 620.948 265.708 623.469 263.25C625.99 260.792 627.25 257.448 627.25 253.219V222.5H628.938ZM668.25 257.094C668.25 255.156 667.792 253.521 666.875 252.188C665.979 250.833 664.552 249.646 662.594 248.625C660.656 247.583 657.719 246.521 653.781 245.438C649.844 244.354 646.885 243.26 644.906 242.156C642.948 241.052 641.51 239.771 640.594 238.312C639.677 236.854 639.219 235.083 639.219 233C639.219 229.688 640.615 227.01 643.406 224.969C646.198 222.906 649.833 221.875 654.312 221.875C657.229 221.875 659.844 222.448 662.156 223.594C664.49 224.719 666.292 226.312 667.562 228.375C668.833 230.417 669.469 232.729 669.469 235.312H667.781C667.781 231.917 666.531 229.115 664.031 226.906C661.531 224.677 658.292 223.562 654.312 223.562C650.312 223.562 647.073 224.458 644.594 226.25C642.135 228.021 640.906 230.25 640.906 232.938C640.906 235.667 641.979 237.865 644.125 239.531C646.271 241.198 649.812 242.677 654.75 243.969C659.688 245.24 663.302 246.719 665.594 248.406C668.51 250.552 669.969 253.427 669.969 257.031C669.969 259.323 669.323 261.354 668.031 263.125C666.74 264.875 664.906 266.229 662.531 267.188C660.156 268.146 657.49 268.625 654.531 268.625C651.24 268.625 648.281 268.083 645.656 267C643.031 265.896 641.052 264.333 639.719 262.312C638.406 260.292 637.75 257.906 637.75 255.156H639.438C639.438 258.885 640.833 261.781 643.625 263.844C646.417 265.906 650.052 266.938 654.531 266.938C658.51 266.938 661.792 266.031 664.375 264.219C666.958 262.385 668.25 260.01 668.25 257.094ZM703.375 245.438H680.562V266.312H706.562V268H678.875V222.5H706.562V224.188H680.562V243.75H703.375V245.438ZM732.625 248.531H716.844V268H715.156V222.5H729.656C734.219 222.5 737.844 223.677 740.531 226.031C743.24 228.385 744.594 231.583 744.594 235.625C744.594 238.729 743.625 241.448 741.688 243.781C739.771 246.094 737.323 247.531 734.344 248.094L746.5 267.562V268H744.719L732.625 248.531ZM716.844 246.844H731.188C734.688 246.844 737.51 245.781 739.656 243.656C741.823 241.531 742.906 238.854 742.906 235.625C742.906 232.083 741.708 229.292 739.312 227.25C736.938 225.208 733.677 224.188 729.531 224.188H716.844V246.844ZM775.438 268H773.75V222.5H775.438V268ZM816.438 257.094C816.438 255.156 815.979 253.521 815.062 252.188C814.167 250.833 812.74 249.646 810.781 248.625C808.844 247.583 805.906 246.521 801.969 245.438C798.031 244.354 795.073 243.26 793.094 242.156C791.135 241.052 789.698 239.771 788.781 238.312C787.865 236.854 787.406 235.083 787.406 233C787.406 229.688 788.802 227.01 791.594 224.969C794.385 222.906 798.021 221.875 802.5 221.875C805.417 221.875 808.031 222.448 810.344 223.594C812.677 224.719 814.479 226.312 815.75 228.375C817.021 230.417 817.656 232.729 817.656 235.312H815.969C815.969 231.917 814.719 229.115 812.219 226.906C809.719 224.677 806.479 223.562 802.5 223.562C798.5 223.562 795.26 224.458 792.781 226.25C790.323 228.021 789.094 230.25 789.094 232.938C789.094 235.667 790.167 237.865 792.312 239.531C794.458 241.198 798 242.677 802.938 243.969C807.875 245.24 811.49 246.719 813.781 248.406C816.698 250.552 818.156 253.427 818.156 257.031C818.156 259.323 817.51 261.354 816.219 263.125C814.927 264.875 813.094 266.229 810.719 267.188C808.344 268.146 805.677 268.625 802.719 268.625C799.427 268.625 796.469 268.083 793.844 267C791.219 265.896 789.24 264.333 787.906 262.312C786.594 260.292 785.938 257.906 785.938 255.156H787.625C787.625 258.885 789.021 261.781 791.812 263.844C794.604 265.906 798.24 266.938 802.719 266.938C806.698 266.938 809.979 266.031 812.562 264.219C815.146 262.385 816.438 260.01 816.438 257.094ZM825.406 266.469C825.406 265.99 825.573 265.583 825.906 265.25C826.24 264.896 826.646 264.719 827.125 264.719C827.604 264.719 828.01 264.896 828.344 265.25C828.698 265.583 828.875 265.99 828.875 266.469C828.875 266.948 828.698 267.354 828.344 267.688C828.01 268.021 827.604 268.188 827.125 268.188C826.646 268.188 826.24 268.021 825.906 267.688C825.573 267.354 825.406 266.948 825.406 266.469ZM839.156 266.469C839.156 265.99 839.323 265.583 839.656 265.25C839.99 264.896 840.396 264.719 840.875 264.719C841.354 264.719 841.76 264.896 842.094 265.25C842.448 265.583 842.625 265.99 842.625 266.469C842.625 266.948 842.448 267.354 842.094 267.688C841.76 268.021 841.354 268.188 840.875 268.188C840.396 268.188 839.99 268.021 839.656 267.688C839.323 267.354 839.156 266.948 839.156 266.469ZM852.906 266.469C852.906 265.99 853.073 265.583 853.406 265.25C853.74 264.896 854.146 264.719 854.625 264.719C855.104 264.719 855.51 264.896 855.844 265.25C856.198 265.583 856.375 265.99 856.375 266.469C856.375 266.948 856.198 267.354 855.844 267.688C855.51 268.021 855.104 268.188 854.625 268.188C854.146 268.188 853.74 268.021 853.406 267.688C853.073 267.354 852.906 266.948 852.906 266.469Z" fill="white"/>
</svg>
