<svg width="1307" height="1692" viewBox="0 0 1307 1692" fill="none" xmlns="http://www.w3.org/2000/svg">
<rect width="1307" height="1692" fill="#B4B6EB"/>
<path d="M106.469 280.688C104.75 283.062 101.734 285.031 97.4219 286.594C93.1094 288.156 88.3594 288.938 83.1719 288.938C78.1094 288.938 73.5938 287.703 69.625 285.234C65.6562 282.766 62.5469 279.281 60.2969 274.781C58.0781 270.281 56.9375 265.188 56.875 259.5V247.781C56.875 242.188 57.9531 237.172 60.1094 232.734C62.2656 228.297 65.2969 224.875 69.2031 222.469C73.1094 220.031 77.5 218.812 82.375 218.812C89.1562 218.812 94.6719 220.547 98.9219 224.016C103.203 227.484 105.688 232.219 106.375 238.219H103.844C103 232.781 100.734 228.609 97.0469 225.703C93.3594 222.797 88.4688 221.344 82.375 221.344C75.5 221.344 69.9531 223.797 65.7344 228.703C61.5156 233.609 59.4062 240.062 59.4062 248.062V258.938C59.4062 264.281 60.3906 269.047 62.3594 273.234C64.3594 277.422 67.1562 280.672 70.75 282.984C74.375 285.266 78.5156 286.406 83.1719 286.406C87.7344 286.406 91.9688 285.734 95.875 284.391C99.7812 283.047 102.469 281.422 103.938 279.516V259.641H83.0781V257.062H106.469V280.688ZM172.609 258.984C172.609 264.891 171.547 270.125 169.422 274.688C167.328 279.219 164.328 282.734 160.422 285.234C156.516 287.703 152.016 288.938 146.922 288.938C139.234 288.938 133.016 286.203 128.266 280.734C123.516 275.266 121.141 267.891 121.141 258.609V248.766C121.141 242.891 122.188 237.672 124.281 233.109C126.406 228.547 129.422 225.031 133.328 222.562C137.266 220.062 141.766 218.812 146.828 218.812C151.922 218.812 156.422 220.062 160.328 222.562C164.266 225.031 167.297 228.562 169.422 233.156C171.547 237.719 172.609 242.922 172.609 248.766V258.984ZM170.078 248.672C170.078 240.422 167.984 233.812 163.797 228.844C159.609 223.844 153.953 221.344 146.828 221.344C139.797 221.344 134.188 223.828 130 228.797C125.812 233.734 123.719 240.469 123.719 249V258.984C123.719 264.422 124.656 269.234 126.531 273.422C128.438 277.578 131.141 280.781 134.641 283.031C138.141 285.281 142.234 286.406 146.922 286.406C154.047 286.406 159.688 283.922 163.844 278.953C168 273.984 170.078 267.203 170.078 258.609V248.672ZM236.547 258.984C236.547 264.891 235.484 270.125 233.359 274.688C231.266 279.219 228.266 282.734 224.359 285.234C220.453 287.703 215.953 288.938 210.859 288.938C203.172 288.938 196.953 286.203 192.203 280.734C187.453 275.266 185.078 267.891 185.078 258.609V248.766C185.078 242.891 186.125 237.672 188.219 233.109C190.344 228.547 193.359 225.031 197.266 222.562C201.203 220.062 205.703 218.812 210.766 218.812C215.859 218.812 220.359 220.062 224.266 222.562C228.203 225.031 231.234 228.562 233.359 233.156C235.484 237.719 236.547 242.922 236.547 248.766V258.984ZM234.016 248.672C234.016 240.422 231.922 233.812 227.734 228.844C223.547 223.844 217.891 221.344 210.766 221.344C203.734 221.344 198.125 223.828 193.938 228.797C189.75 233.734 187.656 240.469 187.656 249V258.984C187.656 264.422 188.594 269.234 190.469 273.422C192.375 277.578 195.078 280.781 198.578 283.031C202.078 285.281 206.172 286.406 210.859 286.406C217.984 286.406 223.625 283.922 227.781 278.953C231.938 273.984 234.016 267.203 234.016 258.609V248.672ZM300.25 280.688C298.531 283.062 295.516 285.031 291.203 286.594C286.891 288.156 282.141 288.938 276.953 288.938C271.891 288.938 267.375 287.703 263.406 285.234C259.438 282.766 256.328 279.281 254.078 274.781C251.859 270.281 250.719 265.188 250.656 259.5V247.781C250.656 242.188 251.734 237.172 253.891 232.734C256.047 228.297 259.078 224.875 262.984 222.469C266.891 220.031 271.281 218.812 276.156 218.812C282.938 218.812 288.453 220.547 292.703 224.016C296.984 227.484 299.469 232.219 300.156 238.219H297.625C296.781 232.781 294.516 228.609 290.828 225.703C287.141 222.797 282.25 221.344 276.156 221.344C269.281 221.344 263.734 223.797 259.516 228.703C255.297 233.609 253.188 240.062 253.188 248.062V258.938C253.188 264.281 254.172 269.047 256.141 273.234C258.141 277.422 260.938 280.672 264.531 282.984C268.156 285.266 272.297 286.406 276.953 286.406C281.516 286.406 285.75 285.734 289.656 284.391C293.562 283.047 296.25 281.422 297.719 279.516V259.641H276.859V257.062H300.25V280.688ZM320.641 285.469H355.656V288H318.062V219.75H320.641V285.469ZM404.406 254.156H370.188V285.469H409.188V288H367.656V219.75H409.188V222.281H370.188V251.625H404.406V254.156ZM493.375 280.688C491.656 283.062 488.641 285.031 484.328 286.594C480.016 288.156 475.266 288.938 470.078 288.938C465.016 288.938 460.5 287.703 456.531 285.234C452.562 282.766 449.453 279.281 447.203 274.781C444.984 270.281 443.844 265.188 443.781 259.5V247.781C443.781 242.188 444.859 237.172 447.016 232.734C449.172 228.297 452.203 224.875 456.109 222.469C460.016 220.031 464.406 218.812 469.281 218.812C476.062 218.812 481.578 220.547 485.828 224.016C490.109 227.484 492.594 232.219 493.281 238.219H490.75C489.906 232.781 487.641 228.609 483.953 225.703C480.266 222.797 475.375 221.344 469.281 221.344C462.406 221.344 456.859 223.797 452.641 228.703C448.422 233.609 446.312 240.062 446.312 248.062V258.938C446.312 264.281 447.297 269.047 449.266 273.234C451.266 277.422 454.062 280.672 457.656 282.984C461.281 285.266 465.422 286.406 470.078 286.406C474.641 286.406 478.875 285.734 482.781 284.391C486.688 283.047 489.375 281.422 490.844 279.516V259.641H469.984V257.062H493.375V280.688ZM547.938 254.156H513.719V285.469H552.719V288H511.188V219.75H552.719V222.281H513.719V251.625H547.938V254.156ZM615.016 288H612.484L568.422 224.062V288H565.844V219.75H568.422L612.484 283.547V219.75H615.016V288ZM670.562 254.156H636.344V285.469H675.344V288H633.812V219.75H675.344V222.281H636.344V251.625H670.562V254.156ZM714.438 258.797H690.766V288H688.234V219.75H709.984C716.828 219.75 722.266 221.516 726.297 225.047C730.359 228.578 732.391 233.375 732.391 239.438C732.391 244.094 730.938 248.172 728.031 251.672C725.156 255.141 721.484 257.297 717.016 258.141L735.25 287.344V288H732.578L714.438 258.797ZM690.766 256.266H712.281C717.531 256.266 721.766 254.672 724.984 251.484C728.234 248.297 729.859 244.281 729.859 239.438C729.859 234.125 728.062 229.938 724.469 226.875C720.906 223.812 716.016 222.281 709.797 222.281H690.766V256.266ZM787.234 267.609H753.812L746.219 288H743.453L769 219.75H772.094L797.641 288H794.875L787.234 267.609ZM754.75 265.078H786.297L770.547 222.797L754.75 265.078ZM847.984 222.281H823.141V288H820.609V222.281H795.766V219.75H847.984V222.281ZM896.688 254.156H862.469V285.469H901.469V288H859.938V219.75H901.469V222.281H862.469V251.625H896.688V254.156ZM914.594 288V219.75H933.484C938.766 219.75 943.547 221 947.828 223.5C952.109 226 955.469 229.516 957.906 234.047C960.344 238.547 961.594 243.594 961.656 249.188V258.047C961.656 263.734 960.453 268.859 958.047 273.422C955.672 277.984 952.344 281.547 948.062 284.109C943.781 286.672 939 287.969 933.719 288H914.594ZM917.125 222.281V285.469H933.484C938.266 285.469 942.609 284.312 946.516 282C950.453 279.656 953.531 276.406 955.75 272.25C957.969 268.062 959.094 263.422 959.125 258.328V249.562C959.125 244.469 958.031 239.844 955.844 235.688C953.688 231.531 950.656 228.281 946.75 225.938C942.875 223.562 938.578 222.344 933.859 222.281H917.125Z" fill="white"/>
<path d="M457.641 592H417V435.344L368.484 450.391V417.344L453.281 386.969H457.641V592ZM530.344 491.312L542.156 387.25H656.906V421.141H575.484L570.422 465.156C580.078 460 590.344 457.422 601.219 457.422C620.719 457.422 636 463.469 647.062 475.562C658.125 487.656 663.656 504.578 663.656 526.328C663.656 539.547 660.844 551.406 655.219 561.906C649.688 572.312 641.719 580.422 631.312 586.234C620.906 591.953 608.625 594.812 594.469 594.812C582.094 594.812 570.609 592.328 560.016 587.359C549.422 582.297 541.031 575.219 534.844 566.125C528.75 557.031 525.516 546.672 525.141 535.047H565.359C566.203 543.578 569.156 550.234 574.219 555.016C579.375 559.703 586.078 562.047 594.328 562.047C603.516 562.047 610.594 558.766 615.562 552.203C620.531 545.547 623.016 536.172 623.016 524.078C623.016 512.453 620.156 503.547 614.438 497.359C608.719 491.172 600.609 488.078 590.109 488.078C580.453 488.078 572.625 490.609 566.625 495.672L562.688 499.328L530.344 491.312ZM693.469 572.031C693.469 565.562 695.625 560.312 699.938 556.281C704.344 552.25 709.828 550.234 716.391 550.234C723.047 550.234 728.531 552.25 732.844 556.281C737.25 560.312 739.453 565.562 739.453 572.031C739.453 578.406 737.297 583.609 732.984 587.641C728.672 591.578 723.141 593.547 716.391 593.547C709.734 593.547 704.25 591.578 699.938 587.641C695.625 583.609 693.469 578.406 693.469 572.031ZM779.531 491.312L791.344 387.25H906.094V421.141H824.672L819.609 465.156C829.266 460 839.531 457.422 850.406 457.422C869.906 457.422 885.188 463.469 896.25 475.562C907.312 487.656 912.844 504.578 912.844 526.328C912.844 539.547 910.031 551.406 904.406 561.906C898.875 572.312 890.906 580.422 880.5 586.234C870.094 591.953 857.812 594.812 843.656 594.812C831.281 594.812 819.797 592.328 809.203 587.359C798.609 582.297 790.219 575.219 784.031 566.125C777.938 557.031 774.703 546.672 774.328 535.047H814.547C815.391 543.578 818.344 550.234 823.406 555.016C828.562 559.703 835.266 562.047 843.516 562.047C852.703 562.047 859.781 558.766 864.75 552.203C869.719 545.547 872.203 536.172 872.203 524.078C872.203 512.453 869.344 503.547 863.625 497.359C857.906 491.172 849.797 488.078 839.297 488.078C829.641 488.078 821.812 490.609 815.812 495.672L811.875 499.328L779.531 491.312Z" fill="white"/>
<path d="M315.141 774V671.625H351C363.422 671.625 372.844 674.016 379.266 678.797C385.688 683.531 388.898 690.492 388.898 699.68C388.898 704.695 387.609 709.125 385.031 712.969C382.453 716.766 378.867 719.555 374.273 721.336C379.523 722.648 383.648 725.297 386.648 729.281C389.695 733.266 391.219 738.141 391.219 743.906C391.219 753.75 388.078 761.203 381.797 766.266C375.516 771.328 366.562 773.906 354.938 774H315.141ZM336.234 729.422V757.055H354.305C359.273 757.055 363.141 755.883 365.906 753.539C368.719 751.148 370.125 747.867 370.125 743.695C370.125 734.32 365.273 729.562 355.57 729.422H336.234ZM336.234 714.516H351.844C362.484 714.328 367.805 710.086 367.805 701.789C367.805 697.148 366.445 693.82 363.727 691.805C361.055 689.742 356.812 688.711 351 688.711H336.234V714.516ZM458.339 774H437.245V671.625H458.339V774ZM527.85 757.055H572.639V774H506.756V671.625H527.85V757.055ZM634.697 757.055H679.486V774H613.603V671.625H634.697V757.055ZM742.88 774H721.786V671.625H742.88V774ZM875.391 725.133C875.391 735.211 873.609 744.047 870.047 751.641C866.484 759.234 861.375 765.094 854.719 769.219C848.109 773.344 840.516 775.406 831.938 775.406C823.453 775.406 815.883 773.367 809.227 769.289C802.57 765.211 797.414 759.398 793.758 751.852C790.102 744.258 788.25 735.539 788.203 725.695V720.633C788.203 710.555 790.008 701.695 793.617 694.055C797.273 686.367 802.406 680.484 809.016 676.406C815.672 672.281 823.266 670.219 831.797 670.219C840.328 670.219 847.898 672.281 854.508 676.406C861.164 680.484 866.297 686.367 869.906 694.055C873.562 701.695 875.391 710.531 875.391 720.562V725.133ZM854.016 720.492C854.016 709.758 852.094 701.602 848.25 696.023C844.406 690.445 838.922 687.656 831.797 687.656C824.719 687.656 819.258 690.422 815.414 695.953C811.57 701.438 809.625 709.5 809.578 720.141V725.133C809.578 735.586 811.5 743.695 815.344 749.461C819.188 755.227 824.719 758.109 831.938 758.109C839.016 758.109 844.453 755.344 848.25 749.812C852.047 744.234 853.969 736.125 854.016 725.484V720.492ZM1002.77 774H981.675L940.613 706.641V774H919.519V671.625H940.613L981.745 739.125V671.625H1002.77V774Z" fill="white"/>
<path d="M259.156 898.828H232.93V924H231.031V872.812H262.742V874.711H232.93V896.859H259.156V898.828ZM291.711 902.098H273.957V924H272.059V872.812H288.371C293.504 872.812 297.582 874.137 300.605 876.785C303.652 879.434 305.176 883.031 305.176 887.578C305.176 891.07 304.086 894.129 301.906 896.754C299.75 899.355 296.996 900.973 293.645 901.605L307.32 923.508V924H305.316L291.711 902.098ZM273.957 900.199H290.094C294.031 900.199 297.207 899.004 299.621 896.613C302.059 894.223 303.277 891.211 303.277 887.578C303.277 883.594 301.93 880.453 299.234 878.156C296.562 875.859 292.895 874.711 288.23 874.711H273.957V900.199ZM355.59 902.238C355.59 906.668 354.793 910.594 353.199 914.016C351.629 917.414 349.379 920.051 346.449 921.926C343.52 923.777 340.145 924.703 336.324 924.703C330.559 924.703 325.895 922.652 322.332 918.551C318.77 914.449 316.988 908.918 316.988 901.957V894.574C316.988 890.168 317.773 886.254 319.344 882.832C320.938 879.41 323.199 876.773 326.129 874.922C329.082 873.047 332.457 872.109 336.254 872.109C340.074 872.109 343.449 873.047 346.379 874.922C349.332 876.773 351.605 879.422 353.199 882.867C354.793 886.289 355.59 890.191 355.59 894.574V902.238ZM353.691 894.504C353.691 888.316 352.121 883.359 348.98 879.633C345.84 875.883 341.598 874.008 336.254 874.008C330.98 874.008 326.773 875.871 323.633 879.598C320.492 883.301 318.922 888.352 318.922 894.75V902.238C318.922 906.316 319.625 909.926 321.031 913.066C322.461 916.184 324.488 918.586 327.113 920.273C329.738 921.961 332.809 922.805 336.324 922.805C341.668 922.805 345.898 920.941 349.016 917.215C352.133 913.488 353.691 908.402 353.691 901.957V894.504ZM370.004 872.812L391.062 921.223L412.191 872.812H414.969V924H413.07V875.625L391.836 924H390.324L369.195 875.871V924H367.297V872.812H370.004ZM473.223 908.707H448.156L442.461 924H440.387L459.547 872.812H461.867L481.027 924H478.953L473.223 908.707ZM448.859 906.809H472.52L460.707 875.098L448.859 906.809ZM489.289 924V872.812H503.457C507.418 872.812 511.004 873.75 514.215 875.625C517.426 877.5 519.945 880.137 521.773 883.535C523.602 886.91 524.539 890.695 524.586 894.891V901.535C524.586 905.801 523.684 909.645 521.879 913.066C520.098 916.488 517.602 919.16 514.391 921.082C511.18 923.004 507.594 923.977 503.633 924H489.289ZM491.188 874.711V922.102H503.457C507.043 922.102 510.301 921.234 513.23 919.5C516.184 917.742 518.492 915.305 520.156 912.188C521.82 909.047 522.664 905.566 522.688 901.746V895.172C522.688 891.352 521.867 887.883 520.227 884.766C518.609 881.648 516.336 879.211 513.406 877.453C510.5 875.672 507.277 874.758 503.738 874.711H491.188ZM549.09 919.008L550.109 922.102L551.129 919.008L568.32 872.812H570.395L551.27 924H548.949L529.824 872.812H531.898L549.09 919.008ZM606.219 898.617H580.555V922.102H609.805V924H578.656V872.812H609.805V874.711H580.555V896.719H606.219V898.617ZM639.125 902.098H621.371V924H619.473V872.812H635.785C640.918 872.812 644.996 874.137 648.02 876.785C651.066 879.434 652.59 883.031 652.59 887.578C652.59 891.07 651.5 894.129 649.32 896.754C647.164 899.355 644.41 900.973 641.059 901.605L654.734 923.508V924H652.73L639.125 902.098ZM621.371 900.199H637.508C641.445 900.199 644.621 899.004 647.035 896.613C649.473 894.223 650.691 891.211 650.691 887.578C650.691 883.594 649.344 880.453 646.648 878.156C643.977 875.859 640.309 874.711 635.645 874.711H621.371V900.199ZM698.012 874.711H679.379V924H677.48V874.711H658.848V872.812H698.012V874.711ZM710.281 924H708.383V872.812H710.281V924ZM756.406 911.73C756.406 909.551 755.891 907.711 754.859 906.211C753.852 904.688 752.246 903.352 750.043 902.203C747.863 901.031 744.559 899.836 740.129 898.617C735.699 897.398 732.371 896.168 730.145 894.926C727.941 893.684 726.324 892.242 725.293 890.602C724.262 888.961 723.746 886.969 723.746 884.625C723.746 880.898 725.316 877.887 728.457 875.59C731.598 873.27 735.688 872.109 740.727 872.109C744.008 872.109 746.949 872.754 749.551 874.043C752.176 875.309 754.203 877.102 755.633 879.422C757.062 881.719 757.777 884.32 757.777 887.227H755.879C755.879 883.406 754.473 880.254 751.66 877.77C748.848 875.262 745.203 874.008 740.727 874.008C736.227 874.008 732.582 875.016 729.793 877.031C727.027 879.023 725.645 881.531 725.645 884.555C725.645 887.625 726.852 890.098 729.266 891.973C731.68 893.848 735.664 895.512 741.219 896.965C746.773 898.395 750.84 900.059 753.418 901.957C756.699 904.371 758.34 907.605 758.34 911.66C758.34 914.238 757.613 916.523 756.16 918.516C754.707 920.484 752.645 922.008 749.973 923.086C747.301 924.164 744.301 924.703 740.973 924.703C737.27 924.703 733.941 924.094 730.988 922.875C728.035 921.633 725.809 919.875 724.309 917.602C722.832 915.328 722.094 912.645 722.094 909.551H723.992C723.992 913.746 725.562 917.004 728.703 919.324C731.844 921.645 735.934 922.805 740.973 922.805C745.449 922.805 749.141 921.785 752.047 919.746C754.953 917.684 756.406 915.012 756.406 911.73ZM795.922 898.617H770.258V922.102H799.508V924H768.359V872.812H799.508V874.711H770.258V896.719H795.922V898.617ZM812.059 872.812L833.117 921.223L854.246 872.812H857.023V924H855.125V875.625L833.891 924H832.379L811.25 875.871V924H809.352V872.812H812.059ZM898.648 898.617H872.984V922.102H902.234V924H871.086V872.812H902.234V874.711H872.984V896.719H898.648V898.617ZM948.957 924H947.059L914.012 876.047V924H912.078V872.812H914.012L947.059 920.66V872.812H948.957V924ZM996.066 874.711H977.434V924H975.535V874.711H956.902V872.812H996.066V874.711ZM1035.12 911.73C1035.12 909.551 1034.61 907.711 1033.58 906.211C1032.57 904.688 1030.96 903.352 1028.76 902.203C1026.58 901.031 1023.28 899.836 1018.85 898.617C1014.42 897.398 1011.09 896.168 1008.86 894.926C1006.66 893.684 1005.04 892.242 1004.01 890.602C1002.98 888.961 1002.46 886.969 1002.46 884.625C1002.46 880.898 1004.04 877.887 1007.18 875.59C1010.32 873.27 1014.41 872.109 1019.45 872.109C1022.73 872.109 1025.67 872.754 1028.27 874.043C1030.89 875.309 1032.92 877.102 1034.35 879.422C1035.78 881.719 1036.5 884.32 1036.5 887.227H1034.6C1034.6 883.406 1033.19 880.254 1030.38 877.77C1027.57 875.262 1023.92 874.008 1019.45 874.008C1014.95 874.008 1011.3 875.016 1008.51 877.031C1005.75 879.023 1004.36 881.531 1004.36 884.555C1004.36 887.625 1005.57 890.098 1007.98 891.973C1010.4 893.848 1014.38 895.512 1019.94 896.965C1025.49 898.395 1029.56 900.059 1032.14 901.957C1035.42 904.371 1037.06 907.605 1037.06 911.66C1037.06 914.238 1036.33 916.523 1034.88 918.516C1033.43 920.484 1031.36 922.008 1028.69 923.086C1026.02 924.164 1023.02 924.703 1019.69 924.703C1015.99 924.703 1012.66 924.094 1009.71 922.875C1006.75 921.633 1004.53 919.875 1003.03 917.602C1001.55 915.328 1000.81 912.645 1000.81 909.551H1002.71C1002.71 913.746 1004.28 917.004 1007.42 919.324C1010.56 921.645 1014.65 922.805 1019.69 922.805C1024.17 922.805 1027.86 921.785 1030.77 919.746C1033.67 917.684 1035.12 915.012 1035.12 911.73Z" fill="white"/>
<path d="M63.0625 156V53.625H91.3984C99.3203 53.625 106.492 55.5 112.914 59.25C119.336 63 124.375 68.2734 128.031 75.0703C131.688 81.8203 133.562 89.3906 133.656 97.7812V111.07C133.656 119.602 131.852 127.289 128.242 134.133C124.68 140.977 119.688 146.32 113.266 150.164C106.844 154.008 99.6719 155.953 91.75 156H63.0625ZM66.8594 57.4219V152.203H91.3984C98.5703 152.203 105.086 150.469 110.945 147C116.852 143.484 121.469 138.609 124.797 132.375C128.125 126.094 129.812 119.133 129.859 111.492V98.3438C129.859 90.7031 128.219 83.7656 124.938 77.5312C121.703 71.2969 117.156 66.4219 111.297 62.9062C105.484 59.3437 99.0391 57.5156 91.9609 57.4219H66.8594ZM163.891 156H160.094V53.625H163.891V156ZM194.828 156V53.625H223.164C231.086 53.625 238.258 55.5 244.68 59.25C251.102 63 256.141 68.2734 259.797 75.0703C263.453 81.8203 265.328 89.3906 265.422 97.7812V111.07C265.422 119.602 263.617 127.289 260.008 134.133C256.445 140.977 251.453 146.32 245.031 150.164C238.609 154.008 231.438 155.953 223.516 156H194.828ZM198.625 57.4219V152.203H223.164C230.336 152.203 236.852 150.469 242.711 147C248.617 143.484 253.234 138.609 256.562 132.375C259.891 126.094 261.578 119.133 261.625 111.492V98.3438C261.625 90.7031 259.984 83.7656 256.703 77.5312C253.469 71.2969 248.922 66.4219 243.062 62.9062C237.25 59.3437 230.805 57.5156 223.727 57.4219H198.625ZM352.258 113.672L388.117 53.625H392.758L354.156 117.117V156H350.359V117.117L311.758 53.625H316.82L352.258 113.672ZM479.945 112.477C479.945 121.336 478.352 129.188 475.164 136.031C472.023 142.828 467.523 148.102 461.664 151.852C455.805 155.555 449.055 157.406 441.414 157.406C429.883 157.406 420.555 153.305 413.43 145.102C406.305 136.898 402.742 125.836 402.742 111.914V97.1484C402.742 88.3359 404.312 80.5078 407.453 73.6641C410.641 66.8203 415.164 61.5469 421.023 57.8438C426.93 54.0938 433.68 52.2188 441.273 52.2188C448.914 52.2188 455.664 54.0938 461.523 57.8438C467.43 61.5469 471.977 66.8438 475.164 73.7344C478.352 80.5781 479.945 88.3828 479.945 97.1484V112.477ZM476.148 97.0078C476.148 84.6328 473.008 74.7188 466.727 67.2656C460.445 59.7656 451.961 56.0156 441.273 56.0156C430.727 56.0156 422.312 59.7422 416.031 67.1953C409.75 74.6016 406.609 84.7031 406.609 97.5V112.477C406.609 120.633 408.016 127.852 410.828 134.133C413.688 140.367 417.742 145.172 422.992 148.547C428.242 151.922 434.383 153.609 441.414 153.609C452.102 153.609 460.562 149.883 466.797 142.43C473.031 134.977 476.148 124.805 476.148 111.914V97.0078ZM572.266 53.625V122.953C572.266 133.781 569.125 142.242 562.844 148.336C556.562 154.383 548.055 157.406 537.32 157.406C526.586 157.406 518.078 154.383 511.797 148.336C505.516 142.242 502.352 133.875 502.305 123.234V53.625H506.102V122.812C506.102 132.281 508.938 139.781 514.609 145.312C520.328 150.844 527.898 153.609 537.32 153.609C546.742 153.609 554.289 150.844 559.961 145.312C565.633 139.781 568.469 132.258 568.469 122.742V53.625H572.266ZM654.039 102.141L637.656 117.258V156H633.859V53.625H637.656V112.828L654.531 96.3047L697 53.625H702.484L656.852 99.5391L706 156H701.078L654.039 102.141ZM799.023 156H795.227L729.133 60.0938V156H725.266V53.625H729.133L795.227 149.32V53.625H799.023V156ZM899.711 112.477C899.711 121.336 898.117 129.188 894.93 136.031C891.789 142.828 887.289 148.102 881.43 151.852C875.57 155.555 868.82 157.406 861.18 157.406C849.648 157.406 840.32 153.305 833.195 145.102C826.07 136.898 822.508 125.836 822.508 111.914V97.1484C822.508 88.3359 824.078 80.5078 827.219 73.6641C830.406 66.8203 834.93 61.5469 840.789 57.8438C846.695 54.0938 853.445 52.2188 861.039 52.2188C868.68 52.2188 875.43 54.0938 881.289 57.8438C887.195 61.5469 891.742 66.8438 894.93 73.7344C898.117 80.5781 899.711 88.3828 899.711 97.1484V112.477ZM895.914 97.0078C895.914 84.6328 892.773 74.7188 886.492 67.2656C880.211 59.7656 871.727 56.0156 861.039 56.0156C850.492 56.0156 842.078 59.7422 835.797 67.1953C829.516 74.6016 826.375 84.7031 826.375 97.5V112.477C826.375 120.633 827.781 127.852 830.594 134.133C833.453 140.367 837.508 145.172 842.758 148.547C848.008 151.922 854.148 153.609 861.18 153.609C871.867 153.609 880.328 149.883 886.562 142.43C892.797 134.977 895.914 124.805 895.914 111.914V97.0078ZM943.445 149.672L948.086 132.797L972.273 53.625H976.492L1000.54 132.797L1005.11 149.672L1009.89 132.797L1030.98 53.625H1035.13L1007.57 156H1003.28L977.898 70.6406L974.312 59.8125L970.867 70.6406L945.273 156H940.984L913.352 53.625H917.57L938.805 132.797L943.445 149.672ZM1067.34 127.875C1067.43 122.625 1068.23 118.336 1069.73 115.008C1071.27 111.633 1074.16 107.977 1078.38 104.039C1082.59 100.102 1085.55 96.9375 1087.23 94.5469C1088.92 92.1562 1090.14 89.6719 1090.89 87.0938C1091.69 84.5156 1092.09 81.4219 1092.09 77.8125C1092.09 71.0156 1090.28 65.6719 1086.67 61.7812C1083.06 57.8906 1078.09 55.9453 1071.77 55.9453C1065.02 55.9453 1059.7 57.9609 1055.8 61.9922C1051.96 66.0234 1049.99 71.2031 1049.9 77.5312H1046.1C1046.2 69.9375 1048.66 63.8203 1053.48 59.1797C1058.31 54.5391 1064.41 52.2188 1071.77 52.2188C1079.12 52.2188 1084.98 54.5391 1089.34 59.1797C1093.7 63.8203 1095.88 70.0781 1095.88 77.9531C1095.88 83.3438 1094.83 88.1484 1092.72 92.3672C1090.61 96.5391 1086.51 101.391 1080.41 106.922C1074.23 111.75 1071.13 118.734 1071.13 127.875H1067.34ZM1065.65 152.555C1065.65 151.477 1066.02 150.562 1066.77 149.812C1067.52 149.016 1068.44 148.617 1069.52 148.617C1070.59 148.617 1071.51 149.016 1072.26 149.812C1073.05 150.562 1073.45 151.477 1073.45 152.555C1073.45 153.633 1073.05 154.547 1072.26 155.297C1071.51 156.047 1070.59 156.422 1069.52 156.422C1068.44 156.422 1067.52 156.047 1066.77 155.297C1066.02 154.547 1065.65 153.633 1065.65 152.555Z" fill="black"/>
<path d="M103.797 1031.28H78.9531V1097H76.4219V1031.28H51.5781V1028.75H103.797V1031.28ZM164.406 1097H161.875V1063.16H118.281V1097H115.75V1028.75H118.281V1060.62H161.875V1028.75H164.406V1097ZM219.953 1076.61H186.531L178.938 1097H176.172L201.719 1028.75H204.812L230.359 1097H227.594L219.953 1076.61ZM187.469 1074.08H219.016L203.266 1031.8L187.469 1074.08ZM280.703 1031.28H255.859V1097H253.328V1031.28H228.484V1028.75H280.703V1031.28ZM318.156 1097H315.625V1028.75H318.156V1097ZM379.656 1080.64C379.656 1077.73 378.969 1075.28 377.594 1073.28C376.25 1071.25 374.109 1069.47 371.172 1067.94C368.266 1066.38 363.859 1064.78 357.953 1063.16C352.047 1061.53 347.609 1059.89 344.641 1058.23C341.703 1056.58 339.547 1054.66 338.172 1052.47C336.797 1050.28 336.109 1047.62 336.109 1044.5C336.109 1039.53 338.203 1035.52 342.391 1032.45C346.578 1029.36 352.031 1027.81 358.75 1027.81C363.125 1027.81 367.047 1028.67 370.516 1030.39C374.016 1032.08 376.719 1034.47 378.625 1037.56C380.531 1040.62 381.484 1044.09 381.484 1047.97H378.953C378.953 1042.88 377.078 1038.67 373.328 1035.36C369.578 1032.02 364.719 1030.34 358.75 1030.34C352.75 1030.34 347.891 1031.69 344.172 1034.38C340.484 1037.03 338.641 1040.38 338.641 1044.41C338.641 1048.5 340.25 1051.8 343.469 1054.3C346.688 1056.8 352 1059.02 359.406 1060.95C366.812 1062.86 372.234 1065.08 375.672 1067.61C380.047 1070.83 382.234 1075.14 382.234 1080.55C382.234 1083.98 381.266 1087.03 379.328 1089.69C377.391 1092.31 374.641 1094.34 371.078 1095.78C367.516 1097.22 363.516 1097.94 359.078 1097.94C354.141 1097.94 349.703 1097.12 345.766 1095.5C341.828 1093.84 338.859 1091.5 336.859 1088.47C334.891 1085.44 333.906 1081.86 333.906 1077.73H336.438C336.438 1083.33 338.531 1087.67 342.719 1090.77C346.906 1093.86 352.359 1095.41 359.078 1095.41C365.047 1095.41 369.969 1094.05 373.844 1091.33C377.719 1088.58 379.656 1085.02 379.656 1080.64ZM393.109 1094.7C393.109 1093.98 393.359 1093.38 393.859 1092.88C394.359 1092.34 394.969 1092.08 395.688 1092.08C396.406 1092.08 397.016 1092.34 397.516 1092.88C398.047 1093.38 398.312 1093.98 398.312 1094.7C398.312 1095.42 398.047 1096.03 397.516 1096.53C397.016 1097.03 396.406 1097.28 395.688 1097.28C394.969 1097.28 394.359 1097.03 393.859 1096.53C393.359 1096.03 393.109 1095.42 393.109 1094.7ZM413.734 1094.7C413.734 1093.98 413.984 1093.38 414.484 1092.88C414.984 1092.34 415.594 1092.08 416.312 1092.08C417.031 1092.08 417.641 1092.34 418.141 1092.88C418.672 1093.38 418.938 1093.98 418.938 1094.7C418.938 1095.42 418.672 1096.03 418.141 1096.53C417.641 1097.03 417.031 1097.28 416.312 1097.28C415.594 1097.28 414.984 1097.03 414.484 1096.53C413.984 1096.03 413.734 1095.42 413.734 1094.7ZM434.359 1094.7C434.359 1093.98 434.609 1093.38 435.109 1092.88C435.609 1092.34 436.219 1092.08 436.938 1092.08C437.656 1092.08 438.266 1092.34 438.766 1092.88C439.297 1093.38 439.562 1093.98 439.562 1094.7C439.562 1095.42 439.297 1096.03 438.766 1096.53C438.266 1097.03 437.656 1097.28 436.938 1097.28C436.219 1097.28 435.609 1097.03 435.109 1096.53C434.609 1096.03 434.359 1095.42 434.359 1094.7Z" fill="black"/>
<path d="M458.176 1342.24C445.522 1354.67 430.741 1360.89 413.832 1360.89C392.22 1360.89 374.919 1353.5 361.93 1338.71C348.94 1323.82 342.445 1303.78 342.445 1278.58C342.445 1262.57 345.917 1247.9 352.859 1234.57C359.914 1221.14 369.712 1210.72 382.254 1203.33C394.796 1195.83 408.905 1192.08 424.582 1192.08C440.707 1192.08 455.04 1196.11 467.582 1204.17C480.124 1212.23 489.866 1223.82 496.809 1238.94C503.751 1254.06 507.279 1271.36 507.391 1290.84V1308.82C507.391 1349.58 497.257 1381.6 476.988 1404.89C456.72 1428.19 427.997 1440.62 390.82 1442.18L378.895 1442.35V1401.87L389.645 1401.7C431.861 1399.8 454.704 1379.98 458.176 1342.24ZM425.758 1323.77C433.596 1323.77 440.315 1321.75 445.914 1317.72C451.625 1313.69 455.936 1308.82 458.848 1303.11V1283.12C458.848 1266.66 455.712 1253.89 449.441 1244.82C443.171 1235.75 434.772 1231.21 424.246 1231.21C414.504 1231.21 406.497 1235.69 400.227 1244.65C393.956 1253.5 390.82 1264.64 390.82 1278.08C390.82 1291.4 393.844 1302.38 399.891 1311C406.049 1319.51 414.672 1323.77 425.758 1323.77ZM706.77 1338.88C706.77 1372.7 699.771 1398.57 685.773 1416.48C671.776 1434.4 651.284 1443.36 624.297 1443.36C597.646 1443.36 577.266 1434.57 563.156 1416.99C549.047 1399.41 541.824 1374.21 541.488 1341.4V1296.39C541.488 1262.23 548.543 1236.31 562.652 1218.62C576.874 1200.92 597.31 1192.08 623.961 1192.08C650.612 1192.08 670.992 1200.87 685.102 1218.45C699.211 1235.92 706.434 1261.06 706.77 1293.87V1338.88ZM658.227 1289.5C658.227 1269.23 655.427 1254.51 649.828 1245.32C644.341 1236.03 635.719 1231.38 623.961 1231.38C612.539 1231.38 604.085 1235.81 598.598 1244.65C593.223 1253.39 590.367 1267.1 590.031 1285.8V1345.27C590.031 1365.2 592.719 1380.04 598.094 1389.78C603.581 1399.41 612.315 1404.22 624.297 1404.22C636.167 1404.22 644.733 1399.58 649.996 1390.28C655.259 1380.99 658.003 1366.77 658.227 1347.62V1289.5ZM739.02 1242.47C739.02 1227.46 743.891 1215.31 753.633 1206.02C763.375 1196.61 776.141 1191.91 791.93 1191.91C807.943 1191.91 820.82 1196.56 830.562 1205.85C840.305 1215.03 845.176 1227.52 845.176 1243.31V1255.4C845.176 1270.52 840.305 1282.67 830.562 1291.85C820.82 1301.03 808.055 1305.62 792.266 1305.62C776.365 1305.62 763.487 1301.03 753.633 1291.85C743.891 1282.56 739.02 1270.07 739.02 1254.39V1242.47ZM771.27 1255.4C771.27 1262.12 773.173 1267.55 776.98 1271.7C780.9 1275.73 785.995 1277.74 792.266 1277.74C798.536 1277.74 803.52 1275.67 807.215 1271.53C810.91 1267.38 812.758 1261.84 812.758 1254.9V1242.47C812.758 1235.75 810.91 1230.32 807.215 1226.18C803.52 1222.03 798.424 1219.96 791.93 1219.96C785.771 1219.96 780.788 1222.03 776.98 1226.18C773.173 1230.21 771.27 1235.86 771.27 1243.14V1255.4ZM855.926 1380.04C855.926 1364.92 860.853 1352.77 870.707 1343.59C880.561 1334.29 893.327 1329.64 909.004 1329.64C924.905 1329.64 937.727 1334.24 947.469 1343.42C957.323 1352.49 962.25 1365.03 962.25 1381.04V1393.14C962.25 1408.14 957.435 1420.29 947.805 1429.59C938.174 1438.77 925.353 1443.36 909.34 1443.36C893.215 1443.36 880.281 1438.71 870.539 1429.42C860.797 1420.12 855.926 1407.81 855.926 1392.46V1380.04ZM888.176 1393.14C888.176 1399.3 890.191 1404.56 894.223 1408.93C898.254 1413.29 903.293 1415.48 909.34 1415.48C923.001 1415.48 929.832 1407.92 929.832 1392.8V1380.04C929.832 1373.32 927.928 1367.94 924.121 1363.91C920.314 1359.77 915.275 1357.7 909.004 1357.7C902.733 1357.7 897.694 1359.77 893.887 1363.91C890.079 1367.94 888.176 1373.48 888.176 1380.54V1393.14ZM801.84 1421.69L778.156 1408.93L897.582 1217.78L921.266 1230.54L801.84 1421.69Z" fill="white"/>
<path d="M137.703 1584.98C137.703 1590.89 136.641 1596.12 134.516 1600.69C132.422 1605.22 129.422 1608.73 125.516 1611.23C121.609 1613.7 117.109 1614.94 112.016 1614.94C104.328 1614.94 98.1094 1612.2 93.3594 1606.73C88.6094 1601.27 86.2344 1593.89 86.2344 1584.61V1574.77C86.2344 1568.89 87.2812 1563.67 89.375 1559.11C91.5 1554.55 94.5156 1551.03 98.4219 1548.56C102.359 1546.06 106.859 1544.81 111.922 1544.81C117.016 1544.81 121.516 1546.06 125.422 1548.56C129.359 1551.03 132.391 1554.56 134.516 1559.16C136.641 1563.72 137.703 1568.92 137.703 1574.77V1584.98ZM135.172 1574.67C135.172 1566.42 133.078 1559.81 128.891 1554.84C124.703 1549.84 119.047 1547.34 111.922 1547.34C104.891 1547.34 99.2812 1549.83 95.0938 1554.8C90.9062 1559.73 88.8125 1566.47 88.8125 1575V1584.98C88.8125 1590.42 89.75 1595.23 91.625 1599.42C93.5312 1603.58 96.2344 1606.78 99.7344 1609.03C103.234 1611.28 107.328 1612.41 112.016 1612.41C119.141 1612.41 124.781 1609.92 128.938 1604.95C133.094 1599.98 135.172 1593.2 135.172 1584.61V1574.67ZM190.812 1580.44H155.844V1614H153.312V1545.75H195.594V1548.28H155.844V1577.81H190.812V1580.44ZM274.766 1548.28H249.922V1614H247.391V1548.28H222.547V1545.75H274.766V1548.28ZM335.375 1614H332.844V1580.16H289.25V1614H286.719V1545.75H289.25V1577.62H332.844V1545.75H335.375V1614ZM390.875 1580.16H356.656V1611.47H395.656V1614H354.125V1545.75H395.656V1548.28H356.656V1577.62H390.875V1580.16ZM413.188 1614H410.656V1545.75H413.188V1614ZM459.781 1584.8H436.109V1614H433.578V1545.75H455.328C462.172 1545.75 467.609 1547.52 471.641 1551.05C475.703 1554.58 477.734 1559.38 477.734 1565.44C477.734 1570.09 476.281 1574.17 473.375 1577.67C470.5 1581.14 466.828 1583.3 462.359 1584.14L480.594 1613.34V1614H477.922L459.781 1584.8ZM436.109 1582.27H457.625C462.875 1582.27 467.109 1580.67 470.328 1577.48C473.578 1574.3 475.203 1570.28 475.203 1565.44C475.203 1560.12 473.406 1555.94 469.812 1552.88C466.25 1549.81 461.359 1548.28 455.141 1548.28H436.109V1582.27ZM563.141 1548.28H538.297V1614H535.766V1548.28H510.922V1545.75H563.141V1548.28ZM622.109 1584.98C622.109 1590.89 621.047 1596.12 618.922 1600.69C616.828 1605.22 613.828 1608.73 609.922 1611.23C606.016 1613.7 601.516 1614.94 596.422 1614.94C588.734 1614.94 582.516 1612.2 577.766 1606.73C573.016 1601.27 570.641 1593.89 570.641 1584.61V1574.77C570.641 1568.89 571.688 1563.67 573.781 1559.11C575.906 1554.55 578.922 1551.03 582.828 1548.56C586.766 1546.06 591.266 1544.81 596.328 1544.81C601.422 1544.81 605.922 1546.06 609.828 1548.56C613.766 1551.03 616.797 1554.56 618.922 1559.16C621.047 1563.72 622.109 1568.92 622.109 1574.77V1584.98ZM619.578 1574.67C619.578 1566.42 617.484 1559.81 613.297 1554.84C609.109 1549.84 603.453 1547.34 596.328 1547.34C589.297 1547.34 583.688 1549.83 579.5 1554.8C575.312 1559.73 573.219 1566.47 573.219 1575V1584.98C573.219 1590.42 574.156 1595.23 576.031 1599.42C577.938 1603.58 580.641 1606.78 584.141 1609.03C587.641 1611.28 591.734 1612.41 596.422 1612.41C603.547 1612.41 609.188 1609.92 613.344 1604.95C617.5 1599.98 619.578 1593.2 619.578 1584.61V1574.67ZM681.828 1548.28H656.984V1614H654.453V1548.28H629.609V1545.75H681.828V1548.28ZM725.984 1593.61H692.562L684.969 1614H682.203L707.75 1545.75H710.844L736.391 1614H733.625L725.984 1593.61ZM693.5 1591.08H725.047L709.297 1548.8L693.5 1591.08ZM749.984 1611.47H785V1614H747.406V1545.75H749.984V1611.47ZM845.938 1584.8H822.266V1614H819.734V1545.75H841.484C848.328 1545.75 853.766 1547.52 857.797 1551.05C861.859 1554.58 863.891 1559.38 863.891 1565.44C863.891 1570.09 862.438 1574.17 859.531 1577.67C856.656 1581.14 852.984 1583.3 848.516 1584.14L866.75 1613.34V1614H864.078L845.938 1584.8ZM822.266 1582.27H843.781C849.031 1582.27 853.266 1580.67 856.484 1577.48C859.734 1574.3 861.359 1570.28 861.359 1565.44C861.359 1560.12 859.562 1555.94 855.969 1552.88C852.406 1549.81 847.516 1548.28 841.297 1548.28H822.266V1582.27ZM919.531 1580.16H885.312V1611.47H924.312V1614H882.781V1545.75H924.312V1548.28H885.312V1577.62H919.531V1580.16ZM955.391 1607.34L956.75 1611.47L958.109 1607.34L981.031 1545.75H983.797L958.297 1614H955.203L929.703 1545.75H932.469L955.391 1607.34ZM1031.56 1580.16H997.344V1611.47H1036.34V1614H994.812V1545.75H1036.34V1548.28H997.344V1577.62H1031.56V1580.16ZM1098.64 1614H1096.11L1052.05 1550.06V1614H1049.47V1545.75H1052.05L1096.11 1609.55V1545.75H1098.64V1614ZM1163.38 1545.75V1591.97C1163.38 1599.19 1161.28 1604.83 1157.09 1608.89C1152.91 1612.92 1147.23 1614.94 1140.08 1614.94C1132.92 1614.94 1127.25 1612.92 1123.06 1608.89C1118.88 1604.83 1116.77 1599.25 1116.73 1592.16V1545.75H1119.27V1591.88C1119.27 1598.19 1121.16 1603.19 1124.94 1606.88C1128.75 1610.56 1133.8 1612.41 1140.08 1612.41C1146.36 1612.41 1151.39 1610.56 1155.17 1606.88C1158.95 1603.19 1160.84 1598.17 1160.84 1591.83V1545.75H1163.38ZM1218.22 1580.16H1184V1611.47H1223V1614H1181.47V1545.75H1223V1548.28H1184V1577.62H1218.22V1580.16Z" fill="white"/>
</svg>
