<svg width="1307" height="1692" viewBox="0 0 1307 1692" fill="none" xmlns="http://www.w3.org/2000/svg">
<rect width="1307" height="1692" rx="15" fill="#B4B6EB" fill-opacity="0.5"/>
<path d="M140.836 172.859C138.688 175.828 134.918 178.289 129.527 180.242C124.137 182.195 118.199 183.172 111.715 183.172C105.387 183.172 99.7422 181.629 94.7812 178.543C89.8203 175.457 85.9336 171.102 83.1211 165.477C80.3477 159.852 78.9219 153.484 78.8438 146.375V131.727C78.8438 124.734 80.1914 118.465 82.8867 112.918C85.582 107.371 89.3711 103.094 94.2539 100.086C99.1367 97.0391 104.625 95.5156 110.719 95.5156C119.195 95.5156 126.09 97.6836 131.402 102.02C136.754 106.355 139.859 112.273 140.719 119.773H137.555C136.5 112.977 133.668 107.762 129.059 104.129C124.449 100.496 118.336 98.6797 110.719 98.6797C102.125 98.6797 95.1914 101.746 89.918 107.879C84.6445 114.012 82.0078 122.078 82.0078 132.078V145.672C82.0078 152.352 83.2383 158.309 85.6992 163.543C88.1992 168.777 91.6953 172.84 96.1875 175.73C100.719 178.582 105.895 180.008 111.715 180.008C117.418 180.008 122.711 179.168 127.594 177.488C132.477 175.809 135.836 173.777 137.672 171.395V146.551H111.598V143.328H140.836V172.859ZM223.512 145.73C223.512 153.113 222.184 159.656 219.527 165.359C216.91 171.023 213.16 175.418 208.277 178.543C203.395 181.629 197.77 183.172 191.402 183.172C181.793 183.172 174.02 179.754 168.082 172.918C162.145 166.082 159.176 156.863 159.176 145.262V132.957C159.176 125.613 160.484 119.09 163.102 113.387C165.758 107.684 169.527 103.289 174.41 100.203C179.332 97.0781 184.957 95.5156 191.285 95.5156C197.652 95.5156 203.277 97.0781 208.16 100.203C213.082 103.289 216.871 107.703 219.527 113.445C222.184 119.148 223.512 125.652 223.512 132.957V145.73ZM220.348 132.84C220.348 122.527 217.73 114.266 212.496 108.055C207.262 101.805 200.191 98.6797 191.285 98.6797C182.496 98.6797 175.484 101.785 170.25 107.996C165.016 114.168 162.398 122.586 162.398 133.25V145.73C162.398 152.527 163.57 158.543 165.914 163.777C168.297 168.973 171.676 172.977 176.051 175.789C180.426 178.602 185.543 180.008 191.402 180.008C200.309 180.008 207.359 176.902 212.555 170.691C217.75 164.48 220.348 156.004 220.348 145.262V132.84ZM303.434 145.73C303.434 153.113 302.105 159.656 299.449 165.359C296.832 171.023 293.082 175.418 288.199 178.543C283.316 181.629 277.691 183.172 271.324 183.172C261.715 183.172 253.941 179.754 248.004 172.918C242.066 166.082 239.098 156.863 239.098 145.262V132.957C239.098 125.613 240.406 119.09 243.023 113.387C245.68 107.684 249.449 103.289 254.332 100.203C259.254 97.0781 264.879 95.5156 271.207 95.5156C277.574 95.5156 283.199 97.0781 288.082 100.203C293.004 103.289 296.793 107.703 299.449 113.445C302.105 119.148 303.434 125.652 303.434 132.957V145.73ZM300.27 132.84C300.27 122.527 297.652 114.266 292.418 108.055C287.184 101.805 280.113 98.6797 271.207 98.6797C262.418 98.6797 255.406 101.785 250.172 107.996C244.938 114.168 242.32 122.586 242.32 133.25V145.73C242.32 152.527 243.492 158.543 245.836 163.777C248.219 168.973 251.598 172.977 255.973 175.789C260.348 178.602 265.465 180.008 271.324 180.008C280.23 180.008 287.281 176.902 292.477 170.691C297.672 164.48 300.27 156.004 300.27 145.262V132.84ZM383.062 172.859C380.914 175.828 377.145 178.289 371.754 180.242C366.363 182.195 360.426 183.172 353.941 183.172C347.613 183.172 341.969 181.629 337.008 178.543C332.047 175.457 328.16 171.102 325.348 165.477C322.574 159.852 321.148 153.484 321.07 146.375V131.727C321.07 124.734 322.418 118.465 325.113 112.918C327.809 107.371 331.598 103.094 336.48 100.086C341.363 97.0391 346.852 95.5156 352.945 95.5156C361.422 95.5156 368.316 97.6836 373.629 102.02C378.98 106.355 382.086 112.273 382.945 119.773H379.781C378.727 112.977 375.895 107.762 371.285 104.129C366.676 100.496 360.562 98.6797 352.945 98.6797C344.352 98.6797 337.418 101.746 332.145 107.879C326.871 114.012 324.234 122.078 324.234 132.078V145.672C324.234 152.352 325.465 158.309 327.926 163.543C330.426 168.777 333.922 172.84 338.414 175.73C342.945 178.582 348.121 180.008 353.941 180.008C359.645 180.008 364.938 179.168 369.82 177.488C374.703 175.809 378.062 173.777 379.898 171.395V146.551H353.824V143.328H383.062V172.859ZM408.551 178.836H452.32V182H405.328V96.6875H408.551V178.836ZM513.258 139.695H470.484V178.836H519.234V182H467.32V96.6875H519.234V99.8516H470.484V136.531H513.258V139.695ZM624.469 172.859C622.32 175.828 618.551 178.289 613.16 180.242C607.77 182.195 601.832 183.172 595.348 183.172C589.02 183.172 583.375 181.629 578.414 178.543C573.453 175.457 569.566 171.102 566.754 165.477C563.98 159.852 562.555 153.484 562.477 146.375V131.727C562.477 124.734 563.824 118.465 566.52 112.918C569.215 107.371 573.004 103.094 577.887 100.086C582.77 97.0391 588.258 95.5156 594.352 95.5156C602.828 95.5156 609.723 97.6836 615.035 102.02C620.387 106.355 623.492 112.273 624.352 119.773H621.188C620.133 112.977 617.301 107.762 612.691 104.129C608.082 100.496 601.969 98.6797 594.352 98.6797C585.758 98.6797 578.824 101.746 573.551 107.879C568.277 114.012 565.641 122.078 565.641 132.078V145.672C565.641 152.352 566.871 158.309 569.332 163.543C571.832 168.777 575.328 172.84 579.82 175.73C584.352 178.582 589.527 180.008 595.348 180.008C601.051 180.008 606.344 179.168 611.227 177.488C616.109 175.809 619.469 173.777 621.305 171.395V146.551H595.23V143.328H624.469V172.859ZM692.672 139.695H649.898V178.836H698.648V182H646.734V96.6875H698.648V99.8516H649.898V136.531H692.672V139.695ZM776.52 182H773.355L718.277 102.078V182H715.055V96.6875H718.277L773.355 176.434V96.6875H776.52V182ZM845.953 139.695H803.18V178.836H851.93V182H800.016V96.6875H851.93V99.8516H803.18V136.531H845.953V139.695ZM900.797 145.496H871.207V182H868.043V96.6875H895.23C903.785 96.6875 910.582 98.8945 915.621 103.309C920.699 107.723 923.238 113.719 923.238 121.297C923.238 127.117 921.422 132.215 917.789 136.59C914.195 140.926 909.605 143.621 904.02 144.676L926.812 181.18V182H923.473L900.797 145.496ZM871.207 142.332H898.102C904.664 142.332 909.957 140.34 913.98 136.355C918.043 132.371 920.074 127.352 920.074 121.297C920.074 114.656 917.828 109.422 913.336 105.594C908.883 101.766 902.77 99.8516 894.996 99.8516H871.207V142.332ZM991.793 156.512H950.016L940.523 182H937.066L969 96.6875H972.867L1004.8 182H1001.34L991.793 156.512ZM951.188 153.348H990.621L970.934 100.496L951.188 153.348ZM1067.73 99.8516H1036.68V182H1033.51V99.8516H1002.46V96.6875H1067.73V99.8516ZM1128.61 139.695H1085.84V178.836H1134.59V182H1082.67V96.6875H1134.59V99.8516H1085.84V136.531H1128.61V139.695ZM1150.99 182V96.6875H1174.61C1181.21 96.6875 1187.18 98.25 1192.54 101.375C1197.89 104.5 1202.09 108.895 1205.13 114.559C1208.18 120.184 1209.74 126.492 1209.82 133.484V144.559C1209.82 151.668 1208.32 158.074 1205.31 163.777C1202.34 169.48 1198.18 173.934 1192.83 177.137C1187.48 180.34 1181.5 181.961 1174.9 182H1150.99ZM1154.16 99.8516V178.836H1174.61C1180.58 178.836 1186.01 177.391 1190.89 174.5C1195.82 171.57 1199.66 167.508 1202.44 162.312C1205.21 157.078 1206.62 151.277 1206.66 144.91V133.953C1206.66 127.586 1205.29 121.805 1202.55 116.609C1199.86 111.414 1196.07 107.352 1191.19 104.422C1186.34 101.453 1180.97 99.9297 1175.07 99.8516H1154.16Z" fill="white"/>
<path d="M472.641 526H432V369.344L383.484 384.391V351.344L468.281 320.969H472.641V526ZM545.344 425.312L557.156 321.25H671.906V355.141H590.484L585.422 399.156C595.078 394 605.344 391.422 616.219 391.422C635.719 391.422 651 397.469 662.062 409.562C673.125 421.656 678.656 438.578 678.656 460.328C678.656 473.547 675.844 485.406 670.219 495.906C664.688 506.312 656.719 514.422 646.312 520.234C635.906 525.953 623.625 528.812 609.469 528.812C597.094 528.812 585.609 526.328 575.016 521.359C564.422 516.297 556.031 509.219 549.844 500.125C543.75 491.031 540.516 480.672 540.141 469.047H580.359C581.203 477.578 584.156 484.234 589.219 489.016C594.375 493.703 601.078 496.047 609.328 496.047C618.516 496.047 625.594 492.766 630.562 486.203C635.531 479.547 638.016 470.172 638.016 458.078C638.016 446.453 635.156 437.547 629.438 431.359C623.719 425.172 615.609 422.078 605.109 422.078C595.453 422.078 587.625 424.609 581.625 429.672L577.688 433.328L545.344 425.312ZM708.469 506.031C708.469 499.562 710.625 494.312 714.938 490.281C719.344 486.25 724.828 484.234 731.391 484.234C738.047 484.234 743.531 486.25 747.844 490.281C752.25 494.312 754.453 499.562 754.453 506.031C754.453 512.406 752.297 517.609 747.984 521.641C743.672 525.578 738.141 527.547 731.391 527.547C724.734 527.547 719.25 525.578 714.938 521.641C710.625 517.609 708.469 512.406 708.469 506.031ZM794.531 425.312L806.344 321.25H921.094V355.141H839.672L834.609 399.156C844.266 394 854.531 391.422 865.406 391.422C884.906 391.422 900.188 397.469 911.25 409.562C922.312 421.656 927.844 438.578 927.844 460.328C927.844 473.547 925.031 485.406 919.406 495.906C913.875 506.312 905.906 514.422 895.5 520.234C885.094 525.953 872.812 528.812 858.656 528.812C846.281 528.812 834.797 526.328 824.203 521.359C813.609 516.297 805.219 509.219 799.031 500.125C792.938 491.031 789.703 480.672 789.328 469.047H829.547C830.391 477.578 833.344 484.234 838.406 489.016C843.562 493.703 850.266 496.047 858.516 496.047C867.703 496.047 874.781 492.766 879.75 486.203C884.719 479.547 887.203 470.172 887.203 458.078C887.203 446.453 884.344 437.547 878.625 431.359C872.906 425.172 864.797 422.078 854.297 422.078C844.641 422.078 836.812 424.609 830.812 429.672L826.875 433.328L794.531 425.312Z" fill="white"/>
<path d="M330.141 758V655.625H366C378.422 655.625 387.844 658.016 394.266 662.797C400.688 667.531 403.898 674.492 403.898 683.68C403.898 688.695 402.609 693.125 400.031 696.969C397.453 700.766 393.867 703.555 389.273 705.336C394.523 706.648 398.648 709.297 401.648 713.281C404.695 717.266 406.219 722.141 406.219 727.906C406.219 737.75 403.078 745.203 396.797 750.266C390.516 755.328 381.562 757.906 369.938 758H330.141ZM351.234 713.422V741.055H369.305C374.273 741.055 378.141 739.883 380.906 737.539C383.719 735.148 385.125 731.867 385.125 727.695C385.125 718.32 380.273 713.562 370.57 713.422H351.234ZM351.234 698.516H366.844C377.484 698.328 382.805 694.086 382.805 685.789C382.805 681.148 381.445 677.82 378.727 675.805C376.055 673.742 371.812 672.711 366 672.711H351.234V698.516ZM473.339 758H452.245V655.625H473.339V758ZM542.85 741.055H587.639V758H521.756V655.625H542.85V741.055ZM649.697 741.055H694.486V758H628.603V655.625H649.697V741.055ZM757.88 758H736.786V655.625H757.88V758ZM890.391 709.133C890.391 719.211 888.609 728.047 885.047 735.641C881.484 743.234 876.375 749.094 869.719 753.219C863.109 757.344 855.516 759.406 846.938 759.406C838.453 759.406 830.883 757.367 824.227 753.289C817.57 749.211 812.414 743.398 808.758 735.852C805.102 728.258 803.25 719.539 803.203 709.695V704.633C803.203 694.555 805.008 685.695 808.617 678.055C812.273 670.367 817.406 664.484 824.016 660.406C830.672 656.281 838.266 654.219 846.797 654.219C855.328 654.219 862.898 656.281 869.508 660.406C876.164 664.484 881.297 670.367 884.906 678.055C888.562 685.695 890.391 694.531 890.391 704.562V709.133ZM869.016 704.492C869.016 693.758 867.094 685.602 863.25 680.023C859.406 674.445 853.922 671.656 846.797 671.656C839.719 671.656 834.258 674.422 830.414 679.953C826.57 685.438 824.625 693.5 824.578 704.141V709.133C824.578 719.586 826.5 727.695 830.344 733.461C834.188 739.227 839.719 742.109 846.938 742.109C854.016 742.109 859.453 739.344 863.25 733.812C867.047 728.234 868.969 720.125 869.016 709.484V704.492ZM1017.77 758H996.675L955.613 690.641V758H934.519V655.625H955.613L996.745 723.125V655.625H1017.77V758Z" fill="white"/>
<path d="M179.367 915.082H159.117V936H148.57V884.812H181.898V893.355H159.117V906.574H179.367V915.082ZM206.965 917.262H198.562V936H188.016V884.812H207.035C213.082 884.812 217.746 886.16 221.027 888.855C224.309 891.551 225.949 895.359 225.949 900.281C225.949 903.773 225.188 906.691 223.664 909.035C222.164 911.355 219.879 913.207 216.809 914.59L227.883 935.508V936H216.562L206.965 917.262ZM198.562 908.719H207.07C209.719 908.719 211.77 908.051 213.223 906.715C214.676 905.355 215.402 903.492 215.402 901.125C215.402 898.711 214.711 896.812 213.328 895.43C211.969 894.047 209.871 893.355 207.035 893.355H198.562V908.719ZM276.047 911.566C276.047 916.605 275.156 921.023 273.375 924.82C271.594 928.617 269.039 931.547 265.711 933.609C262.406 935.672 258.609 936.703 254.32 936.703C250.078 936.703 246.293 935.684 242.965 933.645C239.637 931.605 237.059 928.699 235.23 924.926C233.402 921.129 232.477 916.77 232.453 911.848V909.316C232.453 904.277 233.355 899.848 235.16 896.027C236.988 892.184 239.555 889.242 242.859 887.203C246.188 885.141 249.984 884.109 254.25 884.109C258.516 884.109 262.301 885.141 265.605 887.203C268.934 889.242 271.5 892.184 273.305 896.027C275.133 899.848 276.047 904.266 276.047 909.281V911.566ZM265.359 909.246C265.359 903.879 264.398 899.801 262.477 897.012C260.555 894.223 257.812 892.828 254.25 892.828C250.711 892.828 247.98 894.211 246.059 896.977C244.137 899.719 243.164 903.75 243.141 909.07V911.566C243.141 916.793 244.102 920.848 246.023 923.73C247.945 926.613 250.711 928.055 254.32 928.055C257.859 928.055 260.578 926.672 262.477 923.906C264.375 921.117 265.336 917.062 265.359 911.742V909.246ZM297.492 884.812L310.641 921.938L323.719 884.812H337.57V936H326.988V922.008L328.043 897.855L314.227 936H306.984L293.203 897.891L294.258 922.008V936H283.711V884.812H297.492ZM403.453 884.812V918.527C403.453 924.129 401.695 928.559 398.18 931.816C394.688 935.074 389.906 936.703 383.836 936.703C377.859 936.703 373.113 935.121 369.598 931.957C366.082 928.793 364.289 924.445 364.219 918.914V884.812H374.766V918.598C374.766 921.949 375.562 924.398 377.156 925.945C378.773 927.469 381 928.23 383.836 928.23C389.766 928.23 392.777 925.113 392.871 918.879V884.812H403.453ZM438.645 922.57C438.645 920.578 437.941 919.055 436.535 918C435.129 916.922 432.598 915.797 428.941 914.625C425.285 913.43 422.391 912.258 420.258 911.109C414.445 907.969 411.539 903.738 411.539 898.418C411.539 895.652 412.312 893.191 413.859 891.035C415.43 888.855 417.668 887.156 420.574 885.938C423.504 884.719 426.785 884.109 430.418 884.109C434.074 884.109 437.332 884.777 440.191 886.113C443.051 887.426 445.266 889.289 446.836 891.703C448.43 894.117 449.227 896.859 449.227 899.93H438.68C438.68 897.586 437.941 895.77 436.465 894.48C434.988 893.168 432.914 892.512 430.242 892.512C427.664 892.512 425.66 893.062 424.23 894.164C422.801 895.242 422.086 896.672 422.086 898.453C422.086 900.117 422.918 901.512 424.582 902.637C426.27 903.762 428.742 904.816 432 905.801C438 907.605 442.371 909.844 445.113 912.516C447.855 915.188 449.227 918.516 449.227 922.5C449.227 926.93 447.551 930.41 444.199 932.941C440.848 935.449 436.336 936.703 430.664 936.703C426.727 936.703 423.141 935.988 419.906 934.559C416.672 933.105 414.199 931.125 412.488 928.617C410.801 926.109 409.957 923.203 409.957 919.898H420.539C420.539 925.547 423.914 928.371 430.664 928.371C433.172 928.371 435.129 927.867 436.535 926.859C437.941 925.828 438.645 924.398 438.645 922.57ZM487.195 913.816H466.945V927.527H490.711V936H456.398V884.812H490.641V893.355H466.945V905.555H487.195V913.816ZM515.848 917.262H507.445V936H496.898V884.812H515.918C521.965 884.812 526.629 886.16 529.91 888.855C533.191 891.551 534.832 895.359 534.832 900.281C534.832 903.773 534.07 906.691 532.547 909.035C531.047 911.355 528.762 913.207 525.691 914.59L536.766 935.508V936H525.445L515.848 917.262ZM507.445 908.719H515.953C518.602 908.719 520.652 908.051 522.105 906.715C523.559 905.355 524.285 903.492 524.285 901.125C524.285 898.711 523.594 896.812 522.211 895.43C520.852 894.047 518.754 893.355 515.918 893.355H507.445V908.719ZM589.711 925.453H571.219L567.703 936H556.488L575.543 884.812H585.316L604.477 936H593.262L589.711 925.453ZM574.066 916.91H586.863L580.43 897.75L574.066 916.91ZM609.258 936V884.812H625.008C629.508 884.812 633.527 885.832 637.066 887.871C640.629 889.887 643.406 892.77 645.398 896.52C647.391 900.246 648.387 904.488 648.387 909.246V911.602C648.387 916.359 647.402 920.59 645.434 924.293C643.488 927.996 640.734 930.867 637.172 932.906C633.609 934.945 629.59 935.977 625.113 936H609.258ZM619.805 893.355V927.527H624.902C629.027 927.527 632.18 926.18 634.359 923.484C636.539 920.789 637.652 916.934 637.699 911.918V909.211C637.699 904.008 636.621 900.07 634.465 897.398C632.309 894.703 629.156 893.355 625.008 893.355H619.805ZM674.227 923.309L685.828 884.812H697.57L679.746 936H668.742L650.988 884.812H662.695L674.227 923.309ZM733.219 913.816H712.969V927.527H736.734V936H702.422V884.812H736.664V893.355H712.969V905.555H733.219V913.816ZM761.871 917.262H753.469V936H742.922V884.812H761.941C767.988 884.812 772.652 886.16 775.934 888.855C779.215 891.551 780.855 895.359 780.855 900.281C780.855 903.773 780.094 906.691 778.57 909.035C777.07 911.355 774.785 913.207 771.715 914.59L782.789 935.508V936H771.469L761.871 917.262ZM753.469 908.719H761.977C764.625 908.719 766.676 908.051 768.129 906.715C769.582 905.355 770.309 903.492 770.309 901.125C770.309 898.711 769.617 896.812 768.234 895.43C766.875 894.047 764.777 893.355 761.941 893.355H753.469V908.719ZM825.68 893.355H810V936H799.453V893.355H783.984V884.812H825.68V893.355ZM842.941 936H832.395V884.812H842.941V936ZM879.293 922.57C879.293 920.578 878.59 919.055 877.184 918C875.777 916.922 873.246 915.797 869.59 914.625C865.934 913.43 863.039 912.258 860.906 911.109C855.094 907.969 852.188 903.738 852.188 898.418C852.188 895.652 852.961 893.191 854.508 891.035C856.078 888.855 858.316 887.156 861.223 885.938C864.152 884.719 867.434 884.109 871.066 884.109C874.723 884.109 877.98 884.777 880.84 886.113C883.699 887.426 885.914 889.289 887.484 891.703C889.078 894.117 889.875 896.859 889.875 899.93H879.328C879.328 897.586 878.59 895.77 877.113 894.48C875.637 893.168 873.562 892.512 870.891 892.512C868.312 892.512 866.309 893.062 864.879 894.164C863.449 895.242 862.734 896.672 862.734 898.453C862.734 900.117 863.566 901.512 865.23 902.637C866.918 903.762 869.391 904.816 872.648 905.801C878.648 907.605 883.02 909.844 885.762 912.516C888.504 915.188 889.875 918.516 889.875 922.5C889.875 926.93 888.199 930.41 884.848 932.941C881.496 935.449 876.984 936.703 871.312 936.703C867.375 936.703 863.789 935.988 860.555 934.559C857.32 933.105 854.848 931.125 853.137 928.617C851.449 926.109 850.605 923.203 850.605 919.898H861.188C861.188 925.547 864.562 928.371 871.312 928.371C873.82 928.371 875.777 927.867 877.184 926.859C878.59 925.828 879.293 924.398 879.293 922.57ZM927.844 913.816H907.594V927.527H931.359V936H897.047V884.812H931.289V893.355H907.594V905.555H927.844V913.816ZM951.328 884.812L964.477 921.938L977.555 884.812H991.406V936H980.824V922.008L981.879 897.855L968.062 936H960.82L947.039 897.891L948.094 922.008V936H937.547V884.812H951.328ZM1031.41 913.816H1011.16V927.527H1034.93V936H1000.62V884.812H1034.86V893.355H1011.16V905.555H1031.41V913.816ZM1082.74 936H1072.2L1051.66 902.32V936H1041.12V884.812H1051.66L1072.23 918.562V884.812H1082.74V936ZM1129.43 893.355H1113.75V936H1103.2V893.355H1087.73V884.812H1129.43V893.355ZM1161.46 922.57C1161.46 920.578 1160.75 919.055 1159.35 918C1157.94 916.922 1155.41 915.797 1151.75 914.625C1148.1 913.43 1145.2 912.258 1143.07 911.109C1137.26 907.969 1134.35 903.738 1134.35 898.418C1134.35 895.652 1135.12 893.191 1136.67 891.035C1138.24 888.855 1140.48 887.156 1143.39 885.938C1146.32 884.719 1149.6 884.109 1153.23 884.109C1156.89 884.109 1160.14 884.777 1163 886.113C1165.86 887.426 1168.08 889.289 1169.65 891.703C1171.24 894.117 1172.04 896.859 1172.04 899.93H1161.49C1161.49 897.586 1160.75 895.77 1159.28 894.48C1157.8 893.168 1155.73 892.512 1153.05 892.512C1150.48 892.512 1148.47 893.062 1147.04 894.164C1145.61 895.242 1144.9 896.672 1144.9 898.453C1144.9 900.117 1145.73 901.512 1147.39 902.637C1149.08 903.762 1151.55 904.816 1154.81 905.801C1160.81 907.605 1165.18 909.844 1167.93 912.516C1170.67 915.188 1172.04 918.516 1172.04 922.5C1172.04 926.93 1170.36 930.41 1167.01 932.941C1163.66 935.449 1159.15 936.703 1153.48 936.703C1149.54 936.703 1145.95 935.988 1142.72 934.559C1139.48 933.105 1137.01 931.125 1135.3 928.617C1133.61 926.109 1132.77 923.203 1132.77 919.898H1143.35C1143.35 925.547 1146.73 928.371 1153.48 928.371C1155.98 928.371 1157.94 927.867 1159.35 926.859C1160.75 925.828 1161.46 924.398 1161.46 922.57Z" fill="#020202"/>
<path d="M118.797 1047.28H93.9531V1113H91.4219V1047.28H66.5781V1044.75H118.797V1047.28ZM179.406 1113H176.875V1079.16H133.281V1113H130.75V1044.75H133.281V1076.62H176.875V1044.75H179.406V1113ZM234.953 1092.61H201.531L193.938 1113H191.172L216.719 1044.75H219.812L245.359 1113H242.594L234.953 1092.61ZM202.469 1090.08H234.016L218.266 1047.8L202.469 1090.08ZM295.703 1047.28H270.859V1113H268.328V1047.28H243.484V1044.75H295.703V1047.28ZM333.156 1113H330.625V1044.75H333.156V1113ZM394.656 1096.64C394.656 1093.73 393.969 1091.28 392.594 1089.28C391.25 1087.25 389.109 1085.47 386.172 1083.94C383.266 1082.38 378.859 1080.78 372.953 1079.16C367.047 1077.53 362.609 1075.89 359.641 1074.23C356.703 1072.58 354.547 1070.66 353.172 1068.47C351.797 1066.28 351.109 1063.62 351.109 1060.5C351.109 1055.53 353.203 1051.52 357.391 1048.45C361.578 1045.36 367.031 1043.81 373.75 1043.81C378.125 1043.81 382.047 1044.67 385.516 1046.39C389.016 1048.08 391.719 1050.47 393.625 1053.56C395.531 1056.62 396.484 1060.09 396.484 1063.97H393.953C393.953 1058.88 392.078 1054.67 388.328 1051.36C384.578 1048.02 379.719 1046.34 373.75 1046.34C367.75 1046.34 362.891 1047.69 359.172 1050.38C355.484 1053.03 353.641 1056.38 353.641 1060.41C353.641 1064.5 355.25 1067.8 358.469 1070.3C361.688 1072.8 367 1075.02 374.406 1076.95C381.812 1078.86 387.234 1081.08 390.672 1083.61C395.047 1086.83 397.234 1091.14 397.234 1096.55C397.234 1099.98 396.266 1103.03 394.328 1105.69C392.391 1108.31 389.641 1110.34 386.078 1111.78C382.516 1113.22 378.516 1113.94 374.078 1113.94C369.141 1113.94 364.703 1113.12 360.766 1111.5C356.828 1109.84 353.859 1107.5 351.859 1104.47C349.891 1101.44 348.906 1097.86 348.906 1093.73H351.438C351.438 1099.33 353.531 1103.67 357.719 1106.77C361.906 1109.86 367.359 1111.41 374.078 1111.41C380.047 1111.41 384.969 1110.05 388.844 1107.33C392.719 1104.58 394.656 1101.02 394.656 1096.64ZM408.109 1110.7C408.109 1109.98 408.359 1109.38 408.859 1108.88C409.359 1108.34 409.969 1108.08 410.688 1108.08C411.406 1108.08 412.016 1108.34 412.516 1108.88C413.047 1109.38 413.312 1109.98 413.312 1110.7C413.312 1111.42 413.047 1112.03 412.516 1112.53C412.016 1113.03 411.406 1113.28 410.688 1113.28C409.969 1113.28 409.359 1113.03 408.859 1112.53C408.359 1112.03 408.109 1111.42 408.109 1110.7ZM428.734 1110.7C428.734 1109.98 428.984 1109.38 429.484 1108.88C429.984 1108.34 430.594 1108.08 431.312 1108.08C432.031 1108.08 432.641 1108.34 433.141 1108.88C433.672 1109.38 433.938 1109.98 433.938 1110.7C433.938 1111.42 433.672 1112.03 433.141 1112.53C432.641 1113.03 432.031 1113.28 431.312 1113.28C430.594 1113.28 429.984 1113.03 429.484 1112.53C428.984 1112.03 428.734 1111.42 428.734 1110.7ZM449.359 1110.7C449.359 1109.98 449.609 1109.38 450.109 1108.88C450.609 1108.34 451.219 1108.08 451.938 1108.08C452.656 1108.08 453.266 1108.34 453.766 1108.88C454.297 1109.38 454.562 1109.98 454.562 1110.7C454.562 1111.42 454.297 1112.03 453.766 1112.53C453.266 1113.03 452.656 1113.28 451.938 1113.28C451.219 1113.28 450.609 1113.03 450.109 1112.53C449.609 1112.03 449.359 1111.42 449.359 1110.7Z" fill="black"/>
<path d="M473.176 1358.24C460.522 1370.67 445.741 1376.89 428.832 1376.89C407.22 1376.89 389.919 1369.5 376.93 1354.71C363.94 1339.82 357.445 1319.78 357.445 1294.58C357.445 1278.57 360.917 1263.9 367.859 1250.57C374.914 1237.14 384.712 1226.72 397.254 1219.33C409.796 1211.83 423.905 1208.08 439.582 1208.08C455.707 1208.08 470.04 1212.11 482.582 1220.17C495.124 1228.23 504.866 1239.82 511.809 1254.94C518.751 1270.06 522.279 1287.36 522.391 1306.84V1324.82C522.391 1365.58 512.257 1397.6 491.988 1420.89C471.72 1444.19 442.997 1456.62 405.82 1458.18L393.895 1458.35V1417.87L404.645 1417.7C446.861 1415.8 469.704 1395.98 473.176 1358.24ZM440.758 1339.77C448.596 1339.77 455.315 1337.75 460.914 1333.72C466.625 1329.69 470.936 1324.82 473.848 1319.11V1299.12C473.848 1282.66 470.712 1269.89 464.441 1260.82C458.171 1251.75 449.772 1247.21 439.246 1247.21C429.504 1247.21 421.497 1251.69 415.227 1260.65C408.956 1269.5 405.82 1280.64 405.82 1294.08C405.82 1307.4 408.844 1318.38 414.891 1327C421.049 1335.51 429.672 1339.77 440.758 1339.77ZM721.77 1354.88C721.77 1388.7 714.771 1414.57 700.773 1432.48C686.776 1450.4 666.284 1459.36 639.297 1459.36C612.646 1459.36 592.266 1450.57 578.156 1432.99C564.047 1415.41 556.824 1390.21 556.488 1357.4V1312.39C556.488 1278.23 563.543 1252.31 577.652 1234.62C591.874 1216.92 612.31 1208.08 638.961 1208.08C665.612 1208.08 685.992 1216.87 700.102 1234.45C714.211 1251.92 721.434 1277.06 721.77 1309.87V1354.88ZM673.227 1305.5C673.227 1285.23 670.427 1270.51 664.828 1261.32C659.341 1252.03 650.719 1247.38 638.961 1247.38C627.539 1247.38 619.085 1251.81 613.598 1260.65C608.223 1269.39 605.367 1283.1 605.031 1301.8V1361.27C605.031 1381.2 607.719 1396.04 613.094 1405.78C618.581 1415.41 627.315 1420.22 639.297 1420.22C651.167 1420.22 659.733 1415.58 664.996 1406.28C670.259 1396.99 673.003 1382.77 673.227 1363.62V1305.5ZM754.02 1258.47C754.02 1243.46 758.891 1231.31 768.633 1222.02C778.375 1212.61 791.141 1207.91 806.93 1207.91C822.943 1207.91 835.82 1212.56 845.562 1221.85C855.305 1231.03 860.176 1243.52 860.176 1259.31V1271.4C860.176 1286.52 855.305 1298.67 845.562 1307.85C835.82 1317.03 823.055 1321.62 807.266 1321.62C791.365 1321.62 778.487 1317.03 768.633 1307.85C758.891 1298.56 754.02 1286.07 754.02 1270.39V1258.47ZM786.27 1271.4C786.27 1278.12 788.173 1283.55 791.98 1287.7C795.9 1291.73 800.995 1293.74 807.266 1293.74C813.536 1293.74 818.52 1291.67 822.215 1287.53C825.91 1283.38 827.758 1277.84 827.758 1270.9V1258.47C827.758 1251.75 825.91 1246.32 822.215 1242.18C818.52 1238.03 813.424 1235.96 806.93 1235.96C800.771 1235.96 795.788 1238.03 791.98 1242.18C788.173 1246.21 786.27 1251.86 786.27 1259.14V1271.4ZM870.926 1396.04C870.926 1380.92 875.853 1368.77 885.707 1359.59C895.561 1350.29 908.327 1345.64 924.004 1345.64C939.905 1345.64 952.727 1350.24 962.469 1359.42C972.323 1368.49 977.25 1381.03 977.25 1397.04V1409.14C977.25 1424.14 972.435 1436.29 962.805 1445.59C953.174 1454.77 940.353 1459.36 924.34 1459.36C908.215 1459.36 895.281 1454.71 885.539 1445.42C875.797 1436.12 870.926 1423.81 870.926 1408.46V1396.04ZM903.176 1409.14C903.176 1415.3 905.191 1420.56 909.223 1424.93C913.254 1429.29 918.293 1431.48 924.34 1431.48C938.001 1431.48 944.832 1423.92 944.832 1408.8V1396.04C944.832 1389.32 942.928 1383.94 939.121 1379.91C935.314 1375.77 930.275 1373.7 924.004 1373.7C917.733 1373.7 912.694 1375.77 908.887 1379.91C905.079 1383.94 903.176 1389.48 903.176 1396.54V1409.14ZM816.84 1437.69L793.156 1424.93L912.582 1233.78L936.266 1246.54L816.84 1437.69Z" fill="white"/>
<path d="M152.703 1600.98C152.703 1606.89 151.641 1612.12 149.516 1616.69C147.422 1621.22 144.422 1624.73 140.516 1627.23C136.609 1629.7 132.109 1630.94 127.016 1630.94C119.328 1630.94 113.109 1628.2 108.359 1622.73C103.609 1617.27 101.234 1609.89 101.234 1600.61V1590.77C101.234 1584.89 102.281 1579.67 104.375 1575.11C106.5 1570.55 109.516 1567.03 113.422 1564.56C117.359 1562.06 121.859 1560.81 126.922 1560.81C132.016 1560.81 136.516 1562.06 140.422 1564.56C144.359 1567.03 147.391 1570.56 149.516 1575.16C151.641 1579.72 152.703 1584.92 152.703 1590.77V1600.98ZM150.172 1590.67C150.172 1582.42 148.078 1575.81 143.891 1570.84C139.703 1565.84 134.047 1563.34 126.922 1563.34C119.891 1563.34 114.281 1565.83 110.094 1570.8C105.906 1575.73 103.812 1582.47 103.812 1591V1600.98C103.812 1606.42 104.75 1611.23 106.625 1615.42C108.531 1619.58 111.234 1622.78 114.734 1625.03C118.234 1627.28 122.328 1628.41 127.016 1628.41C134.141 1628.41 139.781 1625.92 143.938 1620.95C148.094 1615.98 150.172 1609.2 150.172 1600.61V1590.67ZM205.812 1596.44H170.844V1630H168.312V1561.75H210.594V1564.28H170.844V1593.81H205.812V1596.44ZM289.766 1564.28H264.922V1630H262.391V1564.28H237.547V1561.75H289.766V1564.28ZM350.375 1630H347.844V1596.16H304.25V1630H301.719V1561.75H304.25V1593.62H347.844V1561.75H350.375V1630ZM405.875 1596.16H371.656V1627.47H410.656V1630H369.125V1561.75H410.656V1564.28H371.656V1593.62H405.875V1596.16ZM428.188 1630H425.656V1561.75H428.188V1630ZM474.781 1600.8H451.109V1630H448.578V1561.75H470.328C477.172 1561.75 482.609 1563.52 486.641 1567.05C490.703 1570.58 492.734 1575.38 492.734 1581.44C492.734 1586.09 491.281 1590.17 488.375 1593.67C485.5 1597.14 481.828 1599.3 477.359 1600.14L495.594 1629.34V1630H492.922L474.781 1600.8ZM451.109 1598.27H472.625C477.875 1598.27 482.109 1596.67 485.328 1593.48C488.578 1590.3 490.203 1586.28 490.203 1581.44C490.203 1576.12 488.406 1571.94 484.812 1568.88C481.25 1565.81 476.359 1564.28 470.141 1564.28H451.109V1598.27ZM578.141 1564.28H553.297V1630H550.766V1564.28H525.922V1561.75H578.141V1564.28ZM637.109 1600.98C637.109 1606.89 636.047 1612.12 633.922 1616.69C631.828 1621.22 628.828 1624.73 624.922 1627.23C621.016 1629.7 616.516 1630.94 611.422 1630.94C603.734 1630.94 597.516 1628.2 592.766 1622.73C588.016 1617.27 585.641 1609.89 585.641 1600.61V1590.77C585.641 1584.89 586.688 1579.67 588.781 1575.11C590.906 1570.55 593.922 1567.03 597.828 1564.56C601.766 1562.06 606.266 1560.81 611.328 1560.81C616.422 1560.81 620.922 1562.06 624.828 1564.56C628.766 1567.03 631.797 1570.56 633.922 1575.16C636.047 1579.72 637.109 1584.92 637.109 1590.77V1600.98ZM634.578 1590.67C634.578 1582.42 632.484 1575.81 628.297 1570.84C624.109 1565.84 618.453 1563.34 611.328 1563.34C604.297 1563.34 598.688 1565.83 594.5 1570.8C590.312 1575.73 588.219 1582.47 588.219 1591V1600.98C588.219 1606.42 589.156 1611.23 591.031 1615.42C592.938 1619.58 595.641 1622.78 599.141 1625.03C602.641 1627.28 606.734 1628.41 611.422 1628.41C618.547 1628.41 624.188 1625.92 628.344 1620.95C632.5 1615.98 634.578 1609.2 634.578 1600.61V1590.67ZM696.828 1564.28H671.984V1630H669.453V1564.28H644.609V1561.75H696.828V1564.28ZM740.984 1609.61H707.562L699.969 1630H697.203L722.75 1561.75H725.844L751.391 1630H748.625L740.984 1609.61ZM708.5 1607.08H740.047L724.297 1564.8L708.5 1607.08ZM764.984 1627.47H800V1630H762.406V1561.75H764.984V1627.47ZM860.938 1600.8H837.266V1630H834.734V1561.75H856.484C863.328 1561.75 868.766 1563.52 872.797 1567.05C876.859 1570.58 878.891 1575.38 878.891 1581.44C878.891 1586.09 877.438 1590.17 874.531 1593.67C871.656 1597.14 867.984 1599.3 863.516 1600.14L881.75 1629.34V1630H879.078L860.938 1600.8ZM837.266 1598.27H858.781C864.031 1598.27 868.266 1596.67 871.484 1593.48C874.734 1590.3 876.359 1586.28 876.359 1581.44C876.359 1576.12 874.562 1571.94 870.969 1568.88C867.406 1565.81 862.516 1564.28 856.297 1564.28H837.266V1598.27ZM934.531 1596.16H900.312V1627.47H939.312V1630H897.781V1561.75H939.312V1564.28H900.312V1593.62H934.531V1596.16ZM970.391 1623.34L971.75 1627.47L973.109 1623.34L996.031 1561.75H998.797L973.297 1630H970.203L944.703 1561.75H947.469L970.391 1623.34ZM1046.56 1596.16H1012.34V1627.47H1051.34V1630H1009.81V1561.75H1051.34V1564.28H1012.34V1593.62H1046.56V1596.16ZM1113.64 1630H1111.11L1067.05 1566.06V1630H1064.47V1561.75H1067.05L1111.11 1625.55V1561.75H1113.64V1630ZM1178.38 1561.75V1607.97C1178.38 1615.19 1176.28 1620.83 1172.09 1624.89C1167.91 1628.92 1162.23 1630.94 1155.08 1630.94C1147.92 1630.94 1142.25 1628.92 1138.06 1624.89C1133.88 1620.83 1131.77 1615.25 1131.73 1608.16V1561.75H1134.27V1607.88C1134.27 1614.19 1136.16 1619.19 1139.94 1622.88C1143.75 1626.56 1148.8 1628.41 1155.08 1628.41C1161.36 1628.41 1166.39 1626.56 1170.17 1622.88C1173.95 1619.19 1175.84 1614.17 1175.84 1607.83V1561.75H1178.38ZM1233.22 1596.16H1199V1627.47H1238V1630H1196.47V1561.75H1238V1564.28H1199V1593.62H1233.22V1596.16Z" fill="white"/>
</svg>
