<svg width="1418" height="900" viewBox="0 0 1418 900" fill="none" xmlns="http://www.w3.org/2000/svg">
<g filter="url(#filter0_d)">
<rect x="10" y="8" width="1398" height="880" rx="10" fill="white"/>
</g>
<g filter="url(#filter1_dd)">
<path fill-rule="evenodd" clip-rule="evenodd" d="M461 715C459.895 715 459 715.895 459 717V823C459 824.105 459.895 825 461 825H957C958.105 825 959 824.105 959 823V717C959 715.895 958.105 715 957 715H461Z" fill="#009688"/>
</g>
<path d="M573.826 746.781H558.232V789H554.388V746.781H538.826V743.5H573.826V746.781ZM600.487 770.062H587.268V789H583.393V743.5H598.174C603.028 743.5 606.82 744.677 609.549 747.031C612.278 749.385 613.643 752.677 613.643 756.906C613.643 759.823 612.789 762.396 611.08 764.625C609.372 766.854 607.08 768.396 604.205 769.25L615.58 788.594V789H611.487L600.487 770.062ZM587.268 766.781H599.049C602.278 766.781 604.872 765.865 606.83 764.031C608.789 762.198 609.768 759.823 609.768 756.906C609.768 753.698 608.747 751.208 606.705 749.438C604.664 747.667 601.799 746.781 598.112 746.781H587.268V766.781ZM650.96 776.25H630.304L625.616 789H621.585L638.804 743.5H642.46L659.679 789H655.679L650.96 776.25ZM631.491 772.969H649.741L640.616 748.188L631.491 772.969ZM702.558 789H698.714L672.558 750.062V789H668.683V743.5H672.558L698.746 782.469V743.5H702.558V789ZM742.156 777.812C742.156 775.292 741.271 773.302 739.5 771.844C737.729 770.365 734.49 768.969 729.781 767.656C725.073 766.323 721.635 764.875 719.469 763.312C716.385 761.104 714.844 758.208 714.844 754.625C714.844 751.146 716.271 748.323 719.125 746.156C722 743.969 725.667 742.875 730.125 742.875C733.146 742.875 735.844 743.458 738.219 744.625C740.615 745.792 742.469 747.417 743.781 749.5C745.094 751.583 745.75 753.906 745.75 756.469H741.875C741.875 753.365 740.812 750.875 738.688 749C736.562 747.104 733.708 746.156 730.125 746.156C726.646 746.156 723.875 746.938 721.812 748.5C719.75 750.042 718.719 752.062 718.719 754.562C718.719 756.875 719.646 758.76 721.5 760.219C723.354 761.677 726.323 762.969 730.406 764.094C734.49 765.198 737.583 766.354 739.688 767.562C741.792 768.75 743.375 770.177 744.438 771.844C745.5 773.51 746.031 775.479 746.031 777.75C746.031 781.333 744.594 784.208 741.719 786.375C738.865 788.542 735.094 789.625 730.406 789.625C727.198 789.625 724.25 789.052 721.562 787.906C718.896 786.76 716.865 785.156 715.469 783.094C714.094 781.031 713.406 778.667 713.406 776H717.25C717.25 779.208 718.448 781.74 720.844 783.594C723.24 785.448 726.427 786.375 730.406 786.375C733.948 786.375 736.792 785.594 738.938 784.031C741.083 782.469 742.156 780.396 742.156 777.812ZM781.692 767.75H760.473V789H756.629V743.5H784.817V746.781H760.473V764.469H781.692V767.75ZM820.04 767.188H798.759V785.75H823.228V789H794.915V743.5H823.071V746.781H798.759V763.938H820.04V767.188ZM850.638 770.062H837.42V789H833.545V743.5H848.326C853.18 743.5 856.972 744.677 859.701 747.031C862.43 749.385 863.795 752.677 863.795 756.906C863.795 759.823 862.94 762.396 861.232 764.625C859.524 766.854 857.232 768.396 854.357 769.25L865.732 788.594V789H861.638L850.638 770.062ZM837.42 766.781H849.201C852.43 766.781 855.024 765.865 856.982 764.031C858.94 762.198 859.92 759.823 859.92 756.906C859.92 753.698 858.899 751.208 856.857 749.438C854.815 747.667 851.951 746.781 848.263 746.781H837.42V766.781Z" fill="white"/>
<path d="M72.9062 116.172V145H70.375V76.75H91.7031C98.6719 76.75 104.078 78.5156 107.922 82.0469C111.797 85.5469 113.734 90.4219 113.734 96.6719C113.734 102.859 111.844 107.641 108.062 111.016C104.312 114.391 98.9688 116.109 92.0312 116.172H72.9062ZM72.9062 113.641H91.7031C97.8594 113.641 102.641 112.156 106.047 109.188C109.484 106.219 111.203 102.078 111.203 96.7656C111.203 91.2656 109.484 86.9844 106.047 83.9219C102.641 80.8281 97.8594 79.2812 91.7031 79.2812H72.9062V113.641ZM157.516 124.609H124.094L116.5 145H113.734L139.281 76.75H142.375L167.922 145H165.156L157.516 124.609ZM125.031 122.078H156.578L140.828 79.7969L125.031 122.078ZM193.703 116.781L217.609 76.75H220.703L194.969 119.078V145H192.438V119.078L166.703 76.75H170.078L193.703 116.781ZM235.516 76.75L263.594 141.297L291.766 76.75H295.469V145H292.938V80.5L264.625 145H262.609L234.438 80.8281V145H231.906V76.75H235.516ZM350.969 111.156H316.75V142.469H355.75V145H314.219V76.75H355.75V79.2812H316.75V108.625H350.969V111.156ZM418.047 145H415.516L371.453 81.0625V145H368.875V76.75H371.453L415.516 140.547V76.75H418.047V145ZM480.859 79.2812H456.016V145H453.484V79.2812H428.641V76.75H480.859V79.2812ZM539.875 115.797H516.203V145H513.672V76.75H535.422C542.266 76.75 547.703 78.5156 551.734 82.0469C555.797 85.5781 557.828 90.375 557.828 96.4375C557.828 101.094 556.375 105.172 553.469 108.672C550.594 112.141 546.922 114.297 542.453 115.141L560.688 144.344V145H558.016L539.875 115.797ZM516.203 113.266H537.719C542.969 113.266 547.203 111.672 550.422 108.484C553.672 105.297 555.297 101.281 555.297 96.4375C555.297 91.125 553.5 86.9375 549.906 83.875C546.344 80.8125 541.453 79.2812 535.234 79.2812H516.203V113.266ZM613.469 111.156H579.25V142.469H618.25V145H576.719V76.75H618.25V79.2812H579.25V108.625H613.469V111.156ZM677.781 124.094C677.125 131.125 674.703 136.531 670.516 140.312C666.328 144.062 660.641 145.938 653.453 145.938C648.609 145.938 644.312 144.719 640.562 142.281C636.844 139.812 633.953 136.328 631.891 131.828C629.828 127.297 628.781 122.125 628.75 116.312V105.766C628.75 99.9531 629.766 94.7656 631.797 90.2031C633.828 85.6094 636.719 82.0625 640.469 79.5625C644.25 77.0625 648.578 75.8125 653.453 75.8125C660.578 75.8125 666.25 77.6875 670.469 81.4375C674.688 85.1875 677.125 90.5625 677.781 97.5625H675.25C674.531 91.2812 672.344 86.5156 668.688 83.2656C665.031 79.9844 659.953 78.3438 653.453 78.3438C646.828 78.3438 641.469 80.8438 637.375 85.8438C633.312 90.8438 631.281 97.5469 631.281 105.953V115.984C631.281 121.359 632.188 126.125 634 130.281C635.812 134.406 638.406 137.625 641.781 139.938C645.188 142.25 649.078 143.406 653.453 143.406C659.984 143.406 665.078 141.797 668.734 138.578C672.422 135.359 674.594 130.531 675.25 124.094H677.781ZM730.375 111.156H696.156V142.469H735.156V145H693.625V76.75H735.156V79.2812H696.156V108.625H730.375V111.156ZM752.688 145H750.156V76.75H752.688V145ZM791.266 138.344L792.625 142.469L793.984 138.344L816.906 76.75H819.672L794.172 145H791.078L765.578 76.75H768.344L791.266 138.344ZM867.438 111.156H833.219V142.469H872.219V145H830.688V76.75H872.219V79.2812H833.219V108.625H867.438V111.156ZM885.344 145V76.75H904.234C909.516 76.75 914.297 78 918.578 80.5C922.859 83 926.219 86.5156 928.656 91.0469C931.094 95.5469 932.344 100.594 932.406 106.188V115.047C932.406 120.734 931.203 125.859 928.797 130.422C926.422 134.984 923.094 138.547 918.812 141.109C914.531 143.672 909.75 144.969 904.469 145H885.344ZM887.875 79.2812V142.469H904.234C909.016 142.469 913.359 141.312 917.266 139C921.203 136.656 924.281 133.406 926.5 129.25C928.719 125.062 929.844 120.422 929.875 115.328V106.562C929.875 101.469 928.781 96.8438 926.594 92.6875C924.438 88.5312 921.406 85.2812 917.5 82.9375C913.625 80.5625 909.328 79.3438 904.609 79.2812H887.875Z" fill="black"/>
<path d="M61 165.879H905.83" stroke="black"/>
<path fill-rule="evenodd" clip-rule="evenodd" d="M71 272C71 249.92 88.92 232 111 232C133.08 232 151 249.92 151 272C151 294.08 133.08 312 111 312C88.92 312 71 294.08 71 272ZM79 272C79 289.64 93.36 304 111 304C128.64 304 143 289.64 143 272C143 254.36 128.64 240 111 240C93.36 240 79 254.36 79 272ZM129.36 254.32L103 280.68L92.64 270.36L87 276L103 292L135 260L129.36 254.32ZM179.16 245.812L176.664 270.773L180.004 271.723C181.645 270.27 183.203 269.297 184.68 268.805C186.156 268.289 187.891 268.031 189.883 268.031C193.492 268.031 196.34 269.215 198.426 271.582C200.512 273.949 201.555 277.008 201.555 280.758C201.555 285.047 200.617 288.352 198.742 290.672C196.891 292.992 194.137 294.152 190.48 294.152C187.129 294.152 184.469 293.262 182.5 291.48C180.531 289.676 179.348 287.027 178.949 283.535H174.906C175.305 288.012 176.887 291.492 179.652 293.977C182.418 296.461 186.027 297.703 190.48 297.703C195.332 297.703 199.094 296.215 201.766 293.238C204.438 290.262 205.773 286.078 205.773 280.688C205.773 275.695 204.402 271.699 201.66 268.699C198.918 265.699 195.238 264.199 190.621 264.199C186.941 264.199 183.73 265.137 180.988 267.012L182.781 249.715H204.754V245.812H179.16ZM214.809 292.395C214.293 292.957 214.035 293.648 214.035 294.469C214.035 295.289 214.293 295.969 214.809 296.508C215.348 297.023 216.086 297.281 217.023 297.281C217.961 297.281 218.699 297.023 219.238 296.508C219.777 295.969 220.047 295.289 220.047 294.469C220.047 293.648 219.777 292.957 219.238 292.395C218.699 291.809 217.961 291.516 217.023 291.516C216.086 291.516 215.348 291.809 214.809 292.395ZM240.648 297L262.516 248.238V245.812H228.871V249.398H257.98L236.254 297H240.648ZM298.762 266.133C300.309 264.023 301.082 261.645 301.082 258.996C301.082 254.801 299.699 251.438 296.934 248.906C294.191 246.375 290.57 245.109 286.07 245.109C281.57 245.109 277.949 246.363 275.207 248.871C272.488 251.379 271.129 254.754 271.129 258.996C271.129 261.645 271.879 264.023 273.379 266.133C274.879 268.219 276.895 269.754 279.426 270.738C276.449 271.746 274.105 273.387 272.395 275.66C270.684 277.934 269.828 280.523 269.828 283.43C269.828 287.836 271.305 291.316 274.258 293.871C277.234 296.426 281.195 297.703 286.141 297.703C291.039 297.703 294.977 296.426 297.953 293.871C300.93 291.293 302.418 287.812 302.418 283.43C302.418 280.477 301.527 277.875 299.746 275.625C297.965 273.375 295.598 271.746 292.645 270.738C295.176 269.754 297.215 268.219 298.762 266.133ZM294.789 275.625C297.062 277.664 298.199 280.277 298.199 283.465C298.199 286.746 297.098 289.348 294.895 291.27C292.691 293.191 289.773 294.152 286.141 294.152C282.414 294.152 279.461 293.191 277.281 291.27C275.102 289.324 274.012 286.723 274.012 283.465C274.012 280.207 275.137 277.57 277.387 275.555C279.637 273.539 282.531 272.531 286.07 272.531C289.609 272.531 292.516 273.562 294.789 275.625ZM293.805 251.648C295.844 253.594 296.863 256.031 296.863 258.961C296.863 261.938 295.855 264.352 293.84 266.203C291.848 268.031 289.27 268.945 286.105 268.945C282.895 268.945 280.293 268.031 278.301 266.203C276.332 264.375 275.348 261.961 275.348 258.961C275.348 255.891 276.332 253.418 278.301 251.543C280.293 249.645 282.883 248.695 286.07 248.695C289.211 248.695 291.789 249.68 293.805 251.648ZM335.184 278.016C336.871 279.656 337.715 281.777 337.715 284.379C337.715 287.238 336.66 289.559 334.551 291.34C332.465 293.121 329.758 294.012 326.43 294.012C322.609 294.012 319.633 292.98 317.5 290.918C315.367 288.832 314.301 285.961 314.301 282.305H310.082C310.082 286.922 311.371 290.566 313.949 293.238C316.527 295.887 320.172 297.363 324.883 297.668V304.312H328.434V297.633C332.629 297.305 335.922 295.969 338.312 293.625C340.727 291.258 341.934 288.152 341.934 284.309C341.934 281.871 341.465 279.785 340.527 278.051C339.613 276.293 338.219 274.781 336.344 273.516C334.492 272.227 331.504 270.891 327.379 269.508C323.277 268.102 320.371 266.613 318.66 265.043C316.949 263.449 316.094 261.246 316.094 258.434C316.094 255.527 317.02 253.207 318.871 251.473C320.746 249.715 323.348 248.836 326.676 248.836C329.98 248.836 332.582 249.926 334.48 252.105C336.402 254.262 337.363 257.18 337.363 260.859H341.547C341.547 256.195 340.41 252.504 338.137 249.785C335.887 247.066 332.699 245.52 328.574 245.145V238.043H324.988V245.145C320.957 245.473 317.77 246.832 315.426 249.223C313.082 251.59 311.91 254.684 311.91 258.504C311.91 262.137 312.977 265.102 315.109 267.398C317.242 269.672 320.957 271.641 326.254 273.305C330.52 274.781 333.496 276.352 335.184 278.016ZM371.992 262.406V297H376.211V262.406H385.281V258.961H376.211V254.25C376.211 251.602 376.855 249.562 378.145 248.133C379.434 246.68 381.238 245.953 383.559 245.953C384.941 245.953 386.219 246.094 387.391 246.375L387.707 242.859C386.324 242.461 384.836 242.262 383.242 242.262C379.703 242.262 376.938 243.305 374.945 245.391C372.977 247.477 371.992 250.465 371.992 254.355V258.961H365.699V262.406H371.992ZM407.535 262.301C408.543 262.301 409.492 262.383 410.383 262.547L410.488 258.715C409.809 258.41 408.883 258.258 407.711 258.258C402.789 258.258 399.215 260.508 396.988 265.008L396.918 258.961H392.805V297H396.988V270.879C397.762 268.09 399.051 265.969 400.855 264.516C402.684 263.039 404.91 262.301 407.535 262.301ZM416.148 267.539C414.742 270.469 414.039 273.762 414.039 277.418V278.262C414.039 284.121 415.609 288.832 418.75 292.395C421.914 295.934 426.016 297.703 431.055 297.703C434.359 297.703 437.301 296.906 439.879 295.312C442.457 293.719 444.449 291.457 445.855 288.527C447.285 285.574 448 282.258 448 278.578V277.699C448 271.84 446.43 267.141 443.289 263.602C440.148 260.039 436.047 258.258 430.984 258.258C427.703 258.258 424.762 259.078 422.16 260.719C419.582 262.336 417.578 264.609 416.148 267.539ZM421.773 289.793C419.43 286.863 418.258 283.125 418.258 278.578V277.805C418.258 273.047 419.441 269.203 421.809 266.273C424.176 263.32 427.234 261.844 430.984 261.844C433.492 261.844 435.719 262.512 437.664 263.848C439.609 265.16 441.121 267.023 442.199 269.438C443.277 271.852 443.816 274.512 443.816 277.418V278.227C443.816 283.008 442.633 286.863 440.266 289.793C437.922 292.699 434.852 294.152 431.055 294.152C427.234 294.152 424.141 292.699 421.773 289.793ZM460.691 265.148L460.551 258.961H456.508V297H460.727V270.914C461.641 267.938 463.047 265.699 464.945 264.199C466.844 262.676 469.117 261.914 471.766 261.914C474.906 261.914 477.227 262.723 478.727 264.34C480.25 265.934 481.023 268.359 481.047 271.617V297H485.266V271.828C485.5 269.086 486.66 266.766 488.746 264.867C490.832 262.945 493.387 261.961 496.41 261.914C499.668 261.914 502.012 262.734 503.441 264.375C504.895 266.016 505.633 268.535 505.656 271.934V297H509.875V271.617C509.711 262.711 505.551 258.258 497.395 258.258C494.652 258.258 492.145 258.902 489.871 260.191C487.598 261.457 485.781 263.273 484.422 265.641C482.805 260.719 478.996 258.258 472.996 258.258C470.418 258.258 468.074 258.832 465.965 259.98C463.855 261.129 462.098 262.852 460.691 265.148ZM568.938 295.91C572.148 294.715 574.504 293.051 576.004 290.918V272.707H557.934V276.363H571.68V289.582C570.836 290.613 569.547 291.516 567.812 292.289C565.141 293.461 561.941 294.047 558.215 294.047C555.004 294.047 552.156 293.227 549.672 291.586C547.211 289.945 545.312 287.637 543.977 284.66C542.664 281.66 542.008 278.215 542.008 274.324V268.277C542.008 262.09 543.402 257.297 546.191 253.898C548.98 250.5 552.766 248.801 557.547 248.801C561.461 248.801 564.625 249.773 567.039 251.719C569.477 253.641 571.012 256.477 571.645 260.227H575.969C575.359 255.516 573.449 251.824 570.238 249.152C567.027 246.457 562.785 245.109 557.512 245.109C551.465 245.109 546.648 247.172 543.062 251.297C539.477 255.398 537.684 261 537.684 268.102V274.57C537.707 279.117 538.574 283.148 540.285 286.664C541.996 290.18 544.41 292.898 547.527 294.82C550.645 296.742 554.207 297.703 558.215 297.703C562.176 297.703 565.75 297.105 568.938 295.91ZM587.078 267.539C585.672 270.469 584.969 273.762 584.969 277.418V278.262C584.969 284.121 586.539 288.832 589.68 292.395C592.844 295.934 596.945 297.703 601.984 297.703C605.289 297.703 608.23 296.906 610.809 295.312C613.387 293.719 615.379 291.457 616.785 288.527C618.215 285.574 618.93 282.258 618.93 278.578V277.699C618.93 271.84 617.359 267.141 614.219 263.602C611.078 260.039 606.977 258.258 601.914 258.258C598.633 258.258 595.691 259.078 593.09 260.719C590.512 262.336 588.508 264.609 587.078 267.539ZM592.703 289.793C590.359 286.863 589.188 283.125 589.188 278.578V277.805C589.188 273.047 590.371 269.203 592.738 266.273C595.105 263.32 598.164 261.844 601.914 261.844C604.422 261.844 606.648 262.512 608.594 263.848C610.539 265.16 612.051 267.023 613.129 269.438C614.207 271.852 614.746 274.512 614.746 277.418V278.227C614.746 283.008 613.562 286.863 611.195 289.793C608.852 292.699 605.781 294.152 601.984 294.152C598.164 294.152 595.07 292.699 592.703 289.793ZM627.438 267.539C626.031 270.469 625.328 273.762 625.328 277.418V278.262C625.328 284.121 626.898 288.832 630.039 292.395C633.203 295.934 637.305 297.703 642.344 297.703C645.648 297.703 648.59 296.906 651.168 295.312C653.746 293.719 655.738 291.457 657.145 288.527C658.574 285.574 659.289 282.258 659.289 278.578V277.699C659.289 271.84 657.719 267.141 654.578 263.602C651.438 260.039 647.336 258.258 642.273 258.258C638.992 258.258 636.051 259.078 633.449 260.719C630.871 262.336 628.867 264.609 627.438 267.539ZM633.062 289.793C630.719 286.863 629.547 283.125 629.547 278.578V277.805C629.547 273.047 630.73 269.203 633.098 266.273C635.465 263.32 638.523 261.844 642.273 261.844C644.781 261.844 647.008 262.512 648.953 263.848C650.898 265.16 652.41 267.023 653.488 269.438C654.566 271.852 655.105 274.512 655.105 277.418V278.227C655.105 283.008 653.922 286.863 651.555 289.793C649.211 292.699 646.141 294.152 642.344 294.152C638.523 294.152 635.43 292.699 633.062 289.793ZM670.258 263.496C667.633 266.965 666.32 271.676 666.32 277.629V278.191C666.32 284.168 667.656 288.914 670.328 292.43C673 295.945 676.539 297.703 680.945 297.703C686.102 297.703 690.027 295.828 692.723 292.078V296.859C692.652 300.539 691.633 303.41 689.664 305.473C687.695 307.559 684.953 308.602 681.438 308.602C677.336 308.602 673.797 306.773 670.82 303.117L668.465 305.648C669.848 307.617 671.734 309.188 674.125 310.359C676.539 311.555 679.07 312.152 681.719 312.152C686.406 312.152 690.121 310.723 692.863 307.863C695.605 305.004 696.977 301.125 696.977 296.227V258.961H693.039L692.828 264.445C690.133 260.32 686.195 258.258 681.016 258.258C676.492 258.258 672.906 260.004 670.258 263.496ZM673.492 289.863C671.547 287.051 670.574 283.219 670.574 278.367C670.574 272.953 671.559 268.863 673.527 266.098C675.496 263.309 678.25 261.914 681.789 261.914C684.391 261.914 686.617 262.559 688.469 263.848C690.32 265.113 691.738 266.965 692.723 269.402V287.086C690.566 291.727 686.898 294.047 681.719 294.047C678.18 294.047 675.438 292.652 673.492 289.863ZM708.438 297H712.656V243H708.438V297ZM730.059 295.312C732.684 296.906 735.613 297.703 738.848 297.703C744.73 297.703 749.219 295.465 752.312 290.988L749.676 288.984C748.27 290.789 746.699 292.102 744.965 292.922C743.254 293.742 741.273 294.152 739.023 294.152C735.273 294.152 732.156 292.723 729.672 289.863C727.211 286.98 725.98 283.383 725.98 279.07V278.262H753.121V275.906C753.121 270.445 751.762 266.145 749.043 263.004C746.348 259.84 742.691 258.258 738.074 258.258C735.121 258.258 732.379 259.102 729.848 260.789C727.316 262.453 725.336 264.75 723.906 267.68C722.5 270.609 721.797 273.902 721.797 277.559V279.07C721.797 282.609 722.523 285.809 723.977 288.668C725.43 291.504 727.457 293.719 730.059 295.312ZM730.059 265.324C732.238 263.004 734.91 261.844 738.074 261.844C741.262 261.844 743.84 262.992 745.809 265.289C747.777 267.586 748.82 270.562 748.938 274.219V274.676H726.121C726.59 270.762 727.902 267.645 730.059 265.324Z" fill="#025800" fill-opacity="0.54"/>
<path fill-rule="evenodd" clip-rule="evenodd" d="M71 394C71 371.92 88.92 354 111 354C133.08 354 151 371.92 151 394C151 416.08 133.08 434 111 434C88.92 434 71 416.08 71 394ZM79 394C79 411.64 93.36 426 111 426C128.64 426 143 411.64 143 394C143 376.36 128.64 362 111 362C93.36 362 79 376.36 79 394ZM129.36 376.32L103 402.68L92.64 392.36L87 398L103 414L135 382L129.36 376.32ZM189.18 419H193.398V367.637H192.695L175.258 374.105V378.043L189.18 372.875V419ZM240.648 414.113C243.297 410.363 244.621 404.879 244.621 397.66V388.273C244.527 381.312 243.145 376.051 240.473 372.488C237.801 368.902 233.934 367.109 228.871 367.109C223.738 367.109 219.836 368.961 217.164 372.664C214.492 376.367 213.156 381.816 213.156 389.012V398.188C213.227 405.195 214.609 410.539 217.305 414.219C220 417.875 223.879 419.703 228.941 419.703C234.098 419.703 238 417.84 240.648 414.113ZM237.52 375.195C239.441 378.195 240.402 382.625 240.402 388.484V398.328C240.379 404.164 239.395 408.594 237.449 411.617C235.527 414.641 232.691 416.152 228.941 416.152C225.168 416.152 222.285 414.605 220.293 411.512C218.324 408.418 217.34 403.953 217.34 398.117V388.062C217.387 382.344 218.371 378.02 220.293 375.09C222.215 372.16 225.074 370.695 228.871 370.695C232.738 370.695 235.621 372.195 237.52 375.195ZM254.746 414.395C254.23 414.957 253.973 415.648 253.973 416.469C253.973 417.289 254.23 417.969 254.746 418.508C255.285 419.023 256.023 419.281 256.961 419.281C257.898 419.281 258.637 419.023 259.176 418.508C259.715 417.969 259.984 417.289 259.984 416.469C259.984 415.648 259.715 414.957 259.176 414.395C258.637 413.809 257.898 413.516 256.961 413.516C256.023 413.516 255.285 413.809 254.746 414.395ZM291.59 400.438C293.816 399.219 295.68 397.508 297.18 395.305C297.016 402.078 295.34 407.152 292.152 410.527C288.965 413.902 284.312 415.637 278.195 415.73H276.719L276.684 419.387H277.457C285.543 419.387 291.555 417.066 295.492 412.426C299.43 407.785 301.398 400.848 301.398 391.613V387.816C301.398 381.207 299.969 376.109 297.109 372.523C294.25 368.914 290.254 367.109 285.121 367.109C282.074 367.109 279.379 367.883 277.035 369.43C274.715 370.953 272.898 373.098 271.586 375.863C270.297 378.629 269.652 381.699 269.652 385.074C269.652 388.215 270.262 391.109 271.48 393.758C272.699 396.406 274.422 398.48 276.648 399.98C278.875 401.48 281.441 402.23 284.348 402.23C286.949 402.23 289.363 401.633 291.59 400.438ZM292.434 396.113C290.207 397.777 287.688 398.609 284.875 398.609C281.594 398.609 278.922 397.309 276.859 394.707C274.82 392.082 273.801 388.812 273.801 384.898C273.801 380.82 274.867 377.445 277 374.773C279.133 372.078 281.863 370.73 285.191 370.73C288.871 370.73 291.789 372.172 293.945 375.055C296.125 377.914 297.215 381.945 297.215 387.148V389.574C296.277 392.246 294.684 394.426 292.434 396.113ZM320.523 419L342.391 370.238V367.812H308.746V371.398H337.855L316.129 419H320.523ZM375.121 400.016C376.809 401.656 377.652 403.777 377.652 406.379C377.652 409.238 376.598 411.559 374.488 413.34C372.402 415.121 369.695 416.012 366.367 416.012C362.547 416.012 359.57 414.98 357.438 412.918C355.305 410.832 354.238 407.961 354.238 404.305H350.02C350.02 408.922 351.309 412.566 353.887 415.238C356.465 417.887 360.109 419.363 364.82 419.668V426.312H368.371V419.633C372.566 419.305 375.859 417.969 378.25 415.625C380.664 413.258 381.871 410.152 381.871 406.309C381.871 403.871 381.402 401.785 380.465 400.051C379.551 398.293 378.156 396.781 376.281 395.516C374.43 394.227 371.441 392.891 367.316 391.508C363.215 390.102 360.309 388.613 358.598 387.043C356.887 385.449 356.031 383.246 356.031 380.434C356.031 377.527 356.957 375.207 358.809 373.473C360.684 371.715 363.285 370.836 366.613 370.836C369.918 370.836 372.52 371.926 374.418 374.105C376.34 376.262 377.301 379.18 377.301 382.859H381.484C381.484 378.195 380.348 374.504 378.074 371.785C375.824 369.066 372.637 367.52 368.512 367.145V360.043H364.926V367.145C360.895 367.473 357.707 368.832 355.363 371.223C353.02 373.59 351.848 376.684 351.848 380.504C351.848 384.137 352.914 387.102 355.047 389.398C357.18 391.672 360.895 393.641 366.191 395.305C370.457 396.781 373.434 398.352 375.121 400.016ZM411.93 384.406V419H416.148V384.406H425.219V380.961H416.148V376.25C416.148 373.602 416.793 371.562 418.082 370.133C419.371 368.68 421.176 367.953 423.496 367.953C424.879 367.953 426.156 368.094 427.328 368.375L427.645 364.859C426.262 364.461 424.773 364.262 423.18 364.262C419.641 364.262 416.875 365.305 414.883 367.391C412.914 369.477 411.93 372.465 411.93 376.355V380.961H405.637V384.406H411.93ZM447.473 384.301C448.48 384.301 449.43 384.383 450.32 384.547L450.426 380.715C449.746 380.41 448.82 380.258 447.648 380.258C442.727 380.258 439.152 382.508 436.926 387.008L436.855 380.961H432.742V419H436.926V392.879C437.699 390.09 438.988 387.969 440.793 386.516C442.621 385.039 444.848 384.301 447.473 384.301ZM456.086 389.539C454.68 392.469 453.977 395.762 453.977 399.418V400.262C453.977 406.121 455.547 410.832 458.688 414.395C461.852 417.934 465.953 419.703 470.992 419.703C474.297 419.703 477.238 418.906 479.816 417.312C482.395 415.719 484.387 413.457 485.793 410.527C487.223 407.574 487.938 404.258 487.938 400.578V399.699C487.938 393.84 486.367 389.141 483.227 385.602C480.086 382.039 475.984 380.258 470.922 380.258C467.641 380.258 464.699 381.078 462.098 382.719C459.52 384.336 457.516 386.609 456.086 389.539ZM461.711 411.793C459.367 408.863 458.195 405.125 458.195 400.578V399.805C458.195 395.047 459.379 391.203 461.746 388.273C464.113 385.32 467.172 383.844 470.922 383.844C473.43 383.844 475.656 384.512 477.602 385.848C479.547 387.16 481.059 389.023 482.137 391.438C483.215 393.852 483.754 396.512 483.754 399.418V400.227C483.754 405.008 482.57 408.863 480.203 411.793C477.859 414.699 474.789 416.152 470.992 416.152C467.172 416.152 464.078 414.699 461.711 411.793ZM500.629 387.148L500.488 380.961H496.445V419H500.664V392.914C501.578 389.938 502.984 387.699 504.883 386.199C506.781 384.676 509.055 383.914 511.703 383.914C514.844 383.914 517.164 384.723 518.664 386.34C520.188 387.934 520.961 390.359 520.984 393.617V419H525.203V393.828C525.438 391.086 526.598 388.766 528.684 386.867C530.77 384.945 533.324 383.961 536.348 383.914C539.605 383.914 541.949 384.734 543.379 386.375C544.832 388.016 545.57 390.535 545.594 393.934V419H549.812V393.617C549.648 384.711 545.488 380.258 537.332 380.258C534.59 380.258 532.082 380.902 529.809 382.191C527.535 383.457 525.719 385.273 524.359 387.641C522.742 382.719 518.934 380.258 512.934 380.258C510.355 380.258 508.012 380.832 505.902 381.98C503.793 383.129 502.035 384.852 500.629 387.148ZM609.438 415.414C612.719 412.555 614.652 408.43 615.238 403.039H610.879C610.34 407.375 608.922 410.633 606.625 412.812C604.328 414.969 600.918 416.047 596.395 416.047C591.824 416.047 588.191 414.289 585.496 410.773C582.824 407.258 581.488 402.547 581.488 396.641V390.383C581.488 384.266 582.859 379.473 585.602 376.004C588.367 372.535 592.07 370.801 596.711 370.801C605.078 370.801 609.801 375.148 610.879 383.844H615.238C614.723 378.617 612.871 374.527 609.684 371.574C606.52 368.598 602.195 367.109 596.711 367.109C592.82 367.109 589.375 368.07 586.375 369.992C583.398 371.891 581.113 374.598 579.52 378.113C577.926 381.629 577.129 385.66 577.129 390.207V396.852C577.152 401.328 577.961 405.312 579.555 408.805C581.148 412.273 583.398 414.957 586.305 416.855C589.234 418.754 592.598 419.703 596.395 419.703C601.832 419.703 606.18 418.273 609.438 415.414ZM634.258 382.121C632.102 383.363 630.332 385.121 628.949 387.395V365H624.766V419H628.949V392.949C629.91 390.184 631.387 387.992 633.379 386.375C635.395 384.734 637.703 383.914 640.305 383.914C643.422 383.914 645.684 384.746 647.09 386.41C648.52 388.074 649.246 390.605 649.27 394.004V419H653.453V394.039C653.43 389.445 652.422 386 650.43 383.703C648.438 381.406 645.402 380.258 641.324 380.258C638.77 380.258 636.414 380.879 634.258 382.121ZM687.484 413.691C687.602 416.035 687.871 417.805 688.293 419H692.793V418.578C692.02 416.75 691.633 413.996 691.633 410.316V392.316C691.562 388.52 690.297 385.566 687.836 383.457C685.398 381.324 682.059 380.258 677.816 380.258C673.715 380.258 670.258 381.371 667.445 383.598C664.633 385.801 663.227 388.414 663.227 391.438L667.445 391.473C667.445 389.363 668.406 387.559 670.328 386.059C672.25 384.559 674.676 383.809 677.605 383.809C680.816 383.809 683.254 384.594 684.918 386.164C686.605 387.711 687.449 389.844 687.449 392.562V396.887H679.82C674.312 396.887 670.012 397.965 666.918 400.121C663.848 402.277 662.312 405.207 662.312 408.91C662.312 412.027 663.438 414.605 665.688 416.645C667.961 418.684 670.926 419.703 674.582 419.703C677.137 419.703 679.551 419.188 681.824 418.156C684.121 417.102 686.008 415.613 687.484 413.691ZM682.598 413.938C680.395 415.297 677.887 415.977 675.074 415.977C672.543 415.977 670.48 415.273 668.887 413.867C667.316 412.461 666.531 410.691 666.531 408.559C666.531 405.957 667.715 403.918 670.082 402.441C672.449 400.941 675.73 400.168 679.926 400.121H687.449V408.488C686.441 410.762 684.824 412.578 682.598 413.938ZM706.855 387.148L706.715 380.961H702.672V419H706.891V392.914C707.805 389.938 709.211 387.699 711.109 386.199C713.008 384.676 715.281 383.914 717.93 383.914C721.07 383.914 723.391 384.723 724.891 386.34C726.414 387.934 727.188 390.359 727.211 393.617V419H731.43V393.828C731.664 391.086 732.824 388.766 734.91 386.867C736.996 384.945 739.551 383.961 742.574 383.914C745.832 383.914 748.176 384.734 749.605 386.375C751.059 388.016 751.797 390.535 751.82 393.934V419H756.039V393.617C755.875 384.711 751.715 380.258 743.559 380.258C740.816 380.258 738.309 380.902 736.035 382.191C733.762 383.457 731.945 385.273 730.586 387.641C728.969 382.719 725.16 380.258 719.16 380.258C716.582 380.258 714.238 380.832 712.129 381.98C710.02 383.129 708.262 384.852 706.855 387.148ZM793.375 414.5C796 411.008 797.312 406.297 797.312 400.367V399.77C797.312 393.652 796.012 388.871 793.41 385.426C790.832 381.98 787.27 380.258 782.723 380.258C777.52 380.258 773.547 382.285 770.805 386.34L770.594 380.961H766.691V433.625H770.875V414.219C773.641 417.875 777.625 419.703 782.828 419.703C787.234 419.703 790.75 417.969 793.375 414.5ZM790.105 388.133C792.098 390.945 793.094 394.777 793.094 399.629C793.094 404.996 792.098 409.098 790.105 411.934C788.137 414.746 785.383 416.152 781.844 416.152C779.289 416.152 777.074 415.578 775.199 414.43C773.324 413.281 771.883 411.617 770.875 409.438V391.191C771.859 388.824 773.277 387.02 775.129 385.777C776.98 384.535 779.195 383.914 781.773 383.914C785.336 383.914 788.113 385.32 790.105 388.133ZM807.156 419H811.375V380.961H807.156V419ZM807.191 367.953C806.676 368.492 806.418 369.16 806.418 369.957C806.418 370.754 806.676 371.422 807.191 371.961C807.707 372.5 808.41 372.77 809.301 372.77C810.191 372.77 810.895 372.5 811.41 371.961C811.949 371.422 812.219 370.754 812.219 369.957C812.219 369.16 811.949 368.492 811.41 367.953C810.895 367.391 810.191 367.109 809.301 367.109C808.41 367.109 807.707 367.391 807.191 367.953ZM822.625 389.539C821.219 392.469 820.516 395.762 820.516 399.418V400.262C820.516 406.121 822.086 410.832 825.227 414.395C828.391 417.934 832.492 419.703 837.531 419.703C840.836 419.703 843.777 418.906 846.355 417.312C848.934 415.719 850.926 413.457 852.332 410.527C853.762 407.574 854.477 404.258 854.477 400.578V399.699C854.477 393.84 852.906 389.141 849.766 385.602C846.625 382.039 842.523 380.258 837.461 380.258C834.18 380.258 831.238 381.078 828.637 382.719C826.059 384.336 824.055 386.609 822.625 389.539ZM828.25 411.793C825.906 408.863 824.734 405.125 824.734 400.578V399.805C824.734 395.047 825.918 391.203 828.285 388.273C830.652 385.32 833.711 383.844 837.461 383.844C839.969 383.844 842.195 384.512 844.141 385.848C846.086 387.16 847.598 389.023 848.676 391.438C849.754 393.852 850.293 396.512 850.293 399.418V400.227C850.293 405.008 849.109 408.863 846.742 411.793C844.398 414.699 841.328 416.152 837.531 416.152C833.711 416.152 830.617 414.699 828.25 411.793ZM867.344 387.465L867.203 380.961H863.195V419H867.379V392.949C868.34 390.184 869.816 387.992 871.809 386.375C873.824 384.734 876.133 383.914 878.734 383.914C881.852 383.914 884.113 384.746 885.52 386.41C886.949 388.074 887.676 390.605 887.699 394.004V419H891.883V394.039C891.859 389.445 890.852 386 888.859 383.703C886.867 381.406 883.832 380.258 879.754 380.258C877.176 380.258 874.82 380.879 872.688 382.121C870.555 383.34 868.773 385.121 867.344 387.465ZM951.719 415.414C955 412.555 956.934 408.43 957.52 403.039H953.16C952.621 407.375 951.203 410.633 948.906 412.812C946.609 414.969 943.199 416.047 938.676 416.047C934.105 416.047 930.473 414.289 927.777 410.773C925.105 407.258 923.77 402.547 923.77 396.641V390.383C923.77 384.266 925.141 379.473 927.883 376.004C930.648 372.535 934.352 370.801 938.992 370.801C947.359 370.801 952.082 375.148 953.16 383.844H957.52C957.004 378.617 955.152 374.527 951.965 371.574C948.801 368.598 944.477 367.109 938.992 367.109C935.102 367.109 931.656 368.07 928.656 369.992C925.68 371.891 923.395 374.598 921.801 378.113C920.207 381.629 919.41 385.66 919.41 390.207V396.852C919.434 401.328 920.242 405.312 921.836 408.805C923.43 412.273 925.68 414.957 928.586 416.855C931.516 418.754 934.879 419.703 938.676 419.703C944.113 419.703 948.461 418.273 951.719 415.414ZM967.539 419H971.758V365H967.539V419ZM983.008 389.539C981.602 392.469 980.898 395.762 980.898 399.418V400.262C980.898 406.121 982.469 410.832 985.609 414.395C988.773 417.934 992.875 419.703 997.914 419.703C1001.22 419.703 1004.16 418.906 1006.74 417.312C1009.32 415.719 1011.31 413.457 1012.71 410.527C1014.14 407.574 1014.86 404.258 1014.86 400.578V399.699C1014.86 393.84 1013.29 389.141 1010.15 385.602C1007.01 382.039 1002.91 380.258 997.844 380.258C994.562 380.258 991.621 381.078 989.02 382.719C986.441 384.336 984.438 386.609 983.008 389.539ZM988.633 411.793C986.289 408.863 985.117 405.125 985.117 400.578V399.805C985.117 395.047 986.301 391.203 988.668 388.273C991.035 385.32 994.094 383.844 997.844 383.844C1000.35 383.844 1002.58 384.512 1004.52 385.848C1006.47 387.16 1007.98 389.023 1009.06 391.438C1010.14 393.852 1010.68 396.512 1010.68 399.418V400.227C1010.68 405.008 1009.49 408.863 1007.12 411.793C1004.78 414.699 1001.71 416.152 997.914 416.152C994.094 416.152 991 414.699 988.633 411.793ZM1030.12 380.961V371.223H1025.9V380.961H1018.9V384.406H1025.9V409.789C1025.9 413.047 1026.55 415.52 1027.87 417.207C1029.18 418.871 1031.28 419.703 1034.16 419.703C1036.06 419.703 1037.56 419.504 1038.66 419.105L1038.48 415.66C1036.91 415.895 1035.78 416.012 1035.07 416.012C1033.29 416.012 1032.02 415.496 1031.24 414.465C1030.49 413.434 1030.12 411.863 1030.12 409.754V384.406H1037.99V380.961H1030.12ZM1056.2 382.121C1054.05 383.363 1052.28 385.121 1050.89 387.395V365H1046.71V419H1050.89V392.949C1051.86 390.184 1053.33 387.992 1055.32 386.375C1057.34 384.734 1059.65 383.914 1062.25 383.914C1065.37 383.914 1067.63 384.746 1069.04 386.41C1070.46 388.074 1071.19 390.605 1071.21 394.004V419H1075.4V394.039C1075.38 389.445 1074.37 386 1072.38 383.703C1070.38 381.406 1067.35 380.258 1063.27 380.258C1060.71 380.258 1058.36 380.879 1056.2 382.121ZM1086.72 419H1090.94V380.961H1086.72V419ZM1086.75 367.953C1086.24 368.492 1085.98 369.16 1085.98 369.957C1085.98 370.754 1086.24 371.422 1086.75 371.961C1087.27 372.5 1087.97 372.77 1088.86 372.77C1089.75 372.77 1090.46 372.5 1090.97 371.961C1091.51 371.422 1091.78 370.754 1091.78 369.957C1091.78 369.16 1091.51 368.492 1090.97 367.953C1090.46 367.391 1089.75 367.109 1088.86 367.109C1087.97 367.109 1087.27 367.391 1086.75 367.953ZM1106.55 387.465L1106.41 380.961H1102.4V419H1106.58V392.949C1107.54 390.184 1109.02 387.992 1111.01 386.375C1113.03 384.734 1115.34 383.914 1117.94 383.914C1121.05 383.914 1123.32 384.746 1124.72 386.41C1126.15 388.074 1126.88 390.605 1126.9 394.004V419H1131.09V394.039C1131.06 389.445 1130.05 386 1128.06 383.703C1126.07 381.406 1123.04 380.258 1118.96 380.258C1116.38 380.258 1114.02 380.879 1111.89 382.121C1109.76 383.34 1107.98 385.121 1106.55 387.465ZM1144.23 385.496C1141.61 388.965 1140.3 393.676 1140.3 399.629V400.191C1140.3 406.168 1141.63 410.914 1144.3 414.43C1146.98 417.945 1150.52 419.703 1154.92 419.703C1160.08 419.703 1164 417.828 1166.7 414.078V418.859C1166.63 422.539 1165.61 425.41 1163.64 427.473C1161.67 429.559 1158.93 430.602 1155.41 430.602C1151.31 430.602 1147.77 428.773 1144.8 425.117L1142.44 427.648C1143.82 429.617 1145.71 431.188 1148.1 432.359C1150.52 433.555 1153.05 434.152 1155.7 434.152C1160.38 434.152 1164.1 432.723 1166.84 429.863C1169.58 427.004 1170.95 423.125 1170.95 418.227V380.961H1167.02L1166.8 386.445C1164.11 382.32 1160.17 380.258 1154.99 380.258C1150.47 380.258 1146.88 382.004 1144.23 385.496ZM1147.47 411.863C1145.52 409.051 1144.55 405.219 1144.55 400.367C1144.55 394.953 1145.54 390.863 1147.5 388.098C1149.47 385.309 1152.23 383.914 1155.77 383.914C1158.37 383.914 1160.59 384.559 1162.45 385.848C1164.3 387.113 1165.71 388.965 1166.7 391.402V409.086C1164.54 413.727 1160.88 416.047 1155.7 416.047C1152.16 416.047 1149.41 414.652 1147.47 411.863Z" fill="#025800" fill-opacity="0.54"/>
<path fill-rule="evenodd" clip-rule="evenodd" d="M71 516C71 493.92 88.92 476 111 476C133.08 476 151 493.92 151 516C151 538.08 133.08 556 111 556C88.92 556 71 538.08 71 516ZM79 516C79 533.64 93.36 548 111 548C128.64 548 143 533.64 143 516C143 498.36 128.64 484 111 484C93.36 484 79 498.36 79 516ZM129.36 498.32L103 524.68L92.64 514.36L87 520L103 536L135 504L129.36 498.32ZM173.816 541H205.879V537.449H178.984L193.258 521.312C197.008 517.07 199.621 513.531 201.098 510.695C202.598 507.859 203.348 505.246 203.348 502.855C203.348 498.613 202.023 495.262 199.375 492.801C196.75 490.34 193.094 489.109 188.406 489.109C185.336 489.109 182.594 489.789 180.18 491.148C177.789 492.484 175.938 494.336 174.625 496.703C173.336 499.07 172.691 501.695 172.691 504.578H176.875C176.875 501.062 177.93 498.203 180.039 496C182.172 493.797 184.961 492.695 188.406 492.695C191.734 492.695 194.348 493.645 196.246 495.543C198.145 497.418 199.094 499.973 199.094 503.207C199.094 505.27 198.531 507.391 197.406 509.57C196.281 511.75 194.266 514.516 191.359 517.867L173.816 537.766V541ZM214.809 536.395C214.293 536.957 214.035 537.648 214.035 538.469C214.035 539.289 214.293 539.969 214.809 540.508C215.348 541.023 216.086 541.281 217.023 541.281C217.961 541.281 218.699 541.023 219.238 540.508C219.777 539.969 220.047 539.289 220.047 538.469C220.047 537.648 219.777 536.957 219.238 536.395C218.699 535.809 217.961 535.516 217.023 535.516C216.086 535.516 215.348 535.809 214.809 536.395ZM244.691 513.121H240.332V516.707H244.551C248.816 516.707 252.039 517.609 254.219 519.414C256.422 521.219 257.523 523.832 257.523 527.254C257.523 530.793 256.504 533.5 254.465 535.375C252.449 537.227 249.625 538.152 245.992 538.152C242.43 538.152 239.512 537.133 237.238 535.094C234.965 533.031 233.828 530.371 233.828 527.113H229.609C229.609 530.02 230.301 532.574 231.684 534.777C233.09 536.957 235.059 538.656 237.59 539.875C240.145 541.094 242.945 541.703 245.992 541.703C250.773 541.703 254.594 540.367 257.453 537.695C260.312 535.023 261.742 531.496 261.742 527.113C261.742 524.113 260.922 521.535 259.281 519.379C257.641 517.199 255.227 515.664 252.039 514.773C254.758 513.742 256.891 512.195 258.438 510.133C260.008 508.047 260.793 505.773 260.793 503.312C260.793 498.906 259.457 495.438 256.785 492.906C254.113 490.375 250.457 489.109 245.816 489.109C242.934 489.109 240.309 489.707 237.941 490.902C235.574 492.098 233.723 493.797 232.387 496C231.051 498.18 230.383 500.594 230.383 503.242H234.602C234.602 500.078 235.645 497.535 237.73 495.613C239.84 493.668 242.535 492.695 245.816 492.695C249.285 492.695 251.945 493.621 253.797 495.473C255.648 497.324 256.574 499.891 256.574 503.172C256.574 505.117 256.094 506.84 255.133 508.34C254.195 509.816 252.824 510.988 251.02 511.855C249.215 512.699 247.105 513.121 244.691 513.121ZM284.629 513.121H280.27V516.707H284.488C288.754 516.707 291.977 517.609 294.156 519.414C296.359 521.219 297.461 523.832 297.461 527.254C297.461 530.793 296.441 533.5 294.402 535.375C292.387 537.227 289.562 538.152 285.93 538.152C282.367 538.152 279.449 537.133 277.176 535.094C274.902 533.031 273.766 530.371 273.766 527.113H269.547C269.547 530.02 270.238 532.574 271.621 534.777C273.027 536.957 274.996 538.656 277.527 539.875C280.082 541.094 282.883 541.703 285.93 541.703C290.711 541.703 294.531 540.367 297.391 537.695C300.25 535.023 301.68 531.496 301.68 527.113C301.68 524.113 300.859 521.535 299.219 519.379C297.578 517.199 295.164 515.664 291.977 514.773C294.695 513.742 296.828 512.195 298.375 510.133C299.945 508.047 300.73 505.773 300.73 503.312C300.73 498.906 299.395 495.438 296.723 492.906C294.051 490.375 290.395 489.109 285.754 489.109C282.871 489.109 280.246 489.707 277.879 490.902C275.512 492.098 273.66 493.797 272.324 496C270.988 498.18 270.32 500.594 270.32 503.242H274.539C274.539 500.078 275.582 497.535 277.668 495.613C279.777 493.668 282.473 492.695 285.754 492.695C289.223 492.695 291.883 493.621 293.734 495.473C295.586 497.324 296.512 499.891 296.512 503.172C296.512 505.117 296.031 506.84 295.07 508.34C294.133 509.816 292.762 510.988 290.957 511.855C289.152 512.699 287.043 513.121 284.629 513.121ZM335.184 522.016C336.871 523.656 337.715 525.777 337.715 528.379C337.715 531.238 336.66 533.559 334.551 535.34C332.465 537.121 329.758 538.012 326.43 538.012C322.609 538.012 319.633 536.98 317.5 534.918C315.367 532.832 314.301 529.961 314.301 526.305H310.082C310.082 530.922 311.371 534.566 313.949 537.238C316.527 539.887 320.172 541.363 324.883 541.668V548.312H328.434V541.633C332.629 541.305 335.922 539.969 338.312 537.625C340.727 535.258 341.934 532.152 341.934 528.309C341.934 525.871 341.465 523.785 340.527 522.051C339.613 520.293 338.219 518.781 336.344 517.516C334.492 516.227 331.504 514.891 327.379 513.508C323.277 512.102 320.371 510.613 318.66 509.043C316.949 507.449 316.094 505.246 316.094 502.434C316.094 499.527 317.02 497.207 318.871 495.473C320.746 493.715 323.348 492.836 326.676 492.836C329.98 492.836 332.582 493.926 334.48 496.105C336.402 498.262 337.363 501.18 337.363 504.859H341.547C341.547 500.195 340.41 496.504 338.137 493.785C335.887 491.066 332.699 489.52 328.574 489.145V482.043H324.988V489.145C320.957 489.473 317.77 490.832 315.426 493.223C313.082 495.59 311.91 498.684 311.91 502.504C311.91 506.137 312.977 509.102 315.109 511.398C317.242 513.672 320.957 515.641 326.254 517.305C330.52 518.781 333.496 520.352 335.184 522.016ZM371.992 506.406V541H376.211V506.406H385.281V502.961H376.211V498.25C376.211 495.602 376.855 493.562 378.145 492.133C379.434 490.68 381.238 489.953 383.559 489.953C384.941 489.953 386.219 490.094 387.391 490.375L387.707 486.859C386.324 486.461 384.836 486.262 383.242 486.262C379.703 486.262 376.938 487.305 374.945 489.391C372.977 491.477 371.992 494.465 371.992 498.355V502.961H365.699V506.406H371.992ZM407.535 506.301C408.543 506.301 409.492 506.383 410.383 506.547L410.488 502.715C409.809 502.41 408.883 502.258 407.711 502.258C402.789 502.258 399.215 504.508 396.988 509.008L396.918 502.961H392.805V541H396.988V514.879C397.762 512.09 399.051 509.969 400.855 508.516C402.684 507.039 404.91 506.301 407.535 506.301ZM416.148 511.539C414.742 514.469 414.039 517.762 414.039 521.418V522.262C414.039 528.121 415.609 532.832 418.75 536.395C421.914 539.934 426.016 541.703 431.055 541.703C434.359 541.703 437.301 540.906 439.879 539.312C442.457 537.719 444.449 535.457 445.855 532.527C447.285 529.574 448 526.258 448 522.578V521.699C448 515.84 446.43 511.141 443.289 507.602C440.148 504.039 436.047 502.258 430.984 502.258C427.703 502.258 424.762 503.078 422.16 504.719C419.582 506.336 417.578 508.609 416.148 511.539ZM421.773 533.793C419.43 530.863 418.258 527.125 418.258 522.578V521.805C418.258 517.047 419.441 513.203 421.809 510.273C424.176 507.32 427.234 505.844 430.984 505.844C433.492 505.844 435.719 506.512 437.664 507.848C439.609 509.16 441.121 511.023 442.199 513.438C443.277 515.852 443.816 518.512 443.816 521.418V522.227C443.816 527.008 442.633 530.863 440.266 533.793C437.922 536.699 434.852 538.152 431.055 538.152C427.234 538.152 424.141 536.699 421.773 533.793ZM460.691 509.148L460.551 502.961H456.508V541H460.727V514.914C461.641 511.938 463.047 509.699 464.945 508.199C466.844 506.676 469.117 505.914 471.766 505.914C474.906 505.914 477.227 506.723 478.727 508.34C480.25 509.934 481.023 512.359 481.047 515.617V541H485.266V515.828C485.5 513.086 486.66 510.766 488.746 508.867C490.832 506.945 493.387 505.961 496.41 505.914C499.668 505.914 502.012 506.734 503.441 508.375C504.895 510.016 505.633 512.535 505.656 515.934V541H509.875V515.617C509.711 506.711 505.551 502.258 497.395 502.258C494.652 502.258 492.145 502.902 489.871 504.191C487.598 505.457 485.781 507.273 484.422 509.641C482.805 504.719 478.996 502.258 472.996 502.258C470.418 502.258 468.074 502.832 465.965 503.98C463.855 505.129 462.098 506.852 460.691 509.148ZM572.84 541H577.164V489.812H572.875V533.652L543.414 489.812H539.055V541H543.414V497.195L572.84 541ZM589.68 541H593.898V502.961H589.68V541ZM589.715 489.953C589.199 490.492 588.941 491.16 588.941 491.957C588.941 492.754 589.199 493.422 589.715 493.961C590.23 494.5 590.934 494.77 591.824 494.77C592.715 494.77 593.418 494.5 593.934 493.961C594.473 493.422 594.742 492.754 594.742 491.957C594.742 491.16 594.473 490.492 593.934 489.953C593.418 489.391 592.715 489.109 591.824 489.109C590.934 489.109 590.23 489.391 589.715 489.953ZM609.578 526.48L614.395 521.84L629.793 541H634.82L617.277 518.992L633.414 502.961H628.105L613.551 517.27L609.578 521.559V487H605.359V541H609.578V526.48ZM645.895 539.312C648.52 540.906 651.449 541.703 654.684 541.703C660.566 541.703 665.055 539.465 668.148 534.988L665.512 532.984C664.105 534.789 662.535 536.102 660.801 536.922C659.09 537.742 657.109 538.152 654.859 538.152C651.109 538.152 647.992 536.723 645.508 533.863C643.047 530.98 641.816 527.383 641.816 523.07V522.262H668.957V519.906C668.957 514.445 667.598 510.145 664.879 507.004C662.184 503.84 658.527 502.258 653.91 502.258C650.957 502.258 648.215 503.102 645.684 504.789C643.152 506.453 641.172 508.75 639.742 511.68C638.336 514.609 637.633 517.902 637.633 521.559V523.07C637.633 526.609 638.359 529.809 639.812 532.668C641.266 535.504 643.293 537.719 645.895 539.312ZM645.895 509.324C648.074 507.004 650.746 505.844 653.91 505.844C657.098 505.844 659.676 506.992 661.645 509.289C663.613 511.586 664.656 514.562 664.773 518.219V518.676H641.957C642.426 514.762 643.738 511.645 645.895 509.324Z" fill="#025800" fill-opacity="0.54"/>
<path opacity="0.54" fill-rule="evenodd" clip-rule="evenodd" d="M1355.67 73.0666L1351.93 69.3333L1337 84.2666L1322.07 69.3333L1318.33 73.0666L1333.27 87.9999L1318.33 102.933L1322.07 106.667L1337 91.7332L1351.93 106.667L1355.67 102.933L1340.73 87.9999L1355.67 73.0666Z" fill="black"/>
<path opacity="0.54" fill-rule="evenodd" clip-rule="evenodd" d="M1265 77.3332C1267.93 77.3332 1270.33 74.9332 1270.33 71.9998C1270.33 69.0665 1267.93 66.6665 1265 66.6665C1262.07 66.6665 1259.67 69.0665 1259.67 71.9998C1259.67 74.9332 1262.07 77.3332 1265 77.3332V77.3332ZM1265 82.6665C1262.07 82.6665 1259.67 85.0665 1259.67 87.9999C1259.67 90.9332 1262.07 93.3332 1265 93.3332C1267.93 93.3332 1270.33 90.9332 1270.33 87.9999C1270.33 85.0665 1267.93 82.6665 1265 82.6665V82.6665ZM1265 98.6665C1262.07 98.6665 1259.67 101.067 1259.67 104C1259.67 106.933 1262.07 109.333 1265 109.333C1267.93 109.333 1270.33 106.933 1270.33 104C1270.33 101.067 1267.93 98.6665 1265 98.6665V98.6665Z" fill="black"/>
<defs>
<filter id="filter0_d" x="0" y="0" width="1418" height="900" filterUnits="userSpaceOnUse" color-interpolation-filters="sRGB">
<feFlood flood-opacity="0" result="BackgroundImageFix"/>
<feColorMatrix in="SourceAlpha" type="matrix" values="0 0 0 0 0 0 0 0 0 0 0 0 0 0 0 0 0 0 127 0"/>
<feOffset dy="2"/>
<feGaussianBlur stdDeviation="5"/>
<feColorMatrix type="matrix" values="0 0 0 0 0 0 0 0 0 0 0 0 0 0 0 0 0 0 0.35 0"/>
<feBlend mode="normal" in2="BackgroundImageFix" result="effect1_dropShadow"/>
<feBlend mode="normal" in="SourceGraphic" in2="effect1_dropShadow" result="shape"/>
</filter>
<filter id="filter1_dd" x="457" y="713" width="504" height="116" filterUnits="userSpaceOnUse" color-interpolation-filters="sRGB">
<feFlood flood-opacity="0" result="BackgroundImageFix"/>
<feColorMatrix in="SourceAlpha" type="matrix" values="0 0 0 0 0 0 0 0 0 0 0 0 0 0 0 0 0 0 127 0"/>
<feOffset dy="2"/>
<feGaussianBlur stdDeviation="1"/>
<feColorMatrix type="matrix" values="0 0 0 0 0 0 0 0 0 0 0 0 0 0 0 0 0 0 0.24 0"/>
<feBlend mode="normal" in2="BackgroundImageFix" result="effect1_dropShadow"/>
<feColorMatrix in="SourceAlpha" type="matrix" values="0 0 0 0 0 0 0 0 0 0 0 0 0 0 0 0 0 0 127 0"/>
<feOffset/>
<feGaussianBlur stdDeviation="1"/>
<feColorMatrix type="matrix" values="0 0 0 0 0 0 0 0 0 0 0 0 0 0 0 0 0 0 0.12 0"/>
<feBlend mode="normal" in2="effect1_dropShadow" result="effect2_dropShadow"/>
<feBlend mode="normal" in="SourceGraphic" in2="effect2_dropShadow" result="shape"/>
</filter>
</defs>
</svg>
