<svg width="1062" height="987" viewBox="0 0 1062 987" fill="none" xmlns="http://www.w3.org/2000/svg">
<g filter="url(#filter0_d)">
<rect x="9" y="8" width="1042" height="967" rx="10" fill="white"/>
<path d="M73.9062 101.172V130H71.375V61.75H92.7031C99.6719 61.75 105.078 63.5156 108.922 67.0469C112.797 70.5469 114.734 75.4219 114.734 81.6719C114.734 87.8594 112.844 92.6406 109.062 96.0156C105.312 99.3906 99.9688 101.109 93.0312 101.172H73.9062ZM73.9062 98.6406H92.7031C98.8594 98.6406 103.641 97.1562 107.047 94.1875C110.484 91.2188 112.203 87.0781 112.203 81.7656C112.203 76.2656 110.484 71.9844 107.047 68.9219C103.641 65.8281 98.8594 64.2812 92.7031 64.2812H73.9062V98.6406ZM155 100.797H131.328V130H128.797V61.75H150.547C157.391 61.75 162.828 63.5156 166.859 67.0469C170.922 70.5781 172.953 75.375 172.953 81.4375C172.953 86.0938 171.5 90.1719 168.594 93.6719C165.719 97.1406 162.047 99.2969 157.578 100.141L175.812 129.344V130H173.141L155 100.797ZM131.328 98.2656H152.844C158.094 98.2656 162.328 96.6719 165.547 93.4844C168.797 90.2969 170.422 86.2812 170.422 81.4375C170.422 76.125 168.625 71.9375 165.031 68.875C161.469 65.8125 156.578 64.2812 150.359 64.2812H131.328V98.2656ZM228.594 96.1562H194.375V127.469H233.375V130H191.844V61.75H233.375V64.2812H194.375V93.625H228.594V96.1562ZM284 96.4375H249.031V130H246.5V61.75H288.781V64.2812H249.031V93.8125H284V96.4375ZM338.188 96.1562H303.969V127.469H342.969V130H301.438V61.75H342.969V64.2812H303.969V93.625H338.188V96.1562ZM382.062 100.797H358.391V130H355.859V61.75H377.609C384.453 61.75 389.891 63.5156 393.922 67.0469C397.984 70.5781 400.016 75.375 400.016 81.4375C400.016 86.0938 398.562 90.1719 395.656 93.6719C392.781 97.1406 389.109 99.2969 384.641 100.141L402.875 129.344V130H400.203L382.062 100.797ZM358.391 98.2656H379.906C385.156 98.2656 389.391 96.6719 392.609 93.4844C395.859 90.2969 397.484 86.2812 397.484 81.4375C397.484 76.125 395.688 71.9375 392.094 68.875C388.531 65.8125 383.641 64.2812 377.422 64.2812H358.391V98.2656ZM455.656 96.1562H421.438V127.469H460.438V130H418.906V61.75H460.438V64.2812H421.438V93.625H455.656V96.1562ZM522.734 130H520.203L476.141 66.0625V130H473.562V61.75H476.141L520.203 125.547V61.75H522.734V130ZM587.938 109.094C587.281 116.125 584.859 121.531 580.672 125.312C576.484 129.062 570.797 130.938 563.609 130.938C558.766 130.938 554.469 129.719 550.719 127.281C547 124.812 544.109 121.328 542.047 116.828C539.984 112.297 538.938 107.125 538.906 101.312V90.7656C538.906 84.9531 539.922 79.7656 541.953 75.2031C543.984 70.6094 546.875 67.0625 550.625 64.5625C554.406 62.0625 558.734 60.8125 563.609 60.8125C570.734 60.8125 576.406 62.6875 580.625 66.4375C584.844 70.1875 587.281 75.5625 587.938 82.5625H585.406C584.688 76.2812 582.5 71.5156 578.844 68.2656C575.188 64.9844 570.109 63.3438 563.609 63.3438C556.984 63.3438 551.625 65.8438 547.531 70.8438C543.469 75.8438 541.438 82.5469 541.438 90.9531V100.984C541.438 106.359 542.344 111.125 544.156 115.281C545.969 119.406 548.562 122.625 551.938 124.938C555.344 127.25 559.234 128.406 563.609 128.406C570.141 128.406 575.234 126.797 578.891 123.578C582.578 120.359 584.75 115.531 585.406 109.094H587.938ZM640.531 96.1562H606.312V127.469H645.312V130H603.781V61.75H645.312V64.2812H606.312V93.625H640.531V96.1562ZM699.312 113.641C699.312 110.734 698.625 108.281 697.25 106.281C695.906 104.25 693.766 102.469 690.828 100.938C687.922 99.375 683.516 97.7812 677.609 96.1562C671.703 94.5312 667.266 92.8906 664.297 91.2344C661.359 89.5781 659.203 87.6562 657.828 85.4688C656.453 83.2812 655.766 80.625 655.766 77.5C655.766 72.5312 657.859 68.5156 662.047 65.4531C666.234 62.3594 671.688 60.8125 678.406 60.8125C682.781 60.8125 686.703 61.6719 690.172 63.3906C693.672 65.0781 696.375 67.4688 698.281 70.5625C700.188 73.625 701.141 77.0938 701.141 80.9688H698.609C698.609 75.875 696.734 71.6719 692.984 68.3594C689.234 65.0156 684.375 63.3438 678.406 63.3438C672.406 63.3438 667.547 64.6875 663.828 67.375C660.141 70.0312 658.297 73.375 658.297 77.4062C658.297 81.5 659.906 84.7969 663.125 87.2969C666.344 89.7969 671.656 92.0156 679.062 93.9531C686.469 95.8594 691.891 98.0781 695.328 100.609C699.703 103.828 701.891 108.141 701.891 113.547C701.891 116.984 700.922 120.031 698.984 122.688C697.047 125.312 694.297 127.344 690.734 128.781C687.172 130.219 683.172 130.938 678.734 130.938C673.797 130.938 669.359 130.125 665.422 128.5C661.484 126.844 658.516 124.5 656.516 121.469C654.547 118.438 653.562 114.859 653.562 110.734H656.094C656.094 116.328 658.188 120.672 662.375 123.766C666.562 126.859 672.016 128.406 678.734 128.406C684.703 128.406 689.625 127.047 693.5 124.328C697.375 121.578 699.312 118.016 699.312 113.641Z" fill="black"/>
<path d="M70.9373 149H706.039" stroke="black"/>
<rect width="619" height="100" transform="translate(42 190)" fill="white"/>
<rect x="62.5" y="190.5" width="99" height="99" rx="9.5" fill="white" stroke="black"/>
<path d="M219.125 248.82C219.125 247.367 218.781 246.141 218.094 245.141C217.422 244.125 216.352 243.234 214.883 242.469C213.43 241.688 211.227 240.891 208.273 240.078C205.32 239.266 203.102 238.445 201.617 237.617C200.148 236.789 199.07 235.828 198.383 234.734C197.695 233.641 197.352 232.312 197.352 230.75C197.352 228.266 198.398 226.258 200.492 224.727C202.586 223.18 205.312 222.406 208.672 222.406C210.859 222.406 212.82 222.836 214.555 223.695C216.305 224.539 217.656 225.734 218.609 227.281C219.562 228.812 220.039 230.547 220.039 232.484H218.773C218.773 229.938 217.836 227.836 215.961 226.18C214.086 224.508 211.656 223.672 208.672 223.672C205.672 223.672 203.242 224.344 201.383 225.688C199.539 227.016 198.617 228.688 198.617 230.703C198.617 232.75 199.422 234.398 201.031 235.648C202.641 236.898 205.297 238.008 209 238.977C212.703 239.93 215.414 241.039 217.133 242.305C219.32 243.914 220.414 246.07 220.414 248.773C220.414 250.492 219.93 252.016 218.961 253.344C217.992 254.656 216.617 255.672 214.836 256.391C213.055 257.109 211.055 257.469 208.836 257.469C206.367 257.469 204.148 257.062 202.18 256.25C200.211 255.422 198.727 254.25 197.727 252.734C196.742 251.219 196.25 249.43 196.25 247.367H197.516C197.516 250.164 198.562 252.336 200.656 253.883C202.75 255.43 205.477 256.203 208.836 256.203C211.82 256.203 214.281 255.523 216.219 254.164C218.156 252.789 219.125 251.008 219.125 248.82ZM227.703 237.547C228.531 235.578 229.75 234.023 231.359 232.883C232.969 231.742 234.75 231.172 236.703 231.172C239.422 231.172 241.438 231.945 242.75 233.492C244.078 235.023 244.75 237.344 244.766 240.453V257H243.5V240.406C243.484 237.688 242.93 235.68 241.836 234.383C240.742 233.07 239.008 232.414 236.633 232.414C234.445 232.414 232.547 233.195 230.938 234.758C229.344 236.305 228.266 238.305 227.703 240.758V257H226.438V221H227.703V237.547ZM254.305 257H253.039V231.641H254.305V257ZM252.383 223.719C252.383 223.359 252.508 223.055 252.758 222.805C253.008 222.539 253.312 222.406 253.672 222.406C254.031 222.406 254.336 222.539 254.586 222.805C254.852 223.055 254.984 223.359 254.984 223.719C254.984 224.078 254.852 224.383 254.586 224.633C254.336 224.883 254.031 225.008 253.672 225.008C253.312 225.008 253.008 224.883 252.758 224.633C252.508 224.383 252.383 224.078 252.383 223.719ZM282.008 244.555C282.008 248.508 281.156 251.648 279.453 253.977C277.75 256.305 275.43 257.469 272.492 257.469C270.57 257.469 268.859 257.078 267.359 256.297C265.859 255.516 264.688 254.438 263.844 253.062V266.75H262.578V231.641H263.844V236.164C264.719 234.555 265.898 233.32 267.383 232.461C268.867 231.602 270.555 231.172 272.445 231.172C275.414 231.172 277.75 232.312 279.453 234.594C281.156 236.859 282.008 240.047 282.008 244.156V244.555ZM280.719 244.062C280.719 240.422 279.992 237.578 278.539 235.531C277.102 233.469 275.078 232.438 272.469 232.438C270.344 232.438 268.539 232.992 267.055 234.102C265.57 235.195 264.5 236.773 263.844 238.836V250.695C264.5 252.445 265.57 253.805 267.055 254.773C268.555 255.727 270.375 256.203 272.516 256.203C275.109 256.203 277.125 255.172 278.562 253.109C280 251.047 280.719 248.031 280.719 244.062ZM308.305 244.555C308.305 248.508 307.453 251.648 305.75 253.977C304.047 256.305 301.727 257.469 298.789 257.469C296.867 257.469 295.156 257.078 293.656 256.297C292.156 255.516 290.984 254.438 290.141 253.062V266.75H288.875V231.641H290.141V236.164C291.016 234.555 292.195 233.32 293.68 232.461C295.164 231.602 296.852 231.172 298.742 231.172C301.711 231.172 304.047 232.312 305.75 234.594C307.453 236.859 308.305 240.047 308.305 244.156V244.555ZM307.016 244.062C307.016 240.422 306.289 237.578 304.836 235.531C303.398 233.469 301.375 232.438 298.766 232.438C296.641 232.438 294.836 232.992 293.352 234.102C291.867 235.195 290.797 236.773 290.141 238.836V250.695C290.797 252.445 291.867 253.805 293.352 254.773C294.852 255.727 296.672 256.203 298.812 256.203C301.406 256.203 303.422 255.172 304.859 253.109C306.297 251.047 307.016 248.031 307.016 244.062ZM316.789 257H315.523V231.641H316.789V257ZM314.867 223.719C314.867 223.359 314.992 223.055 315.242 222.805C315.492 222.539 315.797 222.406 316.156 222.406C316.516 222.406 316.82 222.539 317.07 222.805C317.336 223.055 317.469 223.359 317.469 223.719C317.469 224.078 317.336 224.383 317.07 224.633C316.82 224.883 316.516 225.008 316.156 225.008C315.797 225.008 315.492 224.883 315.242 224.633C314.992 224.383 314.867 224.078 314.867 223.719ZM326.375 237.547C327.203 235.578 328.422 234.023 330.031 232.883C331.641 231.742 333.422 231.172 335.375 231.172C338.094 231.172 340.109 231.945 341.422 233.492C342.75 235.023 343.422 237.344 343.438 240.453V257H342.172V240.406C342.156 237.688 341.602 235.68 340.508 234.383C339.414 233.07 337.68 232.414 335.305 232.414C333.117 232.414 331.219 233.195 329.609 234.758C328.016 236.305 326.938 238.305 326.375 240.758V257H325.109V231.641H326.375V237.547ZM350.211 244.062C350.211 240.016 351.062 236.859 352.766 234.594C354.469 232.312 356.805 231.172 359.773 231.172C361.664 231.172 363.344 231.609 364.812 232.484C366.281 233.344 367.461 234.609 368.352 236.281V231.641H369.641V256.555C369.641 259.898 368.781 262.508 367.062 264.383C365.344 266.273 363.008 267.219 360.055 267.219C358.352 267.219 356.789 266.852 355.367 266.117C353.961 265.383 352.758 264.328 351.758 262.953L352.648 262.109C353.633 263.359 354.711 264.312 355.883 264.969C357.055 265.641 358.43 265.977 360.008 265.977C362.617 265.977 364.648 265.18 366.102 263.586C367.555 262.008 368.305 259.773 368.352 256.883V252.992C367.477 254.43 366.289 255.539 364.789 256.32C363.305 257.086 361.617 257.469 359.727 257.469C356.789 257.469 354.469 256.305 352.766 253.977C351.062 251.648 350.211 248.453 350.211 244.391V244.062ZM351.5 244.555C351.5 248.18 352.219 251.031 353.656 253.109C355.094 255.172 357.109 256.203 359.703 256.203C361.844 256.203 363.664 255.711 365.164 254.727C366.664 253.727 367.727 252.328 368.352 250.531V239.023C366.977 234.633 364.109 232.438 359.75 232.438C357.141 232.438 355.109 233.461 353.656 235.508C352.219 237.555 351.5 240.57 351.5 244.555ZM407.867 246.805H391.156L387.359 257H385.977L398.75 222.875H400.297L413.07 257H411.688L407.867 246.805ZM391.625 245.539H407.398L399.523 224.398L391.625 245.539ZM416.75 244.062C416.75 240.016 417.602 236.859 419.305 234.594C421.008 232.312 423.344 231.172 426.312 231.172C428.219 231.172 429.898 231.602 431.352 232.461C432.82 233.32 434.008 234.602 434.914 236.305V221H436.18V257H434.914V252.945C434.055 254.383 432.875 255.5 431.375 256.297C429.875 257.078 428.172 257.469 426.266 257.469C423.328 257.469 421.008 256.305 419.305 253.977C417.602 251.648 416.75 248.453 416.75 244.391V244.062ZM418.062 244.555C418.062 248.148 418.773 250.992 420.195 253.086C421.617 255.164 423.633 256.203 426.242 256.203C428.336 256.203 430.125 255.742 431.609 254.82C433.094 253.883 434.195 252.516 434.914 250.719V238.836C433.461 234.57 430.586 232.438 426.289 232.438C423.695 232.438 421.672 233.461 420.219 235.508C418.781 237.555 418.062 240.57 418.062 244.555ZM443.047 244.062C443.047 240.016 443.898 236.859 445.602 234.594C447.305 232.312 449.641 231.172 452.609 231.172C454.516 231.172 456.195 231.602 457.648 232.461C459.117 233.32 460.305 234.602 461.211 236.305V221H462.477V257H461.211V252.945C460.352 254.383 459.172 255.5 457.672 256.297C456.172 257.078 454.469 257.469 452.562 257.469C449.625 257.469 447.305 256.305 445.602 253.977C443.898 251.648 443.047 248.453 443.047 244.391V244.062ZM444.359 244.555C444.359 248.148 445.07 250.992 446.492 253.086C447.914 255.164 449.93 256.203 452.539 256.203C454.633 256.203 456.422 255.742 457.906 254.82C459.391 253.883 460.492 252.516 461.211 250.719V238.836C459.758 234.57 456.883 232.438 452.586 232.438C449.992 232.438 447.969 233.461 446.516 235.508C445.078 237.555 444.359 240.57 444.359 244.555ZM481.695 232.555L480.055 232.414C477.898 232.414 476.094 233.117 474.641 234.523C473.188 235.914 472.234 237.867 471.781 240.383V257H470.516V231.641H471.781V236.914C472.469 235.148 473.5 233.75 474.875 232.719C476.25 231.688 477.977 231.172 480.055 231.172C480.789 231.172 481.383 231.258 481.836 231.43L481.695 232.555ZM495.242 257.469C493.195 257.469 491.312 256.922 489.594 255.828C487.891 254.719 486.555 253.203 485.586 251.281C484.617 249.359 484.133 247.227 484.133 244.883V243.828C484.133 241.484 484.602 239.336 485.539 237.383C486.477 235.43 487.766 233.906 489.406 232.812C491.047 231.719 492.836 231.172 494.773 231.172C497.602 231.172 499.914 232.18 501.711 234.195C503.508 236.211 504.406 238.859 504.406 242.141V243.477H485.398V244.859C485.398 246.922 485.828 248.836 486.688 250.602C487.562 252.352 488.758 253.727 490.273 254.727C491.805 255.727 493.461 256.227 495.242 256.227C496.945 256.227 498.391 255.945 499.578 255.383C500.781 254.805 501.844 253.922 502.766 252.734L503.656 253.367C501.766 256.102 498.961 257.469 495.242 257.469ZM494.773 232.438C492.305 232.438 490.211 233.359 488.492 235.203C486.773 237.031 485.766 239.367 485.469 242.211H503.141V241.906C503.141 240.188 502.773 238.594 502.039 237.125C501.32 235.641 500.32 234.492 499.039 233.68C497.773 232.852 496.352 232.438 494.773 232.438ZM525.945 250.789C525.945 247.711 523.32 245.617 518.07 244.508C514.914 243.836 512.719 242.977 511.484 241.93C510.25 240.867 509.633 239.414 509.633 237.57C509.633 235.711 510.414 234.18 511.977 232.977C513.555 231.773 515.602 231.172 518.117 231.172C520.852 231.172 523.047 231.828 524.703 233.141C526.359 234.438 527.188 236.195 527.188 238.414H525.898C525.898 236.711 525.18 235.289 523.742 234.148C522.305 233.008 520.43 232.438 518.117 232.438C515.898 232.438 514.141 232.922 512.844 233.891C511.547 234.859 510.898 236.07 510.898 237.523C510.898 238.664 511.141 239.562 511.625 240.219C512.109 240.859 512.898 241.445 513.992 241.977C515.086 242.492 516.68 242.992 518.773 243.477C520.867 243.961 522.523 244.531 523.742 245.188C524.961 245.844 525.844 246.625 526.391 247.531C526.938 248.422 527.211 249.516 527.211 250.812C527.211 252.812 526.391 254.422 524.75 255.641C523.109 256.859 520.961 257.469 518.305 257.469C515.461 257.469 513.164 256.828 511.414 255.547C509.68 254.25 508.812 252.586 508.812 250.555H510.078C510.203 252.336 510.984 253.727 512.422 254.727C513.875 255.711 515.836 256.203 518.305 256.203C520.57 256.203 522.406 255.68 523.812 254.633C525.234 253.57 525.945 252.289 525.945 250.789ZM549.852 250.789C549.852 247.711 547.227 245.617 541.977 244.508C538.82 243.836 536.625 242.977 535.391 241.93C534.156 240.867 533.539 239.414 533.539 237.57C533.539 235.711 534.32 234.18 535.883 232.977C537.461 231.773 539.508 231.172 542.023 231.172C544.758 231.172 546.953 231.828 548.609 233.141C550.266 234.438 551.094 236.195 551.094 238.414H549.805C549.805 236.711 549.086 235.289 547.648 234.148C546.211 233.008 544.336 232.438 542.023 232.438C539.805 232.438 538.047 232.922 536.75 233.891C535.453 234.859 534.805 236.07 534.805 237.523C534.805 238.664 535.047 239.562 535.531 240.219C536.016 240.859 536.805 241.445 537.898 241.977C538.992 242.492 540.586 242.992 542.68 243.477C544.773 243.961 546.43 244.531 547.648 245.188C548.867 245.844 549.75 246.625 550.297 247.531C550.844 248.422 551.117 249.516 551.117 250.812C551.117 252.812 550.297 254.422 548.656 255.641C547.016 256.859 544.867 257.469 542.211 257.469C539.367 257.469 537.07 256.828 535.32 255.547C533.586 254.25 532.719 252.586 532.719 250.555H533.984C534.109 252.336 534.891 253.727 536.328 254.727C537.781 255.711 539.742 256.203 542.211 256.203C544.477 256.203 546.312 255.68 547.719 254.633C549.141 253.57 549.852 252.289 549.852 250.789Z" fill="black"/>
<rect width="724" height="100" transform="translate(42 838)" fill="white"/>
<path d="M216.664 894.805H199.953L196.156 905H194.773L207.547 870.875H209.094L221.867 905H220.484L216.664 894.805ZM200.422 893.539H216.195L208.32 872.398L200.422 893.539ZM225.547 892.062C225.547 888.016 226.398 884.859 228.102 882.594C229.805 880.312 232.141 879.172 235.109 879.172C237.016 879.172 238.695 879.602 240.148 880.461C241.617 881.32 242.805 882.602 243.711 884.305V869H244.977V905H243.711V900.945C242.852 902.383 241.672 903.5 240.172 904.297C238.672 905.078 236.969 905.469 235.062 905.469C232.125 905.469 229.805 904.305 228.102 901.977C226.398 899.648 225.547 896.453 225.547 892.391V892.062ZM226.859 892.555C226.859 896.148 227.57 898.992 228.992 901.086C230.414 903.164 232.43 904.203 235.039 904.203C237.133 904.203 238.922 903.742 240.406 902.82C241.891 901.883 242.992 900.516 243.711 898.719V886.836C242.258 882.57 239.383 880.438 235.086 880.438C232.492 880.438 230.469 881.461 229.016 883.508C227.578 885.555 226.859 888.57 226.859 892.555ZM251.844 892.062C251.844 888.016 252.695 884.859 254.398 882.594C256.102 880.312 258.438 879.172 261.406 879.172C263.312 879.172 264.992 879.602 266.445 880.461C267.914 881.32 269.102 882.602 270.008 884.305V869H271.273V905H270.008V900.945C269.148 902.383 267.969 903.5 266.469 904.297C264.969 905.078 263.266 905.469 261.359 905.469C258.422 905.469 256.102 904.305 254.398 901.977C252.695 899.648 251.844 896.453 251.844 892.391V892.062ZM253.156 892.555C253.156 896.148 253.867 898.992 255.289 901.086C256.711 903.164 258.727 904.203 261.336 904.203C263.43 904.203 265.219 903.742 266.703 902.82C268.188 901.883 269.289 900.516 270.008 898.719V886.836C268.555 882.57 265.68 880.438 261.383 880.438C258.789 880.438 256.766 881.461 255.312 883.508C253.875 885.555 253.156 888.57 253.156 892.555ZM307.18 905C306.867 903.922 306.711 902.375 306.711 900.359C305.711 901.984 304.344 903.242 302.609 904.133C300.875 905.023 298.914 905.469 296.727 905.469C294.383 905.469 292.492 904.836 291.055 903.57C289.633 902.289 288.922 900.625 288.922 898.578C288.922 896.25 289.969 894.391 292.062 893C294.172 891.594 296.969 890.875 300.453 890.844H306.711V887.141C306.711 885.016 306.039 883.367 304.695 882.195C303.367 881.023 301.461 880.438 298.977 880.438C296.664 880.438 294.734 881.031 293.188 882.219C291.641 883.406 290.867 884.875 290.867 886.625L289.602 886.578C289.602 884.516 290.508 882.766 292.32 881.328C294.133 879.891 296.352 879.172 298.977 879.172C301.711 879.172 303.883 879.859 305.492 881.234C307.102 882.594 307.93 884.516 307.977 887V899.117C307.977 901.898 308.195 903.789 308.633 904.789V905H307.18ZM296.727 904.227C299.102 904.227 301.141 903.695 302.844 902.633C304.562 901.57 305.852 900.078 306.711 898.156V892.133H300.852C297.227 892.133 294.453 892.852 292.531 894.289C290.969 895.461 290.188 896.922 290.188 898.672C290.188 900.219 290.805 901.531 292.039 902.609C293.273 903.688 294.836 904.227 296.727 904.227ZM336.242 904.203C338.539 904.203 340.43 903.594 341.914 902.375C343.414 901.156 344.234 899.469 344.375 897.312H345.641C345.516 899.766 344.57 901.742 342.805 903.242C341.039 904.727 338.852 905.469 336.242 905.469C333.07 905.469 330.547 904.32 328.672 902.023C326.812 899.727 325.883 896.609 325.883 892.672V891.828C325.883 887.984 326.812 884.914 328.672 882.617C330.547 880.32 333.055 879.172 336.195 879.172C338.883 879.172 341.102 879.977 342.852 881.586C344.602 883.195 345.531 885.336 345.641 888.008H344.375C344.266 885.727 343.461 883.898 341.961 882.523C340.477 881.133 338.555 880.438 336.195 880.438C333.367 880.438 331.148 881.461 329.539 883.508C327.945 885.539 327.148 888.367 327.148 891.992V892.812C327.148 896.359 327.953 899.148 329.562 901.18C331.188 903.195 333.414 904.203 336.242 904.203ZM369.008 905V900.898C368.258 902.305 367.164 903.422 365.727 904.25C364.289 905.062 362.469 905.469 360.266 905.469C357.5 905.469 355.422 904.664 354.031 903.055C352.656 901.43 351.953 899.07 351.922 895.977V879.641H353.188V896.023C353.219 898.711 353.828 900.75 355.016 902.141C356.203 903.516 357.938 904.203 360.219 904.203C362.641 904.203 364.609 903.633 366.125 902.492C367.641 901.352 368.602 899.68 369.008 897.477V879.641H370.297V905H369.008ZM393.945 898.789C393.945 895.711 391.32 893.617 386.07 892.508C382.914 891.836 380.719 890.977 379.484 889.93C378.25 888.867 377.633 887.414 377.633 885.57C377.633 883.711 378.414 882.18 379.977 880.977C381.555 879.773 383.602 879.172 386.117 879.172C388.852 879.172 391.047 879.828 392.703 881.141C394.359 882.438 395.188 884.195 395.188 886.414H393.898C393.898 884.711 393.18 883.289 391.742 882.148C390.305 881.008 388.43 880.438 386.117 880.438C383.898 880.438 382.141 880.922 380.844 881.891C379.547 882.859 378.898 884.07 378.898 885.523C378.898 886.664 379.141 887.562 379.625 888.219C380.109 888.859 380.898 889.445 381.992 889.977C383.086 890.492 384.68 890.992 386.773 891.477C388.867 891.961 390.523 892.531 391.742 893.188C392.961 893.844 393.844 894.625 394.391 895.531C394.938 896.422 395.211 897.516 395.211 898.812C395.211 900.812 394.391 902.422 392.75 903.641C391.109 904.859 388.961 905.469 386.305 905.469C383.461 905.469 381.164 904.828 379.414 903.547C377.68 902.25 376.812 900.586 376.812 898.555H378.078C378.203 900.336 378.984 901.727 380.422 902.727C381.875 903.711 383.836 904.203 386.305 904.203C388.57 904.203 390.406 903.68 391.812 902.633C393.234 901.57 393.945 900.289 393.945 898.789ZM405.055 872.797V879.641H410.82V880.93H405.055V898.93C405.055 900.727 405.344 902.055 405.922 902.914C406.516 903.773 407.5 904.203 408.875 904.203C409.562 904.203 410.398 904.133 411.383 903.992L411.594 905.188C411.078 905.375 410.195 905.469 408.945 905.469C407.102 905.469 405.781 904.961 404.984 903.945C404.188 902.914 403.781 901.297 403.766 899.094V880.93H399.078V879.641H403.766V872.797H405.055ZM415.016 891.828C415.016 889.406 415.477 887.234 416.398 885.312C417.336 883.375 418.648 881.867 420.336 880.789C422.039 879.711 423.961 879.172 426.102 879.172C428.227 879.172 430.133 879.695 431.82 880.742C433.508 881.789 434.82 883.273 435.758 885.195C436.711 887.117 437.195 889.281 437.211 891.688V892.812C437.211 895.25 436.75 897.43 435.828 899.352C434.906 901.273 433.594 902.773 431.891 903.852C430.203 904.93 428.289 905.469 426.148 905.469C424.008 905.469 422.086 904.938 420.383 903.875C418.695 902.812 417.383 901.328 416.445 899.422C415.508 897.5 415.031 895.344 415.016 892.953V891.828ZM416.281 892.812C416.281 894.922 416.695 896.859 417.523 898.625C418.367 900.375 419.531 901.742 421.016 902.727C422.516 903.711 424.227 904.203 426.148 904.203C429.039 904.203 431.391 903.117 433.203 900.945C435.031 898.773 435.945 895.977 435.945 892.555V891.828C435.945 889.75 435.523 887.828 434.68 886.062C433.836 884.297 432.664 882.922 431.164 881.938C429.68 880.938 427.992 880.438 426.102 880.438C423.211 880.438 420.852 881.539 419.023 883.742C417.195 885.945 416.281 888.719 416.281 892.062V892.812ZM461.516 905H460.25V887.961C460.234 885.414 459.672 883.523 458.562 882.289C457.469 881.039 455.719 880.414 453.312 880.414C450.531 880.414 448.258 881.641 446.492 884.094C445.445 885.562 444.75 887.188 444.406 888.969V905H443.117V879.641H444.406V885.641C445.266 883.578 446.492 881.984 448.086 880.859C449.68 879.734 451.445 879.172 453.383 879.172C455.508 879.172 457.242 879.641 458.586 880.578C459.945 881.516 460.836 883.047 461.258 885.172C462.008 883.344 463.227 881.891 464.914 880.812C466.602 879.719 468.492 879.172 470.586 879.172C473.32 879.172 475.352 879.945 476.68 881.492C478.023 883.039 478.703 885.359 478.719 888.453V905H477.453V888.547C477.453 885.766 476.891 883.711 475.766 882.383C474.656 881.039 472.906 880.383 470.516 880.414C467.438 880.461 465 881.688 463.203 884.094C462.172 885.484 461.609 886.828 461.516 888.125V905ZM517.273 892.555C517.273 896.508 516.422 899.648 514.719 901.977C513.016 904.305 510.695 905.469 507.758 905.469C505.836 905.469 504.125 905.078 502.625 904.297C501.125 903.516 499.953 902.438 499.109 901.062V914.75H497.844V879.641H499.109V884.164C499.984 882.555 501.164 881.32 502.648 880.461C504.133 879.602 505.82 879.172 507.711 879.172C510.68 879.172 513.016 880.312 514.719 882.594C516.422 884.859 517.273 888.047 517.273 892.156V892.555ZM515.984 892.062C515.984 888.422 515.258 885.578 513.805 883.531C512.367 881.469 510.344 880.438 507.734 880.438C505.609 880.438 503.805 880.992 502.32 882.102C500.836 883.195 499.766 884.773 499.109 886.836V898.695C499.766 900.445 500.836 901.805 502.32 902.773C503.82 903.727 505.641 904.203 507.781 904.203C510.375 904.203 512.391 903.172 513.828 901.109C515.266 899.047 515.984 896.031 515.984 892.062ZM535.367 880.555L533.727 880.414C531.57 880.414 529.766 881.117 528.312 882.523C526.859 883.914 525.906 885.867 525.453 888.383V905H524.188V879.641H525.453V884.914C526.141 883.148 527.172 881.75 528.547 880.719C529.922 879.688 531.648 879.172 533.727 879.172C534.461 879.172 535.055 879.258 535.508 879.43L535.367 880.555ZM548.914 905.469C546.867 905.469 544.984 904.922 543.266 903.828C541.562 902.719 540.227 901.203 539.258 899.281C538.289 897.359 537.805 895.227 537.805 892.883V891.828C537.805 889.484 538.273 887.336 539.211 885.383C540.148 883.43 541.438 881.906 543.078 880.812C544.719 879.719 546.508 879.172 548.445 879.172C551.273 879.172 553.586 880.18 555.383 882.195C557.18 884.211 558.078 886.859 558.078 890.141V891.477H539.07V892.859C539.07 894.922 539.5 896.836 540.359 898.602C541.234 900.352 542.43 901.727 543.945 902.727C545.477 903.727 547.133 904.227 548.914 904.227C550.617 904.227 552.062 903.945 553.25 903.383C554.453 902.805 555.516 901.922 556.438 900.734L557.328 901.367C555.438 904.102 552.633 905.469 548.914 905.469ZM548.445 880.438C545.977 880.438 543.883 881.359 542.164 883.203C540.445 885.031 539.438 887.367 539.141 890.211H556.812V889.906C556.812 888.188 556.445 886.594 555.711 885.125C554.992 883.641 553.992 882.492 552.711 881.68C551.445 880.852 550.023 880.438 548.445 880.438ZM565.906 905V880.93H561.5V879.641H565.906V875.938C565.922 873.594 566.508 871.773 567.664 870.477C568.836 869.164 570.461 868.508 572.539 868.508C573.695 868.508 574.695 868.641 575.539 868.906L575.352 870.125C574.539 869.891 573.609 869.773 572.562 869.773C570.891 869.773 569.57 870.32 568.602 871.414C567.648 872.492 567.172 874.031 567.172 876.031V879.641H573.875V880.93H567.172V905H565.906ZM587.68 905.469C585.633 905.469 583.75 904.922 582.031 903.828C580.328 902.719 578.992 901.203 578.023 899.281C577.055 897.359 576.57 895.227 576.57 892.883V891.828C576.57 889.484 577.039 887.336 577.977 885.383C578.914 883.43 580.203 881.906 581.844 880.812C583.484 879.719 585.273 879.172 587.211 879.172C590.039 879.172 592.352 880.18 594.148 882.195C595.945 884.211 596.844 886.859 596.844 890.141V891.477H577.836V892.859C577.836 894.922 578.266 896.836 579.125 898.602C580 900.352 581.195 901.727 582.711 902.727C584.242 903.727 585.898 904.227 587.68 904.227C589.383 904.227 590.828 903.945 592.016 903.383C593.219 902.805 594.281 901.922 595.203 900.734L596.094 901.367C594.203 904.102 591.398 905.469 587.68 905.469ZM587.211 880.438C584.742 880.438 582.648 881.359 580.93 883.203C579.211 885.031 578.203 887.367 577.906 890.211H595.578V889.906C595.578 888.188 595.211 886.594 594.477 885.125C593.758 883.641 592.758 882.492 591.477 881.68C590.211 880.852 588.789 880.438 587.211 880.438ZM613.93 880.555L612.289 880.414C610.133 880.414 608.328 881.117 606.875 882.523C605.422 883.914 604.469 885.867 604.016 888.383V905H602.75V879.641H604.016V884.914C604.703 883.148 605.734 881.75 607.109 880.719C608.484 879.688 610.211 879.172 612.289 879.172C613.023 879.172 613.617 879.258 614.07 879.43L613.93 880.555ZM627.477 905.469C625.43 905.469 623.547 904.922 621.828 903.828C620.125 902.719 618.789 901.203 617.82 899.281C616.852 897.359 616.367 895.227 616.367 892.883V891.828C616.367 889.484 616.836 887.336 617.773 885.383C618.711 883.43 620 881.906 621.641 880.812C623.281 879.719 625.07 879.172 627.008 879.172C629.836 879.172 632.148 880.18 633.945 882.195C635.742 884.211 636.641 886.859 636.641 890.141V891.477H617.633V892.859C617.633 894.922 618.062 896.836 618.922 898.602C619.797 900.352 620.992 901.727 622.508 902.727C624.039 903.727 625.695 904.227 627.477 904.227C629.18 904.227 630.625 903.945 631.812 903.383C633.016 902.805 634.078 901.922 635 900.734L635.891 901.367C634 904.102 631.195 905.469 627.477 905.469ZM627.008 880.438C624.539 880.438 622.445 881.359 620.727 883.203C619.008 885.031 618 887.367 617.703 890.211H635.375V889.906C635.375 888.188 635.008 886.594 634.273 885.125C633.555 883.641 632.555 882.492 631.273 881.68C630.008 880.852 628.586 880.438 627.008 880.438ZM643.812 885.547C644.641 883.578 645.859 882.023 647.469 880.883C649.078 879.742 650.859 879.172 652.812 879.172C655.531 879.172 657.547 879.945 658.859 881.492C660.188 883.023 660.859 885.344 660.875 888.453V905H659.609V888.406C659.594 885.688 659.039 883.68 657.945 882.383C656.852 881.07 655.117 880.414 652.742 880.414C650.555 880.414 648.656 881.195 647.047 882.758C645.453 884.305 644.375 886.305 643.812 888.758V905H642.547V879.641H643.812V885.547ZM677.445 904.203C679.742 904.203 681.633 903.594 683.117 902.375C684.617 901.156 685.438 899.469 685.578 897.312H686.844C686.719 899.766 685.773 901.742 684.008 903.242C682.242 904.727 680.055 905.469 677.445 905.469C674.273 905.469 671.75 904.32 669.875 902.023C668.016 899.727 667.086 896.609 667.086 892.672V891.828C667.086 887.984 668.016 884.914 669.875 882.617C671.75 880.32 674.258 879.172 677.398 879.172C680.086 879.172 682.305 879.977 684.055 881.586C685.805 883.195 686.734 885.336 686.844 888.008H685.578C685.469 885.727 684.664 883.898 683.164 882.523C681.68 881.133 679.758 880.438 677.398 880.438C674.57 880.438 672.352 881.461 670.742 883.508C669.148 885.539 668.352 888.367 668.352 891.992V892.812C668.352 896.359 669.156 899.148 670.766 901.18C672.391 903.195 674.617 904.203 677.445 904.203ZM702.336 905.469C700.289 905.469 698.406 904.922 696.688 903.828C694.984 902.719 693.648 901.203 692.68 899.281C691.711 897.359 691.227 895.227 691.227 892.883V891.828C691.227 889.484 691.695 887.336 692.633 885.383C693.57 883.43 694.859 881.906 696.5 880.812C698.141 879.719 699.93 879.172 701.867 879.172C704.695 879.172 707.008 880.18 708.805 882.195C710.602 884.211 711.5 886.859 711.5 890.141V891.477H692.492V892.859C692.492 894.922 692.922 896.836 693.781 898.602C694.656 900.352 695.852 901.727 697.367 902.727C698.898 903.727 700.555 904.227 702.336 904.227C704.039 904.227 705.484 903.945 706.672 903.383C707.875 902.805 708.938 901.922 709.859 900.734L710.75 901.367C708.859 904.102 706.055 905.469 702.336 905.469ZM701.867 880.438C699.398 880.438 697.305 881.359 695.586 883.203C693.867 885.031 692.859 887.367 692.562 890.211H710.234V889.906C710.234 888.188 709.867 886.594 709.133 885.125C708.414 883.641 707.414 882.492 706.133 881.68C704.867 880.852 703.445 880.438 701.867 880.438ZM716.82 903.852C716.82 903.492 716.945 903.188 717.195 902.938C717.445 902.672 717.75 902.539 718.109 902.539C718.469 902.539 718.773 902.672 719.023 902.938C719.289 903.188 719.422 903.492 719.422 903.852C719.422 904.211 719.289 904.516 719.023 904.766C718.773 905.016 718.469 905.141 718.109 905.141C717.75 905.141 717.445 905.016 717.195 904.766C716.945 904.516 716.82 904.211 716.82 903.852ZM727.133 903.852C727.133 903.492 727.258 903.188 727.508 902.938C727.758 902.672 728.062 902.539 728.422 902.539C728.781 902.539 729.086 902.672 729.336 902.938C729.602 903.188 729.734 903.492 729.734 903.852C729.734 904.211 729.602 904.516 729.336 904.766C729.086 905.016 728.781 905.141 728.422 905.141C728.062 905.141 727.758 905.016 727.508 904.766C727.258 904.516 727.133 904.211 727.133 903.852ZM737.445 903.852C737.445 903.492 737.57 903.188 737.82 902.938C738.07 902.672 738.375 902.539 738.734 902.539C739.094 902.539 739.398 902.672 739.648 902.938C739.914 903.188 740.047 903.492 740.047 903.852C740.047 904.211 739.914 904.516 739.648 904.766C739.398 905.016 739.094 905.141 738.734 905.141C738.375 905.141 738.07 905.016 737.82 904.766C737.57 904.516 737.445 904.211 737.445 903.852Z" fill="black"/>
<path d="M73 838.5H153C158.247 838.5 162.5 842.753 162.5 848V928C162.5 933.247 158.247 937.5 153 937.5H73C67.7533 937.5 63.5 933.247 63.5 928V848C63.5 842.753 67.7533 838.5 73 838.5Z" fill="white" stroke="black"/>
<path fill-rule="evenodd" clip-rule="evenodd" d="M113.5 887.5V856.75H112.5V887.5H81.75V888.5H112.5V919.25H113.5V888.5H144.25V887.5H113.5Z" fill="black"/>
<rect width="619" height="100" transform="translate(42 642)" fill="white"/>
<rect x="62.5" y="642.5" width="99" height="99" rx="9.5" fill="white" stroke="black"/>
<path d="M211.672 694.398H199.836V709H198.57V674.875H209.445C212.867 674.875 215.586 675.758 217.602 677.523C219.633 679.289 220.648 681.688 220.648 684.719C220.648 687.047 219.922 689.086 218.469 690.836C217.031 692.57 215.195 693.648 212.961 694.07L222.078 708.672V709H220.742L211.672 694.398ZM199.836 693.133H210.594C213.219 693.133 215.336 692.336 216.945 690.742C218.57 689.148 219.383 687.141 219.383 684.719C219.383 682.062 218.484 679.969 216.688 678.438C214.906 676.906 212.461 676.141 209.352 676.141H199.836V693.133ZM238.555 709.469C236.508 709.469 234.625 708.922 232.906 707.828C231.203 706.719 229.867 705.203 228.898 703.281C227.93 701.359 227.445 699.227 227.445 696.883V695.828C227.445 693.484 227.914 691.336 228.852 689.383C229.789 687.43 231.078 685.906 232.719 684.812C234.359 683.719 236.148 683.172 238.086 683.172C240.914 683.172 243.227 684.18 245.023 686.195C246.82 688.211 247.719 690.859 247.719 694.141V695.477H228.711V696.859C228.711 698.922 229.141 700.836 230 702.602C230.875 704.352 232.07 705.727 233.586 706.727C235.117 707.727 236.773 708.227 238.555 708.227C240.258 708.227 241.703 707.945 242.891 707.383C244.094 706.805 245.156 705.922 246.078 704.734L246.969 705.367C245.078 708.102 242.273 709.469 238.555 709.469ZM238.086 684.438C235.617 684.438 233.523 685.359 231.805 687.203C230.086 689.031 229.078 691.367 228.781 694.211H246.453V693.906C246.453 692.188 246.086 690.594 245.352 689.125C244.633 687.641 243.633 686.492 242.352 685.68C241.086 684.852 239.664 684.438 238.086 684.438ZM256.461 676.797V683.641H262.227V684.93H256.461V702.93C256.461 704.727 256.75 706.055 257.328 706.914C257.922 707.773 258.906 708.203 260.281 708.203C260.969 708.203 261.805 708.133 262.789 707.992L263 709.188C262.484 709.375 261.602 709.469 260.352 709.469C258.508 709.469 257.188 708.961 256.391 707.945C255.594 706.914 255.188 705.297 255.172 703.094V684.93H250.484V683.641H255.172V676.797H256.461ZM285.195 709C284.883 707.922 284.727 706.375 284.727 704.359C283.727 705.984 282.359 707.242 280.625 708.133C278.891 709.023 276.93 709.469 274.742 709.469C272.398 709.469 270.508 708.836 269.07 707.57C267.648 706.289 266.938 704.625 266.938 702.578C266.938 700.25 267.984 698.391 270.078 697C272.188 695.594 274.984 694.875 278.469 694.844H284.727V691.141C284.727 689.016 284.055 687.367 282.711 686.195C281.383 685.023 279.477 684.438 276.992 684.438C274.68 684.438 272.75 685.031 271.203 686.219C269.656 687.406 268.883 688.875 268.883 690.625L267.617 690.578C267.617 688.516 268.523 686.766 270.336 685.328C272.148 683.891 274.367 683.172 276.992 683.172C279.727 683.172 281.898 683.859 283.508 685.234C285.117 686.594 285.945 688.516 285.992 691V703.117C285.992 705.898 286.211 707.789 286.648 708.789V709H285.195ZM274.742 708.227C277.117 708.227 279.156 707.695 280.859 706.633C282.578 705.57 283.867 704.078 284.727 702.156V696.133H278.867C275.242 696.133 272.469 696.852 270.547 698.289C268.984 699.461 268.203 700.922 268.203 702.672C268.203 704.219 268.82 705.531 270.055 706.609C271.289 707.688 272.852 708.227 274.742 708.227ZM295.742 709H294.477V683.641H295.742V709ZM293.82 675.719C293.82 675.359 293.945 675.055 294.195 674.805C294.445 674.539 294.75 674.406 295.109 674.406C295.469 674.406 295.773 674.539 296.023 674.805C296.289 675.055 296.422 675.359 296.422 675.719C296.422 676.078 296.289 676.383 296.023 676.633C295.773 676.883 295.469 677.008 295.109 677.008C294.75 677.008 294.445 676.883 294.195 676.633C293.945 676.383 293.82 676.078 293.82 675.719ZM305.633 709H304.367V673H305.633V709ZM328.297 709H327.031V674.875H328.297V709ZM339.219 689.547C340.047 687.578 341.266 686.023 342.875 684.883C344.484 683.742 346.266 683.172 348.219 683.172C350.938 683.172 352.953 683.945 354.266 685.492C355.594 687.023 356.266 689.344 356.281 692.453V709H355.016V692.406C355 689.688 354.445 687.68 353.352 686.383C352.258 685.07 350.523 684.414 348.148 684.414C345.961 684.414 344.062 685.195 342.453 686.758C340.859 688.305 339.781 690.305 339.219 692.758V709H337.953V683.641H339.219V689.547ZM366.172 709V684.93H361.766V683.641H366.172V679.938C366.188 677.594 366.773 675.773 367.93 674.477C369.102 673.164 370.727 672.508 372.805 672.508C373.961 672.508 374.961 672.641 375.805 672.906L375.617 674.125C374.805 673.891 373.875 673.773 372.828 673.773C371.156 673.773 369.836 674.32 368.867 675.414C367.914 676.492 367.438 678.031 367.438 680.031V683.641H374.141V684.93H367.438V709H366.172ZM377.469 695.828C377.469 693.406 377.93 691.234 378.852 689.312C379.789 687.375 381.102 685.867 382.789 684.789C384.492 683.711 386.414 683.172 388.555 683.172C390.68 683.172 392.586 683.695 394.273 684.742C395.961 685.789 397.273 687.273 398.211 689.195C399.164 691.117 399.648 693.281 399.664 695.688V696.812C399.664 699.25 399.203 701.43 398.281 703.352C397.359 705.273 396.047 706.773 394.344 707.852C392.656 708.93 390.742 709.469 388.602 709.469C386.461 709.469 384.539 708.938 382.836 707.875C381.148 706.812 379.836 705.328 378.898 703.422C377.961 701.5 377.484 699.344 377.469 696.953V695.828ZM378.734 696.812C378.734 698.922 379.148 700.859 379.977 702.625C380.82 704.375 381.984 705.742 383.469 706.727C384.969 707.711 386.68 708.203 388.602 708.203C391.492 708.203 393.844 707.117 395.656 704.945C397.484 702.773 398.398 699.977 398.398 696.555V695.828C398.398 693.75 397.977 691.828 397.133 690.062C396.289 688.297 395.117 686.922 393.617 685.938C392.133 684.938 390.445 684.438 388.555 684.438C385.664 684.438 383.305 685.539 381.477 687.742C379.648 689.945 378.734 692.719 378.734 696.062V696.812ZM417.008 684.555L415.367 684.414C413.211 684.414 411.406 685.117 409.953 686.523C408.5 687.914 407.547 689.867 407.094 692.383V709H405.828V683.641H407.094V688.914C407.781 687.148 408.812 685.75 410.188 684.719C411.562 683.688 413.289 683.172 415.367 683.172C416.102 683.172 416.695 683.258 417.148 683.43L417.008 684.555ZM440.047 709H438.781V691.961C438.766 689.414 438.203 687.523 437.094 686.289C436 685.039 434.25 684.414 431.844 684.414C429.062 684.414 426.789 685.641 425.023 688.094C423.977 689.562 423.281 691.188 422.938 692.969V709H421.648V683.641H422.938V689.641C423.797 687.578 425.023 685.984 426.617 684.859C428.211 683.734 429.977 683.172 431.914 683.172C434.039 683.172 435.773 683.641 437.117 684.578C438.477 685.516 439.367 687.047 439.789 689.172C440.539 687.344 441.758 685.891 443.445 684.812C445.133 683.719 447.023 683.172 449.117 683.172C451.852 683.172 453.883 683.945 455.211 685.492C456.555 687.039 457.234 689.359 457.25 692.453V709H455.984V692.547C455.984 689.766 455.422 687.711 454.297 686.383C453.188 685.039 451.438 684.383 449.047 684.414C445.969 684.461 443.531 685.688 441.734 688.094C440.703 689.484 440.141 690.828 440.047 692.125V709ZM481.32 709C481.008 707.922 480.852 706.375 480.852 704.359C479.852 705.984 478.484 707.242 476.75 708.133C475.016 709.023 473.055 709.469 470.867 709.469C468.523 709.469 466.633 708.836 465.195 707.57C463.773 706.289 463.062 704.625 463.062 702.578C463.062 700.25 464.109 698.391 466.203 697C468.312 695.594 471.109 694.875 474.594 694.844H480.852V691.141C480.852 689.016 480.18 687.367 478.836 686.195C477.508 685.023 475.602 684.438 473.117 684.438C470.805 684.438 468.875 685.031 467.328 686.219C465.781 687.406 465.008 688.875 465.008 690.625L463.742 690.578C463.742 688.516 464.648 686.766 466.461 685.328C468.273 683.891 470.492 683.172 473.117 683.172C475.852 683.172 478.023 683.859 479.633 685.234C481.242 686.594 482.07 688.516 482.117 691V703.117C482.117 705.898 482.336 707.789 482.773 708.789V709H481.32ZM470.867 708.227C473.242 708.227 475.281 707.695 476.984 706.633C478.703 705.57 479.992 704.078 480.852 702.156V696.133H474.992C471.367 696.133 468.594 696.852 466.672 698.289C465.109 699.461 464.328 700.922 464.328 702.672C464.328 704.219 464.945 705.531 466.18 706.609C467.414 707.688 468.977 708.227 470.867 708.227ZM493.133 676.797V683.641H498.898V684.93H493.133V702.93C493.133 704.727 493.422 706.055 494 706.914C494.594 707.773 495.578 708.203 496.953 708.203C497.641 708.203 498.477 708.133 499.461 707.992L499.672 709.188C499.156 709.375 498.273 709.469 497.023 709.469C495.18 709.469 493.859 708.961 493.062 707.945C492.266 706.914 491.859 705.297 491.844 703.094V684.93H487.156V683.641H491.844V676.797H493.133ZM507.055 709H505.789V683.641H507.055V709ZM505.133 675.719C505.133 675.359 505.258 675.055 505.508 674.805C505.758 674.539 506.062 674.406 506.422 674.406C506.781 674.406 507.086 674.539 507.336 674.805C507.602 675.055 507.734 675.359 507.734 675.719C507.734 676.078 507.602 676.383 507.336 676.633C507.086 676.883 506.781 677.008 506.422 677.008C506.062 677.008 505.758 676.883 505.508 676.633C505.258 676.383 505.133 676.078 505.133 675.719ZM513.453 695.828C513.453 693.406 513.914 691.234 514.836 689.312C515.773 687.375 517.086 685.867 518.773 684.789C520.477 683.711 522.398 683.172 524.539 683.172C526.664 683.172 528.57 683.695 530.258 684.742C531.945 685.789 533.258 687.273 534.195 689.195C535.148 691.117 535.633 693.281 535.648 695.688V696.812C535.648 699.25 535.188 701.43 534.266 703.352C533.344 705.273 532.031 706.773 530.328 707.852C528.641 708.93 526.727 709.469 524.586 709.469C522.445 709.469 520.523 708.938 518.82 707.875C517.133 706.812 515.82 705.328 514.883 703.422C513.945 701.5 513.469 699.344 513.453 696.953V695.828ZM514.719 696.812C514.719 698.922 515.133 700.859 515.961 702.625C516.805 704.375 517.969 705.742 519.453 706.727C520.953 707.711 522.664 708.203 524.586 708.203C527.477 708.203 529.828 707.117 531.641 704.945C533.469 702.773 534.383 699.977 534.383 696.555V695.828C534.383 693.75 533.961 691.828 533.117 690.062C532.273 688.297 531.102 686.922 529.602 685.938C528.117 684.938 526.43 684.438 524.539 684.438C521.648 684.438 519.289 685.539 517.461 687.742C515.633 689.945 514.719 692.719 514.719 696.062V696.812ZM543.078 689.547C543.906 687.578 545.125 686.023 546.734 684.883C548.344 683.742 550.125 683.172 552.078 683.172C554.797 683.172 556.812 683.945 558.125 685.492C559.453 687.023 560.125 689.344 560.141 692.453V709H558.875V692.406C558.859 689.688 558.305 687.68 557.211 686.383C556.117 685.07 554.383 684.414 552.008 684.414C549.82 684.414 547.922 685.195 546.312 686.758C544.719 688.305 543.641 690.305 543.078 692.758V709H541.812V683.641H543.078V689.547Z" fill="black"/>
<rect width="619" height="100" transform="translate(42 340)" fill="white"/>
<rect x="62.5" y="340.5" width="99" height="99" rx="9.5" fill="white" stroke="black"/>
<path d="M199.977 405.734H217.484V407H198.688V372.875H199.977V405.734ZM220.906 393.828C220.906 391.406 221.367 389.234 222.289 387.312C223.227 385.375 224.539 383.867 226.227 382.789C227.93 381.711 229.852 381.172 231.992 381.172C234.117 381.172 236.023 381.695 237.711 382.742C239.398 383.789 240.711 385.273 241.648 387.195C242.602 389.117 243.086 391.281 243.102 393.688V394.812C243.102 397.25 242.641 399.43 241.719 401.352C240.797 403.273 239.484 404.773 237.781 405.852C236.094 406.93 234.18 407.469 232.039 407.469C229.898 407.469 227.977 406.938 226.273 405.875C224.586 404.812 223.273 403.328 222.336 401.422C221.398 399.5 220.922 397.344 220.906 394.953V393.828ZM222.172 394.812C222.172 396.922 222.586 398.859 223.414 400.625C224.258 402.375 225.422 403.742 226.906 404.727C228.406 405.711 230.117 406.203 232.039 406.203C234.93 406.203 237.281 405.117 239.094 402.945C240.922 400.773 241.836 397.977 241.836 394.555V393.828C241.836 391.75 241.414 389.828 240.57 388.062C239.727 386.297 238.555 384.922 237.055 383.938C235.57 382.938 233.883 382.438 231.992 382.438C229.102 382.438 226.742 383.539 224.914 385.742C223.086 387.945 222.172 390.719 222.172 394.062V394.812ZM257.867 406.203C260.164 406.203 262.055 405.594 263.539 404.375C265.039 403.156 265.859 401.469 266 399.312H267.266C267.141 401.766 266.195 403.742 264.43 405.242C262.664 406.727 260.477 407.469 257.867 407.469C254.695 407.469 252.172 406.32 250.297 404.023C248.438 401.727 247.508 398.609 247.508 394.672V393.828C247.508 389.984 248.438 386.914 250.297 384.617C252.172 382.32 254.68 381.172 257.82 381.172C260.508 381.172 262.727 381.977 264.477 383.586C266.227 385.195 267.156 387.336 267.266 390.008H266C265.891 387.727 265.086 385.898 263.586 384.523C262.102 383.133 260.18 382.438 257.82 382.438C254.992 382.438 252.773 383.461 251.164 385.508C249.57 387.539 248.773 390.367 248.773 393.992V394.812C248.773 398.359 249.578 401.148 251.188 403.18C252.812 405.195 255.039 406.203 257.867 406.203ZM290.023 407C289.711 405.922 289.555 404.375 289.555 402.359C288.555 403.984 287.188 405.242 285.453 406.133C283.719 407.023 281.758 407.469 279.57 407.469C277.227 407.469 275.336 406.836 273.898 405.57C272.477 404.289 271.766 402.625 271.766 400.578C271.766 398.25 272.812 396.391 274.906 395C277.016 393.594 279.812 392.875 283.297 392.844H289.555V389.141C289.555 387.016 288.883 385.367 287.539 384.195C286.211 383.023 284.305 382.438 281.82 382.438C279.508 382.438 277.578 383.031 276.031 384.219C274.484 385.406 273.711 386.875 273.711 388.625L272.445 388.578C272.445 386.516 273.352 384.766 275.164 383.328C276.977 381.891 279.195 381.172 281.82 381.172C284.555 381.172 286.727 381.859 288.336 383.234C289.945 384.594 290.773 386.516 290.82 389V401.117C290.82 403.898 291.039 405.789 291.477 406.789V407H290.023ZM279.57 406.227C281.945 406.227 283.984 405.695 285.688 404.633C287.406 403.57 288.695 402.078 289.555 400.156V394.133H283.695C280.07 394.133 277.297 394.852 275.375 396.289C273.812 397.461 273.031 398.922 273.031 400.672C273.031 402.219 273.648 403.531 274.883 404.609C276.117 405.688 277.68 406.227 279.57 406.227ZM301.836 374.797V381.641H307.602V382.93H301.836V400.93C301.836 402.727 302.125 404.055 302.703 404.914C303.297 405.773 304.281 406.203 305.656 406.203C306.344 406.203 307.18 406.133 308.164 405.992L308.375 407.188C307.859 407.375 306.977 407.469 305.727 407.469C303.883 407.469 302.562 406.961 301.766 405.945C300.969 404.914 300.562 403.297 300.547 401.094V382.93H295.859V381.641H300.547V374.797H301.836ZM315.758 407H314.492V381.641H315.758V407ZM313.836 373.719C313.836 373.359 313.961 373.055 314.211 372.805C314.461 372.539 314.766 372.406 315.125 372.406C315.484 372.406 315.789 372.539 316.039 372.805C316.305 373.055 316.438 373.359 316.438 373.719C316.438 374.078 316.305 374.383 316.039 374.633C315.789 374.883 315.484 375.008 315.125 375.008C314.766 375.008 314.461 374.883 314.211 374.633C313.961 374.383 313.836 374.078 313.836 373.719ZM322.156 393.828C322.156 391.406 322.617 389.234 323.539 387.312C324.477 385.375 325.789 383.867 327.477 382.789C329.18 381.711 331.102 381.172 333.242 381.172C335.367 381.172 337.273 381.695 338.961 382.742C340.648 383.789 341.961 385.273 342.898 387.195C343.852 389.117 344.336 391.281 344.352 393.688V394.812C344.352 397.25 343.891 399.43 342.969 401.352C342.047 403.273 340.734 404.773 339.031 405.852C337.344 406.93 335.43 407.469 333.289 407.469C331.148 407.469 329.227 406.938 327.523 405.875C325.836 404.812 324.523 403.328 323.586 401.422C322.648 399.5 322.172 397.344 322.156 394.953V393.828ZM323.422 394.812C323.422 396.922 323.836 398.859 324.664 400.625C325.508 402.375 326.672 403.742 328.156 404.727C329.656 405.711 331.367 406.203 333.289 406.203C336.18 406.203 338.531 405.117 340.344 402.945C342.172 400.773 343.086 397.977 343.086 394.555V393.828C343.086 391.75 342.664 389.828 341.82 388.062C340.977 386.297 339.805 384.922 338.305 383.938C336.82 382.938 335.133 382.438 333.242 382.438C330.352 382.438 327.992 383.539 326.164 385.742C324.336 387.945 323.422 390.719 323.422 394.062V394.812ZM351.781 387.547C352.609 385.578 353.828 384.023 355.438 382.883C357.047 381.742 358.828 381.172 360.781 381.172C363.5 381.172 365.516 381.945 366.828 383.492C368.156 385.023 368.828 387.344 368.844 390.453V407H367.578V390.406C367.562 387.688 367.008 385.68 365.914 384.383C364.82 383.07 363.086 382.414 360.711 382.414C358.523 382.414 356.625 383.195 355.016 384.758C353.422 386.305 352.344 388.305 351.781 390.758V407H350.516V381.641H351.781V387.547Z" fill="black"/>
<rect width="619" height="100" transform="translate(42 491)" fill="white"/>
<rect x="62.5" y="491.5" width="99" height="99" rx="9.5" fill="#EC7777" stroke="black"/>
<path d="M219.125 549.82C219.125 548.367 218.781 547.141 218.094 546.141C217.422 545.125 216.352 544.234 214.883 543.469C213.43 542.688 211.227 541.891 208.273 541.078C205.32 540.266 203.102 539.445 201.617 538.617C200.148 537.789 199.07 536.828 198.383 535.734C197.695 534.641 197.352 533.312 197.352 531.75C197.352 529.266 198.398 527.258 200.492 525.727C202.586 524.18 205.312 523.406 208.672 523.406C210.859 523.406 212.82 523.836 214.555 524.695C216.305 525.539 217.656 526.734 218.609 528.281C219.562 529.812 220.039 531.547 220.039 533.484H218.773C218.773 530.938 217.836 528.836 215.961 527.18C214.086 525.508 211.656 524.672 208.672 524.672C205.672 524.672 203.242 525.344 201.383 526.688C199.539 528.016 198.617 529.688 198.617 531.703C198.617 533.75 199.422 535.398 201.031 536.648C202.641 537.898 205.297 539.008 209 539.977C212.703 540.93 215.414 542.039 217.133 543.305C219.32 544.914 220.414 547.07 220.414 549.773C220.414 551.492 219.93 553.016 218.961 554.344C217.992 555.656 216.617 556.672 214.836 557.391C213.055 558.109 211.055 558.469 208.836 558.469C206.367 558.469 204.148 558.062 202.18 557.25C200.211 556.422 198.727 555.25 197.727 553.734C196.742 552.219 196.25 550.43 196.25 548.367H197.516C197.516 551.164 198.562 553.336 200.656 554.883C202.75 556.43 205.477 557.203 208.836 557.203C211.82 557.203 214.281 556.523 216.219 555.164C218.156 553.789 219.125 552.008 219.125 549.82ZM235.555 558.469C233.508 558.469 231.625 557.922 229.906 556.828C228.203 555.719 226.867 554.203 225.898 552.281C224.93 550.359 224.445 548.227 224.445 545.883V544.828C224.445 542.484 224.914 540.336 225.852 538.383C226.789 536.43 228.078 534.906 229.719 533.812C231.359 532.719 233.148 532.172 235.086 532.172C237.914 532.172 240.227 533.18 242.023 535.195C243.82 537.211 244.719 539.859 244.719 543.141V544.477H225.711V545.859C225.711 547.922 226.141 549.836 227 551.602C227.875 553.352 229.07 554.727 230.586 555.727C232.117 556.727 233.773 557.227 235.555 557.227C237.258 557.227 238.703 556.945 239.891 556.383C241.094 555.805 242.156 554.922 243.078 553.734L243.969 554.367C242.078 557.102 239.273 558.469 235.555 558.469ZM235.086 533.438C232.617 533.438 230.523 534.359 228.805 536.203C227.086 538.031 226.078 540.367 225.781 543.211H243.453V542.906C243.453 541.188 243.086 539.594 242.352 538.125C241.633 536.641 240.633 535.492 239.352 534.68C238.086 533.852 236.664 533.438 235.086 533.438ZM267.008 558C266.695 556.922 266.539 555.375 266.539 553.359C265.539 554.984 264.172 556.242 262.438 557.133C260.703 558.023 258.742 558.469 256.555 558.469C254.211 558.469 252.32 557.836 250.883 556.57C249.461 555.289 248.75 553.625 248.75 551.578C248.75 549.25 249.797 547.391 251.891 546C254 544.594 256.797 543.875 260.281 543.844H266.539V540.141C266.539 538.016 265.867 536.367 264.523 535.195C263.195 534.023 261.289 533.438 258.805 533.438C256.492 533.438 254.562 534.031 253.016 535.219C251.469 536.406 250.695 537.875 250.695 539.625L249.43 539.578C249.43 537.516 250.336 535.766 252.148 534.328C253.961 532.891 256.18 532.172 258.805 532.172C261.539 532.172 263.711 532.859 265.32 534.234C266.93 535.594 267.758 537.516 267.805 540V552.117C267.805 554.898 268.023 556.789 268.461 557.789V558H267.008ZM256.555 557.227C258.93 557.227 260.969 556.695 262.672 555.633C264.391 554.57 265.68 553.078 266.539 551.156V545.133H260.68C257.055 545.133 254.281 545.852 252.359 547.289C250.797 548.461 250.016 549.922 250.016 551.672C250.016 553.219 250.633 554.531 251.867 555.609C253.102 556.688 254.664 557.227 256.555 557.227ZM287.164 533.555L285.523 533.414C283.367 533.414 281.562 534.117 280.109 535.523C278.656 536.914 277.703 538.867 277.25 541.383V558H275.984V532.641H277.25V537.914C277.938 536.148 278.969 534.75 280.344 533.719C281.719 532.688 283.445 532.172 285.523 532.172C286.258 532.172 286.852 532.258 287.305 532.43L287.164 533.555ZM300.195 557.203C302.492 557.203 304.383 556.594 305.867 555.375C307.367 554.156 308.188 552.469 308.328 550.312H309.594C309.469 552.766 308.523 554.742 306.758 556.242C304.992 557.727 302.805 558.469 300.195 558.469C297.023 558.469 294.5 557.32 292.625 555.023C290.766 552.727 289.836 549.609 289.836 545.672V544.828C289.836 540.984 290.766 537.914 292.625 535.617C294.5 533.32 297.008 532.172 300.148 532.172C302.836 532.172 305.055 532.977 306.805 534.586C308.555 536.195 309.484 538.336 309.594 541.008H308.328C308.219 538.727 307.414 536.898 305.914 535.523C304.43 534.133 302.508 533.438 300.148 533.438C297.32 533.438 295.102 534.461 293.492 536.508C291.898 538.539 291.102 541.367 291.102 544.992V545.812C291.102 549.359 291.906 552.148 293.516 554.18C295.141 556.195 297.367 557.203 300.195 557.203ZM317.234 538.547C318.062 536.578 319.281 535.023 320.891 533.883C322.5 532.742 324.281 532.172 326.234 532.172C328.953 532.172 330.969 532.945 332.281 534.492C333.609 536.023 334.281 538.344 334.297 541.453V558H333.031V541.406C333.016 538.688 332.461 536.68 331.367 535.383C330.273 534.07 328.539 533.414 326.164 533.414C323.977 533.414 322.078 534.195 320.469 535.758C318.875 537.305 317.797 539.305 317.234 541.758V558H315.969V522H317.234V538.547ZM378.734 558H377.469V541.078H355.672V558H354.406V523.875H355.672V539.812H377.469V523.875H378.734V558ZM389.023 558H387.758V532.641H389.023V558ZM387.102 524.719C387.102 524.359 387.227 524.055 387.477 523.805C387.727 523.539 388.031 523.406 388.391 523.406C388.75 523.406 389.055 523.539 389.305 523.805C389.57 524.055 389.703 524.359 389.703 524.719C389.703 525.078 389.57 525.383 389.305 525.633C389.055 525.883 388.75 526.008 388.391 526.008C388.031 526.008 387.727 525.883 387.477 525.633C387.227 525.383 387.102 525.078 387.102 524.719ZM412.977 551.789C412.977 548.711 410.352 546.617 405.102 545.508C401.945 544.836 399.75 543.977 398.516 542.93C397.281 541.867 396.664 540.414 396.664 538.57C396.664 536.711 397.445 535.18 399.008 533.977C400.586 532.773 402.633 532.172 405.148 532.172C407.883 532.172 410.078 532.828 411.734 534.141C413.391 535.438 414.219 537.195 414.219 539.414H412.93C412.93 537.711 412.211 536.289 410.773 535.148C409.336 534.008 407.461 533.438 405.148 533.438C402.93 533.438 401.172 533.922 399.875 534.891C398.578 535.859 397.93 537.07 397.93 538.523C397.93 539.664 398.172 540.562 398.656 541.219C399.141 541.859 399.93 542.445 401.023 542.977C402.117 543.492 403.711 543.992 405.805 544.477C407.898 544.961 409.555 545.531 410.773 546.188C411.992 546.844 412.875 547.625 413.422 548.531C413.969 549.422 414.242 550.516 414.242 551.812C414.242 553.812 413.422 555.422 411.781 556.641C410.141 557.859 407.992 558.469 405.336 558.469C402.492 558.469 400.195 557.828 398.445 556.547C396.711 555.25 395.844 553.586 395.844 551.555H397.109C397.234 553.336 398.016 554.727 399.453 555.727C400.906 556.711 402.867 557.203 405.336 557.203C407.602 557.203 409.438 556.68 410.844 555.633C412.266 554.57 412.977 553.289 412.977 551.789ZM424.086 525.797V532.641H429.852V533.93H424.086V551.93C424.086 553.727 424.375 555.055 424.953 555.914C425.547 556.773 426.531 557.203 427.906 557.203C428.594 557.203 429.43 557.133 430.414 556.992L430.625 558.188C430.109 558.375 429.227 558.469 427.977 558.469C426.133 558.469 424.812 557.961 424.016 556.945C423.219 555.914 422.812 554.297 422.797 552.094V533.93H418.109V532.641H422.797V525.797H424.086ZM434.047 544.828C434.047 542.406 434.508 540.234 435.43 538.312C436.367 536.375 437.68 534.867 439.367 533.789C441.07 532.711 442.992 532.172 445.133 532.172C447.258 532.172 449.164 532.695 450.852 533.742C452.539 534.789 453.852 536.273 454.789 538.195C455.742 540.117 456.227 542.281 456.242 544.688V545.812C456.242 548.25 455.781 550.43 454.859 552.352C453.938 554.273 452.625 555.773 450.922 556.852C449.234 557.93 447.32 558.469 445.18 558.469C443.039 558.469 441.117 557.938 439.414 556.875C437.727 555.812 436.414 554.328 435.477 552.422C434.539 550.5 434.062 548.344 434.047 545.953V544.828ZM435.312 545.812C435.312 547.922 435.727 549.859 436.555 551.625C437.398 553.375 438.562 554.742 440.047 555.727C441.547 556.711 443.258 557.203 445.18 557.203C448.07 557.203 450.422 556.117 452.234 553.945C454.062 551.773 454.977 548.977 454.977 545.555V544.828C454.977 542.75 454.555 540.828 453.711 539.062C452.867 537.297 451.695 535.922 450.195 534.938C448.711 533.938 447.023 533.438 445.133 533.438C442.242 533.438 439.883 534.539 438.055 536.742C436.227 538.945 435.312 541.719 435.312 545.062V545.812ZM473.586 533.555L471.945 533.414C469.789 533.414 467.984 534.117 466.531 535.523C465.078 536.914 464.125 538.867 463.672 541.383V558H462.406V532.641H463.672V537.914C464.359 536.148 465.391 534.75 466.766 533.719C468.141 532.688 469.867 532.172 471.945 532.172C472.68 532.172 473.273 532.258 473.727 532.43L473.586 533.555ZM486.664 556.031L486.828 555.562L495.594 532.641H497L485.656 562.406L485.094 563.812C483.875 566.766 481.859 568.242 479.047 568.242C478.141 568.242 477.516 568.156 477.172 567.984L477.148 566.789C477.648 566.93 478.219 567 478.859 567C480.188 567 481.289 566.609 482.164 565.828C483.039 565.062 483.797 563.805 484.438 562.055L485.984 557.859L475.883 532.641H477.266L486.664 556.031Z" fill="black"/>
<path d="M88 515L138 565" stroke="black"/>
<path d="M88 565L138 515" stroke="black"/>
<path opacity="0.54" fill-rule="evenodd" clip-rule="evenodd" d="M1011.67 58.0667L1007.93 54.3334L993 69.2667L978.067 54.3334L974.333 58.0667L989.267 73L974.333 87.9334L978.067 91.6667L993 76.7334L1007.93 91.6667L1011.67 87.9334L996.733 73L1011.67 58.0667Z" fill="black"/>
<path opacity="0.54" fill-rule="evenodd" clip-rule="evenodd" d="M921 62.3333C923.933 62.3333 926.333 59.9333 926.333 57C926.333 54.0666 923.933 51.6666 921 51.6666C918.067 51.6666 915.667 54.0666 915.667 57C915.667 59.9333 918.067 62.3333 921 62.3333V62.3333ZM921 67.6667C918.067 67.6667 915.667 70.0667 915.667 73C915.667 75.9333 918.067 78.3333 921 78.3333C923.933 78.3333 926.333 75.9333 926.333 73C926.333 70.0667 923.933 67.6667 921 67.6667V67.6667ZM921 83.6667C918.067 83.6667 915.667 86.0667 915.667 89C915.667 91.9333 918.067 94.3333 921 94.3333C923.933 94.3333 926.333 91.9333 926.333 89C926.333 86.0667 923.933 83.6667 921 83.6667V83.6667Z" fill="black"/>
</g>
<defs>
<filter id="filter0_d" x="0" y="0" width="1062" height="987" filterUnits="userSpaceOnUse" color-interpolation-filters="sRGB">
<feFlood flood-opacity="0" result="BackgroundImageFix"/>
<feColorMatrix in="SourceAlpha" type="matrix" values="0 0 0 0 0 0 0 0 0 0 0 0 0 0 0 0 0 0 127 0"/>
<feOffset dx="1" dy="2"/>
<feGaussianBlur stdDeviation="5"/>
<feColorMatrix type="matrix" values="0 0 0 0 0 0 0 0 0 0 0 0 0 0 0 0 0 0 0.35 0"/>
<feBlend mode="normal" in2="BackgroundImageFix" result="effect1_dropShadow"/>
<feBlend mode="normal" in="SourceGraphic" in2="effect1_dropShadow" result="shape"/>
</filter>
</defs>
</svg>
