<svg width="890" height="311" viewBox="0 0 890 311" fill="none" xmlns="http://www.w3.org/2000/svg">
<rect width="890" height="311" fill="white"/>
<rect width="890" height="311" fill="white"/>
<rect width="890" height="311" fill="#CB48B7" fill-opacity="0.5"/>
<path d="M40.835 56.0605L42.5928 57.3057C41.1279 59.2262 40.3711 61.2933 40.3223 63.5068V66.6318H37.417V63.8975C37.417 62.4001 37.7181 60.9596 38.3203 59.5762C38.9388 58.1927 39.777 57.0208 40.835 56.0605ZM46.9629 56.0605L48.7207 57.3057C47.2559 59.2262 46.499 61.2933 46.4502 63.5068V66.6318H43.5449V63.8975C43.5449 62.4001 43.846 60.9596 44.4482 59.5762C45.0667 58.1927 45.9049 57.0208 46.9629 56.0605ZM79.6045 82.916C79.1976 86.6595 77.8548 89.5241 75.5762 91.5098C73.3138 93.4954 70.2946 94.4883 66.5186 94.4883C63.8818 94.4883 61.5462 93.8291 59.5117 92.5107C57.4935 91.1924 55.931 89.3288 54.8242 86.9199C53.7174 84.4948 53.1559 81.7279 53.1396 78.6191V74.0049C53.1396 70.8473 53.693 68.0479 54.7998 65.6064C55.9066 63.165 57.4935 61.2852 59.5605 59.9668C61.6439 58.6322 64.0365 57.9648 66.7383 57.9648C70.5469 57.9648 73.5498 58.9984 75.7471 61.0654C77.9606 63.1162 79.2464 65.9564 79.6045 69.5859H76.5771C75.8285 63.5475 72.5488 60.5283 66.7383 60.5283C63.5156 60.5283 60.944 61.7327 59.0234 64.1416C57.1191 66.5505 56.167 69.8789 56.167 74.127V78.4727C56.167 82.5742 57.0947 85.8457 58.9502 88.2871C60.8219 90.7285 63.3447 91.9492 66.5186 91.9492C69.6598 91.9492 72.028 91.2005 73.623 89.7031C75.2181 88.1895 76.2028 85.9271 76.5771 82.916H79.6045ZM102.896 94C102.603 93.1699 102.415 91.9411 102.334 90.3135C101.309 91.6481 99.9984 92.6816 98.4033 93.4141C96.8245 94.1302 95.1481 94.4883 93.374 94.4883C90.835 94.4883 88.776 93.7803 87.1973 92.3643C85.6348 90.9482 84.8535 89.1579 84.8535 86.9932C84.8535 84.4215 85.9196 82.387 88.0518 80.8896C90.2002 79.3923 93.1868 78.6436 97.0117 78.6436H102.31V75.6406C102.31 73.7526 101.724 72.2715 100.552 71.1973C99.3962 70.1068 97.7035 69.5615 95.4736 69.5615C93.4391 69.5615 91.7546 70.0824 90.4199 71.124C89.0853 72.1657 88.418 73.4189 88.418 74.8838L85.4883 74.8594C85.4883 72.7598 86.4648 70.945 88.418 69.415C90.3711 67.8688 92.7718 67.0957 95.6201 67.0957C98.5661 67.0957 100.885 67.8363 102.578 69.3174C104.287 70.7822 105.166 72.833 105.215 75.4697V87.9697C105.215 90.5251 105.483 92.4375 106.021 93.707V94H102.896ZM93.7158 91.9004C95.6689 91.9004 97.4105 91.4284 98.9404 90.4844C100.487 89.5404 101.61 88.279 102.31 86.7002V80.8896H97.085C94.1715 80.9222 91.8929 81.4593 90.249 82.501C88.6051 83.5264 87.7832 84.9424 87.7832 86.749C87.7832 88.2301 88.3285 89.459 89.4189 90.4355C90.5257 91.4121 91.958 91.9004 93.7158 91.9004ZM115.688 67.584L115.786 71.8809C116.763 70.2858 117.983 69.0895 119.448 68.292C120.913 67.4945 122.541 67.0957 124.331 67.0957C128.498 67.0957 131.143 68.8047 132.266 72.2227C133.21 70.5788 134.471 69.3174 136.05 68.4385C137.629 67.5433 139.37 67.0957 141.274 67.0957C146.938 67.0957 149.827 70.1882 149.941 76.373V94H147.012V76.5928C146.995 74.2327 146.483 72.4831 145.474 71.3438C144.481 70.2044 142.853 69.6348 140.591 69.6348C138.491 69.6673 136.717 70.3509 135.269 71.6855C133.82 73.0039 133.014 74.6152 132.852 76.5195V94H129.922V76.373C129.906 74.1107 129.368 72.4261 128.311 71.3193C127.269 70.1963 125.658 69.6348 123.477 69.6348C121.637 69.6348 120.059 70.1637 118.74 71.2217C117.422 72.2633 116.445 73.8177 115.811 75.8848V94H112.881V67.584H115.688ZM178.628 81.0605C178.628 85.1784 177.716 88.4499 175.894 90.875C174.071 93.2839 171.621 94.4883 168.545 94.4883C164.867 94.4883 162.083 93.1211 160.195 90.3867L160.073 94H157.339V56.5H160.244V71.417C162.1 68.5361 164.85 67.0957 168.496 67.0957C171.621 67.0957 174.087 68.292 175.894 70.6846C177.716 73.0609 178.628 76.373 178.628 80.6211V81.0605ZM175.698 80.5479C175.698 77.0648 175.023 74.3792 173.672 72.4912C172.321 70.5869 170.417 69.6348 167.959 69.6348C166.087 69.6348 164.5 70.0986 163.198 71.0264C161.896 71.9378 160.911 73.2806 160.244 75.0547V86.9688C161.709 90.2891 164.297 91.9492 168.008 91.9492C170.417 91.9492 172.297 90.9971 173.647 89.0928C175.015 87.1885 175.698 84.3402 175.698 80.5479ZM197.305 70.0742C196.686 69.9603 196.027 69.9033 195.327 69.9033C193.504 69.9033 191.958 70.416 190.688 71.4414C189.435 72.4505 188.54 73.9235 188.003 75.8604V94H185.098V67.584H187.954L188.003 71.7832C189.549 68.6582 192.031 67.0957 195.449 67.0957C196.263 67.0957 196.906 67.2015 197.378 67.4131L197.305 70.0742ZM205.215 94H202.285V67.584H205.215V94ZM201.772 59.9424C201.772 59.389 201.951 58.9251 202.31 58.5508C202.668 58.1602 203.156 57.9648 203.774 57.9648C204.393 57.9648 204.881 58.1602 205.239 58.5508C205.614 58.9251 205.801 59.389 205.801 59.9424C205.801 60.4958 205.614 60.9596 205.239 61.334C204.881 61.7083 204.393 61.8955 203.774 61.8955C203.156 61.8955 202.668 61.7083 202.31 61.334C201.951 60.9596 201.772 60.4958 201.772 59.9424ZM212.002 80.5479C212.002 76.4463 212.913 73.1829 214.736 70.7578C216.576 68.3164 219.066 67.0957 222.207 67.0957C225.771 67.0957 228.49 68.5036 230.361 71.3193V56.5H233.267V94H230.532L230.41 90.4844C228.538 93.1536 225.788 94.4883 222.158 94.4883C219.115 94.4883 216.657 93.2676 214.785 90.8262C212.93 88.3685 212.002 85.0563 212.002 80.8896V80.5479ZM214.956 81.0605C214.956 84.4297 215.632 87.0908 216.982 89.0439C218.333 90.9808 220.238 91.9492 222.695 91.9492C226.292 91.9492 228.848 90.3623 230.361 87.1885V74.7861C228.848 71.3519 226.309 69.6348 222.744 69.6348C220.286 69.6348 218.374 70.6032 217.007 72.54C215.64 74.4606 214.956 77.3008 214.956 81.0605ZM239.785 80.5479C239.785 76.4137 240.697 73.1423 242.52 70.7334C244.359 68.3083 246.849 67.0957 249.99 67.0957C253.587 67.0957 256.322 68.528 258.193 71.3926L258.34 67.584H261.074V93.4629C261.074 96.8646 260.122 99.5583 258.218 101.544C256.313 103.53 253.734 104.522 250.479 104.522C248.639 104.522 246.882 104.107 245.205 103.277C243.545 102.464 242.235 101.373 241.274 100.006L242.91 98.248C244.977 100.787 247.435 102.057 250.283 102.057C252.725 102.057 254.629 101.332 255.996 99.8838C257.363 98.4515 258.071 96.4577 258.12 93.9023V90.582C256.248 93.1862 253.522 94.4883 249.941 94.4883C246.882 94.4883 244.424 93.2676 242.568 90.8262C240.713 88.3848 239.785 85.0889 239.785 80.9385V80.5479ZM242.739 81.0605C242.739 84.4297 243.415 87.0908 244.766 89.0439C246.117 90.9808 248.021 91.9492 250.479 91.9492C254.076 91.9492 256.623 90.3379 258.12 87.1152V74.835C257.437 73.1423 256.452 71.8564 255.166 70.9775C253.88 70.0824 252.334 69.6348 250.527 69.6348C248.07 69.6348 246.157 70.6032 244.79 72.54C243.423 74.4606 242.739 77.3008 242.739 81.0605ZM278.921 94.4883C276.675 94.4883 274.64 93.9349 272.817 92.8281C271.011 91.7214 269.603 90.1833 268.594 88.2139C267.585 86.2282 267.08 84.0065 267.08 81.5488V80.499C267.08 77.96 267.568 75.6732 268.545 73.6387C269.538 71.6042 270.913 70.0091 272.671 68.8535C274.429 67.6816 276.333 67.0957 278.384 67.0957C281.59 67.0957 284.129 68.1943 286.001 70.3916C287.889 72.5726 288.833 75.5592 288.833 79.3516V80.9873H269.985V81.5488C269.985 84.5436 270.84 87.042 272.549 89.0439C274.274 91.0296 276.439 92.0225 279.043 92.0225C280.605 92.0225 281.981 91.7376 283.169 91.168C284.373 90.5983 285.464 89.6868 286.44 88.4336L288.271 89.8252C286.123 92.9339 283.006 94.4883 278.921 94.4883ZM278.384 69.5859C276.187 69.5859 274.331 70.3916 272.817 72.0029C271.32 73.6143 270.409 75.779 270.083 78.4971H285.928V78.1797C285.846 75.6406 285.122 73.5736 283.755 71.9785C282.388 70.3835 280.597 69.5859 278.384 69.5859ZM326.553 84.0391H310.415L306.753 94H303.604L317.056 58.4531H319.912L333.364 94H330.239L326.553 84.0391ZM311.343 81.4756H325.601L318.472 62.1152L311.343 81.4756ZM340.713 67.584L340.811 72.1006C341.803 70.473 343.04 69.236 344.521 68.3896C346.003 67.527 347.638 67.0957 349.429 67.0957C352.261 67.0957 354.368 67.8932 355.752 69.4883C357.135 71.0833 357.835 73.4759 357.852 76.666V94H354.946V76.6416C354.93 74.2816 354.425 72.5238 353.433 71.3682C352.456 70.2126 350.885 69.6348 348.721 69.6348C346.914 69.6348 345.311 70.2044 343.911 71.3438C342.528 72.4668 341.502 73.9886 340.835 75.9092V94H337.93V67.584H340.713ZM382.095 94C381.802 93.1699 381.615 91.9411 381.533 90.3135C380.508 91.6481 379.198 92.6816 377.603 93.4141C376.024 94.1302 374.347 94.4883 372.573 94.4883C370.034 94.4883 367.975 93.7803 366.396 92.3643C364.834 90.9482 364.053 89.1579 364.053 86.9932C364.053 84.4215 365.119 82.387 367.251 80.8896C369.399 79.3923 372.386 78.6436 376.211 78.6436H381.509V75.6406C381.509 73.7526 380.923 72.2715 379.751 71.1973C378.595 70.1068 376.903 69.5615 374.673 69.5615C372.638 69.5615 370.954 70.0824 369.619 71.124C368.285 72.1657 367.617 73.4189 367.617 74.8838L364.688 74.8594C364.688 72.7598 365.664 70.945 367.617 69.415C369.57 67.8688 371.971 67.0957 374.819 67.0957C377.765 67.0957 380.085 67.8363 381.777 69.3174C383.486 70.7822 384.365 72.833 384.414 75.4697V87.9697C384.414 90.5251 384.683 92.4375 385.22 93.707V94H382.095ZM372.915 91.9004C374.868 91.9004 376.61 91.4284 378.14 90.4844C379.686 89.5404 380.809 88.279 381.509 86.7002V80.8896H376.284C373.371 80.9222 371.092 81.4593 369.448 82.501C367.804 83.5264 366.982 84.9424 366.982 86.749C366.982 88.2301 367.528 89.459 368.618 90.4355C369.725 91.4121 371.157 91.9004 372.915 91.9004ZM395.498 94H392.568V56.5H395.498V94ZM411.831 89.8008L419.546 67.584H422.695L411.416 98.4922L410.83 99.8594C409.382 103.066 407.144 104.669 404.116 104.669C403.416 104.669 402.668 104.555 401.87 104.327L401.846 101.91L403.359 102.057C404.792 102.057 405.947 101.699 406.826 100.982C407.721 100.283 408.478 99.07 409.097 97.3447L410.391 93.7803L400.43 67.584H403.628L411.831 89.8008ZM431.777 60.8213V67.584H437.246V69.9766H431.777V87.5791C431.777 89.0439 432.038 90.1344 432.559 90.8506C433.096 91.5667 433.983 91.9248 435.22 91.9248C435.708 91.9248 436.497 91.8434 437.588 91.6807L437.71 94.0732C436.945 94.3499 435.903 94.4883 434.585 94.4883C432.583 94.4883 431.126 93.9105 430.215 92.7549C429.303 91.583 428.848 89.8659 428.848 87.6035V69.9766H423.989V67.584H428.848V60.8213H431.777ZM446.572 94H443.643V67.584H446.572V94ZM443.13 59.9424C443.13 59.389 443.309 58.9251 443.667 58.5508C444.025 58.1602 444.513 57.9648 445.132 57.9648C445.75 57.9648 446.239 58.1602 446.597 58.5508C446.971 58.9251 447.158 59.389 447.158 59.9424C447.158 60.4958 446.971 60.9596 446.597 61.334C446.239 61.7083 445.75 61.8955 445.132 61.8955C444.513 61.8955 444.025 61.7083 443.667 61.334C443.309 60.9596 443.13 60.4958 443.13 59.9424ZM464.297 92.0225C466.331 92.0225 468.032 91.4528 469.399 90.3135C470.783 89.1579 471.532 87.6686 471.646 85.8457H474.453C474.372 87.457 473.867 88.93 472.939 90.2646C472.012 91.583 470.775 92.6165 469.229 93.3652C467.699 94.1139 466.055 94.4883 464.297 94.4883C460.83 94.4883 458.079 93.2839 456.045 90.875C454.027 88.4661 453.018 85.2272 453.018 81.1582V80.2793C453.018 77.6751 453.473 75.3721 454.385 73.3701C455.296 71.3682 456.598 69.8219 458.291 68.7314C460 67.641 461.994 67.0957 464.272 67.0957C467.17 67.0957 469.554 67.9583 471.426 69.6836C473.314 71.4089 474.323 73.6794 474.453 76.4951H471.646C471.515 74.4281 470.767 72.7598 469.399 71.4902C468.049 70.2207 466.34 69.5859 464.272 69.5859C461.636 69.5859 459.585 70.5381 458.12 72.4424C456.672 74.3467 455.947 77.016 455.947 80.4502V81.3047C455.947 84.6738 456.672 87.3024 458.12 89.1904C459.585 91.0785 461.644 92.0225 464.297 92.0225ZM496.987 94C496.694 93.1699 496.507 91.9411 496.426 90.3135C495.4 91.6481 494.09 92.6816 492.495 93.4141C490.916 94.1302 489.24 94.4883 487.466 94.4883C484.927 94.4883 482.868 93.7803 481.289 92.3643C479.727 90.9482 478.945 89.1579 478.945 86.9932C478.945 84.4215 480.011 82.387 482.144 80.8896C484.292 79.3923 487.279 78.6436 491.104 78.6436H496.401V75.6406C496.401 73.7526 495.815 72.2715 494.644 71.1973C493.488 70.1068 491.795 69.5615 489.565 69.5615C487.531 69.5615 485.846 70.0824 484.512 71.124C483.177 72.1657 482.51 73.4189 482.51 74.8838L479.58 74.8594C479.58 72.7598 480.557 70.945 482.51 69.415C484.463 67.8688 486.864 67.0957 489.712 67.0957C492.658 67.0957 494.977 67.8363 496.67 69.3174C498.379 70.7822 499.258 72.833 499.307 75.4697V87.9697C499.307 90.5251 499.575 92.4375 500.112 93.707V94H496.987ZM487.808 91.9004C489.761 91.9004 491.502 91.4284 493.032 90.4844C494.578 89.5404 495.701 88.279 496.401 86.7002V80.8896H491.177C488.263 80.9222 485.985 81.4593 484.341 82.501C482.697 83.5264 481.875 84.9424 481.875 86.749C481.875 88.2301 482.42 89.459 483.511 90.4355C484.618 91.4121 486.05 91.9004 487.808 91.9004ZM519.961 94V58.4531H529.897C532.811 58.4531 535.423 59.1204 537.734 60.4551C540.046 61.7734 541.844 63.6696 543.13 66.1436C544.432 68.6175 545.083 71.4333 545.083 74.5908V77.8623C545.083 81.0361 544.44 83.8519 543.154 86.3096C541.868 88.7673 540.054 90.6634 537.71 91.998C535.382 93.3327 532.705 94 529.678 94H519.961ZM522.964 61.0166V91.4609H529.702C533.446 91.4609 536.449 90.224 538.711 87.75C540.973 85.2598 542.104 81.8988 542.104 77.667V74.542C542.104 70.4567 540.99 67.1852 538.76 64.7275C536.53 62.2699 533.592 61.0329 529.946 61.0166H522.964ZM568.716 94C568.423 93.1699 568.236 91.9411 568.154 90.3135C567.129 91.6481 565.819 92.6816 564.224 93.4141C562.645 94.1302 560.968 94.4883 559.194 94.4883C556.655 94.4883 554.596 93.7803 553.018 92.3643C551.455 90.9482 550.674 89.1579 550.674 86.9932C550.674 84.4215 551.74 82.387 553.872 80.8896C556.021 79.3923 559.007 78.6436 562.832 78.6436H568.13V75.6406C568.13 73.7526 567.544 72.2715 566.372 71.1973C565.216 70.1068 563.524 69.5615 561.294 69.5615C559.259 69.5615 557.575 70.0824 556.24 71.124C554.906 72.1657 554.238 73.4189 554.238 74.8838L551.309 74.8594C551.309 72.7598 552.285 70.945 554.238 69.415C556.191 67.8688 558.592 67.0957 561.44 67.0957C564.386 67.0957 566.706 67.8363 568.398 69.3174C570.107 70.7822 570.986 72.833 571.035 75.4697V87.9697C571.035 90.5251 571.304 92.4375 571.841 93.707V94H568.716ZM559.536 91.9004C561.489 91.9004 563.231 91.4284 564.761 90.4844C566.307 89.5404 567.43 88.279 568.13 86.7002V80.8896H562.905C559.992 80.9222 557.713 81.4593 556.069 82.501C554.425 83.5264 553.604 84.9424 553.604 86.749C553.604 88.2301 554.149 89.459 555.239 90.4355C556.346 91.4121 557.778 91.9004 559.536 91.9004ZM583.389 60.8213V67.584H588.857V69.9766H583.389V87.5791C583.389 89.0439 583.649 90.1344 584.17 90.8506C584.707 91.5667 585.594 91.9248 586.831 91.9248C587.319 91.9248 588.109 91.8434 589.199 91.6807L589.321 94.0732C588.556 94.3499 587.515 94.4883 586.196 94.4883C584.194 94.4883 582.738 93.9105 581.826 92.7549C580.915 91.583 580.459 89.8659 580.459 87.6035V69.9766H575.601V67.584H580.459V60.8213H583.389ZM611.587 94C611.294 93.1699 611.107 91.9411 611.025 90.3135C610 91.6481 608.69 92.6816 607.095 93.4141C605.516 94.1302 603.84 94.4883 602.065 94.4883C599.526 94.4883 597.467 93.7803 595.889 92.3643C594.326 90.9482 593.545 89.1579 593.545 86.9932C593.545 84.4215 594.611 82.387 596.743 80.8896C598.892 79.3923 601.878 78.6436 605.703 78.6436H611.001V75.6406C611.001 73.7526 610.415 72.2715 609.243 71.1973C608.088 70.1068 606.395 69.5615 604.165 69.5615C602.131 69.5615 600.446 70.0824 599.111 71.124C597.777 72.1657 597.109 73.4189 597.109 74.8838L594.18 74.8594C594.18 72.7598 595.156 70.945 597.109 69.415C599.062 67.8688 601.463 67.0957 604.312 67.0957C607.257 67.0957 609.577 67.8363 611.27 69.3174C612.979 70.7822 613.857 72.833 613.906 75.4697V87.9697C613.906 90.5251 614.175 92.4375 614.712 93.707V94H611.587ZM602.407 91.9004C604.36 91.9004 606.102 91.4284 607.632 90.4844C609.178 89.5404 610.301 88.279 611.001 86.7002V80.8896H605.776C602.863 80.9222 600.584 81.4593 598.94 82.501C597.297 83.5264 596.475 84.9424 596.475 86.749C596.475 88.2301 597.02 89.459 598.11 90.4355C599.217 91.4121 600.649 91.9004 602.407 91.9004ZM638.54 58.4531L651.65 89.8252L664.81 58.4531H668.813V94H665.811V78.5215L666.055 62.6523L652.822 94H650.503L637.319 62.7744L637.563 78.4238V94H634.561V58.4531H638.54ZM680.41 94H677.48V67.584H680.41V94ZM676.968 59.9424C676.968 59.389 677.147 58.9251 677.505 58.5508C677.863 58.1602 678.351 57.9648 678.97 57.9648C679.588 57.9648 680.076 58.1602 680.435 58.5508C680.809 58.9251 680.996 59.389 680.996 59.9424C680.996 60.4958 680.809 60.9596 680.435 61.334C680.076 61.7083 679.588 61.8955 678.97 61.8955C678.351 61.8955 677.863 61.7083 677.505 61.334C677.147 60.9596 676.968 60.4958 676.968 59.9424ZM704.189 87.2861C704.189 85.8376 703.604 84.6738 702.432 83.7949C701.276 82.916 699.526 82.2324 697.183 81.7441C694.839 81.2396 693.016 80.6699 691.714 80.0352C690.428 79.3841 689.468 78.5947 688.833 77.667C688.215 76.7393 687.905 75.6162 687.905 74.2979C687.905 72.2145 688.776 70.4974 690.518 69.1465C692.259 67.7793 694.489 67.0957 697.207 67.0957C700.153 67.0957 702.513 67.8281 704.287 69.293C706.077 70.7415 706.973 72.6377 706.973 74.9814H704.043C704.043 73.4352 703.392 72.1494 702.09 71.124C700.804 70.0986 699.176 69.5859 697.207 69.5859C695.286 69.5859 693.74 70.0173 692.568 70.8799C691.413 71.7262 690.835 72.833 690.835 74.2002C690.835 75.5186 691.315 76.5439 692.275 77.2764C693.252 77.9925 695.018 78.6517 697.573 79.2539C700.145 79.8561 702.065 80.499 703.335 81.1826C704.621 81.8662 705.573 82.6882 706.191 83.6484C706.81 84.6087 707.119 85.7725 707.119 87.1396C707.119 89.3695 706.216 91.1517 704.409 92.4863C702.619 93.821 700.275 94.4883 697.378 94.4883C694.302 94.4883 691.803 93.7477 689.883 92.2666C687.979 90.7692 687.026 88.8812 687.026 86.6025H689.956C690.07 88.3115 690.786 89.6462 692.104 90.6064C693.439 91.5505 695.197 92.0225 697.378 92.0225C699.412 92.0225 701.056 91.5749 702.31 90.6797C703.563 89.7845 704.189 88.6533 704.189 87.2861ZM730.703 90.6553C728.945 93.2106 726.138 94.4883 722.28 94.4883C719.465 94.4883 717.324 93.6745 715.859 92.0469C714.395 90.403 713.646 87.9779 713.613 84.7715V67.584H716.519V84.4053C716.519 89.4346 718.553 91.9492 722.622 91.9492C726.854 91.9492 729.531 90.1995 730.654 86.7002V67.584H733.584V94H730.752L730.703 90.6553ZM757.021 87.2861C757.021 85.8376 756.436 84.6738 755.264 83.7949C754.108 82.916 752.358 82.2324 750.015 81.7441C747.671 81.2396 745.848 80.6699 744.546 80.0352C743.26 79.3841 742.3 78.5947 741.665 77.667C741.047 76.7393 740.737 75.6162 740.737 74.2979C740.737 72.2145 741.608 70.4974 743.35 69.1465C745.091 67.7793 747.321 67.0957 750.039 67.0957C752.985 67.0957 755.345 67.8281 757.119 69.293C758.91 70.7415 759.805 72.6377 759.805 74.9814H756.875C756.875 73.4352 756.224 72.1494 754.922 71.124C753.636 70.0986 752.008 69.5859 750.039 69.5859C748.118 69.5859 746.572 70.0173 745.4 70.8799C744.245 71.7262 743.667 72.833 743.667 74.2002C743.667 75.5186 744.147 76.5439 745.107 77.2764C746.084 77.9925 747.85 78.6517 750.405 79.2539C752.977 79.8561 754.897 80.499 756.167 81.1826C757.453 81.8662 758.405 82.6882 759.023 83.6484C759.642 84.6087 759.951 85.7725 759.951 87.1396C759.951 89.3695 759.048 91.1517 757.241 92.4863C755.451 93.821 753.107 94.4883 750.21 94.4883C747.134 94.4883 744.635 93.7477 742.715 92.2666C740.811 90.7692 739.858 88.8812 739.858 86.6025H742.788C742.902 88.3115 743.618 89.6462 744.937 90.6064C746.271 91.5505 748.029 92.0225 750.21 92.0225C752.244 92.0225 753.888 91.5749 755.142 90.6797C756.395 89.7845 757.021 88.6533 757.021 87.2861ZM776.772 94.4883C774.526 94.4883 772.492 93.9349 770.669 92.8281C768.862 91.7214 767.454 90.1833 766.445 88.2139C765.436 86.2282 764.932 84.0065 764.932 81.5488V80.499C764.932 77.96 765.42 75.6732 766.396 73.6387C767.389 71.6042 768.765 70.0091 770.522 68.8535C772.28 67.6816 774.185 67.0957 776.235 67.0957C779.442 67.0957 781.981 68.1943 783.853 70.3916C785.741 72.5726 786.685 75.5592 786.685 79.3516V80.9873H767.837V81.5488C767.837 84.5436 768.691 87.042 770.4 89.0439C772.126 91.0296 774.29 92.0225 776.895 92.0225C778.457 92.0225 779.832 91.7376 781.021 91.168C782.225 90.5983 783.315 89.6868 784.292 88.4336L786.123 89.8252C783.975 92.9339 780.858 94.4883 776.772 94.4883ZM776.235 69.5859C774.038 69.5859 772.183 70.3916 770.669 72.0029C769.172 73.6143 768.26 75.779 767.935 78.4971H783.779V78.1797C783.698 75.6406 782.974 73.5736 781.606 71.9785C780.239 70.3835 778.449 69.5859 776.235 69.5859ZM791.665 92.2422C791.665 91.6725 791.844 91.1924 792.202 90.8018C792.576 90.3949 793.089 90.1914 793.74 90.1914C794.391 90.1914 794.904 90.3949 795.278 90.8018C795.653 91.1924 795.84 91.6725 795.84 92.2422C795.84 92.8118 795.653 93.2839 795.278 93.6582C794.904 94.0163 794.391 94.1953 793.74 94.1953C793.089 94.1953 792.576 94.0163 792.202 93.6582C791.844 93.2839 791.665 92.8118 791.665 92.2422ZM791.714 69.708C791.714 69.1383 791.893 68.6582 792.251 68.2676C792.625 67.8607 793.138 67.6572 793.789 67.6572C794.44 67.6572 794.953 67.8607 795.327 68.2676C795.701 68.6582 795.889 69.1383 795.889 69.708C795.889 70.2777 795.701 70.7497 795.327 71.124C794.953 71.4821 794.44 71.6611 793.789 71.6611C793.138 71.6611 792.625 71.4821 792.251 71.124C791.893 70.7497 791.714 70.2777 791.714 69.708ZM59.0723 136.398H42.4951V153H39.4922V117.453H61.5137V120.017H42.4951V133.835H59.0723V136.398ZM82.7783 153C82.4854 152.17 82.2982 150.941 82.2168 149.313C81.1914 150.648 79.8812 151.682 78.2861 152.414C76.7074 153.13 75.0309 153.488 73.2568 153.488C70.7178 153.488 68.6589 152.78 67.0801 151.364C65.5176 149.948 64.7363 148.158 64.7363 145.993C64.7363 143.422 65.8024 141.387 67.9346 139.89C70.083 138.392 73.0697 137.644 76.8945 137.644H82.1924V134.641C82.1924 132.753 81.6064 131.271 80.4346 130.197C79.279 129.107 77.5863 128.562 75.3564 128.562C73.3219 128.562 71.6374 129.082 70.3027 130.124C68.9681 131.166 68.3008 132.419 68.3008 133.884L65.3711 133.859C65.3711 131.76 66.3477 129.945 68.3008 128.415C70.2539 126.869 72.6546 126.096 75.5029 126.096C78.4489 126.096 80.7682 126.836 82.4609 128.317C84.1699 129.782 85.0488 131.833 85.0977 134.47V146.97C85.0977 149.525 85.3662 151.438 85.9033 152.707V153H82.7783ZM73.5986 150.9C75.5518 150.9 77.2933 150.428 78.8232 149.484C80.3695 148.54 81.4925 147.279 82.1924 145.7V139.89H76.9678C74.0544 139.922 71.7757 140.459 70.1318 141.501C68.488 142.526 67.666 143.942 67.666 145.749C67.666 147.23 68.2113 148.459 69.3018 149.436C70.4085 150.412 71.8408 150.9 73.5986 150.9ZM102.676 151.022C104.71 151.022 106.411 150.453 107.778 149.313C109.162 148.158 109.91 146.669 110.024 144.846H112.832C112.751 146.457 112.246 147.93 111.318 149.265C110.391 150.583 109.154 151.617 107.607 152.365C106.077 153.114 104.434 153.488 102.676 153.488C99.209 153.488 96.4583 152.284 94.4238 149.875C92.4056 147.466 91.3965 144.227 91.3965 140.158V139.279C91.3965 136.675 91.8522 134.372 92.7637 132.37C93.6751 130.368 94.9772 128.822 96.6699 127.731C98.3789 126.641 100.373 126.096 102.651 126.096C105.549 126.096 107.933 126.958 109.805 128.684C111.693 130.409 112.702 132.679 112.832 135.495H110.024C109.894 133.428 109.146 131.76 107.778 130.49C106.427 129.221 104.718 128.586 102.651 128.586C100.015 128.586 97.9639 129.538 96.499 131.442C95.0505 133.347 94.3262 136.016 94.3262 139.45V140.305C94.3262 143.674 95.0505 146.302 96.499 148.19C97.9639 150.078 100.023 151.022 102.676 151.022ZM128.921 153.488C126.675 153.488 124.64 152.935 122.817 151.828C121.011 150.721 119.603 149.183 118.594 147.214C117.585 145.228 117.08 143.007 117.08 140.549V139.499C117.08 136.96 117.568 134.673 118.545 132.639C119.538 130.604 120.913 129.009 122.671 127.854C124.429 126.682 126.333 126.096 128.384 126.096C131.59 126.096 134.129 127.194 136.001 129.392C137.889 131.573 138.833 134.559 138.833 138.352V139.987H119.985V140.549C119.985 143.544 120.84 146.042 122.549 148.044C124.274 150.03 126.439 151.022 129.043 151.022C130.605 151.022 131.981 150.738 133.169 150.168C134.373 149.598 135.464 148.687 136.44 147.434L138.271 148.825C136.123 151.934 133.006 153.488 128.921 153.488ZM128.384 128.586C126.187 128.586 124.331 129.392 122.817 131.003C121.32 132.614 120.409 134.779 120.083 137.497H135.928V137.18C135.846 134.641 135.122 132.574 133.755 130.979C132.388 129.383 130.597 128.586 128.384 128.586ZM165.786 140.061C165.786 144.178 164.875 147.45 163.052 149.875C161.229 152.284 158.779 153.488 155.703 153.488C152.025 153.488 149.242 152.121 147.354 149.387L147.231 153H144.497V115.5H147.402V130.417C149.258 127.536 152.008 126.096 155.654 126.096C158.779 126.096 161.245 127.292 163.052 129.685C164.875 132.061 165.786 135.373 165.786 139.621V140.061ZM162.856 139.548C162.856 136.065 162.181 133.379 160.83 131.491C159.479 129.587 157.575 128.635 155.117 128.635C153.245 128.635 151.659 129.099 150.356 130.026C149.054 130.938 148.07 132.281 147.402 134.055V145.969C148.867 149.289 151.455 150.949 155.166 150.949C157.575 150.949 159.455 149.997 160.806 148.093C162.173 146.188 162.856 143.34 162.856 139.548ZM170.645 139.401C170.645 136.862 171.133 134.576 172.109 132.541C173.102 130.507 174.494 128.928 176.284 127.805C178.091 126.665 180.133 126.096 182.412 126.096C185.928 126.096 188.776 127.333 190.957 129.807C193.138 132.264 194.229 135.528 194.229 139.597V140.207C194.229 142.762 193.732 145.065 192.739 147.116C191.763 149.151 190.379 150.721 188.589 151.828C186.799 152.935 184.756 153.488 182.461 153.488C178.962 153.488 176.113 152.259 173.916 149.802C171.735 147.328 170.645 144.056 170.645 139.987V139.401ZM173.574 140.207C173.574 143.365 174.388 145.961 176.016 147.995C177.66 150.013 179.808 151.022 182.461 151.022C185.098 151.022 187.23 150.013 188.857 147.995C190.501 145.961 191.323 143.283 191.323 139.963V139.401C191.323 137.383 190.949 135.536 190.2 133.859C189.451 132.183 188.402 130.889 187.051 129.978C185.7 129.05 184.154 128.586 182.412 128.586C179.808 128.586 177.684 129.611 176.04 131.662C174.396 133.697 173.574 136.366 173.574 139.67V140.207ZM198.672 139.401C198.672 136.862 199.16 134.576 200.137 132.541C201.13 130.507 202.521 128.928 204.312 127.805C206.118 126.665 208.161 126.096 210.439 126.096C213.955 126.096 216.803 127.333 218.984 129.807C221.165 132.264 222.256 135.528 222.256 139.597V140.207C222.256 142.762 221.759 145.065 220.767 147.116C219.79 149.151 218.407 150.721 216.616 151.828C214.826 152.935 212.783 153.488 210.488 153.488C206.989 153.488 204.141 152.259 201.943 149.802C199.762 147.328 198.672 144.056 198.672 139.987V139.401ZM201.602 140.207C201.602 143.365 202.415 145.961 204.043 147.995C205.687 150.013 207.835 151.022 210.488 151.022C213.125 151.022 215.257 150.013 216.885 147.995C218.529 145.961 219.351 143.283 219.351 139.963V139.401C219.351 137.383 218.976 135.536 218.228 133.859C217.479 132.183 216.429 130.889 215.078 129.978C213.727 129.05 212.181 128.586 210.439 128.586C207.835 128.586 205.711 129.611 204.067 131.662C202.424 133.697 201.602 136.366 201.602 139.67V140.207ZM234.585 139.694L231.24 142.917V153H228.311V115.5H231.24V139.499L233.999 136.521L244.106 126.584H247.793L236.587 137.717L248.77 153H245.278L234.585 139.694ZM290.835 141.916C290.428 145.66 289.085 148.524 286.807 150.51C284.544 152.495 281.525 153.488 277.749 153.488C275.112 153.488 272.777 152.829 270.742 151.511C268.724 150.192 267.161 148.329 266.055 145.92C264.948 143.495 264.386 140.728 264.37 137.619V133.005C264.37 129.847 264.924 127.048 266.03 124.606C267.137 122.165 268.724 120.285 270.791 118.967C272.874 117.632 275.267 116.965 277.969 116.965C281.777 116.965 284.78 117.998 286.978 120.065C289.191 122.116 290.477 124.956 290.835 128.586H287.808C287.059 122.548 283.779 119.528 277.969 119.528C274.746 119.528 272.174 120.733 270.254 123.142C268.35 125.55 267.397 128.879 267.397 133.127V137.473C267.397 141.574 268.325 144.846 270.181 147.287C272.052 149.729 274.575 150.949 277.749 150.949C280.89 150.949 283.258 150.201 284.854 148.703C286.449 147.189 287.433 144.927 287.808 141.916H290.835ZM309.658 129.074C309.04 128.96 308.381 128.903 307.681 128.903C305.858 128.903 304.312 129.416 303.042 130.441C301.789 131.451 300.894 132.924 300.356 134.86V153H297.451V126.584H300.308L300.356 130.783C301.903 127.658 304.385 126.096 307.803 126.096C308.617 126.096 309.259 126.201 309.731 126.413L309.658 129.074ZM317.568 153H314.639V126.584H317.568V153ZM314.126 118.942C314.126 118.389 314.305 117.925 314.663 117.551C315.021 117.16 315.509 116.965 316.128 116.965C316.746 116.965 317.235 117.16 317.593 117.551C317.967 117.925 318.154 118.389 318.154 118.942C318.154 119.496 317.967 119.96 317.593 120.334C317.235 120.708 316.746 120.896 316.128 120.896C315.509 120.896 315.021 120.708 314.663 120.334C314.305 119.96 314.126 119.496 314.126 118.942ZM330.068 119.821V126.584H335.537V128.977H330.068V146.579C330.068 148.044 330.329 149.134 330.85 149.851C331.387 150.567 332.274 150.925 333.511 150.925C333.999 150.925 334.788 150.843 335.879 150.681L336.001 153.073C335.236 153.35 334.194 153.488 332.876 153.488C330.874 153.488 329.417 152.91 328.506 151.755C327.594 150.583 327.139 148.866 327.139 146.604V128.977H322.28V126.584H327.139V119.821H330.068ZM344.863 153H341.934V126.584H344.863V153ZM341.421 118.942C341.421 118.389 341.6 117.925 341.958 117.551C342.316 117.16 342.804 116.965 343.423 116.965C344.041 116.965 344.53 117.16 344.888 117.551C345.262 117.925 345.449 118.389 345.449 118.942C345.449 119.496 345.262 119.96 344.888 120.334C344.53 120.708 344.041 120.896 343.423 120.896C342.804 120.896 342.316 120.708 341.958 120.334C341.6 119.96 341.421 119.496 341.421 118.942ZM362.588 151.022C364.622 151.022 366.323 150.453 367.69 149.313C369.074 148.158 369.823 146.669 369.937 144.846H372.744C372.663 146.457 372.158 147.93 371.23 149.265C370.303 150.583 369.066 151.617 367.52 152.365C365.99 153.114 364.346 153.488 362.588 153.488C359.121 153.488 356.37 152.284 354.336 149.875C352.318 147.466 351.309 144.227 351.309 140.158V139.279C351.309 136.675 351.764 134.372 352.676 132.37C353.587 130.368 354.889 128.822 356.582 127.731C358.291 126.641 360.285 126.096 362.563 126.096C365.461 126.096 367.845 126.958 369.717 128.684C371.605 130.409 372.614 132.679 372.744 135.495H369.937C369.806 133.428 369.058 131.76 367.69 130.49C366.34 129.221 364.631 128.586 362.563 128.586C359.927 128.586 357.876 129.538 356.411 131.442C354.963 133.347 354.238 136.016 354.238 139.45V140.305C354.238 143.674 354.963 146.302 356.411 148.19C357.876 150.078 359.935 151.022 362.588 151.022ZM394.424 146.286C394.424 144.838 393.838 143.674 392.666 142.795C391.51 141.916 389.761 141.232 387.417 140.744C385.073 140.24 383.25 139.67 381.948 139.035C380.662 138.384 379.702 137.595 379.067 136.667C378.449 135.739 378.14 134.616 378.14 133.298C378.14 131.215 379.01 129.497 380.752 128.146C382.493 126.779 384.723 126.096 387.441 126.096C390.387 126.096 392.747 126.828 394.521 128.293C396.312 129.742 397.207 131.638 397.207 133.981H394.277C394.277 132.435 393.626 131.149 392.324 130.124C391.038 129.099 389.411 128.586 387.441 128.586C385.521 128.586 383.975 129.017 382.803 129.88C381.647 130.726 381.069 131.833 381.069 133.2C381.069 134.519 381.549 135.544 382.51 136.276C383.486 136.993 385.252 137.652 387.808 138.254C390.379 138.856 392.3 139.499 393.569 140.183C394.855 140.866 395.807 141.688 396.426 142.648C397.044 143.609 397.354 144.772 397.354 146.14C397.354 148.369 396.45 150.152 394.644 151.486C392.853 152.821 390.509 153.488 387.612 153.488C384.536 153.488 382.038 152.748 380.117 151.267C378.213 149.769 377.261 147.881 377.261 145.603H380.19C380.304 147.312 381.021 148.646 382.339 149.606C383.674 150.55 385.431 151.022 387.612 151.022C389.647 151.022 391.291 150.575 392.544 149.68C393.797 148.785 394.424 147.653 394.424 146.286ZM423.354 143.405L424.453 148.923L425.796 143.649L433.511 117.453H436.221L443.838 143.649L445.156 148.972L446.328 143.405L452.749 117.453H455.825L446.719 153H443.838L435.781 125.192L434.878 121.677L433.999 125.192L425.747 153H422.866L413.784 117.453H416.86L423.354 143.405ZM476.772 153C476.479 152.17 476.292 150.941 476.211 149.313C475.186 150.648 473.875 151.682 472.28 152.414C470.701 153.13 469.025 153.488 467.251 153.488C464.712 153.488 462.653 152.78 461.074 151.364C459.512 149.948 458.73 148.158 458.73 145.993C458.73 143.422 459.797 141.387 461.929 139.89C464.077 138.392 467.064 137.644 470.889 137.644H476.187V134.641C476.187 132.753 475.601 131.271 474.429 130.197C473.273 129.107 471.58 128.562 469.351 128.562C467.316 128.562 465.632 129.082 464.297 130.124C462.962 131.166 462.295 132.419 462.295 133.884L459.365 133.859C459.365 131.76 460.342 129.945 462.295 128.415C464.248 126.869 466.649 126.096 469.497 126.096C472.443 126.096 474.762 126.836 476.455 128.317C478.164 129.782 479.043 131.833 479.092 134.47V146.97C479.092 149.525 479.36 151.438 479.897 152.707V153H476.772ZM467.593 150.9C469.546 150.9 471.287 150.428 472.817 149.484C474.364 148.54 475.487 147.279 476.187 145.7V139.89H470.962C468.049 139.922 465.77 140.459 464.126 141.501C462.482 142.526 461.66 143.942 461.66 145.749C461.66 147.23 462.205 148.459 463.296 149.436C464.403 150.412 465.835 150.9 467.593 150.9ZM489.688 126.584L489.785 131.101C490.778 129.473 492.015 128.236 493.496 127.39C494.977 126.527 496.613 126.096 498.403 126.096C501.235 126.096 503.343 126.893 504.727 128.488C506.11 130.083 506.81 132.476 506.826 135.666V153H503.921V135.642C503.905 133.282 503.4 131.524 502.407 130.368C501.431 129.213 499.86 128.635 497.695 128.635C495.889 128.635 494.285 129.204 492.886 130.344C491.502 131.467 490.477 132.989 489.81 134.909V153H486.904V126.584H489.688ZM518.936 119.821V126.584H524.404V128.977H518.936V146.579C518.936 148.044 519.196 149.134 519.717 149.851C520.254 150.567 521.141 150.925 522.378 150.925C522.866 150.925 523.656 150.843 524.746 150.681L524.868 153.073C524.103 153.35 523.062 153.488 521.743 153.488C519.741 153.488 518.285 152.91 517.373 151.755C516.462 150.583 516.006 148.866 516.006 146.604V128.977H511.147V126.584H516.006V119.821H518.936ZM546.963 153H543.96V117.453H546.963V153ZM558.73 126.584L558.828 131.101C559.821 129.473 561.058 128.236 562.539 127.39C564.02 126.527 565.656 126.096 567.446 126.096C570.278 126.096 572.386 126.893 573.77 128.488C575.153 130.083 575.853 132.476 575.869 135.666V153H572.964V135.642C572.948 133.282 572.443 131.524 571.45 130.368C570.474 129.213 568.903 128.635 566.738 128.635C564.932 128.635 563.328 129.204 561.929 130.344C560.545 131.467 559.52 132.989 558.853 134.909V153H555.947V126.584H558.73ZM591.665 148.972L599.697 126.584H602.7L592.837 153H590.469L580.557 126.584H583.56L591.665 148.972ZM617.397 153.488C615.151 153.488 613.117 152.935 611.294 151.828C609.487 150.721 608.079 149.183 607.07 147.214C606.061 145.228 605.557 143.007 605.557 140.549V139.499C605.557 136.96 606.045 134.673 607.021 132.639C608.014 130.604 609.39 129.009 611.147 127.854C612.905 126.682 614.81 126.096 616.86 126.096C620.067 126.096 622.606 127.194 624.478 129.392C626.366 131.573 627.31 134.559 627.31 138.352V139.987H608.462V140.549C608.462 143.544 609.316 146.042 611.025 148.044C612.751 150.03 614.915 151.022 617.52 151.022C619.082 151.022 620.457 150.738 621.646 150.168C622.85 149.598 623.94 148.687 624.917 147.434L626.748 148.825C624.6 151.934 621.483 153.488 617.397 153.488ZM616.86 128.586C614.663 128.586 612.808 129.392 611.294 131.003C609.797 132.614 608.885 134.779 608.56 137.497H624.404V137.18C624.323 134.641 623.599 132.574 622.231 130.979C620.864 129.383 619.074 128.586 616.86 128.586ZM648.818 146.286C648.818 144.838 648.232 143.674 647.061 142.795C645.905 141.916 644.155 141.232 641.812 140.744C639.468 140.24 637.645 139.67 636.343 139.035C635.057 138.384 634.097 137.595 633.462 136.667C632.843 135.739 632.534 134.616 632.534 133.298C632.534 131.215 633.405 129.497 635.146 128.146C636.888 126.779 639.118 126.096 641.836 126.096C644.782 126.096 647.142 126.828 648.916 128.293C650.706 129.742 651.602 131.638 651.602 133.981H648.672C648.672 132.435 648.021 131.149 646.719 130.124C645.433 129.099 643.805 128.586 641.836 128.586C639.915 128.586 638.369 129.017 637.197 129.88C636.042 130.726 635.464 131.833 635.464 133.2C635.464 134.519 635.944 135.544 636.904 136.276C637.881 136.993 639.647 137.652 642.202 138.254C644.774 138.856 646.694 139.499 647.964 140.183C649.25 140.866 650.202 141.688 650.82 142.648C651.439 143.609 651.748 144.772 651.748 146.14C651.748 148.369 650.845 150.152 649.038 151.486C647.248 152.821 644.904 153.488 642.007 153.488C638.931 153.488 636.432 152.748 634.512 151.267C632.607 149.769 631.655 147.881 631.655 145.603H634.585C634.699 147.312 635.415 148.646 636.733 149.606C638.068 150.55 639.826 151.022 642.007 151.022C644.041 151.022 645.685 150.575 646.938 149.68C648.192 148.785 648.818 147.653 648.818 146.286ZM662.881 119.821V126.584H668.35V128.977H662.881V146.579C662.881 148.044 663.141 149.134 663.662 149.851C664.199 150.567 665.086 150.925 666.323 150.925C666.812 150.925 667.601 150.843 668.691 150.681L668.813 153.073C668.049 153.35 667.007 153.488 665.688 153.488C663.687 153.488 662.23 152.91 661.318 151.755C660.407 150.583 659.951 148.866 659.951 146.604V128.977H655.093V126.584H659.951V119.821H662.881ZM677.676 153H674.746V126.584H677.676V153ZM674.233 118.942C674.233 118.389 674.412 117.925 674.771 117.551C675.129 117.16 675.617 116.965 676.235 116.965C676.854 116.965 677.342 117.16 677.7 117.551C678.075 117.925 678.262 118.389 678.262 118.942C678.262 119.496 678.075 119.96 677.7 120.334C677.342 120.708 676.854 120.896 676.235 120.896C675.617 120.896 675.129 120.708 674.771 120.334C674.412 119.96 674.233 119.496 674.233 118.942ZM684.463 139.548C684.463 135.414 685.374 132.142 687.197 129.733C689.036 127.308 691.527 126.096 694.668 126.096C698.265 126.096 700.999 127.528 702.871 130.393L703.018 126.584H705.752V152.463C705.752 155.865 704.8 158.558 702.896 160.544C700.991 162.53 698.411 163.522 695.156 163.522C693.317 163.522 691.559 163.107 689.883 162.277C688.223 161.464 686.912 160.373 685.952 159.006L687.588 157.248C689.655 159.787 692.113 161.057 694.961 161.057C697.402 161.057 699.307 160.332 700.674 158.884C702.041 157.451 702.749 155.458 702.798 152.902V149.582C700.926 152.186 698.2 153.488 694.619 153.488C691.559 153.488 689.102 152.268 687.246 149.826C685.391 147.385 684.463 144.089 684.463 139.938V139.548ZM687.417 140.061C687.417 143.43 688.092 146.091 689.443 148.044C690.794 149.981 692.699 150.949 695.156 150.949C698.753 150.949 701.3 149.338 702.798 146.115V133.835C702.114 132.142 701.13 130.856 699.844 129.978C698.558 129.082 697.012 128.635 695.205 128.635C692.747 128.635 690.835 129.603 689.468 131.54C688.101 133.461 687.417 136.301 687.417 140.061ZM730.044 153C729.751 152.17 729.564 150.941 729.482 149.313C728.457 150.648 727.147 151.682 725.552 152.414C723.973 153.13 722.297 153.488 720.522 153.488C717.983 153.488 715.924 152.78 714.346 151.364C712.783 149.948 712.002 148.158 712.002 145.993C712.002 143.422 713.068 141.387 715.2 139.89C717.349 138.392 720.335 137.644 724.16 137.644H729.458V134.641C729.458 132.753 728.872 131.271 727.7 130.197C726.545 129.107 724.852 128.562 722.622 128.562C720.588 128.562 718.903 129.082 717.568 130.124C716.234 131.166 715.566 132.419 715.566 133.884L712.637 133.859C712.637 131.76 713.613 129.945 715.566 128.415C717.52 126.869 719.92 126.096 722.769 126.096C725.715 126.096 728.034 126.836 729.727 128.317C731.436 129.782 732.314 131.833 732.363 134.47V146.97C732.363 149.525 732.632 151.438 733.169 152.707V153H730.044ZM720.864 150.9C722.817 150.9 724.559 150.428 726.089 149.484C727.635 148.54 728.758 147.279 729.458 145.7V139.89H724.233C721.32 139.922 719.041 140.459 717.397 141.501C715.754 142.526 714.932 143.942 714.932 145.749C714.932 147.23 715.477 148.459 716.567 149.436C717.674 150.412 719.106 150.9 720.864 150.9ZM744.717 119.821V126.584H750.186V128.977H744.717V146.579C744.717 148.044 744.977 149.134 745.498 149.851C746.035 150.567 746.922 150.925 748.159 150.925C748.647 150.925 749.437 150.843 750.527 150.681L750.649 153.073C749.884 153.35 748.843 153.488 747.524 153.488C745.522 153.488 744.066 152.91 743.154 151.755C742.243 150.583 741.787 148.866 741.787 146.604V128.977H736.929V126.584H741.787V119.821H744.717ZM759.512 153H756.582V126.584H759.512V153ZM756.069 118.942C756.069 118.389 756.248 117.925 756.606 117.551C756.965 117.16 757.453 116.965 758.071 116.965C758.69 116.965 759.178 117.16 759.536 117.551C759.91 117.925 760.098 118.389 760.098 118.942C760.098 119.496 759.91 119.96 759.536 120.334C759.178 120.708 758.69 120.896 758.071 120.896C757.453 120.896 756.965 120.708 756.606 120.334C756.248 119.96 756.069 119.496 756.069 118.942ZM765.859 139.401C765.859 136.862 766.348 134.576 767.324 132.541C768.317 130.507 769.709 128.928 771.499 127.805C773.306 126.665 775.348 126.096 777.627 126.096C781.143 126.096 783.991 127.333 786.172 129.807C788.353 132.264 789.443 135.528 789.443 139.597V140.207C789.443 142.762 788.947 145.065 787.954 147.116C786.978 149.151 785.594 150.721 783.804 151.828C782.013 152.935 779.971 153.488 777.676 153.488C774.176 153.488 771.328 152.259 769.131 149.802C766.95 147.328 765.859 144.056 765.859 139.987V139.401ZM768.789 140.207C768.789 143.365 769.603 145.961 771.23 147.995C772.874 150.013 775.023 151.022 777.676 151.022C780.312 151.022 782.445 150.013 784.072 147.995C785.716 145.961 786.538 143.283 786.538 139.963V139.401C786.538 137.383 786.164 135.536 785.415 133.859C784.666 132.183 783.617 130.889 782.266 129.978C780.915 129.05 779.368 128.586 777.627 128.586C775.023 128.586 772.899 129.611 771.255 131.662C769.611 133.697 768.789 136.366 768.789 139.67V140.207ZM798.281 126.584L798.379 131.101C799.372 129.473 800.609 128.236 802.09 127.39C803.571 126.527 805.207 126.096 806.997 126.096C809.829 126.096 811.937 126.893 813.32 128.488C814.704 130.083 815.404 132.476 815.42 135.666V153H812.515V135.642C812.498 133.282 811.994 131.524 811.001 130.368C810.024 129.213 808.454 128.635 806.289 128.635C804.482 128.635 802.879 129.204 801.479 130.344C800.096 131.467 799.071 132.989 798.403 134.909V153H795.498V126.584H798.281ZM820.034 126.169L818.301 124.899C819.766 122.93 820.522 120.863 820.571 118.698V115.5H823.452V117.966C823.452 121.368 822.313 124.102 820.034 126.169ZM825.991 126.169L824.258 124.899C825.723 122.93 826.479 120.863 826.528 118.698V115.5H829.409V117.966C829.409 121.368 828.27 124.102 825.991 126.169Z" fill="white"/>
<path d="M47.4805 247.348H40.2559L38.3926 258H36.2305L40.6777 232.406L48.2539 232.424C50.8086 232.424 52.7773 233.092 54.1602 234.428C55.543 235.752 56.123 237.545 55.9004 239.807C55.7246 241.518 55.0801 242.994 53.9668 244.236C52.8652 245.479 51.3945 246.381 49.5547 246.943L53.9141 257.754L53.8965 258H51.6113L47.4805 247.348ZM40.5723 245.502L46.9004 245.52C48.7051 245.52 50.2461 244.992 51.5234 243.938C52.8125 242.871 53.5566 241.488 53.7559 239.789C53.9551 238.148 53.5918 236.83 52.666 235.834C51.7402 234.838 50.375 234.316 48.5703 234.27L42.5234 234.252L40.5723 245.502ZM65.709 258.352C64.1855 258.328 62.8672 257.906 61.7539 257.086C60.6406 256.254 59.8203 255.129 59.293 253.711C58.7773 252.281 58.5957 250.74 58.748 249.088L58.8008 248.49C58.9648 246.732 59.4863 245.062 60.3652 243.48C61.2441 241.887 62.3574 240.674 63.7051 239.842C65.0527 238.998 66.4941 238.594 68.0293 238.629C69.4473 238.652 70.6426 239.039 71.6152 239.789C72.5996 240.539 73.3145 241.582 73.7598 242.918C74.2051 244.254 74.3457 245.73 74.1816 247.348L74.041 248.631H60.875L60.8223 249.053C60.6465 250.33 60.7402 251.555 61.1035 252.727C61.4668 253.887 62.0586 254.812 62.8789 255.504C63.7109 256.184 64.707 256.535 65.8672 256.559C66.9922 256.594 68.0059 256.377 68.9082 255.908C69.8105 255.439 70.6426 254.812 71.4043 254.027L72.6348 255.029C71.7793 256.131 70.7598 256.969 69.5762 257.543C68.4043 258.105 67.1152 258.375 65.709 258.352ZM67.9238 240.422C66.4004 240.363 65.0352 240.902 63.8281 242.039C62.6211 243.176 61.7129 244.775 61.1035 246.838L72.1426 246.855L72.1953 246.592C72.4062 244.928 72.1133 243.498 71.3164 242.303C70.5195 241.096 69.3887 240.469 67.9238 240.422ZM89 255.609C87.4883 257.508 85.4023 258.422 82.7422 258.352C80.9492 258.316 79.6133 257.672 78.7344 256.418C77.8555 255.152 77.5391 253.4 77.7852 251.162L79.8242 238.98H81.8984L79.877 251.215C79.8066 251.848 79.8008 252.475 79.8594 253.096C79.9414 254.174 80.2637 255.006 80.8262 255.592C81.3887 256.178 82.1621 256.488 83.1465 256.523C84.5527 256.582 85.8535 256.26 87.0488 255.557C88.2441 254.842 89.0176 253.91 89.3691 252.762L91.7246 238.98H93.834L90.5293 258H88.4902L89 255.609ZM103.115 234.111L102.271 238.98H106.086L105.787 240.703H101.973L99.8633 253.395L99.8281 254.484C99.8281 255.762 100.414 256.418 101.586 256.453C101.949 256.465 102.518 256.424 103.291 256.33L103.203 258.053C102.512 258.252 101.809 258.34 101.094 258.316C99.8633 258.293 98.9668 257.865 98.4043 257.033C97.8418 256.189 97.6367 254.971 97.7891 253.377L99.8809 240.703H96.4707L96.7871 238.98H100.162L101.023 234.111H103.115ZM114.682 258.352C113.158 258.328 111.84 257.906 110.727 257.086C109.613 256.254 108.793 255.129 108.266 253.711C107.75 252.281 107.568 250.74 107.721 249.088L107.773 248.49C107.938 246.732 108.459 245.062 109.338 243.48C110.217 241.887 111.33 240.674 112.678 239.842C114.025 238.998 115.467 238.594 117.002 238.629C118.42 238.652 119.615 239.039 120.588 239.789C121.572 240.539 122.287 241.582 122.732 242.918C123.178 244.254 123.318 245.73 123.154 247.348L123.014 248.631H109.848L109.795 249.053C109.619 250.33 109.713 251.555 110.076 252.727C110.439 253.887 111.031 254.812 111.852 255.504C112.684 256.184 113.68 256.535 114.84 256.559C115.965 256.594 116.979 256.377 117.881 255.908C118.783 255.439 119.615 254.812 120.377 254.027L121.607 255.029C120.752 256.131 119.732 256.969 118.549 257.543C117.377 258.105 116.088 258.375 114.682 258.352ZM116.896 240.422C115.373 240.363 114.008 240.902 112.801 242.039C111.594 243.176 110.686 244.775 110.076 246.838L121.115 246.855L121.168 246.592C121.379 244.928 121.086 243.498 120.289 242.303C119.492 241.096 118.361 240.469 116.896 240.422ZM136.971 240.756C136.514 240.662 136.051 240.609 135.582 240.598C134.246 240.598 133.021 241.008 131.908 241.828C130.795 242.637 130.051 243.668 129.676 244.922L127.426 258H125.352L128.656 238.98H130.713L130.08 242.004C130.771 240.879 131.604 240.023 132.576 239.438C133.561 238.852 134.639 238.57 135.811 238.594C136.221 238.594 136.701 238.676 137.252 238.84L136.971 240.756ZM149.293 253.043C149.48 251.426 148.496 250.254 146.34 249.527L143.316 248.631C140.539 247.693 139.227 246.129 139.379 243.938C139.461 242.355 140.188 241.072 141.559 240.088C142.941 239.092 144.582 238.605 146.48 238.629C148.344 238.652 149.855 239.18 151.016 240.211C152.176 241.23 152.715 242.596 152.633 244.307H150.559C150.629 243.17 150.271 242.244 149.486 241.529C148.713 240.814 147.682 240.445 146.393 240.422C145.057 240.422 143.932 240.738 143.018 241.371C142.104 241.992 141.588 242.818 141.471 243.85C141.295 245.361 142.221 246.422 144.248 247.031L146.445 247.664L147.623 248.068C150.271 249.064 151.52 250.688 151.367 252.938C151.273 254.461 150.611 255.715 149.381 256.699C148.162 257.672 146.586 258.217 144.652 258.334L143.932 258.352C142.654 258.328 141.5 258.082 140.469 257.613C139.438 257.133 138.646 256.465 138.096 255.609C137.545 254.754 137.305 253.77 137.375 252.656L139.467 252.674C139.467 253.869 139.871 254.812 140.68 255.504C141.488 256.195 142.602 256.553 144.02 256.576C145.426 256.576 146.621 256.26 147.605 255.627C148.59 254.982 149.152 254.121 149.293 253.043ZM172.004 247.594H163.795L164.111 245.818H172.32L172.004 247.594ZM185.082 258V232.406H192.236C194.334 232.406 196.215 232.887 197.879 233.848C199.543 234.797 200.838 236.162 201.764 237.943C202.701 239.725 203.17 241.752 203.17 244.025V246.381C203.17 248.666 202.707 250.693 201.781 252.463C200.855 254.232 199.549 255.598 197.861 256.559C196.186 257.52 194.258 258 192.078 258H185.082ZM187.244 234.252V256.172H192.096C194.791 256.172 196.953 255.281 198.582 253.5C200.211 251.707 201.025 249.287 201.025 246.24V243.99C201.025 241.049 200.223 238.693 198.617 236.924C197.012 235.154 194.896 234.264 192.271 234.252H187.244ZM220.186 258C219.975 257.402 219.84 256.518 219.781 255.346C219.043 256.307 218.1 257.051 216.951 257.578C215.814 258.094 214.607 258.352 213.33 258.352C211.502 258.352 210.02 257.842 208.883 256.822C207.758 255.803 207.195 254.514 207.195 252.955C207.195 251.104 207.963 249.639 209.498 248.561C211.045 247.482 213.195 246.943 215.949 246.943H219.764V244.781C219.764 243.422 219.342 242.355 218.498 241.582C217.666 240.797 216.447 240.404 214.842 240.404C213.377 240.404 212.164 240.779 211.203 241.529C210.242 242.279 209.762 243.182 209.762 244.236L207.652 244.219C207.652 242.707 208.355 241.4 209.762 240.299C211.168 239.186 212.896 238.629 214.947 238.629C217.068 238.629 218.738 239.162 219.957 240.229C221.188 241.283 221.82 242.76 221.855 244.658V253.658C221.855 255.498 222.049 256.875 222.436 257.789V258H220.186ZM213.576 256.488C214.982 256.488 216.236 256.148 217.338 255.469C218.451 254.789 219.26 253.881 219.764 252.744V248.561H216.002C213.904 248.584 212.264 248.971 211.08 249.721C209.896 250.459 209.305 251.479 209.305 252.779C209.305 253.846 209.697 254.73 210.482 255.434C211.279 256.137 212.311 256.488 213.576 256.488ZM233.123 255.1L238.906 238.98H241.068L233.967 258H232.262L225.125 238.98H227.287L233.123 255.1ZM246.887 258H244.777V238.98H246.887V258ZM244.408 233.479C244.408 233.08 244.537 232.746 244.795 232.477C245.053 232.195 245.404 232.055 245.85 232.055C246.295 232.055 246.646 232.195 246.904 232.477C247.174 232.746 247.309 233.08 247.309 233.479C247.309 233.877 247.174 234.211 246.904 234.48C246.646 234.75 246.295 234.885 245.85 234.885C245.404 234.885 245.053 234.75 244.795 234.48C244.537 234.211 244.408 233.877 244.408 233.479ZM251.773 248.314C251.773 245.361 252.43 243.012 253.742 241.266C255.066 239.508 256.859 238.629 259.121 238.629C261.688 238.629 263.645 239.643 264.992 241.67V231H267.084V258H265.115L265.027 255.469C263.68 257.391 261.699 258.352 259.086 258.352C256.895 258.352 255.125 257.473 253.777 255.715C252.441 253.945 251.773 251.561 251.773 248.561V248.314ZM253.9 248.684C253.9 251.109 254.387 253.025 255.359 254.432C256.332 255.826 257.703 256.523 259.473 256.523C262.062 256.523 263.902 255.381 264.992 253.096V244.166C263.902 241.693 262.074 240.457 259.508 240.457C257.738 240.457 256.361 241.154 255.377 242.549C254.393 243.932 253.9 245.977 253.9 248.684ZM284.504 258H282.342V232.406H284.504V258ZM292.977 238.98L293.047 242.232C293.762 241.061 294.652 240.17 295.719 239.561C296.785 238.939 297.963 238.629 299.252 238.629C301.291 238.629 302.809 239.203 303.805 240.352C304.801 241.5 305.305 243.223 305.316 245.52V258H303.225V245.502C303.213 243.803 302.85 242.537 302.135 241.705C301.432 240.873 300.301 240.457 298.742 240.457C297.441 240.457 296.287 240.867 295.279 241.688C294.283 242.496 293.545 243.592 293.064 244.975V258H290.973V238.98H292.977ZM309.922 248.314C309.922 245.338 310.578 242.982 311.891 241.248C313.215 239.502 315.008 238.629 317.27 238.629C319.859 238.629 321.828 239.66 323.176 241.723L323.281 238.98H325.25V257.613C325.25 260.062 324.564 262.002 323.193 263.432C321.822 264.861 319.965 265.576 317.621 265.576C316.297 265.576 315.031 265.277 313.824 264.68C312.629 264.094 311.686 263.309 310.994 262.324L312.172 261.059C313.66 262.887 315.43 263.801 317.48 263.801C319.238 263.801 320.609 263.279 321.594 262.236C322.578 261.205 323.088 259.77 323.123 257.93V255.539C321.775 257.414 319.812 258.352 317.234 258.352C315.031 258.352 313.262 257.473 311.926 255.715C310.59 253.957 309.922 251.584 309.922 248.596V248.314ZM312.049 248.684C312.049 251.109 312.535 253.025 313.508 254.432C314.48 255.826 315.852 256.523 317.621 256.523C320.211 256.523 322.045 255.363 323.123 253.043V244.201C322.631 242.982 321.922 242.057 320.996 241.424C320.07 240.779 318.957 240.457 317.656 240.457C315.887 240.457 314.51 241.154 313.525 242.549C312.541 243.932 312.049 245.977 312.049 248.684ZM339.523 240.773C339.078 240.691 338.604 240.65 338.1 240.65C336.787 240.65 335.674 241.02 334.76 241.758C333.857 242.484 333.213 243.545 332.826 244.939V258H330.734V238.98H332.791L332.826 242.004C333.939 239.754 335.727 238.629 338.188 238.629C338.773 238.629 339.236 238.705 339.576 238.857L339.523 240.773ZM354.166 258C353.955 257.402 353.82 256.518 353.762 255.346C353.023 256.307 352.08 257.051 350.932 257.578C349.795 258.094 348.588 258.352 347.311 258.352C345.482 258.352 344 257.842 342.863 256.822C341.738 255.803 341.176 254.514 341.176 252.955C341.176 251.104 341.943 249.639 343.479 248.561C345.025 247.482 347.176 246.943 349.93 246.943H353.744V244.781C353.744 243.422 353.322 242.355 352.479 241.582C351.646 240.797 350.428 240.404 348.822 240.404C347.357 240.404 346.145 240.779 345.184 241.529C344.223 242.279 343.742 243.182 343.742 244.236L341.633 244.219C341.633 242.707 342.336 241.4 343.742 240.299C345.148 239.186 346.877 238.629 348.928 238.629C351.049 238.629 352.719 239.162 353.938 240.229C355.168 241.283 355.801 242.76 355.836 244.658V253.658C355.836 255.498 356.029 256.875 356.416 257.789V258H354.166ZM347.557 256.488C348.963 256.488 350.217 256.148 351.318 255.469C352.432 254.789 353.24 253.881 353.744 252.744V248.561H349.982C347.885 248.584 346.244 248.971 345.061 249.721C343.877 250.459 343.285 251.479 343.285 252.779C343.285 253.846 343.678 254.73 344.463 255.434C345.26 256.137 346.291 256.488 347.557 256.488ZM363.377 238.98L363.447 242.074C364.15 240.926 365.029 240.064 366.084 239.49C367.139 238.916 368.311 238.629 369.6 238.629C372.6 238.629 374.504 239.859 375.312 242.32C375.992 241.137 376.9 240.229 378.037 239.596C379.174 238.951 380.428 238.629 381.799 238.629C385.877 238.629 387.957 240.855 388.039 245.309V258H385.93V245.467C385.918 243.768 385.549 242.508 384.822 241.688C384.107 240.867 382.936 240.457 381.307 240.457C379.795 240.48 378.518 240.973 377.475 241.934C376.432 242.883 375.852 244.043 375.734 245.414V258H373.625V245.309C373.613 243.68 373.227 242.467 372.465 241.67C371.715 240.861 370.555 240.457 368.984 240.457C367.66 240.457 366.523 240.838 365.574 241.6C364.625 242.35 363.922 243.469 363.465 244.957V258H361.355V238.98H363.377Z" fill="white"/>
</svg>
