<svg width="890" height="294" viewBox="0 0 890 294" fill="none" xmlns="http://www.w3.org/2000/svg">
<rect width="890" height="294" fill="white"/>
<rect width="890" height="294" fill="#337357" fill-opacity="0.75"/>
<path d="M57.2891 229.252H48.7988L44.668 253H42.5234L46.6543 229.252H38.1465L38.4805 227.406H57.623L57.2891 229.252ZM61.5254 237.197C63.3535 234.771 65.5098 233.582 67.9941 233.629C69.8223 233.676 71.1523 234.314 71.9844 235.545C72.8164 236.775 73.1094 238.469 72.8633 240.625L70.7891 253H68.7148L70.7891 240.59C70.8594 239.922 70.8711 239.277 70.8242 238.656C70.625 236.57 69.4883 235.498 67.4141 235.439C66.1836 235.416 65.0352 235.785 63.9688 236.547C62.9023 237.297 61.9648 238.434 61.1562 239.957L58.9062 253H56.832L61.5254 226H63.5996L61.5254 237.197ZM83.709 253.352C82.1855 253.328 80.8672 252.906 79.7539 252.086C78.6406 251.254 77.8203 250.129 77.293 248.711C76.7773 247.281 76.5957 245.74 76.748 244.088L76.8008 243.49C76.9648 241.732 77.4863 240.062 78.3652 238.48C79.2441 236.887 80.3574 235.674 81.7051 234.842C83.0527 233.998 84.4941 233.594 86.0293 233.629C87.4473 233.652 88.6426 234.039 89.6152 234.789C90.5996 235.539 91.3145 236.582 91.7598 237.918C92.2051 239.254 92.3457 240.73 92.1816 242.348L92.041 243.631H78.875L78.8223 244.053C78.6465 245.33 78.7402 246.555 79.1035 247.727C79.4668 248.887 80.0586 249.812 80.8789 250.504C81.7109 251.184 82.707 251.535 83.8672 251.559C84.9922 251.594 86.0059 251.377 86.9082 250.908C87.8105 250.439 88.6426 249.812 89.4043 249.027L90.6348 250.029C89.7793 251.131 88.7598 251.969 87.5762 252.543C86.4043 253.105 85.1152 253.375 83.709 253.352ZM85.9238 235.422C84.4004 235.363 83.0352 235.902 81.8281 237.039C80.6211 238.176 79.7129 239.775 79.1035 241.838L90.1426 241.855L90.1953 241.592C90.4062 239.928 90.1133 238.498 89.3164 237.303C88.5195 236.096 87.3887 235.469 85.9238 235.422ZM111.676 249.836L111.711 250.381L111.957 249.836L123.277 227.406H125.703L112.449 253H110.393L105.172 227.406H107.334L111.676 249.836ZM131.557 253.352C130.033 253.328 128.715 252.906 127.602 252.086C126.488 251.254 125.668 250.129 125.141 248.711C124.625 247.281 124.443 245.74 124.596 244.088L124.648 243.49C124.812 241.732 125.334 240.062 126.213 238.48C127.092 236.887 128.205 235.674 129.553 234.842C130.9 233.998 132.342 233.594 133.877 233.629C135.295 233.652 136.49 234.039 137.463 234.789C138.447 235.539 139.162 236.582 139.607 237.918C140.053 239.254 140.193 240.73 140.029 242.348L139.889 243.631H126.723L126.67 244.053C126.494 245.33 126.588 246.555 126.951 247.727C127.314 248.887 127.906 249.812 128.727 250.504C129.559 251.184 130.555 251.535 131.715 251.559C132.84 251.594 133.854 251.377 134.756 250.908C135.658 250.439 136.49 249.812 137.252 249.027L138.482 250.029C137.627 251.131 136.607 251.969 135.424 252.543C134.252 253.105 132.963 253.375 131.557 253.352ZM133.771 235.422C132.248 235.363 130.883 235.902 129.676 237.039C128.469 238.176 127.561 239.775 126.951 241.838L137.99 241.855L138.043 241.592C138.254 239.928 137.961 238.498 137.164 237.303C136.367 236.096 135.236 235.469 133.771 235.422ZM153.846 235.756C153.389 235.662 152.926 235.609 152.457 235.598C151.121 235.598 149.896 236.008 148.783 236.828C147.67 237.637 146.926 238.668 146.551 239.922L144.301 253H142.227L145.531 233.98H147.588L146.955 237.004C147.646 235.879 148.479 235.023 149.451 234.438C150.436 233.852 151.514 233.57 152.686 233.594C153.096 233.594 153.576 233.676 154.127 233.84L153.846 235.756ZM163.268 233.611C164.404 233.646 165.441 233.916 166.379 234.42C167.316 234.924 168.055 235.691 168.594 236.723L169.244 233.98H171.195L167.996 252.666C167.773 254.26 167.27 255.666 166.484 256.885C165.699 258.104 164.691 259.035 163.461 259.68C162.242 260.336 160.883 260.641 159.383 260.594C158.188 260.57 157.045 260.271 155.955 259.697C154.854 259.111 153.969 258.297 153.301 257.254L154.602 256.023C155.809 257.84 157.385 258.771 159.33 258.818C161.064 258.865 162.512 258.338 163.672 257.236C164.844 256.146 165.582 254.658 165.887 252.771L166.344 250.557C164.656 252.49 162.623 253.422 160.244 253.352C158.463 253.305 157.074 252.625 156.078 251.312C155.094 249.988 154.578 248.189 154.531 245.916C154.461 243.818 154.812 241.744 155.586 239.693C156.359 237.643 157.408 236.107 158.732 235.088C160.068 234.057 161.58 233.564 163.268 233.611ZM156.729 243.807L156.623 245.441C156.588 247.363 156.922 248.852 157.625 249.906C158.328 250.949 159.365 251.494 160.736 251.541C161.908 251.588 163.004 251.312 164.023 250.715C165.043 250.117 165.922 249.232 166.66 248.061L168.154 239.184C167.838 238.047 167.287 237.15 166.502 236.494C165.729 235.826 164.732 235.475 163.514 235.439C161.721 235.381 160.232 236.072 159.049 237.514C157.877 238.955 157.104 241.053 156.729 243.807ZM180.881 253.352C179.357 253.328 178.039 252.906 176.926 252.086C175.812 251.254 174.992 250.129 174.465 248.711C173.949 247.281 173.768 245.74 173.92 244.088L173.973 243.49C174.137 241.732 174.658 240.062 175.537 238.48C176.416 236.887 177.529 235.674 178.877 234.842C180.225 233.998 181.666 233.594 183.201 233.629C184.619 233.652 185.814 234.039 186.787 234.789C187.771 235.539 188.486 236.582 188.932 237.918C189.377 239.254 189.518 240.73 189.354 242.348L189.213 243.631H176.047L175.994 244.053C175.818 245.33 175.912 246.555 176.275 247.727C176.639 248.887 177.23 249.812 178.051 250.504C178.883 251.184 179.879 251.535 181.039 251.559C182.164 251.594 183.178 251.377 184.08 250.908C184.982 250.439 185.814 249.812 186.576 249.027L187.807 250.029C186.951 251.131 185.932 251.969 184.748 252.543C183.576 253.105 182.287 253.375 180.881 253.352ZM183.096 235.422C181.572 235.363 180.207 235.902 179 237.039C177.793 238.176 176.885 239.775 176.275 241.838L187.314 241.855L187.367 241.592C187.578 239.928 187.285 238.498 186.488 237.303C185.691 236.096 184.561 235.469 183.096 235.422ZM208.777 242.594H200.357V240.818H208.777V242.594ZM238.449 229.252H229.678V253H227.516V229.252H218.762V227.406H238.449V229.252ZM239.188 243.209C239.188 241.381 239.539 239.734 240.242 238.27C240.957 236.805 241.959 235.668 243.248 234.859C244.549 234.039 246.02 233.629 247.66 233.629C250.191 233.629 252.242 234.52 253.812 236.301C255.383 238.07 256.168 240.42 256.168 243.35V243.789C256.168 245.629 255.811 247.287 255.096 248.764C254.393 250.229 253.396 251.359 252.107 252.156C250.818 252.953 249.348 253.352 247.695 253.352C245.176 253.352 243.125 252.467 241.543 250.697C239.973 248.916 239.188 246.561 239.188 243.631V243.209ZM241.297 243.789C241.297 246.062 241.883 247.932 243.055 249.396C244.238 250.85 245.785 251.576 247.695 251.576C249.594 251.576 251.129 250.85 252.301 249.396C253.484 247.932 254.076 246.004 254.076 243.613V243.209C254.076 241.756 253.807 240.426 253.268 239.219C252.729 238.012 251.973 237.08 251 236.424C250.027 235.756 248.914 235.422 247.66 235.422C245.785 235.422 244.256 236.16 243.072 237.637C241.889 239.102 241.297 241.023 241.297 243.402V243.789ZM262.443 233.98L262.514 237.074C263.217 235.926 264.096 235.064 265.15 234.49C266.205 233.916 267.377 233.629 268.666 233.629C271.666 233.629 273.57 234.859 274.379 237.32C275.059 236.137 275.967 235.229 277.104 234.596C278.24 233.951 279.494 233.629 280.865 233.629C284.943 233.629 287.023 235.855 287.105 240.309V253H284.996V240.467C284.984 238.768 284.615 237.508 283.889 236.688C283.174 235.867 282.002 235.457 280.373 235.457C278.861 235.48 277.584 235.973 276.541 236.934C275.498 237.883 274.918 239.043 274.801 240.414V253H272.691V240.309C272.68 238.68 272.293 237.467 271.531 236.67C270.781 235.861 269.621 235.457 268.051 235.457C266.727 235.457 265.59 235.838 264.641 236.6C263.691 237.35 262.988 238.469 262.531 239.957V253H260.422V233.98H262.443ZM306.424 246.092L307.215 250.064L308.182 246.268L313.736 227.406H315.688L321.172 246.268L322.121 250.1L322.965 246.092L327.588 227.406H329.803L323.246 253H321.172L315.371 232.979L314.721 230.447L314.088 232.979L308.146 253H306.072L299.533 227.406H301.748L306.424 246.092ZM344.885 253C344.674 252.402 344.539 251.518 344.48 250.346C343.742 251.307 342.799 252.051 341.65 252.578C340.514 253.094 339.307 253.352 338.029 253.352C336.201 253.352 334.719 252.842 333.582 251.822C332.457 250.803 331.895 249.514 331.895 247.955C331.895 246.104 332.662 244.639 334.197 243.561C335.744 242.482 337.895 241.943 340.648 241.943H344.463V239.781C344.463 238.422 344.041 237.355 343.197 236.582C342.365 235.797 341.146 235.404 339.541 235.404C338.076 235.404 336.863 235.779 335.902 236.529C334.941 237.279 334.461 238.182 334.461 239.236L332.352 239.219C332.352 237.707 333.055 236.4 334.461 235.299C335.867 234.186 337.596 233.629 339.646 233.629C341.768 233.629 343.438 234.162 344.656 235.229C345.887 236.283 346.52 237.76 346.555 239.658V248.658C346.555 250.498 346.748 251.875 347.135 252.789V253H344.885ZM338.275 251.488C339.682 251.488 340.936 251.148 342.037 250.469C343.15 249.789 343.959 248.881 344.463 247.744V243.561H340.701C338.604 243.584 336.963 243.971 335.779 244.721C334.596 245.459 334.004 246.479 334.004 247.779C334.004 248.846 334.396 249.73 335.182 250.434C335.979 251.137 337.01 251.488 338.275 251.488ZM360.969 235.773C360.523 235.691 360.049 235.65 359.545 235.65C358.232 235.65 357.119 236.02 356.205 236.758C355.303 237.484 354.658 238.545 354.271 239.939V253H352.18V233.98H354.236L354.271 237.004C355.385 234.754 357.172 233.629 359.633 233.629C360.219 233.629 360.682 233.705 361.021 233.857L360.969 235.773ZM373.098 235.773C372.652 235.691 372.178 235.65 371.674 235.65C370.361 235.65 369.248 236.02 368.334 236.758C367.432 237.484 366.787 238.545 366.4 239.939V253H364.309V233.98H366.365L366.4 237.004C367.514 234.754 369.301 233.629 371.762 233.629C372.348 233.629 372.811 233.705 373.15 233.857L373.098 235.773ZM383.451 253.352C381.834 253.352 380.369 252.953 379.057 252.156C377.756 251.359 376.742 250.252 376.016 248.834C375.289 247.404 374.926 245.805 374.926 244.035V243.279C374.926 241.451 375.277 239.805 375.98 238.34C376.695 236.875 377.686 235.727 378.951 234.895C380.217 234.051 381.588 233.629 383.064 233.629C385.373 233.629 387.201 234.42 388.549 236.002C389.908 237.572 390.588 239.723 390.588 242.453V243.631H377.018V244.035C377.018 246.191 377.633 247.99 378.863 249.432C380.105 250.861 381.664 251.576 383.539 251.576C384.664 251.576 385.654 251.371 386.51 250.961C387.377 250.551 388.162 249.895 388.865 248.992L390.184 249.994C388.637 252.232 386.393 253.352 383.451 253.352ZM383.064 235.422C381.482 235.422 380.146 236.002 379.057 237.162C377.979 238.322 377.322 239.881 377.088 241.838H388.496V241.609C388.438 239.781 387.916 238.293 386.932 237.145C385.947 235.996 384.658 235.422 383.064 235.422ZM396.688 233.98L396.758 237.232C397.473 236.061 398.363 235.17 399.43 234.561C400.496 233.939 401.674 233.629 402.963 233.629C405.002 233.629 406.52 234.203 407.516 235.352C408.512 236.5 409.016 238.223 409.027 240.52V253H406.936V240.502C406.924 238.803 406.561 237.537 405.846 236.705C405.143 235.873 404.012 235.457 402.453 235.457C401.152 235.457 399.998 235.867 398.99 236.688C397.994 237.496 397.256 238.592 396.775 239.975V253H394.684V233.98H396.688Z" fill="white"/>
<path d="M40.6016 34.5781L42.2891 35.7734C40.8828 37.6172 40.1562 39.6016 40.1094 41.7266V44.7266H37.3203V42.1016C37.3203 40.6641 37.6094 39.2812 38.1875 37.9531C38.7812 36.625 39.5859 35.5 40.6016 34.5781ZM46.4844 34.5781L48.1719 35.7734C46.7656 37.6172 46.0391 39.6016 45.9922 41.7266V44.7266H43.2031V42.1016C43.2031 40.6641 43.4922 39.2812 44.0703 37.9531C44.6641 36.625 45.4688 35.5 46.4844 34.5781ZM57.4766 36.875L70.0625 66.9922L82.6953 36.875H86.5391V71H83.6562V56.1406L83.8906 40.9062L71.1875 71H68.9609L56.3047 41.0234L56.5391 56.0469V71H53.6562V36.875H57.4766ZM97.6719 71H94.8594V45.6406H97.6719V71ZM94.3672 38.3047C94.3672 37.7734 94.5391 37.3281 94.8828 36.9688C95.2266 36.5938 95.6953 36.4062 96.2891 36.4062C96.8828 36.4062 97.3516 36.5938 97.6953 36.9688C98.0547 37.3281 98.2344 37.7734 98.2344 38.3047C98.2344 38.8359 98.0547 39.2812 97.6953 39.6406C97.3516 40 96.8828 40.1797 96.2891 40.1797C95.6953 40.1797 95.2266 40 94.8828 39.6406C94.5391 39.2812 94.3672 38.8359 94.3672 38.3047ZM108.453 71H105.641V35H108.453V71ZM119.234 71H116.422V35H119.234V71ZM130.016 71H127.203V45.6406H130.016V71ZM126.711 38.3047C126.711 37.7734 126.883 37.3281 127.227 36.9688C127.57 36.5938 128.039 36.4062 128.633 36.4062C129.227 36.4062 129.695 36.5938 130.039 36.9688C130.398 37.3281 130.578 37.7734 130.578 38.3047C130.578 38.8359 130.398 39.2812 130.039 39.6406C129.695 40 129.227 40.1797 128.633 40.1797C128.039 40.1797 127.57 40 127.227 39.6406C126.883 39.2812 126.711 38.8359 126.711 38.3047ZM136.109 57.9453C136.109 55.5078 136.578 53.3125 137.516 51.3594C138.469 49.4062 139.805 47.8906 141.523 46.8125C143.258 45.7188 145.219 45.1719 147.406 45.1719C150.781 45.1719 153.516 46.3594 155.609 48.7344C157.703 51.0938 158.75 54.2266 158.75 58.1328V58.7188C158.75 61.1719 158.273 63.3828 157.32 65.3516C156.383 67.3047 155.055 68.8125 153.336 69.875C151.617 70.9375 149.656 71.4688 147.453 71.4688C144.094 71.4688 141.359 70.2891 139.25 67.9297C137.156 65.5547 136.109 62.4141 136.109 58.5078V57.9453ZM138.922 58.7188C138.922 61.75 139.703 64.2422 141.266 66.1953C142.844 68.1328 144.906 69.1016 147.453 69.1016C149.984 69.1016 152.031 68.1328 153.594 66.1953C155.172 64.2422 155.961 61.6719 155.961 58.4844V57.9453C155.961 56.0078 155.602 54.2344 154.883 52.625C154.164 51.0156 153.156 49.7734 151.859 48.8984C150.562 48.0078 149.078 47.5625 147.406 47.5625C144.906 47.5625 142.867 48.5469 141.289 50.5156C139.711 52.4688 138.922 55.0312 138.922 58.2031V58.7188ZM167.234 45.6406L167.328 49.9766C168.281 48.4141 169.469 47.2266 170.891 46.4141C172.312 45.5859 173.883 45.1719 175.602 45.1719C178.32 45.1719 180.344 45.9375 181.672 47.4688C183 49 183.672 51.2969 183.688 54.3594V71H180.898V54.3359C180.883 52.0703 180.398 50.3828 179.445 49.2734C178.508 48.1641 177 47.6094 174.922 47.6094C173.188 47.6094 171.648 48.1562 170.305 49.25C168.977 50.3281 167.992 51.7891 167.352 53.6328V71H164.562V45.6406H167.234ZM206.141 64.5547C206.141 63.1641 205.578 62.0469 204.453 61.2031C203.344 60.3594 201.664 59.7031 199.414 59.2344C197.164 58.75 195.414 58.2031 194.164 57.5938C192.93 56.9688 192.008 56.2109 191.398 55.3203C190.805 54.4297 190.508 53.3516 190.508 52.0859C190.508 50.0859 191.344 48.4375 193.016 47.1406C194.688 45.8281 196.828 45.1719 199.438 45.1719C202.266 45.1719 204.531 45.875 206.234 47.2812C207.953 48.6719 208.812 50.4922 208.812 52.7422H206C206 51.2578 205.375 50.0234 204.125 49.0391C202.891 48.0547 201.328 47.5625 199.438 47.5625C197.594 47.5625 196.109 47.9766 194.984 48.8047C193.875 49.6172 193.32 50.6797 193.32 51.9922C193.32 53.2578 193.781 54.2422 194.703 54.9453C195.641 55.6328 197.336 56.2656 199.789 56.8438C202.258 57.4219 204.102 58.0391 205.32 58.6953C206.555 59.3516 207.469 60.1406 208.062 61.0625C208.656 61.9844 208.953 63.1016 208.953 64.4141C208.953 66.5547 208.086 68.2656 206.352 69.5469C204.633 70.8281 202.383 71.4688 199.602 71.4688C196.648 71.4688 194.25 70.7578 192.406 69.3359C190.578 67.8984 189.664 66.0859 189.664 63.8984H192.477C192.586 65.5391 193.273 66.8203 194.539 67.7422C195.82 68.6484 197.508 69.1016 199.602 69.1016C201.555 69.1016 203.133 68.6719 204.336 67.8125C205.539 66.9531 206.141 65.8672 206.141 64.5547ZM225.406 57.9453C225.406 55.5078 225.875 53.3125 226.812 51.3594C227.766 49.4062 229.102 47.8906 230.82 46.8125C232.555 45.7188 234.516 45.1719 236.703 45.1719C240.078 45.1719 242.812 46.3594 244.906 48.7344C247 51.0938 248.047 54.2266 248.047 58.1328V58.7188C248.047 61.1719 247.57 63.3828 246.617 65.3516C245.68 67.3047 244.352 68.8125 242.633 69.875C240.914 70.9375 238.953 71.4688 236.75 71.4688C233.391 71.4688 230.656 70.2891 228.547 67.9297C226.453 65.5547 225.406 62.4141 225.406 58.5078V57.9453ZM228.219 58.7188C228.219 61.75 229 64.2422 230.562 66.1953C232.141 68.1328 234.203 69.1016 236.75 69.1016C239.281 69.1016 241.328 68.1328 242.891 66.1953C244.469 64.2422 245.258 61.6719 245.258 58.4844V57.9453C245.258 56.0078 244.898 54.2344 244.18 52.625C243.461 51.0156 242.453 49.7734 241.156 48.8984C239.859 48.0078 238.375 47.5625 236.703 47.5625C234.203 47.5625 232.164 48.5469 230.586 50.5156C229.008 52.4688 228.219 55.0312 228.219 58.2031V58.7188ZM255.875 71V47.9375H251.68V45.6406H255.875V42.5703C255.875 39.9766 256.531 37.9844 257.844 36.5938C259.172 35.2031 261.016 34.5078 263.375 34.5078C264.438 34.5078 265.43 34.6406 266.352 34.9062L266.141 37.25C265.359 37.0625 264.508 36.9688 263.586 36.9688C262.039 36.9688 260.836 37.4531 259.977 38.4219C259.117 39.375 258.688 40.7344 258.688 42.5V45.6406H264.734V47.9375H258.688V71H255.875ZM300.5 61.4375H285.008L281.492 71H278.469L291.383 36.875H294.125L307.039 71H304.039L300.5 61.4375ZM285.898 58.9766H299.586L292.742 40.3906L285.898 58.9766ZM314.094 45.6406L314.188 49.9766C315.141 48.4141 316.328 47.2266 317.75 46.4141C319.172 45.5859 320.742 45.1719 322.461 45.1719C325.18 45.1719 327.203 45.9375 328.531 47.4688C329.859 49 330.531 51.2969 330.547 54.3594V71H327.758V54.3359C327.742 52.0703 327.258 50.3828 326.305 49.2734C325.367 48.1641 323.859 47.6094 321.781 47.6094C320.047 47.6094 318.508 48.1562 317.164 49.25C315.836 50.3281 314.852 51.7891 314.211 53.6328V71H311.422V45.6406H314.094ZM336.688 58.0859C336.688 54.1484 337.562 51.0156 339.312 48.6875C341.078 46.3438 343.469 45.1719 346.484 45.1719C349.906 45.1719 352.516 46.5234 354.312 49.2266V35H357.102V71H354.477L354.359 67.625C352.562 70.1875 349.922 71.4688 346.438 71.4688C343.516 71.4688 341.156 70.2969 339.359 67.9531C337.578 65.5938 336.688 62.4141 336.688 58.4141V58.0859ZM339.523 58.5781C339.523 61.8125 340.172 64.3672 341.469 66.2422C342.766 68.1016 344.594 69.0312 346.953 69.0312C350.406 69.0312 352.859 67.5078 354.312 64.4609V52.5547C352.859 49.2578 350.422 47.6094 347 47.6094C344.641 47.6094 342.805 48.5391 341.492 50.3984C340.18 52.2422 339.523 54.9688 339.523 58.5781ZM376.203 48.0312C375.609 47.9219 374.977 47.8672 374.305 47.8672C372.555 47.8672 371.07 48.3594 369.852 49.3438C368.648 50.3125 367.789 51.7266 367.273 53.5859V71H364.484V45.6406H367.227L367.273 49.6719C368.758 46.6719 371.141 45.1719 374.422 45.1719C375.203 45.1719 375.82 45.2734 376.273 45.4766L376.203 48.0312ZM378.641 57.9453C378.641 55.5078 379.109 53.3125 380.047 51.3594C381 49.4062 382.336 47.8906 384.055 46.8125C385.789 45.7188 387.75 45.1719 389.938 45.1719C393.312 45.1719 396.047 46.3594 398.141 48.7344C400.234 51.0938 401.281 54.2266 401.281 58.1328V58.7188C401.281 61.1719 400.805 63.3828 399.852 65.3516C398.914 67.3047 397.586 68.8125 395.867 69.875C394.148 70.9375 392.188 71.4688 389.984 71.4688C386.625 71.4688 383.891 70.2891 381.781 67.9297C379.688 65.5547 378.641 62.4141 378.641 58.5078V57.9453ZM381.453 58.7188C381.453 61.75 382.234 64.2422 383.797 66.1953C385.375 68.1328 387.438 69.1016 389.984 69.1016C392.516 69.1016 394.562 68.1328 396.125 66.1953C397.703 64.2422 398.492 61.6719 398.492 58.4844V57.9453C398.492 56.0078 398.133 54.2344 397.414 52.625C396.695 51.0156 395.688 49.7734 394.391 48.8984C393.094 48.0078 391.609 47.5625 389.938 47.5625C387.438 47.5625 385.398 48.5469 383.82 50.5156C382.242 52.4688 381.453 55.0312 381.453 58.2031V58.7188ZM410.234 71H407.422V45.6406H410.234V71ZM406.93 38.3047C406.93 37.7734 407.102 37.3281 407.445 36.9688C407.789 36.5938 408.258 36.4062 408.852 36.4062C409.445 36.4062 409.914 36.5938 410.258 36.9688C410.617 37.3281 410.797 37.7734 410.797 38.3047C410.797 38.8359 410.617 39.2812 410.258 39.6406C409.914 40 409.445 40.1797 408.852 40.1797C408.258 40.1797 407.789 40 407.445 39.6406C407.102 39.2812 406.93 38.8359 406.93 38.3047ZM416.75 58.0859C416.75 54.1484 417.625 51.0156 419.375 48.6875C421.141 46.3438 423.531 45.1719 426.547 45.1719C429.969 45.1719 432.578 46.5234 434.375 49.2266V35H437.164V71H434.539L434.422 67.625C432.625 70.1875 429.984 71.4688 426.5 71.4688C423.578 71.4688 421.219 70.2969 419.422 67.9531C417.641 65.5938 416.75 62.4141 416.75 58.4141V58.0859ZM419.586 58.5781C419.586 61.8125 420.234 64.3672 421.531 66.2422C422.828 68.1016 424.656 69.0312 427.016 69.0312C430.469 69.0312 432.922 67.5078 434.375 64.4609V52.5547C432.922 49.2578 430.484 47.6094 427.062 47.6094C424.703 47.6094 422.867 48.5391 421.555 50.3984C420.242 52.2422 419.586 54.9688 419.586 58.5781ZM472.531 67.7891C470.844 70.2422 468.148 71.4688 464.445 71.4688C461.742 71.4688 459.688 70.6875 458.281 69.125C456.875 67.5469 456.156 65.2188 456.125 62.1406V45.6406H458.914V61.7891C458.914 66.6172 460.867 69.0312 464.773 69.0312C468.836 69.0312 471.406 67.3516 472.484 63.9922V45.6406H475.297V71H472.578L472.531 67.7891ZM497.797 64.5547C497.797 63.1641 497.234 62.0469 496.109 61.2031C495 60.3594 493.32 59.7031 491.07 59.2344C488.82 58.75 487.07 58.2031 485.82 57.5938C484.586 56.9688 483.664 56.2109 483.055 55.3203C482.461 54.4297 482.164 53.3516 482.164 52.0859C482.164 50.0859 483 48.4375 484.672 47.1406C486.344 45.8281 488.484 45.1719 491.094 45.1719C493.922 45.1719 496.188 45.875 497.891 47.2812C499.609 48.6719 500.469 50.4922 500.469 52.7422H497.656C497.656 51.2578 497.031 50.0234 495.781 49.0391C494.547 48.0547 492.984 47.5625 491.094 47.5625C489.25 47.5625 487.766 47.9766 486.641 48.8047C485.531 49.6172 484.977 50.6797 484.977 51.9922C484.977 53.2578 485.438 54.2422 486.359 54.9453C487.297 55.6328 488.992 56.2656 491.445 56.8438C493.914 57.4219 495.758 58.0391 496.977 58.6953C498.211 59.3516 499.125 60.1406 499.719 61.0625C500.312 61.9844 500.609 63.1016 500.609 64.4141C500.609 66.5547 499.742 68.2656 498.008 69.5469C496.289 70.8281 494.039 71.4688 491.258 71.4688C488.305 71.4688 485.906 70.7578 484.062 69.3359C482.234 67.8984 481.32 66.0859 481.32 63.8984H484.133C484.242 65.5391 484.93 66.8203 486.195 67.7422C487.477 68.6484 489.164 69.1016 491.258 69.1016C493.211 69.1016 494.789 68.6719 495.992 67.8125C497.195 66.9531 497.797 65.8672 497.797 64.5547ZM516.758 71.4688C514.602 71.4688 512.648 70.9375 510.898 69.875C509.164 68.8125 507.812 67.3359 506.844 65.4453C505.875 63.5391 505.391 61.4062 505.391 59.0469V58.0391C505.391 55.6016 505.859 53.4062 506.797 51.4531C507.75 49.5 509.07 47.9688 510.758 46.8594C512.445 45.7344 514.273 45.1719 516.242 45.1719C519.32 45.1719 521.758 46.2266 523.555 48.3359C525.367 50.4297 526.273 53.2969 526.273 56.9375V58.5078H508.18V59.0469C508.18 61.9219 509 64.3203 510.641 66.2422C512.297 68.1484 514.375 69.1016 516.875 69.1016C518.375 69.1016 519.695 68.8281 520.836 68.2812C521.992 67.7344 523.039 66.8594 523.977 65.6562L525.734 66.9922C523.672 69.9766 520.68 71.4688 516.758 71.4688ZM516.242 47.5625C514.133 47.5625 512.352 48.3359 510.898 49.8828C509.461 51.4297 508.586 53.5078 508.273 56.1172H523.484V55.8125C523.406 53.375 522.711 51.3906 521.398 49.8594C520.086 48.3281 518.367 47.5625 516.242 47.5625ZM543.453 48.0312C542.859 47.9219 542.227 47.8672 541.555 47.8672C539.805 47.8672 538.32 48.3594 537.102 49.3438C535.898 50.3125 535.039 51.7266 534.523 53.5859V71H531.734V45.6406H534.477L534.523 49.6719C536.008 46.6719 538.391 45.1719 541.672 45.1719C542.453 45.1719 543.07 45.2734 543.523 45.4766L543.453 48.0312ZM563.094 64.5547C563.094 63.1641 562.531 62.0469 561.406 61.2031C560.297 60.3594 558.617 59.7031 556.367 59.2344C554.117 58.75 552.367 58.2031 551.117 57.5938C549.883 56.9688 548.961 56.2109 548.352 55.3203C547.758 54.4297 547.461 53.3516 547.461 52.0859C547.461 50.0859 548.297 48.4375 549.969 47.1406C551.641 45.8281 553.781 45.1719 556.391 45.1719C559.219 45.1719 561.484 45.875 563.188 47.2812C564.906 48.6719 565.766 50.4922 565.766 52.7422H562.953C562.953 51.2578 562.328 50.0234 561.078 49.0391C559.844 48.0547 558.281 47.5625 556.391 47.5625C554.547 47.5625 553.062 47.9766 551.938 48.8047C550.828 49.6172 550.273 50.6797 550.273 51.9922C550.273 53.2578 550.734 54.2422 551.656 54.9453C552.594 55.6328 554.289 56.2656 556.742 56.8438C559.211 57.4219 561.055 58.0391 562.273 58.6953C563.508 59.3516 564.422 60.1406 565.016 61.0625C565.609 61.9844 565.906 63.1016 565.906 64.4141C565.906 66.5547 565.039 68.2656 563.305 69.5469C561.586 70.8281 559.336 71.4688 556.555 71.4688C553.602 71.4688 551.203 70.7578 549.359 69.3359C547.531 67.8984 546.617 66.0859 546.617 63.8984H549.43C549.539 65.5391 550.227 66.8203 551.492 67.7422C552.773 68.6484 554.461 69.1016 556.555 69.1016C558.508 69.1016 560.086 68.6719 561.289 67.8125C562.492 66.9531 563.094 65.8672 563.094 64.5547ZM585.547 38.3047L585.148 45.4531H583.039C583.117 40.8281 583.156 37.3438 583.156 35H585.547V38.3047ZM589.531 58.0859C589.531 54.1484 590.406 51.0156 592.156 48.6875C593.922 46.3438 596.312 45.1719 599.328 45.1719C602.75 45.1719 605.359 46.5234 607.156 49.2266V35H609.945V71H607.32L607.203 67.625C605.406 70.1875 602.766 71.4688 599.281 71.4688C596.359 71.4688 594 70.2969 592.203 67.9531C590.422 65.5938 589.531 62.4141 589.531 58.4141V58.0859ZM592.367 58.5781C592.367 61.8125 593.016 64.3672 594.312 66.2422C595.609 68.1016 597.438 69.0312 599.797 69.0312C603.25 69.0312 605.703 67.5078 607.156 64.4609V52.5547C605.703 49.2578 603.266 47.6094 599.844 47.6094C597.484 47.6094 595.648 48.5391 594.336 50.3984C593.023 52.2422 592.367 54.9688 592.367 58.5781ZM627.148 71.4688C624.992 71.4688 623.039 70.9375 621.289 69.875C619.555 68.8125 618.203 67.3359 617.234 65.4453C616.266 63.5391 615.781 61.4062 615.781 59.0469V58.0391C615.781 55.6016 616.25 53.4062 617.188 51.4531C618.141 49.5 619.461 47.9688 621.148 46.8594C622.836 45.7344 624.664 45.1719 626.633 45.1719C629.711 45.1719 632.148 46.2266 633.945 48.3359C635.758 50.4297 636.664 53.2969 636.664 56.9375V58.5078H618.57V59.0469C618.57 61.9219 619.391 64.3203 621.031 66.2422C622.688 68.1484 624.766 69.1016 627.266 69.1016C628.766 69.1016 630.086 68.8281 631.227 68.2812C632.383 67.7344 633.43 66.8594 634.367 65.6562L636.125 66.9922C634.062 69.9766 631.07 71.4688 627.148 71.4688ZM626.633 47.5625C624.523 47.5625 622.742 48.3359 621.289 49.8828C619.852 51.4297 618.977 53.5078 618.664 56.1172H633.875V55.8125C633.797 53.375 633.102 51.3906 631.789 49.8594C630.477 48.3281 628.758 47.5625 626.633 47.5625ZM651.5 69.1016C653.453 69.1016 655.086 68.5547 656.398 67.4609C657.727 66.3516 658.445 64.9219 658.555 63.1719H661.25C661.172 64.7188 660.688 66.1328 659.797 67.4141C658.906 68.6797 657.719 69.6719 656.234 70.3906C654.766 71.1094 653.188 71.4688 651.5 71.4688C648.172 71.4688 645.531 70.3125 643.578 68C641.641 65.6875 640.672 62.5781 640.672 58.6719V57.8281C640.672 55.3281 641.109 53.1172 641.984 51.1953C642.859 49.2734 644.109 47.7891 645.734 46.7422C647.375 45.6953 649.289 45.1719 651.477 45.1719C654.258 45.1719 656.547 46 658.344 47.6562C660.156 49.3125 661.125 51.4922 661.25 54.1953H658.555C658.43 52.2109 657.711 50.6094 656.398 49.3906C655.102 48.1719 653.461 47.5625 651.477 47.5625C648.945 47.5625 646.977 48.4766 645.57 50.3047C644.18 52.1328 643.484 54.6953 643.484 57.9922V58.8125C643.484 62.0469 644.18 64.5703 645.57 66.3828C646.977 68.1953 648.953 69.1016 651.5 69.1016ZM676.695 71.4688C674.539 71.4688 672.586 70.9375 670.836 69.875C669.102 68.8125 667.75 67.3359 666.781 65.4453C665.812 63.5391 665.328 61.4062 665.328 59.0469V58.0391C665.328 55.6016 665.797 53.4062 666.734 51.4531C667.688 49.5 669.008 47.9688 670.695 46.8594C672.383 45.7344 674.211 45.1719 676.18 45.1719C679.258 45.1719 681.695 46.2266 683.492 48.3359C685.305 50.4297 686.211 53.2969 686.211 56.9375V58.5078H668.117V59.0469C668.117 61.9219 668.938 64.3203 670.578 66.2422C672.234 68.1484 674.312 69.1016 676.812 69.1016C678.312 69.1016 679.633 68.8281 680.773 68.2812C681.93 67.7344 682.977 66.8594 683.914 65.6562L685.672 66.9922C683.609 69.9766 680.617 71.4688 676.695 71.4688ZM676.18 47.5625C674.07 47.5625 672.289 48.3359 670.836 49.8828C669.398 51.4297 668.523 53.5078 668.211 56.1172H683.422V55.8125C683.344 53.375 682.648 51.3906 681.336 49.8594C680.023 48.3281 678.305 47.5625 676.18 47.5625ZM694.812 71H692V45.6406H694.812V71ZM691.508 38.3047C691.508 37.7734 691.68 37.3281 692.023 36.9688C692.367 36.5938 692.836 36.4062 693.43 36.4062C694.023 36.4062 694.492 36.5938 694.836 36.9688C695.195 37.3281 695.375 37.7734 695.375 38.3047C695.375 38.8359 695.195 39.2812 694.836 39.6406C694.492 40 694.023 40.1797 693.43 40.1797C692.836 40.1797 692.367 40 692.023 39.6406C691.68 39.2812 691.508 38.8359 691.508 38.3047ZM710.352 67.1328L718.062 45.6406H720.945L711.477 71H709.203L699.688 45.6406H702.57L710.352 67.1328ZM735.055 71.4688C732.898 71.4688 730.945 70.9375 729.195 69.875C727.461 68.8125 726.109 67.3359 725.141 65.4453C724.172 63.5391 723.688 61.4062 723.688 59.0469V58.0391C723.688 55.6016 724.156 53.4062 725.094 51.4531C726.047 49.5 727.367 47.9688 729.055 46.8594C730.742 45.7344 732.57 45.1719 734.539 45.1719C737.617 45.1719 740.055 46.2266 741.852 48.3359C743.664 50.4297 744.57 53.2969 744.57 56.9375V58.5078H726.477V59.0469C726.477 61.9219 727.297 64.3203 728.938 66.2422C730.594 68.1484 732.672 69.1016 735.172 69.1016C736.672 69.1016 737.992 68.8281 739.133 68.2812C740.289 67.7344 741.336 66.8594 742.273 65.6562L744.031 66.9922C741.969 69.9766 738.977 71.4688 735.055 71.4688ZM734.539 47.5625C732.43 47.5625 730.648 48.3359 729.195 49.8828C727.758 51.4297 726.883 53.5078 726.57 56.1172H741.781V55.8125C741.703 53.375 741.008 51.3906 739.695 49.8594C738.383 48.3281 736.664 47.5625 734.539 47.5625ZM748.906 58.0859C748.906 54.1484 749.781 51.0156 751.531 48.6875C753.297 46.3438 755.688 45.1719 758.703 45.1719C762.125 45.1719 764.734 46.5234 766.531 49.2266V35H769.32V71H766.695L766.578 67.625C764.781 70.1875 762.141 71.4688 758.656 71.4688C755.734 71.4688 753.375 70.2969 751.578 67.9531C749.797 65.5938 748.906 62.4141 748.906 58.4141V58.0859ZM751.742 58.5781C751.742 61.8125 752.391 64.3672 753.688 66.2422C754.984 68.1016 756.812 69.0312 759.172 69.0312C762.625 69.0312 765.078 67.5078 766.531 64.4609V52.5547C765.078 49.2578 762.641 47.6094 759.219 47.6094C756.859 47.6094 755.023 48.5391 753.711 50.3984C752.398 52.2422 751.742 54.9688 751.742 58.5781ZM778.344 38.3047L777.945 45.4531H775.836C775.914 40.8281 775.953 37.3438 775.953 35H778.344V38.3047ZM816.945 58.5781C816.945 62.5312 816.07 65.6719 814.32 68C812.57 70.3125 810.219 71.4688 807.266 71.4688C803.734 71.4688 801.062 70.1562 799.25 67.5312L799.133 71H796.508V35H799.297V49.3203C801.078 46.5547 803.719 45.1719 807.219 45.1719C810.219 45.1719 812.586 46.3203 814.32 48.6172C816.07 50.8984 816.945 54.0781 816.945 58.1562V58.5781ZM814.133 58.0859C814.133 54.7422 813.484 52.1641 812.188 50.3516C810.891 48.5234 809.062 47.6094 806.703 47.6094C804.906 47.6094 803.383 48.0547 802.133 48.9453C800.883 49.8203 799.938 51.1094 799.297 52.8125V64.25C800.703 67.4375 803.188 69.0312 806.75 69.0312C809.062 69.0312 810.867 68.1172 812.164 66.2891C813.477 64.4609 814.133 61.7266 814.133 58.0859ZM830.914 66.9688L838.32 45.6406H841.344L830.516 75.3125L829.953 76.625C828.562 79.7031 826.414 81.2422 823.508 81.2422C822.836 81.2422 822.117 81.1328 821.352 80.9141L821.328 78.5938L822.781 78.7344C824.156 78.7344 825.266 78.3906 826.109 77.7031C826.969 77.0312 827.695 75.8672 828.289 74.2109L829.531 70.7891L819.969 45.6406H823.039L830.914 66.9688ZM54.2891 93.6719C51.9766 93.2031 50.0547 92.9688 48.5234 92.9688C46.9141 92.9688 45.6719 93.4531 44.7969 94.4219C43.9219 95.375 43.4844 96.7344 43.4844 98.5V101.641H49.5312V103.938H43.4844V127H40.6719V103.938H36.4766V101.641H40.6719V98.4062C40.6875 95.8438 41.3672 93.8906 42.7109 92.5469C44.0547 91.1875 45.9297 90.5078 48.3359 90.5078C50.2734 90.5078 53.1875 90.9844 57.0781 91.9375V127H54.2891V93.6719ZM80.8203 127C80.5391 126.203 80.3594 125.023 80.2812 123.461C79.2969 124.742 78.0391 125.734 76.5078 126.438C74.9922 127.125 73.3828 127.469 71.6797 127.469C69.2422 127.469 67.2656 126.789 65.75 125.43C64.25 124.07 63.5 122.352 63.5 120.273C63.5 117.805 64.5234 115.852 66.5703 114.414C68.6328 112.977 71.5 112.258 75.1719 112.258H80.2578V109.375C80.2578 107.562 79.6953 106.141 78.5703 105.109C77.4609 104.062 75.8359 103.539 73.6953 103.539C71.7422 103.539 70.125 104.039 68.8438 105.039C67.5625 106.039 66.9219 107.242 66.9219 108.648L64.1094 108.625C64.1094 106.609 65.0469 104.867 66.9219 103.398C68.7969 101.914 71.1016 101.172 73.8359 101.172C76.6641 101.172 78.8906 101.883 80.5156 103.305C82.1562 104.711 83 106.68 83.0469 109.211V121.211C83.0469 123.664 83.3047 125.5 83.8203 126.719V127H80.8203ZM72.0078 124.984C73.8828 124.984 75.5547 124.531 77.0234 123.625C78.5078 122.719 79.5859 121.508 80.2578 119.992V114.414H75.2422C72.4453 114.445 70.2578 114.961 68.6797 115.961C67.1016 116.945 66.3125 118.305 66.3125 120.039C66.3125 121.461 66.8359 122.641 67.8828 123.578C68.9453 124.516 70.3203 124.984 72.0078 124.984ZM105.734 120.555C105.734 119.164 105.172 118.047 104.047 117.203C102.938 116.359 101.258 115.703 99.0078 115.234C96.7578 114.75 95.0078 114.203 93.7578 113.594C92.5234 112.969 91.6016 112.211 90.9922 111.32C90.3984 110.43 90.1016 109.352 90.1016 108.086C90.1016 106.086 90.9375 104.438 92.6094 103.141C94.2812 101.828 96.4219 101.172 99.0312 101.172C101.859 101.172 104.125 101.875 105.828 103.281C107.547 104.672 108.406 106.492 108.406 108.742H105.594C105.594 107.258 104.969 106.023 103.719 105.039C102.484 104.055 100.922 103.562 99.0312 103.562C97.1875 103.562 95.7031 103.977 94.5781 104.805C93.4688 105.617 92.9141 106.68 92.9141 107.992C92.9141 109.258 93.375 110.242 94.2969 110.945C95.2344 111.633 96.9297 112.266 99.3828 112.844C101.852 113.422 103.695 114.039 104.914 114.695C106.148 115.352 107.062 116.141 107.656 117.062C108.25 117.984 108.547 119.102 108.547 120.414C108.547 122.555 107.68 124.266 105.945 125.547C104.227 126.828 101.977 127.469 99.1953 127.469C96.2422 127.469 93.8438 126.758 92 125.336C90.1719 123.898 89.2578 122.086 89.2578 119.898H92.0703C92.1797 121.539 92.8672 122.82 94.1328 123.742C95.4141 124.648 97.1016 125.102 99.1953 125.102C101.148 125.102 102.727 124.672 103.93 123.812C105.133 122.953 105.734 121.867 105.734 120.555ZM117.664 105.93C118.586 104.414 119.766 103.242 121.203 102.414C122.641 101.586 124.211 101.172 125.914 101.172C128.633 101.172 130.656 101.938 131.984 103.469C133.312 105 133.984 107.297 134 110.359V127H131.211V110.336C131.195 108.07 130.711 106.383 129.758 105.273C128.82 104.164 127.312 103.609 125.234 103.609C123.5 103.609 121.961 104.156 120.617 105.25C119.289 106.328 118.305 107.789 117.664 109.633V127H114.875V91H117.664V105.93ZM144.359 127H141.547V91H144.359V127ZM155.141 127H152.328V101.641H155.141V127ZM151.836 94.3047C151.836 93.7734 152.008 93.3281 152.352 92.9688C152.695 92.5938 153.164 92.4062 153.758 92.4062C154.352 92.4062 154.82 92.5938 155.164 92.9688C155.523 93.3281 155.703 93.7734 155.703 94.3047C155.703 94.8359 155.523 95.2812 155.164 95.6406C154.82 96 154.352 96.1797 153.758 96.1797C153.164 96.1797 152.695 96 152.352 95.6406C152.008 95.2812 151.836 94.8359 151.836 94.3047ZM161.656 114.086C161.656 110.117 162.531 106.977 164.281 104.664C166.047 102.336 168.438 101.172 171.453 101.172C174.906 101.172 177.531 102.547 179.328 105.297L179.469 101.641H182.094V126.484C182.094 129.75 181.18 132.336 179.352 134.242C177.523 136.148 175.047 137.102 171.922 137.102C170.156 137.102 168.469 136.703 166.859 135.906C165.266 135.125 164.008 134.078 163.086 132.766L164.656 131.078C166.641 133.516 169 134.734 171.734 134.734C174.078 134.734 175.906 134.039 177.219 132.648C178.531 131.273 179.211 129.359 179.258 126.906V123.719C177.461 126.219 174.844 127.469 171.406 127.469C168.469 127.469 166.109 126.297 164.328 123.953C162.547 121.609 161.656 118.445 161.656 114.461V114.086ZM164.492 114.578C164.492 117.812 165.141 120.367 166.438 122.242C167.734 124.102 169.562 125.031 171.922 125.031C175.375 125.031 177.82 123.484 179.258 120.391V108.602C178.602 106.977 177.656 105.742 176.422 104.898C175.188 104.039 173.703 103.609 171.969 103.609C169.609 103.609 167.773 104.539 166.461 106.398C165.148 108.242 164.492 110.969 164.492 114.578ZM192.195 105.93C193.117 104.414 194.297 103.242 195.734 102.414C197.172 101.586 198.742 101.172 200.445 101.172C203.164 101.172 205.188 101.938 206.516 103.469C207.844 105 208.516 107.297 208.531 110.359V127H205.742V110.336C205.727 108.07 205.242 106.383 204.289 105.273C203.352 104.164 201.844 103.609 199.766 103.609C198.031 103.609 196.492 104.156 195.148 105.25C193.82 106.328 192.836 107.789 192.195 109.633V127H189.406V91H192.195V105.93ZM220.109 95.1484V101.641H225.359V103.938H220.109V120.836C220.109 122.242 220.359 123.289 220.859 123.977C221.375 124.664 222.227 125.008 223.414 125.008C223.883 125.008 224.641 124.93 225.688 124.773L225.805 127.07C225.07 127.336 224.07 127.469 222.805 127.469C220.883 127.469 219.484 126.914 218.609 125.805C217.734 124.68 217.297 123.031 217.297 120.859V103.938H212.633V101.641H217.297V95.1484H220.109ZM258.852 127C258.57 126.203 258.391 125.023 258.312 123.461C257.328 124.742 256.07 125.734 254.539 126.438C253.023 127.125 251.414 127.469 249.711 127.469C247.273 127.469 245.297 126.789 243.781 125.43C242.281 124.07 241.531 122.352 241.531 120.273C241.531 117.805 242.555 115.852 244.602 114.414C246.664 112.977 249.531 112.258 253.203 112.258H258.289V109.375C258.289 107.562 257.727 106.141 256.602 105.109C255.492 104.062 253.867 103.539 251.727 103.539C249.773 103.539 248.156 104.039 246.875 105.039C245.594 106.039 244.953 107.242 244.953 108.648L242.141 108.625C242.141 106.609 243.078 104.867 244.953 103.398C246.828 101.914 249.133 101.172 251.867 101.172C254.695 101.172 256.922 101.883 258.547 103.305C260.188 104.711 261.031 106.68 261.078 109.211V121.211C261.078 123.664 261.336 125.5 261.852 126.719V127H258.852ZM250.039 124.984C251.914 124.984 253.586 124.531 255.055 123.625C256.539 122.719 257.617 121.508 258.289 119.992V114.414H253.273C250.477 114.445 248.289 114.961 246.711 115.961C245.133 116.945 244.344 118.305 244.344 120.039C244.344 121.461 244.867 122.641 245.914 123.578C246.977 124.516 248.352 124.984 250.039 124.984ZM288.969 114.578C288.969 118.531 288.094 121.672 286.344 124C284.594 126.312 282.25 127.469 279.312 127.469C275.844 127.469 273.188 126.25 271.344 123.812V136.75H268.555V101.641H271.156L271.297 105.227C273.125 102.523 275.773 101.172 279.242 101.172C282.273 101.172 284.648 102.32 286.367 104.617C288.102 106.914 288.969 110.102 288.969 114.18V114.578ZM286.156 114.086C286.156 110.852 285.492 108.297 284.164 106.422C282.836 104.547 280.984 103.609 278.609 103.609C276.891 103.609 275.414 104.023 274.18 104.852C272.945 105.68 272 106.883 271.344 108.461V120.625C272.016 122.078 272.977 123.188 274.227 123.953C275.477 124.719 276.953 125.102 278.656 125.102C281.016 125.102 282.852 124.164 284.164 122.289C285.492 120.398 286.156 117.664 286.156 114.086ZM315.594 114.578C315.594 118.531 314.719 121.672 312.969 124C311.219 126.312 308.875 127.469 305.938 127.469C302.469 127.469 299.812 126.25 297.969 123.812V136.75H295.18V101.641H297.781L297.922 105.227C299.75 102.523 302.398 101.172 305.867 101.172C308.898 101.172 311.273 102.32 312.992 104.617C314.727 106.914 315.594 110.102 315.594 114.18V114.578ZM312.781 114.086C312.781 110.852 312.117 108.297 310.789 106.422C309.461 104.547 307.609 103.609 305.234 103.609C303.516 103.609 302.039 104.023 300.805 104.852C299.57 105.68 298.625 106.883 297.969 108.461V120.625C298.641 122.078 299.602 123.188 300.852 123.953C302.102 124.719 303.578 125.102 305.281 125.102C307.641 125.102 309.477 124.164 310.789 122.289C312.117 120.398 312.781 117.664 312.781 114.086ZM337.859 95.1484V101.641H343.109V103.938H337.859V120.836C337.859 122.242 338.109 123.289 338.609 123.977C339.125 124.664 339.977 125.008 341.164 125.008C341.633 125.008 342.391 124.93 343.438 124.773L343.555 127.07C342.82 127.336 341.82 127.469 340.555 127.469C338.633 127.469 337.234 126.914 336.359 125.805C335.484 124.68 335.047 123.031 335.047 120.859V103.938H330.383V101.641H335.047V95.1484H337.859ZM351.711 105.93C352.633 104.414 353.812 103.242 355.25 102.414C356.688 101.586 358.258 101.172 359.961 101.172C362.68 101.172 364.703 101.938 366.031 103.469C367.359 105 368.031 107.297 368.047 110.359V127H365.258V110.336C365.242 108.07 364.758 106.383 363.805 105.273C362.867 104.164 361.359 103.609 359.281 103.609C357.547 103.609 356.008 104.156 354.664 105.25C353.336 106.328 352.352 107.789 351.711 109.633V127H348.922V91H351.711V105.93ZM391.273 127C390.992 126.203 390.812 125.023 390.734 123.461C389.75 124.742 388.492 125.734 386.961 126.438C385.445 127.125 383.836 127.469 382.133 127.469C379.695 127.469 377.719 126.789 376.203 125.43C374.703 124.07 373.953 122.352 373.953 120.273C373.953 117.805 374.977 115.852 377.023 114.414C379.086 112.977 381.953 112.258 385.625 112.258H390.711V109.375C390.711 107.562 390.148 106.141 389.023 105.109C387.914 104.062 386.289 103.539 384.148 103.539C382.195 103.539 380.578 104.039 379.297 105.039C378.016 106.039 377.375 107.242 377.375 108.648L374.562 108.625C374.562 106.609 375.5 104.867 377.375 103.398C379.25 101.914 381.555 101.172 384.289 101.172C387.117 101.172 389.344 101.883 390.969 103.305C392.609 104.711 393.453 106.68 393.5 109.211V121.211C393.5 123.664 393.758 125.5 394.273 126.719V127H391.273ZM382.461 124.984C384.336 124.984 386.008 124.531 387.477 123.625C388.961 122.719 390.039 121.508 390.711 119.992V114.414H385.695C382.898 114.445 380.711 114.961 379.133 115.961C377.555 116.945 376.766 118.305 376.766 120.039C376.766 121.461 377.289 122.641 378.336 123.578C379.398 124.516 380.773 124.984 382.461 124.984ZM405.359 95.1484V101.641H410.609V103.938H405.359V120.836C405.359 122.242 405.609 123.289 406.109 123.977C406.625 124.664 407.477 125.008 408.664 125.008C409.133 125.008 409.891 124.93 410.938 124.773L411.055 127.07C410.32 127.336 409.32 127.469 408.055 127.469C406.133 127.469 404.734 126.914 403.859 125.805C402.984 124.68 402.547 123.031 402.547 120.859V103.938H397.883V101.641H402.547V95.1484H405.359ZM443.281 120.555C443.281 119.164 442.719 118.047 441.594 117.203C440.484 116.359 438.805 115.703 436.555 115.234C434.305 114.75 432.555 114.203 431.305 113.594C430.07 112.969 429.148 112.211 428.539 111.32C427.945 110.43 427.648 109.352 427.648 108.086C427.648 106.086 428.484 104.438 430.156 103.141C431.828 101.828 433.969 101.172 436.578 101.172C439.406 101.172 441.672 101.875 443.375 103.281C445.094 104.672 445.953 106.492 445.953 108.742H443.141C443.141 107.258 442.516 106.023 441.266 105.039C440.031 104.055 438.469 103.562 436.578 103.562C434.734 103.562 433.25 103.977 432.125 104.805C431.016 105.617 430.461 106.68 430.461 107.992C430.461 109.258 430.922 110.242 431.844 110.945C432.781 111.633 434.477 112.266 436.93 112.844C439.398 113.422 441.242 114.039 442.461 114.695C443.695 115.352 444.609 116.141 445.203 117.062C445.797 117.984 446.094 119.102 446.094 120.414C446.094 122.555 445.227 124.266 443.492 125.547C441.773 126.828 439.523 127.469 436.742 127.469C433.789 127.469 431.391 126.758 429.547 125.336C427.719 123.898 426.805 122.086 426.805 119.898H429.617C429.727 121.539 430.414 122.82 431.68 123.742C432.961 124.648 434.648 125.102 436.742 125.102C438.695 125.102 440.273 124.672 441.477 123.812C442.68 122.953 443.281 121.867 443.281 120.555ZM455.211 105.93C456.133 104.414 457.312 103.242 458.75 102.414C460.188 101.586 461.758 101.172 463.461 101.172C466.18 101.172 468.203 101.938 469.531 103.469C470.859 105 471.531 107.297 471.547 110.359V127H468.758V110.336C468.742 108.07 468.258 106.383 467.305 105.273C466.367 104.164 464.859 103.609 462.781 103.609C461.047 103.609 459.508 104.156 458.164 105.25C456.836 106.328 455.852 107.789 455.211 109.633V127H452.422V91H455.211V105.93ZM494.773 127C494.492 126.203 494.312 125.023 494.234 123.461C493.25 124.742 491.992 125.734 490.461 126.438C488.945 127.125 487.336 127.469 485.633 127.469C483.195 127.469 481.219 126.789 479.703 125.43C478.203 124.07 477.453 122.352 477.453 120.273C477.453 117.805 478.477 115.852 480.523 114.414C482.586 112.977 485.453 112.258 489.125 112.258H494.211V109.375C494.211 107.562 493.648 106.141 492.523 105.109C491.414 104.062 489.789 103.539 487.648 103.539C485.695 103.539 484.078 104.039 482.797 105.039C481.516 106.039 480.875 107.242 480.875 108.648L478.062 108.625C478.062 106.609 479 104.867 480.875 103.398C482.75 101.914 485.055 101.172 487.789 101.172C490.617 101.172 492.844 101.883 494.469 103.305C496.109 104.711 496.953 106.68 497 109.211V121.211C497 123.664 497.258 125.5 497.773 126.719V127H494.773ZM485.961 124.984C487.836 124.984 489.508 124.531 490.977 123.625C492.461 122.719 493.539 121.508 494.211 119.992V114.414H489.195C486.398 114.445 484.211 114.961 482.633 115.961C481.055 116.945 480.266 118.305 480.266 120.039C480.266 121.461 480.789 122.641 481.836 123.578C482.898 124.516 484.273 124.984 485.961 124.984ZM516.219 104.031C515.625 103.922 514.992 103.867 514.32 103.867C512.57 103.867 511.086 104.359 509.867 105.344C508.664 106.312 507.805 107.727 507.289 109.586V127H504.5V101.641H507.242L507.289 105.672C508.773 102.672 511.156 101.172 514.438 101.172C515.219 101.172 515.836 101.273 516.289 101.477L516.219 104.031ZM530.023 127.469C527.867 127.469 525.914 126.938 524.164 125.875C522.43 124.812 521.078 123.336 520.109 121.445C519.141 119.539 518.656 117.406 518.656 115.047V114.039C518.656 111.602 519.125 109.406 520.062 107.453C521.016 105.5 522.336 103.969 524.023 102.859C525.711 101.734 527.539 101.172 529.508 101.172C532.586 101.172 535.023 102.227 536.82 104.336C538.633 106.43 539.539 109.297 539.539 112.938V114.508H521.445V115.047C521.445 117.922 522.266 120.32 523.906 122.242C525.562 124.148 527.641 125.102 530.141 125.102C531.641 125.102 532.961 124.828 534.102 124.281C535.258 123.734 536.305 122.859 537.242 121.656L539 122.992C536.938 125.977 533.945 127.469 530.023 127.469ZM529.508 103.562C527.398 103.562 525.617 104.336 524.164 105.883C522.727 107.43 521.852 109.508 521.539 112.117H536.75V111.812C536.672 109.375 535.977 107.391 534.664 105.859C533.352 104.328 531.633 103.562 529.508 103.562ZM560.188 120.555C560.188 119.164 559.625 118.047 558.5 117.203C557.391 116.359 555.711 115.703 553.461 115.234C551.211 114.75 549.461 114.203 548.211 113.594C546.977 112.969 546.055 112.211 545.445 111.32C544.852 110.43 544.555 109.352 544.555 108.086C544.555 106.086 545.391 104.438 547.062 103.141C548.734 101.828 550.875 101.172 553.484 101.172C556.312 101.172 558.578 101.875 560.281 103.281C562 104.672 562.859 106.492 562.859 108.742H560.047C560.047 107.258 559.422 106.023 558.172 105.039C556.938 104.055 555.375 103.562 553.484 103.562C551.641 103.562 550.156 103.977 549.031 104.805C547.922 105.617 547.367 106.68 547.367 107.992C547.367 109.258 547.828 110.242 548.75 110.945C549.688 111.633 551.383 112.266 553.836 112.844C556.305 113.422 558.148 114.039 559.367 114.695C560.602 115.352 561.516 116.141 562.109 117.062C562.703 117.984 563 119.102 563 120.414C563 122.555 562.133 124.266 560.398 125.547C558.68 126.828 556.43 127.469 553.648 127.469C550.695 127.469 548.297 126.758 546.453 125.336C544.625 123.898 543.711 122.086 543.711 119.898H546.523C546.633 121.539 547.32 122.82 548.586 123.742C549.867 124.648 551.555 125.102 553.648 125.102C555.602 125.102 557.18 124.672 558.383 123.812C559.586 122.953 560.188 121.867 560.188 120.555ZM584.141 127H581.328V91H584.141V127ZM590.234 113.945C590.234 111.508 590.703 109.312 591.641 107.359C592.594 105.406 593.93 103.891 595.648 102.812C597.383 101.719 599.344 101.172 601.531 101.172C604.906 101.172 607.641 102.359 609.734 104.734C611.828 107.094 612.875 110.227 612.875 114.133V114.719C612.875 117.172 612.398 119.383 611.445 121.352C610.508 123.305 609.18 124.812 607.461 125.875C605.742 126.938 603.781 127.469 601.578 127.469C598.219 127.469 595.484 126.289 593.375 123.93C591.281 121.555 590.234 118.414 590.234 114.508V113.945ZM593.047 114.719C593.047 117.75 593.828 120.242 595.391 122.195C596.969 124.133 599.031 125.102 601.578 125.102C604.109 125.102 606.156 124.133 607.719 122.195C609.297 120.242 610.086 117.672 610.086 114.484V113.945C610.086 112.008 609.727 110.234 609.008 108.625C608.289 107.016 607.281 105.773 605.984 104.898C604.688 104.008 603.203 103.562 601.531 103.562C599.031 103.562 596.992 104.547 595.414 106.516C593.836 108.469 593.047 111.031 593.047 114.203V114.719ZM628.062 125.102C630.016 125.102 631.648 124.555 632.961 123.461C634.289 122.352 635.008 120.922 635.117 119.172H637.812C637.734 120.719 637.25 122.133 636.359 123.414C635.469 124.68 634.281 125.672 632.797 126.391C631.328 127.109 629.75 127.469 628.062 127.469C624.734 127.469 622.094 126.312 620.141 124C618.203 121.688 617.234 118.578 617.234 114.672V113.828C617.234 111.328 617.672 109.117 618.547 107.195C619.422 105.273 620.672 103.789 622.297 102.742C623.938 101.695 625.852 101.172 628.039 101.172C630.82 101.172 633.109 102 634.906 103.656C636.719 105.312 637.688 107.492 637.812 110.195H635.117C634.992 108.211 634.273 106.609 632.961 105.391C631.664 104.172 630.023 103.562 628.039 103.562C625.508 103.562 623.539 104.477 622.133 106.305C620.742 108.133 620.047 110.695 620.047 113.992V114.812C620.047 118.047 620.742 120.57 622.133 122.383C623.539 124.195 625.516 125.102 628.062 125.102ZM659.445 127C659.164 126.203 658.984 125.023 658.906 123.461C657.922 124.742 656.664 125.734 655.133 126.438C653.617 127.125 652.008 127.469 650.305 127.469C647.867 127.469 645.891 126.789 644.375 125.43C642.875 124.07 642.125 122.352 642.125 120.273C642.125 117.805 643.148 115.852 645.195 114.414C647.258 112.977 650.125 112.258 653.797 112.258H658.883V109.375C658.883 107.562 658.32 106.141 657.195 105.109C656.086 104.062 654.461 103.539 652.32 103.539C650.367 103.539 648.75 104.039 647.469 105.039C646.188 106.039 645.547 107.242 645.547 108.648L642.734 108.625C642.734 106.609 643.672 104.867 645.547 103.398C647.422 101.914 649.727 101.172 652.461 101.172C655.289 101.172 657.516 101.883 659.141 103.305C660.781 104.711 661.625 106.68 661.672 109.211V121.211C661.672 123.664 661.93 125.5 662.445 126.719V127H659.445ZM650.633 124.984C652.508 124.984 654.18 124.531 655.648 123.625C657.133 122.719 658.211 121.508 658.883 119.992V114.414H653.867C651.07 114.445 648.883 114.961 647.305 115.961C645.727 116.945 644.938 118.305 644.938 120.039C644.938 121.461 645.461 122.641 646.508 123.578C647.57 124.516 648.945 124.984 650.633 124.984ZM673.531 95.1484V101.641H678.781V103.938H673.531V120.836C673.531 122.242 673.781 123.289 674.281 123.977C674.797 124.664 675.648 125.008 676.836 125.008C677.305 125.008 678.062 124.93 679.109 124.773L679.227 127.07C678.492 127.336 677.492 127.469 676.227 127.469C674.305 127.469 672.906 126.914 672.031 125.805C671.156 124.68 670.719 123.031 670.719 120.859V103.938H666.055V101.641H670.719V95.1484H673.531ZM687.734 127H684.922V101.641H687.734V127ZM684.43 94.3047C684.43 93.7734 684.602 93.3281 684.945 92.9688C685.289 92.5938 685.758 92.4062 686.352 92.4062C686.945 92.4062 687.414 92.5938 687.758 92.9688C688.117 93.3281 688.297 93.7734 688.297 94.3047C688.297 94.8359 688.117 95.2812 687.758 95.6406C687.414 96 686.945 96.1797 686.352 96.1797C685.758 96.1797 685.289 96 684.945 95.6406C684.602 95.2812 684.43 94.8359 684.43 94.3047ZM693.828 113.945C693.828 111.508 694.297 109.312 695.234 107.359C696.188 105.406 697.523 103.891 699.242 102.812C700.977 101.719 702.938 101.172 705.125 101.172C708.5 101.172 711.234 102.359 713.328 104.734C715.422 107.094 716.469 110.227 716.469 114.133V114.719C716.469 117.172 715.992 119.383 715.039 121.352C714.102 123.305 712.773 124.812 711.055 125.875C709.336 126.938 707.375 127.469 705.172 127.469C701.812 127.469 699.078 126.289 696.969 123.93C694.875 121.555 693.828 118.414 693.828 114.508V113.945ZM696.641 114.719C696.641 117.75 697.422 120.242 698.984 122.195C700.562 124.133 702.625 125.102 705.172 125.102C707.703 125.102 709.75 124.133 711.312 122.195C712.891 120.242 713.68 117.672 713.68 114.484V113.945C713.68 112.008 713.32 110.234 712.602 108.625C711.883 107.016 710.875 105.773 709.578 104.898C708.281 104.008 706.797 103.562 705.125 103.562C702.625 103.562 700.586 104.547 699.008 106.516C697.43 108.469 696.641 111.031 696.641 114.203V114.719ZM724.953 101.641L725.047 105.977C726 104.414 727.188 103.227 728.609 102.414C730.031 101.586 731.602 101.172 733.32 101.172C736.039 101.172 738.062 101.938 739.391 103.469C740.719 105 741.391 107.297 741.406 110.359V127H738.617V110.336C738.602 108.07 738.117 106.383 737.164 105.273C736.227 104.164 734.719 103.609 732.641 103.609C730.906 103.609 729.367 104.156 728.023 105.25C726.695 106.328 725.711 107.789 725.07 109.633V127H722.281V101.641H724.953ZM766.414 121.164L766.836 123.344L767.398 121.047L773.492 101.641H775.883L781.906 120.883L782.562 123.555L783.102 121.094L788.305 101.641H791.211L783.828 127H781.438L774.922 106.891L774.617 105.508L774.312 106.914L767.914 127H765.523L758.164 101.641H761.047L766.414 121.164ZM799.672 127H796.859V101.641H799.672V127ZM796.367 94.3047C796.367 93.7734 796.539 93.3281 796.883 92.9688C797.227 92.5938 797.695 92.4062 798.289 92.4062C798.883 92.4062 799.352 92.5938 799.695 92.9688C800.055 93.3281 800.234 93.7734 800.234 94.3047C800.234 94.8359 800.055 95.2812 799.695 95.6406C799.352 96 798.883 96.1797 798.289 96.1797C797.695 96.1797 797.227 96 796.883 95.6406C796.539 95.2812 796.367 94.8359 796.367 94.3047ZM811.672 95.1484V101.641H816.922V103.938H811.672V120.836C811.672 122.242 811.922 123.289 812.422 123.977C812.938 124.664 813.789 125.008 814.977 125.008C815.445 125.008 816.203 124.93 817.25 124.773L817.367 127.07C816.633 127.336 815.633 127.469 814.367 127.469C812.445 127.469 811.047 126.914 810.172 125.805C809.297 124.68 808.859 123.031 808.859 120.859V103.938H804.195V101.641H808.859V95.1484H811.672ZM825.523 105.93C826.445 104.414 827.625 103.242 829.062 102.414C830.5 101.586 832.07 101.172 833.773 101.172C836.492 101.172 838.516 101.938 839.844 103.469C841.172 105 841.844 107.297 841.859 110.359V127H839.07V110.336C839.055 108.07 838.57 106.383 837.617 105.273C836.68 104.164 835.172 103.609 833.094 103.609C831.359 103.609 829.82 104.156 828.477 105.25C827.148 106.328 826.164 107.789 825.523 109.633V127H822.734V91H825.523V105.93ZM54.6641 183C54.3828 182.203 54.2031 181.023 54.125 179.461C53.1406 180.742 51.8828 181.734 50.3516 182.438C48.8359 183.125 47.2266 183.469 45.5234 183.469C43.0859 183.469 41.1094 182.789 39.5938 181.43C38.0938 180.07 37.3438 178.352 37.3438 176.273C37.3438 173.805 38.3672 171.852 40.4141 170.414C42.4766 168.977 45.3438 168.258 49.0156 168.258H54.1016V165.375C54.1016 163.562 53.5391 162.141 52.4141 161.109C51.3047 160.062 49.6797 159.539 47.5391 159.539C45.5859 159.539 43.9688 160.039 42.6875 161.039C41.4062 162.039 40.7656 163.242 40.7656 164.648L37.9531 164.625C37.9531 162.609 38.8906 160.867 40.7656 159.398C42.6406 157.914 44.9453 157.172 47.6797 157.172C50.5078 157.172 52.7344 157.883 54.3594 159.305C56 160.711 56.8438 162.68 56.8906 165.211V177.211C56.8906 179.664 57.1484 181.5 57.6641 182.719V183H54.6641ZM45.8516 180.984C47.7266 180.984 49.3984 180.531 50.8672 179.625C52.3516 178.719 53.4297 177.508 54.1016 175.992V170.414H49.0859C46.2891 170.445 44.1016 170.961 42.5234 171.961C40.9453 172.945 40.1562 174.305 40.1562 176.039C40.1562 177.461 40.6797 178.641 41.7266 179.578C42.7891 180.516 44.1641 180.984 45.8516 180.984ZM63.2656 170.086C63.2656 166.148 64.1406 163.016 65.8906 160.688C67.6562 158.344 70.0469 157.172 73.0625 157.172C76.4844 157.172 79.0938 158.523 80.8906 161.227V147H83.6797V183H81.0547L80.9375 179.625C79.1406 182.188 76.5 183.469 73.0156 183.469C70.0938 183.469 67.7344 182.297 65.9375 179.953C64.1562 177.594 63.2656 174.414 63.2656 170.414V170.086ZM66.1016 170.578C66.1016 173.812 66.75 176.367 68.0469 178.242C69.3438 180.102 71.1719 181.031 73.5312 181.031C76.9844 181.031 79.4375 179.508 80.8906 176.461V164.555C79.4375 161.258 77 159.609 73.5781 159.609C71.2188 159.609 69.3828 160.539 68.0703 162.398C66.7578 164.242 66.1016 166.969 66.1016 170.578ZM98.9609 179.133L106.672 157.641H109.555L100.086 183H97.8125L88.2969 157.641H91.1797L98.9609 179.133ZM123.664 183.469C121.508 183.469 119.555 182.938 117.805 181.875C116.07 180.812 114.719 179.336 113.75 177.445C112.781 175.539 112.297 173.406 112.297 171.047V170.039C112.297 167.602 112.766 165.406 113.703 163.453C114.656 161.5 115.977 159.969 117.664 158.859C119.352 157.734 121.18 157.172 123.148 157.172C126.227 157.172 128.664 158.227 130.461 160.336C132.273 162.43 133.18 165.297 133.18 168.938V170.508H115.086V171.047C115.086 173.922 115.906 176.32 117.547 178.242C119.203 180.148 121.281 181.102 123.781 181.102C125.281 181.102 126.602 180.828 127.742 180.281C128.898 179.734 129.945 178.859 130.883 177.656L132.641 178.992C130.578 181.977 127.586 183.469 123.664 183.469ZM123.148 159.562C121.039 159.562 119.258 160.336 117.805 161.883C116.367 163.43 115.492 165.508 115.18 168.117H130.391V167.812C130.312 165.375 129.617 163.391 128.305 161.859C126.992 160.328 125.273 159.562 123.148 159.562ZM150.359 160.031C149.766 159.922 149.133 159.867 148.461 159.867C146.711 159.867 145.227 160.359 144.008 161.344C142.805 162.312 141.945 163.727 141.43 165.586V183H138.641V157.641H141.383L141.43 161.672C142.914 158.672 145.297 157.172 148.578 157.172C149.359 157.172 149.977 157.273 150.43 157.477L150.359 160.031ZM160.344 151.148V157.641H165.594V159.938H160.344V176.836C160.344 178.242 160.594 179.289 161.094 179.977C161.609 180.664 162.461 181.008 163.648 181.008C164.117 181.008 164.875 180.93 165.922 180.773L166.039 183.07C165.305 183.336 164.305 183.469 163.039 183.469C161.117 183.469 159.719 182.914 158.844 181.805C157.969 180.68 157.531 179.031 157.531 176.859V159.938H152.867V157.641H157.531V151.148H160.344ZM174.547 183H171.734V157.641H174.547V183ZM171.242 150.305C171.242 149.773 171.414 149.328 171.758 148.969C172.102 148.594 172.57 148.406 173.164 148.406C173.758 148.406 174.227 148.594 174.57 148.969C174.93 149.328 175.109 149.773 175.109 150.305C175.109 150.836 174.93 151.281 174.57 151.641C174.227 152 173.758 152.18 173.164 152.18C172.57 152.18 172.102 152 171.758 151.641C171.414 151.281 171.242 150.836 171.242 150.305ZM197.375 176.555C197.375 175.164 196.812 174.047 195.688 173.203C194.578 172.359 192.898 171.703 190.648 171.234C188.398 170.75 186.648 170.203 185.398 169.594C184.164 168.969 183.242 168.211 182.633 167.32C182.039 166.43 181.742 165.352 181.742 164.086C181.742 162.086 182.578 160.438 184.25 159.141C185.922 157.828 188.062 157.172 190.672 157.172C193.5 157.172 195.766 157.875 197.469 159.281C199.188 160.672 200.047 162.492 200.047 164.742H197.234C197.234 163.258 196.609 162.023 195.359 161.039C194.125 160.055 192.562 159.562 190.672 159.562C188.828 159.562 187.344 159.977 186.219 160.805C185.109 161.617 184.555 162.68 184.555 163.992C184.555 165.258 185.016 166.242 185.938 166.945C186.875 167.633 188.57 168.266 191.023 168.844C193.492 169.422 195.336 170.039 196.555 170.695C197.789 171.352 198.703 172.141 199.297 173.062C199.891 173.984 200.188 175.102 200.188 176.414C200.188 178.555 199.32 180.266 197.586 181.547C195.867 182.828 193.617 183.469 190.836 183.469C187.883 183.469 185.484 182.758 183.641 181.336C181.812 179.898 180.898 178.086 180.898 175.898H183.711C183.82 177.539 184.508 178.82 185.773 179.742C187.055 180.648 188.742 181.102 190.836 181.102C192.789 181.102 194.367 180.672 195.57 179.812C196.773 178.953 197.375 177.867 197.375 176.555ZM216.336 183.469C214.18 183.469 212.227 182.938 210.477 181.875C208.742 180.812 207.391 179.336 206.422 177.445C205.453 175.539 204.969 173.406 204.969 171.047V170.039C204.969 167.602 205.438 165.406 206.375 163.453C207.328 161.5 208.648 159.969 210.336 158.859C212.023 157.734 213.852 157.172 215.82 157.172C218.898 157.172 221.336 158.227 223.133 160.336C224.945 162.43 225.852 165.297 225.852 168.938V170.508H207.758V171.047C207.758 173.922 208.578 176.32 210.219 178.242C211.875 180.148 213.953 181.102 216.453 181.102C217.953 181.102 219.273 180.828 220.414 180.281C221.57 179.734 222.617 178.859 223.555 177.656L225.312 178.992C223.25 181.977 220.258 183.469 216.336 183.469ZM215.82 159.562C213.711 159.562 211.93 160.336 210.477 161.883C209.039 163.43 208.164 165.508 207.852 168.117H223.062V167.812C222.984 165.375 222.289 163.391 220.977 161.859C219.664 160.328 217.945 159.562 215.82 159.562ZM243.031 160.031C242.438 159.922 241.805 159.867 241.133 159.867C239.383 159.867 237.898 160.359 236.68 161.344C235.477 162.312 234.617 163.727 234.102 165.586V183H231.312V157.641H234.055L234.102 161.672C235.586 158.672 237.969 157.172 241.25 157.172C242.031 157.172 242.648 157.273 243.102 157.477L243.031 160.031ZM262.672 176.555C262.672 175.164 262.109 174.047 260.984 173.203C259.875 172.359 258.195 171.703 255.945 171.234C253.695 170.75 251.945 170.203 250.695 169.594C249.461 168.969 248.539 168.211 247.93 167.32C247.336 166.43 247.039 165.352 247.039 164.086C247.039 162.086 247.875 160.438 249.547 159.141C251.219 157.828 253.359 157.172 255.969 157.172C258.797 157.172 261.062 157.875 262.766 159.281C264.484 160.672 265.344 162.492 265.344 164.742H262.531C262.531 163.258 261.906 162.023 260.656 161.039C259.422 160.055 257.859 159.562 255.969 159.562C254.125 159.562 252.641 159.977 251.516 160.805C250.406 161.617 249.852 162.68 249.852 163.992C249.852 165.258 250.312 166.242 251.234 166.945C252.172 167.633 253.867 168.266 256.32 168.844C258.789 169.422 260.633 170.039 261.852 170.695C263.086 171.352 264 172.141 264.594 173.062C265.188 173.984 265.484 175.102 265.484 176.414C265.484 178.555 264.617 180.266 262.883 181.547C261.164 182.828 258.914 183.469 256.133 183.469C253.18 183.469 250.781 182.758 248.938 181.336C247.109 179.898 246.195 178.086 246.195 175.898H249.008C249.117 177.539 249.805 178.82 251.07 179.742C252.352 180.648 254.039 181.102 256.133 181.102C258.086 181.102 259.664 180.672 260.867 179.812C262.07 178.953 262.672 177.867 262.672 176.555ZM271.414 157.242L269.75 156.023C271.156 154.133 271.883 152.148 271.93 150.07V147H274.695V149.367C274.695 152.633 273.602 155.258 271.414 157.242ZM277.133 157.242L275.469 156.023C276.875 154.133 277.602 152.148 277.648 150.07V147H280.414V149.367C280.414 152.633 279.32 155.258 277.133 157.242Z" fill="white"/>
</svg>
